<?xml version="1.0" standalone="no"?>
<!--
  ~  Copyright 2014-2018 University of Namur (PReCISE) - University of Louvain (Girsef - CENTAL).
  ~  This is part of the WebDeb software (WDWEB), a collaborative platform to record and analyze
  ~  argumentation-based debates. This is free software:  you can redistribute it and/or modify
  ~  it under the terms of the GNU Lesser General Public License version 3 as published by the
  ~  Free Software Foundation. It is distributed in the hope that it will be useful, but WITHOUT
  ~  ANY WARRANTY; without even the implied warranty of MERCHANTABILITY or FITNESS FOR A
  ~  PARTICULAR PURPOSE.
  ~
  ~  See <https://webdeb.be/> for a running instance of a webdeb web platform.
  ~  See the GNU Lesser General Public License (LGPL) for more details over the license terms.
  ~
  ~  You should have received a copy of the GNU Lesser General Public License along with this copy.
  ~  If not, see <http://www.gnu.org/licenses/>.
  ~
  -->

<!DOCTYPE svg PUBLIC "-//W3C//DTD SVG 1.1//EN" "http://www.w3.org/Graphics/SVG/1.1/DTD/svg11.dtd" >
<svg xmlns="http://www.w3.org/2000/svg">
<metadata></metadata>
<defs>
<font id="gandhi_serifregular" horiz-adv-x="550" >
<font-face units-per-em="1000" ascent="765" descent="-235" />
<missing-glyph horiz-adv-x="250" />
<glyph unicode=" "  horiz-adv-x="250" />
<glyph unicode="&#x09;" horiz-adv-x="250" />
<glyph unicode="&#xa0;" horiz-adv-x="250" />
<glyph unicode="!" horiz-adv-x="322" d="M100 47q0 25 18 43t43 18t43 -18t18 -43t-18 -43t-43 -18t-43 18t-18 43zM106 626q0 58 55 58t55 -58q0 -57 -41 -430h-28q-41 373 -41 430z" />
<glyph unicode="&#x22;" horiz-adv-x="380" d="M70 646h90l-31 -224h-28zM220 646h90l-31 -224h-28z" />
<glyph unicode="#" d="M32 187v51h112l23 135h-122v51h130l27 162h52l-27 -162h138l27 162h52l-27 -162h108v-51h-116l-23 -135h126v-51h-134l-27 -162h-52l27 162h-138l-27 -162h-52l27 162h-104zM196 238h138l23 135h-138z" />
<glyph unicode="$" d="M66 190h35q10 -41 20.5 -68t28 -52t44.5 -37.5t65 -13.5v269q-93 43 -137.5 87.5t-44.5 105.5q0 78 51.5 125.5t134.5 52.5v106h39v-106q67 -4 155 -30l-3 -145h-34q-21 127 -118 142v-243l19 -9q90 -42 130.5 -88t40.5 -108q0 -74 -53 -126t-141 -63v-103h-39v100h-5 q-81 0 -179 41zM159 523q0 -41 23.5 -67t80.5 -54v226q-45 -3 -74.5 -31.5t-29.5 -73.5zM298 21q49 9 80 40t31 78q0 42 -26.5 71.5t-84.5 58.5v-248z" />
<glyph unicode="%" horiz-adv-x="782" d="M40 498q0 75 43 118.5t117 43.5q68 0 109.5 -46.5t41.5 -109.5q0 -72 -43 -116.5t-116 -44.5q-68 0 -110 46t-42 109zM111 500q0 -132 86 -132q83 0 83 135q0 132 -86 132q-83 0 -83 -135zM138 14l466 646l40 -28l-466 -646zM431 142q0 72 43 116.5t116 44.5 q68 0 110 -46t42 -109q0 -75 -43 -118.5t-117 -43.5q-68 0 -109.5 46.5t-41.5 109.5zM502 143q0 -132 86 -132q83 0 83 135q0 132 -86 132q-83 0 -83 -135z" />
<glyph unicode="&#x26;" horiz-adv-x="724" d="M40 164q0 66 45 122.5t121 86.5q-62 88 -62 146q0 60 45.5 100.5t117.5 40.5q64 0 109 -32.5t45 -90.5q0 -108 -137 -175l142 -193l95 143l-70 29v20h203v-20l-81 -30l-125 -173q47 -63 75 -87t66 -24h45v-22q-55 -19 -102 -19q-42 0 -75 19t-67 63q-76 -82 -184 -82 q-87 0 -146.5 48.5t-59.5 129.5zM129 184q0 -71 40.5 -112.5t102.5 -41.5q76 0 137 67l-185 252q-46 -25 -70.5 -69t-24.5 -96zM223 550q0 -52 53 -123l30 -41q34 24 55 63t21 83q0 42 -20.5 70t-58.5 28q-34 0 -57 -22t-23 -58z" />
<glyph unicode="'" horiz-adv-x="230" d="M70 646h90l-31 -224h-28z" />
<glyph unicode="(" horiz-adv-x="450" d="M70 317q1 171 90.5 298.5t218.5 170.5l11 -23q-108 -61 -167.5 -177.5t-59.5 -268.5q0 -153 59 -269t167 -177l-12 -23q-129 43 -218 170.5t-89 298.5z" />
<glyph unicode=")" horiz-adv-x="450" d="M60 -129q108 61 167.5 177.5t59.5 268.5q0 153 -59 269t-167 177l12 23q129 -43 218 -170.5t89 -298.5q-1 -171 -90.5 -298.5t-218.5 -170.5z" />
<glyph unicode="*" horiz-adv-x="429" d="M40 425l156 62l-156 62l33 59l132 -104l-24 166h67l-24 -166l132 104l33 -59l-156 -62l156 -62l-33 -59l-132 104l24 -166h-67l24 166l-132 -104z" />
<glyph unicode="+" d="M50 278v52h198v196h54v-196h198v-52h-198v-197h-54v197h-198z" />
<glyph unicode="," horiz-adv-x="250" d="M62 45q0 27 17.5 43.5t43.5 16.5q29 0 47 -19.5t18 -53.5q0 -52 -29.5 -103.5t-76.5 -80.5l-20 26q29 19 52.5 51t27.5 61h-14q-25 0 -45.5 15t-20.5 44z" />
<glyph unicode="-" horiz-adv-x="350" d="M35 223v56h280v-56h-280z" />
<glyph unicode="." horiz-adv-x="250" d="M64 47q0 25 18 43t43 18t43 -18t18 -43t-18 -43t-43 -18t-43 18t-18 43z" />
<glyph unicode="/" horiz-adv-x="536" d="M20 -235l438 1010h58l-438 -1010h-58z" />
<glyph unicode="0" d="M48 323q0 142 61.5 239.5t168.5 97.5q103 0 163.5 -98t60.5 -239q0 -92 -24 -167t-75.5 -122.5t-123.5 -47.5q-112 0 -171.5 96t-59.5 241zM147 323q0 -95 10 -157.5t29.5 -93t41.5 -41.5t53 -11q27 0 47.5 13.5t38 45.5t27 93.5t9.5 150.5q0 96 -10 159.5t-29 93t-38 40 t-46 10.5q-73 0 -103 -69t-30 -234z" />
<glyph unicode="1" d="M91 558v23l230 71h27v-601l152 -29v-22h-399v22l154 29v517z" />
<glyph unicode="2" d="M32 0v20q76 64 126 112t98.5 106.5t72 116t23.5 115.5q0 67 -30 113t-85 46q-51 0 -77.5 -37t-28.5 -102q-79 2 -79 49q0 52 58 86.5t142 34.5q94 0 148.5 -45t54.5 -121q0 -88 -73 -186.5t-237 -229.5h288l34 110h23l-9 -188h-449z" />
<glyph unicode="3" d="M42 98q0 28 20.5 46t52.5 19q1 -68 43.5 -106t105.5 -38q65 0 104 33t39 91q0 71 -66.5 115t-189.5 49v27q105 18 160.5 61.5t55.5 102.5q0 45 -32 73t-82 28q-84 0 -144 -67l-24 17q81 111 207 111q77 0 122.5 -37t45.5 -96q0 -61 -43.5 -104t-113.5 -65 q91 -16 137.5 -65t46.5 -111q0 -82 -59.5 -139t-165.5 -57q-92 0 -156 35t-64 77z" />
<glyph unicode="4" d="M32 196v19l327 437h43v-400h112v-56h-112v-147l105 -27v-22h-311v22l115 27v147h-279zM104 252h207v275z" />
<glyph unicode="5" d="M60 86q0 25 22 42.5t48 17.5q7 -56 38.5 -92t94.5 -36q64 0 108.5 35.5t44.5 103.5q0 155 -260 155h-62l32 331h281l20 56h23l-7 -142h-295l-13 -163h63q59 0 109.5 -10.5t92.5 -32.5t66 -61t24 -91q0 -100 -67.5 -156.5t-171.5 -56.5q-82 0 -136.5 28t-54.5 72z" />
<glyph unicode="6" d="M55 238q0 157 107.5 274.5t275.5 162.5l8 -31q-138 -52 -216 -152t-78 -247q0 -97 39 -161t101 -64q52 0 85.5 48t33.5 124q0 75 -36 126t-100 51q-28 0 -67 -13l-6 24q48 32 115 32q86 0 137 -52t51 -137q0 -104 -65.5 -170.5t-165.5 -66.5q-97 0 -158 65.5t-61 186.5z " />
<glyph unicode="7" d="M60 477l17 201h23l11 -35h412v-21q-159 -304 -306 -622h-106l342 555h-344l-24 -78h-25z" />
<glyph unicode="8" d="M49 146q0 55 35.5 101.5t100.5 74.5q-55 30 -85.5 68t-30.5 95q0 78 62 126.5t152 48.5q97 0 150 -42.5t53 -111.5q0 -50 -36.5 -92.5t-97.5 -66.5q72 -35 111.5 -75.5t39.5 -104.5q0 -77 -61.5 -129t-163.5 -52q-105 0 -167 45t-62 115zM138 152q0 -59 40 -95.5 t108 -36.5q54 0 93.5 28.5t39.5 84.5q0 23 -9.5 43.5t-22 34.5t-37.5 29.5t-42 23.5t-50 23t-48 22q-72 -62 -72 -157zM150 521q0 -24 11 -45.5t23.5 -35t42.5 -31t44.5 -25t53.5 -25.5q81 57 81 146q0 52 -33 86t-94 34q-54 0 -91.5 -26.5t-37.5 -77.5z" />
<glyph unicode="9" d="M46 423q0 104 65.5 170.5t165.5 66.5q97 0 158 -65.5t61 -186.5q0 -157 -107.5 -274.5t-275.5 -162.5l-8 31q138 52 216 152t78 247q0 97 -39 161t-101 64q-52 0 -85.5 -48t-33.5 -124q0 -75 36 -126t100 -51q28 0 67 13l6 -24q-48 -32 -115 -32q-86 0 -137 52t-51 137z " />
<glyph unicode=":" horiz-adv-x="250" d="M64 47q0 25 18 43t43 18t43 -18t18 -43t-18 -43t-43 -18t-43 18t-18 43zM64 357q0 25 18 43t43 18t43 -18t18 -43t-18 -43t-43 -18t-43 18t-18 43z" />
<glyph unicode=";" horiz-adv-x="250" d="M62 45q0 27 17.5 43.5t43.5 16.5q29 0 47 -19.5t18 -53.5q0 -52 -29.5 -103.5t-76.5 -80.5l-16 22q29 19 52 52.5t27 63.5h-17q-25 0 -45.5 15t-20.5 44zM64 357q0 25 18 43t43 18t43 -18t18 -43t-18 -43t-43 -18t-43 18t-18 43z" />
<glyph unicode="&#x3c;" d="M75 280v50l366 195l27 -49l-324 -171l324 -171l-27 -49z" />
<glyph unicode="=" d="M50 183v52h450v-52h-450zM50 373v52h450v-52h-450z" />
<glyph unicode="&#x3e;" d="M82 131l324 171l-324 171l27 49l366 -195v-50l-366 -195z" />
<glyph unicode="?" horiz-adv-x="412" d="M40 573q1 48 49 79.5t115 31.5q75 0 121.5 -40t46.5 -101q0 -36 -15 -68t-38 -53.5t-49.5 -42.5t-49.5 -37t-38 -35.5t-15 -38.5q0 -20 14 -32t36 -12q32 0 66 18l8 -27q-40 -25 -88 -25t-81 23.5t-33 66.5q0 36 21.5 67t52.5 53.5t61.5 45t52 53.5t21.5 67 q0 40 -25 65.5t-65 25.5q-44 0 -67.5 -33.5t-25.5 -89.5h-19q-56 0 -56 39zM135 47q0 25 18 43t43 18t43 -18t18 -43t-18 -43t-43 -18t-43 18t-18 43z" />
<glyph unicode="@" horiz-adv-x="948" d="M60 220q0 127 48.5 227.5t148.5 161.5t237 61q77 0 146 -23t125.5 -67.5t89.5 -119t33 -168.5q0 -134 -68.5 -219t-180.5 -85q-44 0 -68.5 19t-27.5 53q-24 -31 -62 -52.5t-81 -21.5q-50 0 -83 24.5t-33 70.5q0 65 66.5 106t192.5 56v118q0 99 -73 99q-43 0 -70 -30.5 t-28 -90.5h-19q-56 0 -56 39q0 47 60.5 78.5t138.5 31.5q129 0 129 -133v-253q0 -35 8.5 -49t30.5 -14q74 0 124 70t50 184q0 161 -99 247.5t-245 86.5q-173 0 -278.5 -112t-105.5 -295q0 -189 99.5 -295t292.5 -106q83 0 161.5 25t135.5 68l25 -34q-60 -45 -148 -73.5 t-175 -28.5q-116 0 -202.5 34.5t-137.5 96t-76 140t-25 173.5zM373 101q0 -32 16.5 -49.5t45.5 -17.5t58 19t50 49v113q-78 -12 -124 -42.5t-46 -71.5z" />
<glyph unicode="A" horiz-adv-x="742" d="M25 0v21l83 25l249 638h29l242 -640l84 -22v-22h-282v22l103 24l-74 194h-229l-73 -195l98 -24v-21h-230zM244 277h201l-100 266z" />
<glyph unicode="B" horiz-adv-x="621" d="M40 0v22l95 25v576l-95 25v22h287q41 0 76.5 -7.5t67.5 -24t50.5 -48t18.5 -75.5q0 -58 -42.5 -102t-117.5 -63q38 -2 71 -12t62 -28t46 -50t17 -74q0 -81 -64.5 -133.5t-178.5 -52.5h-293zM228 40q34 -8 75 -8q88 0 128.5 35t40.5 107q0 76 -45.5 116.5t-130.5 40.5h-68 v-291zM228 366h73q65 0 102 36.5t37 104.5q0 130 -126 130q-49 0 -86 -7v-264z" />
<glyph unicode="C" horiz-adv-x="683" d="M55 327q0 170 92 263.5t241 93.5q52 0 120.5 -14.5t106.5 -28.5l6 -153h-34q-47 163 -205 163q-104 0 -166 -85.5t-62 -228.5q0 -147 65.5 -232t186.5 -85q72 0 118.5 43t60.5 122h38l-13 -152q-112 -47 -209 -47q-158 0 -252 93.5t-94 247.5z" />
<glyph unicode="D" horiz-adv-x="757" d="M40 0v22l95 25v576l-95 25v22h304q172 0 265 -86t93 -232q0 -160 -98.5 -256t-271.5 -96h-292zM228 36h102q126 0 199.5 76t73.5 232q0 62 -14.5 112t-45 91t-84.5 64t-127 23h-104v-598z" />
<glyph unicode="E" horiz-adv-x="605" d="M40 0v22l95 25v576l-95 25v22h494v-173h-26l-48 136h-232v-264h141l35 99h22v-234h-22l-35 99h-141v-296h235l64 164h23l-9 -201h-501z" />
<glyph unicode="F" horiz-adv-x="574" d="M40 0v22l95 25v576l-95 25v22h494v-170h-26l-49 133h-231v-264h131l35 99h22v-234h-22l-35 99h-131v-286l105 -25v-22h-293z" />
<glyph unicode="G" horiz-adv-x="750" d="M55 327q0 170 92 263.5t241 93.5q52 0 120.5 -14.5t106.5 -28.5l6 -153h-34q-47 163 -205 163q-104 0 -166 -85.5t-62 -228.5q0 -147 65.5 -232t186.5 -85q76 0 126 35v196l-98 25v22h281v-22l-90 -25v-207q-114 -58 -224 -58q-158 0 -252 93.5t-94 247.5z" />
<glyph unicode="H" horiz-adv-x="821" d="M40 0v22l95 25v576l-95 25v22h286v-22l-98 -25v-254h365v254l-98 25v22h286v-22l-95 -25v-576l95 -25v-22h-286v22l98 25v285h-365v-285l98 -25v-22h-286z" />
<glyph unicode="I" horiz-adv-x="363" d="M40 0v22l95 25v576l-95 25v22h283v-22l-95 -25v-576l95 -25v-22h-283z" />
<glyph unicode="J" horiz-adv-x="365" d="M35 -69q64 36 85.5 76t21.5 131v485l-95 25v22h283v-22l-95 -25v-440q0 -110 -43 -177.5t-144 -100.5z" />
<glyph unicode="K" horiz-adv-x="722" d="M40 0v22l95 25v576l-95 25v22h283v-22l-95 -25v-576l95 -25v-22h-283zM252 343l265 280l-100 26v21h244v-21l-84 -29l-234 -239l259 -314q36 -45 90 -45v-22q-45 -14 -98 -14q-31 0 -52 12.5t-45 41.5z" />
<glyph unicode="L" horiz-adv-x="590" d="M40 0v22l95 25v576l-95 25v22h290v-22l-102 -25v-586h235l64 164h23l-9 -201h-501z" />
<glyph unicode="M" horiz-adv-x="893" d="M35 0v22l95 23v578l-95 25v22h202l208 -537l192 537h216v-22l-95 -25v-576l95 -25v-22h-283v22l95 25v563l-226 -619h-35l-229 587v-533l95 -23v-22h-235z" />
<glyph unicode="N" horiz-adv-x="771" d="M35 0v22l95 23v578l-95 25v22h199l362 -504v459l-100 23v22h240v-22l-95 -23v-634h-29l-437 600v-546l100 -23v-22h-240z" />
<glyph unicode="O" horiz-adv-x="762" d="M55 337q0 153 86 250t244 97q161 0 241.5 -96t80.5 -254q0 -153 -86 -250.5t-244 -97.5q-161 0 -241.5 96.5t-80.5 254.5zM154 337q0 -156 61.5 -236.5t175.5 -80.5q101 0 159 87.5t58 226.5q0 156 -61.5 236t-175.5 80q-101 0 -159 -87t-58 -226z" />
<glyph unicode="P" horiz-adv-x="590" d="M40 0v22l95 25v576l-95 25v22h268q50 0 91.5 -8.5t78 -28t57 -55t20.5 -84.5q0 -84 -67 -139.5t-175 -55.5h-31v28q89 7 132 51.5t43 119.5q0 68 -39.5 103t-111.5 35q-40 0 -78 -7v-582l105 -25v-22h-293z" />
<glyph unicode="Q" horiz-adv-x="762" d="M55 337q0 153 86 250t244 97q161 0 241.5 -96t80.5 -254q0 -130 -63 -221.5t-181 -117.5q30 -62 94.5 -123.5t111.5 -61.5h36v-23q-57 -21 -105 -21q-62 0 -129.5 67.5t-116.5 153.5q-150 7 -224.5 102.5t-74.5 247.5zM154 337q0 -156 61.5 -236.5t175.5 -80.5 q101 0 159 87.5t58 226.5q0 156 -61.5 236t-175.5 80q-101 0 -159 -87t-58 -226z" />
<glyph unicode="R" horiz-adv-x="676" d="M40 0v22l95 25v576l-95 25v22h270q249 0 249 -166q0 -148 -210 -180q17 -3 29.5 -6.5t32 -12.5t37 -26t31.5 -42l100 -172q15 -25 34 -34t53 -9v-22q-45 -14 -93 -14q-33 0 -54.5 12.5t-38.5 41.5l-126 219q-31 55 -90 55h-36v-267l98 -25v-22h-286zM228 349h74 q71 0 115 44t44 115q0 62 -40 95.5t-113 33.5q-36 0 -80 -8v-280z" />
<glyph unicode="S" horiz-adv-x="521" d="M50 197h35q21 -89 55 -133t109 -44q61 0 102.5 34t41.5 90q0 47 -34 82.5t-83 60t-98 50t-83 66.5t-34 96q0 86 58 135.5t149 49.5q79 0 173 -32l-3 -150h-34q-23 150 -145 150q-50 0 -83 -30t-33 -80q0 -46 34.5 -79.5t83.5 -56.5t97.5 -48.5t83 -69t34.5 -103.5 q0 -86 -66 -142.5t-172 -56.5q-83 0 -179 42z" />
<glyph unicode="T" horiz-adv-x="655" d="M40 497v173h575v-173h-26l-48 136h-167v-586l102 -25v-22h-297v22l102 25v586h-167l-48 -136h-26z" />
<glyph unicode="U" horiz-adv-x="754" d="M30 648v22h286v-22l-98 -25v-378q0 -102 53.5 -156.5t134.5 -54.5q79 0 130 58.5t51 168.5v364l-101 23v22h243v-22l-95 -23v-379q0 -124 -73.5 -192t-177.5 -68t-181 59t-77 171v407z" />
<glyph unicode="V" horiz-adv-x="742" d="M30 648v22h287v-22l-107 -25l187 -491l187 492l-102 25v21h235v-21l-85 -28l-247 -630h-29l-241 632z" />
<glyph unicode="W" horiz-adv-x="1102" d="M30 648v22h287v-22l-107 -25l175 -485l143 419l-23 66l-85 25v22h287v-22l-107 -25l165 -487l175 487l-99 26v21h236v-21l-85 -28l-237 -630h-29l-173 494l-178 -494h-29l-231 632z" />
<glyph unicode="X" horiz-adv-x="732" d="M30 0v21l83 25l211 281l-199 294l-82 27v22h284v-21l-98 -25l152 -229l155 228l-93 26v21h238v-22l-85 -27l-189 -265l214 -312l81 -22v-22h-284v22l94 22l-162 244l-171 -239l94 -27v-22h-243z" />
<glyph unicode="Y" horiz-adv-x="698" d="M20 648v22h287v-21l-106 -26l174 -292l168 292l-105 26v21h240v-21l-79 -26l-199 -330v-246l102 -25v-22h-297v22l102 25v234l-213 343z" />
<glyph unicode="Z" horiz-adv-x="620" d="M35 0v20l398 613h-296l-48 -136h-26v173h489v-20l-399 -614h329l65 165h23l-9 -201h-526z" />
<glyph unicode="[" horiz-adv-x="428" d="M100 -157v948h268v-28h-181v-892h181v-28h-268z" />
<glyph unicode="\" horiz-adv-x="536" d="M20 775h58l438 -1010h-58z" />
<glyph unicode="]" horiz-adv-x="428" d="M60 -129h181v892h-181v28h268v-948h-268v28z" />
<glyph unicode="^" d="M55 294l195 366h50l195 -366l-49 -27l-171 324l-171 -324z" />
<glyph unicode="_" d="M-5 -107h560v-52h-560v52z" />
<glyph unicode="`" horiz-adv-x="400" d="M113 710q0 26 71 32q23 -60 103 -171l-24 -13q-44 29 -97 80t-53 72z" />
<glyph unicode="a" horiz-adv-x="472" d="M35 81q0 65 66.5 106t192.5 56v118q0 99 -73 99q-43 0 -70 -30.5t-28 -90.5h-19q-56 0 -56 39q0 47 60.5 78.5t138.5 31.5q129 0 129 -133v-270q0 -34 11 -47.5t38 -13.5h25v-22q-38 -16 -91 -16q-30 0 -47.5 14.5t-17.5 41.5v18q-24 -31 -62 -52.5t-81 -21.5 q-50 0 -83 24.5t-33 70.5zM124 101q0 -32 16.5 -49.5t45.5 -17.5t58 19t50 49v113q-78 -12 -124 -42.5t-46 -71.5z" />
<glyph unicode="b" horiz-adv-x="561" d="M15 664v24l155 38v-313q71 75 158 75q80 0 131.5 -63t51.5 -164q0 -132 -70.5 -203.5t-169.5 -71.5q-67 0 -133 29l-28 -29h-22v669zM170 55q50 -41 108 -41q63 0 106.5 58t43.5 149q0 94 -38.5 150t-106.5 56q-60 0 -113 -53v-319z" />
<glyph unicode="c" horiz-adv-x="488" d="M50 202q0 71 24 134t80 107.5t134 44.5q65 0 109.5 -28.5t44.5 -69.5q0 -49 -78 -49q-2 55 -24 87t-63 32q-62 0 -102 -58.5t-40 -156.5t41.5 -151t115.5 -53q68 0 142 55l14 -23q-41 -38 -92 -62.5t-100 -24.5q-92 0 -149 58t-57 158z" />
<glyph unicode="d" horiz-adv-x="576" d="M50 211q0 132 70.5 204.5t169.5 72.5q45 0 101 -18v185l-76 9v24l158 38v-669l68 -9v-24l-150 -38v74q-70 -74 -158 -74q-80 0 -131.5 62.5t-51.5 162.5zM133 251q0 -94 38.5 -149t106.5 -55q60 0 113 53v319q-50 41 -108 41q-63 0 -106.5 -59t-43.5 -150z" />
<glyph unicode="e" horiz-adv-x="506" d="M50 217q0 121 62.5 196t163.5 75q84 0 132 -45t48 -128q0 -20 -2 -32h-318q-1 -10 -1 -31q0 -100 42.5 -156.5t115.5 -56.5q71 0 147 54l14 -23q-39 -38 -93 -61t-107 -23q-92 0 -148 61.5t-56 169.5zM139 313h222q2 22 2 30q0 55 -24 86t-70 31q-45 0 -81.5 -37.5 t-48.5 -109.5z" />
<glyph unicode="f" horiz-adv-x="349" d="M40 0v20l73 22v393h-73v39h73v39q0 94 66 153.5t146 59.5q34 0 34 -37q0 -15 -8.5 -30.5t-19.5 -22.5q-42 29 -87 29q-54 0 -54 -66q0 -37 5 -125h120v-39h-120v-393l89 -22v-20h-244z" />
<glyph unicode="g" horiz-adv-x="499" d="M20 -125q0 40 26.5 71.5t57.5 48.5q-57 15 -57 70q0 38 27.5 70t64.5 52q-42 18 -66 54.5t-24 87.5q0 75 50 117t126 42q69 0 118 -35q25 2 35 12.5t10 31.5q0 19 -5 46h15q66 0 66 -50q0 -56 -101 -58q39 -42 39 -106q0 -75 -50 -117t-127 -42q-34 0 -64 9 q-43 -27 -43 -70q0 -23 18 -32t57 -9h110q166 0 166 -130q0 -79 -77.5 -126t-188.5 -47q-79 0 -131 28t-52 82zM95 -95q0 -109 140 -109q69 0 123 34.5t54 81.5q0 34 -25.5 53.5t-71.5 19.5h-191q-29 -29 -29 -80zM132 335q0 -59 24 -99t71 -40q40 0 66 34t26 93 q0 65 -27.5 102t-68.5 37q-40 0 -65.5 -33.5t-25.5 -93.5z" />
<glyph unicode="h" horiz-adv-x="582" d="M30 0v20l73 22v613l-73 9v24l155 38v-313q30 31 75 53t89 22q63 0 100.5 -40.5t37.5 -112.5v-293l73 -22v-20h-228v20l73 22v274q0 55 -27.5 84t-74.5 29q-64 0 -118 -54v-333l73 -22v-20h-228z" />
<glyph unicode="i" horiz-adv-x="290" d="M37 0v20l73 22v375l-73 9v24l155 38v-446l73 -22v-20h-228zM93 643q0 23 17 40t42 17q23 0 41 -17t18 -40q0 -24 -17.5 -40.5t-41.5 -16.5q-25 0 -42 16.5t-17 40.5z" />
<glyph unicode="j" horiz-adv-x="272" d="M-33 -201q0 32 29 53q43 -32 76 -32q24 0 30.5 16.5t6.5 54.5v526l-73 9v24l155 38v-507q0 -95 -58 -155.5t-129 -60.5q-37 0 -37 34zM92 648q0 23 17 40t42 17q23 0 41 -17t18 -40q0 -24 -17.5 -40.5t-41.5 -16.5q-25 0 -42 16.5t-17 40.5z" />
<glyph unicode="k" horiz-adv-x="549" d="M30 0v20l73 22v613l-73 9v24l155 38v-684l73 -22v-20h-228zM207 242l173 192l-68 20v20h187v-20l-69 -22l-151 -155l163 -204q20 -26 39 -38t48 -13v-20q-27 -16 -67 -16q-55 0 -82 34z" />
<glyph unicode="l" horiz-adv-x="288" d="M30 0v20l73 22v613l-73 9v24l155 38v-684l73 -22v-20h-228z" />
<glyph unicode="m" horiz-adv-x="871" d="M37 0v20l73 22v375l-73 9v24l155 38v-75q30 31 74 53t85 22q93 0 125 -84q29 34 76 59t91 25q63 0 98 -39.5t35 -111.5v-295l73 -22v-20h-228v20l73 22v276q0 111 -97 111q-59 0 -113 -57v-330l73 -22v-20h-228v20l73 22v276q0 111 -97 111q-61 0 -113 -54v-333l73 -22 v-20h-228z" />
<glyph unicode="n" horiz-adv-x="589" d="M37 0v20l73 22v375l-73 9v24l155 38v-75q30 31 75 53t89 22q63 0 100.5 -39.5t37.5 -111.5v-295l73 -22v-20h-228v20l73 22v276q0 55 -27.5 83t-74.5 28q-64 0 -118 -54v-333l73 -22v-20h-228z" />
<glyph unicode="o" horiz-adv-x="562" d="M50 234q0 111 60.5 182.5t171.5 71.5q110 0 170 -71t60 -176q0 -111 -60.5 -183t-171.5 -72q-110 0 -170 71.5t-60 176.5zM146 237q0 -223 136 -223q134 0 134 224q0 222 -136 222q-134 0 -134 -223z" />
<glyph unicode="p" horiz-adv-x="571" d="M25 -210l73 22v605l-73 9v24l155 38v-75q71 75 158 75q80 0 131.5 -63t51.5 -164q0 -132 -70.5 -203.5t-169.5 -71.5q-42 0 -101 17v-191l83 -22v-20h-238v20zM180 55q50 -41 108 -41q63 0 106.5 58t43.5 149q0 94 -38.5 150t-106.5 56q-60 0 -113 -53v-319z" />
<glyph unicode="q" horiz-adv-x="556" d="M50 211q0 132 70.5 204.5t169.5 72.5q67 0 133 -29l28 29h22v-676l73 -22v-20h-238v20l83 22v248q-70 -74 -158 -74q-80 0 -131.5 62.5t-51.5 162.5zM133 251q0 -94 38.5 -149t106.5 -55q60 0 113 53v318q-53 42 -108 42q-63 0 -106.5 -59t-43.5 -150z" />
<glyph unicode="r" horiz-adv-x="416" d="M37 0v20l73 22v375l-73 9v24l155 38v-107q33 42 77 74.5t76 32.5q20 0 33 -11.5t13 -34.5t-18 -55q-50 18 -78 18q-51 0 -103 -66v-297l89 -22v-20h-244z" />
<glyph unicode="s" horiz-adv-x="421" d="M35 74q0 22 19.5 38.5t48.5 18.5q3 -117 101 -117q43 0 72 21.5t29 56.5q0 31 -24 51.5t-86 51.5q-35 18 -55 29.5t-42.5 30.5t-32.5 41.5t-10 51.5q0 63 48.5 101.5t115.5 38.5q64 0 103.5 -22.5t39.5 -63.5q0 -48 -73 -48q0 105 -85 105q-36 0 -59.5 -20.5t-23.5 -57.5 q0 -18 8 -32t27.5 -28t35 -22t47.5 -24q33 -16 53 -28t43 -30t33.5 -40.5t10.5 -50.5q0 -64 -51.5 -102t-126.5 -38q-66 0 -116 23t-50 65z" />
<glyph unicode="t" horiz-adv-x="350" d="M30 435v39h62l41 116h40v-116h138v-39h-138v-325q0 -79 59 -79q36 0 74 25l9 -27q-21 -17 -54.5 -30t-63.5 -13q-106 0 -106 108v341h-61z" />
<glyph unicode="u" horiz-adv-x="561" d="M15 426v24l155 38v-332q0 -55 26.5 -83t72.5 -28q58 0 112 54v318l-73 9v24l155 38v-431l68 -9v-24l-150 -38v75q-30 -31 -74 -53t-85 -22q-63 0 -98.5 39.5t-35.5 111.5v280z" />
<glyph unicode="v" horiz-adv-x="555" d="M15 454v20h231v-20l-75 -24l130 -321l131 319l-78 26v20h186v-20l-68 -27l-182 -427h-31l-179 430z" />
<glyph unicode="w" horiz-adv-x="798" d="M10 454v20h221v-23l-65 -21l117 -313l122 357h30l121 -360l124 314l-78 26v20h186v-20l-68 -27l-177 -427h-31l-117 328l-120 -328h-31l-169 430z" />
<glyph unicode="x" horiz-adv-x="554" d="M25 0v20l72 27l143 182l-138 203l-61 22v20h223v-20l-67 -22l97 -143l102 140l-62 25v20h175v-20l-69 -27l-127 -166l149 -219l67 -22v-20h-222v20l60 22l-108 158l-118 -155l63 -25v-20h-179z" />
<glyph unicode="y" horiz-adv-x="555" d="M15 454v20h231v-20l-75 -24l133 -320l127 317l-77 27v20h186v-20l-68 -27l-209 -500q-67 -162 -173 -162q-63 0 -63 37q0 30 28 56q45 -24 84 -24q31 0 55 35.5t68 136.5l-182 424z" />
<glyph unicode="z" horiz-adv-x="481" d="M40 0v22l275 418h-185l-45 -99h-23l5 133h354v-20l-274 -420h221l45 103h23l-8 -137h-388z" />
<glyph unicode="{" horiz-adv-x="464" d="M50 305v24q31 7 50.5 17.5t30.5 21.5t16 33t6 39t1 52v133q0 35 5.5 61t13.5 43.5t24.5 29.5t30 18.5t39.5 9.5t43.5 3.5t50.5 0.5h43v-28h-43q-32 0 -49 -3t-34 -14t-24 -36t-7 -67v-120q0 -100 -26 -143.5t-101 -62.5q75 -19 101 -62.5t26 -143.5v-120q0 -42 7 -67 t24 -36t34 -14t49 -3h43v-28h-43q-33 0 -50.5 0.5t-43.5 3.5t-39.5 9.5t-30 18.5t-24.5 29.5t-13.5 43.5t-5.5 61v133q0 35 -1 52t-6 39t-16 33t-30.5 21.5t-50.5 17.5z" />
<glyph unicode="|" horiz-adv-x="300" d="M123 -235v1010h54v-1010h-54z" />
<glyph unicode="}" horiz-adv-x="464" d="M60 -129h43q32 0 49 3t34 14t24 36t7 67v120q0 100 26 143.5t101 62.5q-75 19 -101 62.5t-26 143.5v120q0 42 -7 67t-24 36t-34 14t-49 3h-43v28h43q33 0 50.5 -0.5t43.5 -3.5t39.5 -9.5t30 -18.5t24.5 -29.5t13.5 -43.5t5.5 -61v-133q0 -35 1 -52t6 -39t16 -33 t30.5 -21.5t50.5 -17.5v-24q-31 -7 -50.5 -17.5t-30.5 -21.5t-16 -33t-6 -39t-1 -52v-133q0 -35 -5.5 -61t-13.5 -43.5t-24.5 -29.5t-30 -18.5t-39.5 -9.5t-43.5 -3.5t-50.5 -0.5h-43v28z" />
<glyph unicode="~" d="M50 245q28 115 114 115q35 0 114 -31t107 -31q27 0 42 17.5t24 52.5l49 -13q-28 -115 -114 -115q-35 0 -114 31t-107 31q-27 0 -42 -17.5t-24 -52.5z" />
<glyph unicode="&#xa1;" horiz-adv-x="282" d="M80 427q0 25 18 43t43 18t43 -18t18 -43t-18 -43t-43 -18t-43 18t-18 43zM86 -152q0 57 41 430h28q41 -373 41 -430q0 -58 -55 -58t-55 58z" />
<glyph unicode="&#xa2;" d="M60 202q0 98 52.5 179.5t150.5 100.5v111h39v-105h15q70 0 118 -28.5t48 -69.5q0 -49 -79 -49q-2 54 -27.5 86.5t-71.5 32.5h-3v-421h14q75 0 159 57l15 -23q-90 -77 -188 -86v-101h-39v101q-92 6 -147.5 63t-55.5 152zM147 245q0 -80 30.5 -131.5t85.5 -67.5v407 q-51 -17 -83.5 -72t-32.5 -136z" />
<glyph unicode="&#xa3;" d="M51 0v21q64 52 105 101t41 98q0 32 -19 87h-113v35h99q-27 71 -27 115q0 92 54.5 147.5t143.5 55.5q60 0 110.5 -25t50.5 -66q0 -54 -81 -56q-1 54 -25 84.5t-67 30.5q-45 0 -73.5 -33t-28.5 -87q0 -25 6.5 -51.5t19.5 -63t17 -51.5h163v-35h-155q4 -24 4 -34 q0 -93 -116 -195h282l34 110h23l-9 -188h-439z" />
<glyph unicode="&#xa4;" d="M62 128l69 69q-30 45 -30 104q0 64 31 108l-70 70l38 38l69 -70q44 33 107 33q62 0 104 -33l70 70l38 -38l-71 -71q31 -45 31 -103q0 -60 -30 -107l70 -70l-38 -38l-68 69q-43 -34 -108 -34q-62 0 -106 33l-68 -68zM179 303q0 -148 97 -148q94 0 94 149q0 80 -24 113 t-72 33q-95 0 -95 -147z" />
<glyph unicode="&#xa5;" d="M17 624v22h244v-21l-86 -26l127 -246l127 246l-79 26v21h189v-21l-62 -26l-147 -269h128v-35h-133v-69h133v-35h-133v-144l95 -25v-22h-283v22l95 25v144h-136v35h136v69h-136v35h121l-142 270z" />
<glyph unicode="&#xa6;" horiz-adv-x="300" d="M123 135h54v-370h-54v370zM123 405v370h54v-370h-54z" />
<glyph unicode="&#xa7;" horiz-adv-x="501" d="M60 272q0 109 138 143q-94 54 -94 129q0 63 48.5 101.5t115.5 38.5q64 0 103.5 -22.5t39.5 -63.5q0 -48 -73 -48q0 105 -85 105q-36 0 -60.5 -20.5t-24.5 -55.5q0 -18 8.5 -32.5t28 -28.5t36 -23t47.5 -24q35 -17 55.5 -28.5t46.5 -31.5t38.5 -44t12.5 -52 q0 -110 -138 -143q94 -55 94 -129q0 -63 -48.5 -101.5t-115.5 -38.5q-64 0 -103.5 22.5t-39.5 63.5q0 48 73 48q0 -105 85 -105q36 0 60.5 20.5t24.5 55.5q0 18 -8.5 32.5t-28 28.5t-36 23t-47.5 24q-35 17 -55.5 28.5t-46.5 31.5t-38.5 44t-12.5 52zM130 306q0 -11 3.5 -21 t12.5 -19.5t16 -16t23 -15.5t24.5 -13.5t29 -15t28.5 -14.5q104 20 104 90q0 8 -2 16t-7.5 15.5t-11 13.5t-15 13t-16.5 11.5t-20 11.5t-20.5 11t-23 11t-22.5 11q-103 -20 -103 -89z" />
<glyph unicode="&#xa8;" horiz-adv-x="400" d="M40 643q0 22 16.5 38t39.5 16t39.5 -16t16.5 -38t-16.5 -38t-39.5 -16t-39.5 16t-16.5 38zM248 643q0 22 16.5 38t39.5 16t39.5 -16t16.5 -38t-16.5 -38t-39.5 -16t-39.5 16t-16.5 38z" />
<glyph unicode="&#xa9;" horiz-adv-x="810" d="M55 336q0 145 102.5 246.5t247.5 101.5t247.5 -101.5t102.5 -246.5q0 -146 -102.5 -248t-247.5 -102t-247.5 102t-102.5 248zM91 336q0 -131 92.5 -223t221.5 -92q131 0 222.5 92t91.5 223q0 130 -92 222t-222 92q-129 0 -221.5 -92t-92.5 -222zM221 329q0 96 54.5 147.5 t134.5 51.5q59 0 131 -24l3 -99h-23q-29 95 -115 95q-52 0 -80.5 -46.5t-28.5 -119.5q0 -71 32 -118.5t91 -47.5q39 0 65 25.5t34 69.5h26l-7 -98q-67 -26 -121 -26q-86 0 -141 52t-55 138z" />
<glyph unicode="&#xaa;" horiz-adv-x="394" d="M40 399q0 98 194 121v65q0 69 -51 69q-31 0 -50 -22t-19 -64q-65 0 -65 36q0 33 47 56.5t105 23.5q50 0 75.5 -25t25.5 -69v-182q0 -24 7.5 -33t26.5 -9h18v-25q-26 -12 -73 -12q-21 0 -34 11t-13 29v13q-39 -54 -101 -54q-38 0 -65.5 17.5t-27.5 53.5zM114 409 q0 -39 43 -39q44 0 77 48v72q-55 -9 -87.5 -30.5t-32.5 -50.5z" />
<glyph unicode="&#xab;" horiz-adv-x="546" d="M50 246l210 206l21 -20l-134 -186l134 -186l-21 -20zM250 246l210 206l21 -20l-134 -186l134 -186l-21 -20z" />
<glyph unicode="&#xac;" d="M45 373v52h450v-242h-54v190h-396z" />
<glyph unicode="&#xad;" horiz-adv-x="350" d="M35 223v56h280v-56h-280z" />
<glyph unicode="&#xae;" horiz-adv-x="810" d="M55 336q0 145 102.5 246.5t247.5 101.5t247.5 -101.5t102.5 -246.5q0 -146 -102.5 -248t-247.5 -102t-247.5 102t-102.5 248zM91 336q0 -131 92.5 -223t221.5 -92q131 0 222.5 92t91.5 223q0 130 -92 222t-222 92q-129 0 -221.5 -92t-92.5 -222zM231 149v19l58 15v302 l-58 16v19h169q145 0 145 -92q0 -43 -31.5 -68t-84.5 -32q40 -8 68 -50l58 -89q16 -23 41 -23v-17q-18 -8 -57 -8q-34 0 -52 30l-69 117q-10 18 -20 24t-30 6h-16v-135l58 -15v-19h-179zM352 345h36q40 0 63.5 23.5t23.5 59.5q0 66 -81 66q-16 0 -42 -4v-145z" />
<glyph unicode="&#xaf;" horiz-adv-x="400" d="M65 596v60h270v-60h-270z" />
<glyph unicode="&#xb0;" d="M114 500q0 72 46.5 116t114.5 44t114.5 -44t46.5 -116t-46 -115.5t-115 -43.5t-115 43.5t-46 115.5zM173 500q0 -49 29.5 -80t72.5 -31t72.5 31t29.5 80t-29.5 80t-72.5 31t-72.5 -31t-29.5 -80z" />
<glyph unicode="&#xb1;" d="M50 0v52h450v-52h-450zM50 308v52h198v176h54v-176h198v-52h-198v-177h-54v177h-198z" />
<glyph unicode="&#xb2;" horiz-adv-x="400" d="M20 337v19q115 80 174 143.5t59 128.5q0 87 -78 87q-37 0 -56 -26.5t-20 -67.5q-64 0 -64 34q0 40 42.5 66t105.5 26q71 0 111 -31t40 -88q0 -115 -203 -222h184l24 60h20l-7 -129h-332z" />
<glyph unicode="&#xb3;" horiz-adv-x="400" d="M28 416q0 20 16.5 33.5t39.5 13.5q2 -45 33 -73.5t75 -28.5q95 0 95 67q0 42 -45.5 68.5t-134.5 29.5v23q75 9 113 34.5t38 59.5q0 30 -20.5 45.5t-53.5 15.5q-63 0 -106 -46l-19 17q55 72 151 72q56 0 90 -24.5t34 -66.5q0 -75 -96 -93q118 -25 118 -113q0 -53 -44 -87 t-123 -34q-70 0 -115.5 25.5t-45.5 61.5z" />
<glyph unicode="&#xb4;" horiz-adv-x="400" d="M113 571q80 111 103 171q71 -6 71 -32q0 -21 -53 -72t-97 -80z" />
<glyph unicode="&#xb5;" horiz-adv-x="561" d="M15 426v24l155 38v-332q0 -55 26.5 -83t72.5 -28q58 0 112 54v318l-73 9v24l155 38v-431l68 -9v-24l-150 -38v75q-30 -31 -74 -53t-85 -22q-70 0 -101 43v-89q0 -53 25 -75t83 -33q0 -29 -13 -48t-38 -19q-90 0 -90 218v434z" />
<glyph unicode="&#xb6;" horiz-adv-x="658" d="M60 464q0 101 69 153.5t194 52.5h275v-22l-95 -25v-707h-45v716h-92v-716h-45v329q-118 2 -189.5 57.5t-71.5 161.5zM154 462q0 -76 43.5 -125t123.5 -56v351q-80 0 -123.5 -44t-43.5 -126z" />
<glyph unicode="&#xb7;" horiz-adv-x="250" d="M64 304q0 25 18 43t43 18t43 -18t18 -43t-18 -43t-43 -18t-43 18t-18 43z" />
<glyph unicode="&#xb8;" horiz-adv-x="400" d="M101 -215l15 28q26 -15 60 -15q24 0 38 10t14 28q0 24 -26.5 36.5t-68.5 12.5l-7 18l75 97h44l-53 -64q46 0 76.5 -19.5t30.5 -54.5q0 -43 -35 -70t-84 -27q-42 0 -79 20z" />
<glyph unicode="&#xb9;" horiz-adv-x="400" d="M62 673v25l173 45h20v-365l109 -17v-24h-294v24l110 17v302z" />
<glyph unicode="&#xba;" horiz-adv-x="437" d="M45 505q0 77 47.5 128t127.5 51q78 0 125 -51t47 -124q0 -77 -47 -128.5t-127 -51.5q-79 0 -126 51.5t-47 124.5zM123 507q0 -148 97 -148q94 0 94 149q0 80 -24 113t-72 33q-95 0 -95 -147z" />
<glyph unicode="&#xbb;" horiz-adv-x="546" d="M65 60l134 186l-134 186l21 20l210 -206l-210 -206zM265 60l134 186l-134 186l21 20l210 -206l-210 -206z" />
<glyph unicode="&#xbc;" horiz-adv-x="1000" d="M50 590v25l173 45h20v-365l109 -17v-24h-294v24l110 17v302zM277 14l466 646l40 -28l-466 -646zM594 118v19l246 269h32v-246h78v-42h-78v-77l74 -13v-28h-232v28l83 13v77h-203zM662 160h135v149z" />
<glyph unicode="&#xbd;" horiz-adv-x="1000" d="M50 590v25l173 45h20v-365l109 -17v-24h-294v24l110 17v302zM235 14l466 646l40 -28l-466 -646zM611 0v19q115 80 174 143.5t59 128.5q0 87 -78 87q-37 0 -56 -26.5t-20 -67.5q-64 0 -64 34q0 40 42.5 66t105.5 26q71 0 111 -31t40 -88q0 -115 -203 -222h184l24 60h20 l-7 -129h-332z" />
<glyph unicode="&#xbe;" horiz-adv-x="1000" d="M50 328q0 20 16.5 33.5t39.5 13.5q2 -45 33 -73.5t75 -28.5q95 0 95 67q0 42 -45.5 68.5t-134.5 29.5v23q75 9 113 34.5t38 59.5q0 30 -20.5 45.5t-53.5 15.5q-63 0 -106 -46l-19 17q55 72 151 72q56 0 90 -24.5t34 -66.5q0 -75 -96 -93q118 -25 118 -113q0 -53 -44 -87 t-123 -34q-70 0 -115.5 25.5t-45.5 61.5zM284 14l466 646l40 -28l-466 -646zM594 118v19l246 269h32v-246h78v-42h-78v-77l74 -13v-28h-232v28l83 13v77h-203zM662 160h135v149z" />
<glyph unicode="&#xbf;" horiz-adv-x="397" d="M40 -69q0 36 15 68t38 53.5t49.5 42.5t49.5 37t38 35.5t15 38.5q0 20 -14 32t-36 12q-32 0 -66 -18l-8 27q40 25 88 25t81 -23.5t33 -66.5q0 -36 -21.5 -67t-52.5 -53.5t-61.5 -45t-52 -53.5t-21.5 -67q0 -40 25 -65.5t65 -25.5q44 0 67.5 33.5t25.5 89.5h19q56 0 56 -39 q-1 -48 -49 -79.5t-115 -31.5q-75 0 -121.5 40t-46.5 101zM155 427q0 25 18 43t43 18t43 -18t18 -43t-18 -43t-43 -18t-43 18t-18 43z" />
<glyph unicode="&#xc0;" horiz-adv-x="742" d="M25 0v21l83 25l249 638h29l242 -640l84 -22v-22h-282v22l103 24l-74 194h-229l-73 -195l98 -24v-21h-230zM225 824q0 24 56 48q41 -47 155 -126l-18 -20q-60 15 -126.5 46t-66.5 52zM244 277h201l-100 266z" />
<glyph unicode="&#xc1;" horiz-adv-x="742" d="M25 0v21l83 25l249 638h29l242 -640l84 -22v-22h-282v22l103 24l-74 194h-229l-73 -195l98 -24v-21h-230zM244 277h201l-100 266zM305 746q114 79 155 126q56 -24 56 -48q0 -21 -66.5 -52t-126.5 -46z" />
<glyph unicode="&#xc2;" horiz-adv-x="742" d="M25 0v21l83 25l249 638h29l242 -640l84 -22v-22h-282v22l103 24l-74 194h-229l-73 -195l98 -24v-21h-230zM241 742q78 92 111 142h38q33 -50 111 -142l-21 -16l-109 71l-109 -71zM244 277h201l-100 266z" />
<glyph unicode="&#xc3;" horiz-adv-x="742" d="M25 0v21l83 25l249 638h29l242 -640l84 -22v-22h-282v22l103 24l-74 194h-229l-73 -195l98 -24v-21h-230zM228 745q11 64 31.5 93.5t55.5 29.5q20 0 72 -23.5t67 -23.5q11 0 20 8.5t14.5 20t12.5 31.5l27 -7q-11 -64 -31.5 -93.5t-55.5 -29.5q-20 0 -72 23.5t-67 23.5 q-11 0 -20 -8.5t-14.5 -20t-12.5 -31.5zM244 277h201l-100 266z" />
<glyph unicode="&#xc4;" horiz-adv-x="742" d="M25 0v21l83 25l249 638h29l242 -640l84 -22v-22h-282v22l103 24l-74 194h-229l-73 -195l98 -24v-21h-230zM211 803q0 22 16.5 38t39.5 16t39.5 -16t16.5 -38t-16.5 -38t-39.5 -16t-39.5 16t-16.5 38zM244 277h201l-100 266zM419 803q0 22 16.5 38t39.5 16t39.5 -16 t16.5 -38t-16.5 -38t-39.5 -16t-39.5 16t-16.5 38z" />
<glyph unicode="&#xc5;" horiz-adv-x="742" d="M25 0v21l83 25l249 638h29l242 -640l84 -22v-22h-282v22l103 24l-74 194h-229l-73 -195l98 -24v-21h-230zM244 277h201l-100 266zM279 809q0 41 26.5 66t66.5 25q39 0 66 -25t27 -66t-27 -65.5t-66 -24.5q-40 0 -66.5 24.5t-26.5 65.5zM328 809q0 -27 12.5 -42t31.5 -15 t31.5 15t12.5 42t-12.5 42t-31.5 15t-31.5 -15t-12.5 -42z" />
<glyph unicode="&#xc6;" horiz-adv-x="961" d="M15 0v21l81 27l355 575l-95 25v22h534v-173h-26l-48 136h-232v-264h141l35 99h22v-234h-22l-35 99h-141v-296h235l64 164h23l-9 -201h-501v22l95 25v193h-221l-117 -195l97 -24v-21h-235zM293 277h198v329z" />
<glyph unicode="&#xc7;" horiz-adv-x="683" d="M55 327q0 170 92 263.5t241 93.5q52 0 120.5 -14.5t106.5 -28.5l6 -153h-34q-47 163 -205 163q-104 0 -166 -85.5t-62 -228.5q0 -147 65.5 -232t186.5 -85q72 0 118.5 43t60.5 122h38l-13 -152q-108 -45 -201 -47l-41 -50q46 0 76.5 -19.5t30.5 -54.5q0 -43 -35 -70 t-84 -27q-42 0 -79 20l15 28q26 -15 60 -15q24 0 38 10t14 28q0 24 -26.5 36.5t-68.5 12.5l-7 18l65 85q-144 10 -228 101.5t-84 237.5z" />
<glyph unicode="&#xc8;" horiz-adv-x="605" d="M40 0v22l95 25v576l-95 25v22h494v-173h-26l-48 136h-232v-264h141l35 99h22v-234h-22l-35 99h-141v-296h235l64 164h23l-9 -201h-501zM190 824q0 24 56 48q41 -47 155 -126l-18 -20q-60 15 -126.5 46t-66.5 52z" />
<glyph unicode="&#xc9;" horiz-adv-x="605" d="M40 0v22l95 25v576l-95 25v22h494v-173h-26l-48 136h-232v-264h141l35 99h22v-234h-22l-35 99h-141v-296h235l64 164h23l-9 -201h-501zM206 746q114 79 155 126q56 -24 56 -48q0 -21 -66.5 -52t-126.5 -46z" />
<glyph unicode="&#xca;" horiz-adv-x="605" d="M40 0v22l95 25v576l-95 25v22h494v-173h-26l-48 136h-232v-264h141l35 99h22v-234h-22l-35 99h-141v-296h235l64 164h23l-9 -201h-501zM172 742q78 92 111 142h38q33 -50 111 -142l-21 -16l-109 71l-109 -71z" />
<glyph unicode="&#xcb;" horiz-adv-x="605" d="M40 0v22l95 25v576l-95 25v22h494v-173h-26l-48 136h-232v-264h141l35 99h22v-234h-22l-35 99h-141v-296h235l64 164h23l-9 -201h-501zM142 803q0 22 16.5 38t39.5 16t39.5 -16t16.5 -38t-16.5 -38t-39.5 -16t-39.5 16t-16.5 38zM350 803q0 22 16.5 38t39.5 16t39.5 -16 t16.5 -38t-16.5 -38t-39.5 -16t-39.5 16t-16.5 38z" />
<glyph unicode="&#xcc;" horiz-adv-x="363" d="M40 0v22l95 25v576l-95 25v22h283v-22l-95 -25v-576l95 -25v-22h-283zM46 824q0 24 56 48q41 -47 155 -126l-18 -20q-60 15 -126.5 46t-66.5 52z" />
<glyph unicode="&#xcd;" horiz-adv-x="363" d="M40 0v22l95 25v576l-95 25v22h283v-22l-95 -25v-576l95 -25v-22h-283zM106 746q114 79 155 126q56 -24 56 -48q0 -21 -66.5 -52t-126.5 -46z" />
<glyph unicode="&#xce;" horiz-adv-x="363" d="M40 0v22l95 25v576l-95 25v22h283v-22l-95 -25v-576l95 -25v-22h-283zM52 742q78 92 111 142h38q33 -50 111 -142l-21 -16l-109 71l-109 -71z" />
<glyph unicode="&#xcf;" horiz-adv-x="363" d="M22 803q0 22 16.5 38t39.5 16t39.5 -16t16.5 -38t-16.5 -38t-39.5 -16t-39.5 16t-16.5 38zM40 0v22l95 25v576l-95 25v22h283v-22l-95 -25v-576l95 -25v-22h-283zM230 803q0 22 16.5 38t39.5 16t39.5 -16t16.5 -38t-16.5 -38t-39.5 -16t-39.5 16t-16.5 38z" />
<glyph unicode="&#xd0;" horiz-adv-x="762" d="M40 325v44h100v254l-95 25v22h304q172 0 265 -86t93 -232q0 -160 -98.5 -256t-271.5 -96h-292v22l95 25v278h-100zM233 36h102q126 0 199.5 76t73.5 232q0 62 -14.5 112t-45 91t-84.5 64t-127 23h-104v-265h134v-44h-134v-289z" />
<glyph unicode="&#xd1;" horiz-adv-x="771" d="M35 0v22l95 23v578l-95 25v22h199l362 -504v459l-100 23v22h240v-22l-95 -23v-634h-29l-437 600v-546l100 -23v-22h-240zM244 745q11 64 31.5 93.5t55.5 29.5q20 0 72 -23.5t67 -23.5q11 0 20 8.5t14.5 20t12.5 31.5l27 -7q-11 -64 -31.5 -93.5t-55.5 -29.5 q-20 0 -72 23.5t-67 23.5q-11 0 -20 -8.5t-14.5 -20t-12.5 -31.5z" />
<glyph unicode="&#xd2;" horiz-adv-x="762" d="M55 337q0 153 86 250t244 97q161 0 241.5 -96t80.5 -254q0 -153 -86 -250.5t-244 -97.5q-161 0 -241.5 96.5t-80.5 254.5zM154 337q0 -156 61.5 -236.5t175.5 -80.5q101 0 159 87.5t58 226.5q0 156 -61.5 236t-175.5 80q-101 0 -159 -87t-58 -226zM275 824q0 24 56 48 q41 -47 155 -126l-18 -20q-60 15 -126.5 46t-66.5 52z" />
<glyph unicode="&#xd3;" horiz-adv-x="762" d="M55 337q0 153 86 250t244 97q161 0 241.5 -96t80.5 -254q0 -153 -86 -250.5t-244 -97.5q-161 0 -241.5 96.5t-80.5 254.5zM154 337q0 -156 61.5 -236.5t175.5 -80.5q101 0 159 87.5t58 226.5q0 156 -61.5 236t-175.5 80q-101 0 -159 -87t-58 -226zM275 746 q114 79 155 126q56 -24 56 -48q0 -21 -66.5 -52t-126.5 -46z" />
<glyph unicode="&#xd4;" horiz-adv-x="762" d="M55 337q0 153 86 250t244 97q161 0 241.5 -96t80.5 -254q0 -153 -86 -250.5t-244 -97.5q-161 0 -241.5 96.5t-80.5 254.5zM154 337q0 -156 61.5 -236.5t175.5 -80.5q101 0 159 87.5t58 226.5q0 156 -61.5 236t-175.5 80q-101 0 -159 -87t-58 -226zM251 742q78 92 111 142 h38q33 -50 111 -142l-21 -16l-109 71l-109 -71z" />
<glyph unicode="&#xd5;" horiz-adv-x="762" d="M55 337q0 153 86 250t244 97q161 0 241.5 -96t80.5 -254q0 -153 -86 -250.5t-244 -97.5q-161 0 -241.5 96.5t-80.5 254.5zM154 337q0 -156 61.5 -236.5t175.5 -80.5q101 0 159 87.5t58 226.5q0 156 -61.5 236t-175.5 80q-101 0 -159 -87t-58 -226zM231 745 q11 64 31.5 93.5t55.5 29.5q20 0 72 -23.5t67 -23.5q11 0 20 8.5t14.5 20t12.5 31.5l27 -7q-11 -64 -31.5 -93.5t-55.5 -29.5q-20 0 -72 23.5t-67 23.5q-11 0 -20 -8.5t-14.5 -20t-12.5 -31.5z" />
<glyph unicode="&#xd6;" horiz-adv-x="762" d="M55 337q0 153 86 250t244 97q161 0 241.5 -96t80.5 -254q0 -153 -86 -250.5t-244 -97.5q-161 0 -241.5 96.5t-80.5 254.5zM154 337q0 -156 61.5 -236.5t175.5 -80.5q101 0 159 87.5t58 226.5q0 156 -61.5 236t-175.5 80q-101 0 -159 -87t-58 -226zM221 803q0 22 16.5 38 t39.5 16t39.5 -16t16.5 -38t-16.5 -38t-39.5 -16t-39.5 16t-16.5 38zM429 803q0 22 16.5 38t39.5 16t39.5 -16t16.5 -38t-16.5 -38t-39.5 -16t-39.5 16t-16.5 38z" />
<glyph unicode="&#xd7;" d="M92 158l145 145l-145 146l38 38l145 -146l145 146l38 -38l-145 -146l145 -145l-38 -38l-145 145l-145 -145z" />
<glyph unicode="&#xd8;" horiz-adv-x="762" d="M55 337q0 153 86 250t244 97q113 0 188 -50l52 70h55l-72 -98q99 -93 99 -272q0 -153 -86 -250.5t-244 -97.5q-112 0 -189 50l-51 -70h-55l72 98q-99 92 -99 273zM154 337q0 -134 45 -212l337 458q-61 67 -165 67q-101 0 -159 -87t-58 -226zM226 87q60 -67 165 -67 q101 0 159 87.5t58 226.5q0 130 -45 211z" />
<glyph unicode="&#xd9;" horiz-adv-x="754" d="M30 648v22h286v-22l-98 -25v-378q0 -102 53.5 -156.5t134.5 -54.5q79 0 130 58.5t51 168.5v364l-101 23v22h243v-22l-95 -23v-379q0 -124 -73.5 -192t-177.5 -68t-181 59t-77 171v407zM271 824q0 24 56 48q41 -47 155 -126l-18 -20q-60 15 -126.5 46t-66.5 52z" />
<glyph unicode="&#xda;" horiz-adv-x="754" d="M30 648v22h286v-22l-98 -25v-378q0 -102 53.5 -156.5t134.5 -54.5q79 0 130 58.5t51 168.5v364l-101 23v22h243v-22l-95 -23v-379q0 -124 -73.5 -192t-177.5 -68t-181 59t-77 171v407zM321 746q114 79 155 126q56 -24 56 -48q0 -21 -66.5 -52t-126.5 -46z" />
<glyph unicode="&#xdb;" horiz-adv-x="754" d="M30 648v22h286v-22l-98 -25v-378q0 -102 53.5 -156.5t134.5 -54.5q79 0 130 58.5t51 168.5v364l-101 23v22h243v-22l-95 -23v-379q0 -124 -73.5 -192t-177.5 -68t-181 59t-77 171v407zM260 742q78 92 111 142h38q33 -50 111 -142l-21 -16l-109 71l-109 -71z" />
<glyph unicode="&#xdc;" horiz-adv-x="754" d="M30 648v22h286v-22l-98 -25v-378q0 -102 53.5 -156.5t134.5 -54.5q79 0 130 58.5t51 168.5v364l-101 23v22h243v-22l-95 -23v-379q0 -124 -73.5 -192t-177.5 -68t-181 59t-77 171v407zM243 803q0 22 16.5 38t39.5 16t39.5 -16t16.5 -38t-16.5 -38t-39.5 -16t-39.5 16 t-16.5 38zM451 803q0 22 16.5 38t39.5 16t39.5 -16t16.5 -38t-16.5 -38t-39.5 -16t-39.5 16t-16.5 38z" />
<glyph unicode="&#xdd;" horiz-adv-x="698" d="M20 648v22h287v-21l-106 -26l174 -292l168 292l-105 26v21h240v-21l-79 -26l-199 -330v-246l102 -25v-22h-297v22l102 25v234l-213 343zM281 746q114 79 155 126q56 -24 56 -48q0 -21 -66.5 -52t-126.5 -46z" />
<glyph unicode="&#xde;" horiz-adv-x="590" d="M40 0v22l95 25v576l-95 25v22h283v-22l-95 -25v-103h80q116 0 179 -38t63 -130q0 -85 -68 -136t-169 -51h-31v28q170 13 170 161q0 67 -38.5 99.5t-107.5 32.5q-40 0 -78 -7v-432l105 -25v-22h-293z" />
<glyph unicode="&#xdf;" horiz-adv-x="623" d="M40 0v20l73 22v393h-73v39h73v28q0 98 57.5 161t163.5 63q78 0 137 -35.5t59 -89.5q0 -27 -16.5 -53.5t-39.5 -48t-46 -42t-39.5 -42.5t-16.5 -41q0 -22 23 -42t55.5 -37.5t64.5 -37.5t55 -52.5t23 -72.5q0 -65 -48 -105.5t-116 -40.5q-64 0 -112 23t-48 65 q0 22 19.5 38.5t48.5 18.5q2 -61 24.5 -89t71.5 -28q40 0 66 20.5t26 56.5q0 29 -22.5 54.5t-54.5 44.5t-63.5 38t-54 46t-22.5 58q0 30 22 62t48.5 56.5t48.5 61.5t22 75q0 47 -34.5 79.5t-88.5 32.5q-62 0 -96.5 -48t-34.5 -135v-516h-155z" />
<glyph unicode="&#xe0;" horiz-adv-x="472" d="M35 81q0 65 66.5 106t192.5 56v118q0 99 -73 99q-43 0 -70 -30.5t-28 -90.5h-19q-56 0 -56 39q0 47 60.5 78.5t138.5 31.5q129 0 129 -133v-270q0 -34 11 -47.5t38 -13.5h25v-22q-38 -16 -91 -16q-30 0 -47.5 14.5t-17.5 41.5v18q-24 -31 -62 -52.5t-81 -21.5 q-50 0 -83 24.5t-33 70.5zM124 101q0 -32 16.5 -49.5t45.5 -17.5t58 19t50 49v113q-78 -12 -124 -42.5t-46 -71.5zM138 710q0 26 71 32q23 -60 103 -171l-24 -13q-44 29 -97 80t-53 72z" />
<glyph unicode="&#xe1;" horiz-adv-x="472" d="M35 81q0 65 66.5 106t192.5 56v118q0 99 -73 99q-43 0 -70 -30.5t-28 -90.5h-19q-56 0 -56 39q0 47 60.5 78.5t138.5 31.5q129 0 129 -133v-270q0 -34 11 -47.5t38 -13.5h25v-22q-38 -16 -91 -16q-30 0 -47.5 14.5t-17.5 41.5v18q-24 -31 -62 -52.5t-81 -21.5 q-50 0 -83 24.5t-33 70.5zM124 101q0 -32 16.5 -49.5t45.5 -17.5t58 19t50 49v113q-78 -12 -124 -42.5t-46 -71.5zM160 571q80 111 103 171q71 -6 71 -32q0 -21 -53 -72t-97 -80z" />
<glyph unicode="&#xe2;" horiz-adv-x="472" d="M35 81q0 65 66.5 106t192.5 56v118q0 99 -73 99q-43 0 -70 -30.5t-28 -90.5h-19q-56 0 -56 39q0 47 60.5 78.5t138.5 31.5q129 0 129 -133v-270q0 -34 11 -47.5t38 -13.5h25v-22q-38 -16 -91 -16q-30 0 -47.5 14.5t-17.5 41.5v18q-24 -31 -62 -52.5t-81 -21.5 q-50 0 -83 24.5t-33 70.5zM110 571q59 80 107 169h38q48 -89 107 -169l-24 -13l-102 95l-102 -95zM124 101q0 -32 16.5 -49.5t45.5 -17.5t58 19t50 49v113q-78 -12 -124 -42.5t-46 -71.5z" />
<glyph unicode="&#xe3;" horiz-adv-x="472" d="M35 81q0 65 66.5 106t192.5 56v118q0 99 -73 99q-43 0 -70 -30.5t-28 -90.5h-19q-56 0 -56 39q0 47 60.5 78.5t138.5 31.5q129 0 129 -133v-270q0 -34 11 -47.5t38 -13.5h25v-22q-38 -16 -91 -16q-30 0 -47.5 14.5t-17.5 41.5v18q-24 -31 -62 -52.5t-81 -21.5 q-50 0 -83 24.5t-33 70.5zM81 585q11 64 31.5 93.5t55.5 29.5q20 0 72 -23.5t67 -23.5q11 0 20 8.5t14.5 20t12.5 31.5l27 -7q-11 -64 -31.5 -93.5t-55.5 -29.5q-20 0 -72 23.5t-67 23.5q-11 0 -20 -8.5t-14.5 -20t-12.5 -31.5zM124 101q0 -32 16.5 -49.5t45.5 -17.5t58 19 t50 49v113q-78 -12 -124 -42.5t-46 -71.5z" />
<glyph unicode="&#xe4;" horiz-adv-x="472" d="M35 81q0 65 66.5 106t192.5 56v118q0 99 -73 99q-43 0 -70 -30.5t-28 -90.5h-19q-56 0 -56 39q0 47 60.5 78.5t138.5 31.5q129 0 129 -133v-270q0 -34 11 -47.5t38 -13.5h25v-22q-38 -16 -91 -16q-30 0 -47.5 14.5t-17.5 41.5v18q-24 -31 -62 -52.5t-81 -21.5 q-50 0 -83 24.5t-33 70.5zM76 643q0 22 16.5 38t39.5 16t39.5 -16t16.5 -38t-16.5 -38t-39.5 -16t-39.5 16t-16.5 38zM124 101q0 -32 16.5 -49.5t45.5 -17.5t58 19t50 49v113q-78 -12 -124 -42.5t-46 -71.5zM284 643q0 22 16.5 38t39.5 16t39.5 -16t16.5 -38t-16.5 -38 t-39.5 -16t-39.5 16t-16.5 38z" />
<glyph unicode="&#xe5;" horiz-adv-x="472" d="M35 81q0 65 66.5 106t192.5 56v118q0 99 -73 99q-43 0 -70 -30.5t-28 -90.5h-19q-56 0 -56 39q0 47 60.5 78.5t138.5 31.5q129 0 129 -133v-270q0 -34 11 -47.5t38 -13.5h25v-22q-38 -16 -91 -16q-30 0 -47.5 14.5t-17.5 41.5v18q-24 -31 -62 -52.5t-81 -21.5 q-50 0 -83 24.5t-33 70.5zM124 101q0 -32 16.5 -49.5t45.5 -17.5t58 19t50 49v113q-78 -12 -124 -42.5t-46 -71.5zM143 649q0 41 26.5 66t66.5 25q39 0 66 -25t27 -66t-27 -65.5t-66 -24.5q-40 0 -66.5 24.5t-26.5 65.5zM192 649q0 -27 12.5 -42t31.5 -15t31.5 15t12.5 42 t-12.5 42t-31.5 15t-31.5 -15t-12.5 -42z" />
<glyph unicode="&#xe6;" horiz-adv-x="747" d="M35 81q0 65 66.5 106t192.5 56v118q0 99 -73 99q-43 0 -70 -30.5t-28 -90.5h-19q-56 0 -56 39q0 47 60.5 78.5t138.5 31.5q87 0 117 -64q57 64 153 64q84 0 132 -45t48 -128q0 -20 -2 -32h-318q-1 -10 -1 -31q0 -100 42.5 -156.5t115.5 -56.5q71 0 147 54l14 -23 q-39 -38 -93 -61t-107 -23q-128 0 -177 105q-24 -42 -69 -73.5t-98 -31.5q-50 0 -83 24.5t-33 70.5zM124 101q0 -32 16.5 -49.5t45.5 -17.5q31 0 63 24t57 65q-12 41 -12 92q-78 -12 -124 -42.5t-46 -71.5zM380 313h222q2 22 2 30q0 55 -24 86t-70 31q-45 0 -81.5 -37.5 t-48.5 -109.5z" />
<glyph unicode="&#xe7;" horiz-adv-x="488" d="M50 202q0 71 24 134t80 107.5t134 44.5q65 0 109.5 -28.5t44.5 -69.5q0 -49 -78 -49q-2 55 -24 87t-63 32q-62 0 -102 -58.5t-40 -156.5t41.5 -151t115.5 -53q68 0 142 55l14 -23q-80 -75 -170 -85l-42 -52q46 0 76.5 -19.5t30.5 -54.5q0 -43 -35 -70t-84 -27 q-42 0 -79 20l15 28q26 -15 60 -15q24 0 38 10t14 28q0 24 -26.5 36.5t-68.5 12.5l-7 18l65 84q-84 7 -134.5 64t-50.5 151z" />
<glyph unicode="&#xe8;" horiz-adv-x="506" d="M50 217q0 121 62.5 196t163.5 75q84 0 132 -45t48 -128q0 -20 -2 -32h-318q-1 -10 -1 -31q0 -100 42.5 -156.5t115.5 -56.5q71 0 147 54l14 -23q-39 -38 -93 -61t-107 -23q-92 0 -148 61.5t-56 169.5zM139 313h222q2 22 2 30q0 55 -24 86t-70 31q-45 0 -81.5 -37.5 t-48.5 -109.5zM156 710q0 26 71 32q23 -60 103 -171l-24 -13q-44 29 -97 80t-53 72z" />
<glyph unicode="&#xe9;" horiz-adv-x="506" d="M50 217q0 121 62.5 196t163.5 75q84 0 132 -45t48 -128q0 -20 -2 -32h-318q-1 -10 -1 -31q0 -100 42.5 -156.5t115.5 -56.5q71 0 147 54l14 -23q-39 -38 -93 -61t-107 -23q-92 0 -148 61.5t-56 169.5zM139 313h222q2 22 2 30q0 55 -24 86t-70 31q-45 0 -81.5 -37.5 t-48.5 -109.5zM192 571q80 111 103 171q71 -6 71 -32q0 -21 -53 -72t-97 -80z" />
<glyph unicode="&#xea;" horiz-adv-x="506" d="M50 217q0 121 62.5 196t163.5 75q84 0 132 -45t48 -128q0 -20 -2 -32h-318q-1 -10 -1 -31q0 -100 42.5 -156.5t115.5 -56.5q71 0 147 54l14 -23q-39 -38 -93 -61t-107 -23q-92 0 -148 61.5t-56 169.5zM139 313h222q2 22 2 30q0 55 -24 86t-70 31q-45 0 -81.5 -37.5 t-48.5 -109.5zM153 571q59 80 107 169h38q48 -89 107 -169l-24 -13l-102 95l-102 -95z" />
<glyph unicode="&#xeb;" horiz-adv-x="506" d="M50 217q0 121 62.5 196t163.5 75q84 0 132 -45t48 -128q0 -20 -2 -32h-318q-1 -10 -1 -31q0 -100 42.5 -156.5t115.5 -56.5q71 0 147 54l14 -23q-39 -38 -93 -61t-107 -23q-92 0 -148 61.5t-56 169.5zM118 643q0 22 16.5 38t39.5 16t39.5 -16t16.5 -38t-16.5 -38 t-39.5 -16t-39.5 16t-16.5 38zM139 313h222q2 22 2 30q0 55 -24 86t-70 31q-45 0 -81.5 -37.5t-48.5 -109.5zM326 643q0 22 16.5 38t39.5 16t39.5 -16t16.5 -38t-16.5 -38t-39.5 -16t-39.5 16t-16.5 38z" />
<glyph unicode="&#xec;" horiz-adv-x="290" d="M28 710q0 26 71 32q23 -60 103 -171l-24 -13q-44 29 -97 80t-53 72zM37 0v20l73 22v375l-73 9v24l155 38v-446l73 -22v-20h-228z" />
<glyph unicode="&#xed;" horiz-adv-x="290" d="M37 0v20l73 22v375l-73 9v24l155 38v-446l73 -22v-20h-228zM82 571q80 111 103 171q71 -6 71 -32q0 -21 -53 -72t-97 -80z" />
<glyph unicode="&#xee;" horiz-adv-x="290" d="M14 571q59 80 107 169h38q48 -89 107 -169l-24 -13l-102 95l-102 -95zM37 0v20l73 22v375l-73 9v24l155 38v-446l73 -22v-20h-228z" />
<glyph unicode="&#xef;" horiz-adv-x="290" d="M-15 643q0 22 16.5 38t39.5 16t39.5 -16t16.5 -38t-16.5 -38t-39.5 -16t-39.5 16t-16.5 38zM37 0v20l73 22v375l-73 9v24l155 38v-446l73 -22v-20h-228zM193 643q0 22 16.5 38t39.5 16t39.5 -16t16.5 -38t-16.5 -38t-39.5 -16t-39.5 16t-16.5 38z" />
<glyph unicode="&#xf0;" horiz-adv-x="552" d="M45 229q0 97 60.5 169.5t168.5 72.5q50 0 104 -23q-25 75 -77 137l-130 -56v45l101 43q-56 55 -129 89l12 28q96 -30 175 -92l105 45v-45l-71 -30q138 -131 138 -327q0 -139 -65.5 -219t-171.5 -80q-99 0 -159.5 65.5t-60.5 177.5zM138 222q0 -99 35.5 -153.5t95.5 -54.5 q63 0 101 66t38 183q0 77 -18 147q-45 19 -96 19q-72 0 -114 -58.5t-42 -148.5z" />
<glyph unicode="&#xf1;" horiz-adv-x="589" d="M37 0v20l73 22v375l-73 9v24l155 38v-75q30 31 75 53t89 22q63 0 100.5 -39.5t37.5 -111.5v-295l73 -22v-20h-228v20l73 22v276q0 55 -27.5 83t-74.5 28q-64 0 -118 -54v-333l73 -22v-20h-228zM144 585q11 64 31.5 93.5t55.5 29.5q20 0 72 -23.5t67 -23.5q11 0 20 8.5 t14.5 20t12.5 31.5l27 -7q-11 -64 -31.5 -93.5t-55.5 -29.5q-20 0 -72 23.5t-67 23.5q-11 0 -20 -8.5t-14.5 -20t-12.5 -31.5z" />
<glyph unicode="&#xf2;" horiz-adv-x="562" d="M50 234q0 111 60.5 182.5t171.5 71.5q110 0 170 -71t60 -176q0 -111 -60.5 -183t-171.5 -72q-110 0 -170 71.5t-60 176.5zM146 237q0 -223 136 -223q134 0 134 224q0 222 -136 222q-134 0 -134 -223zM177 710q0 26 71 32q23 -60 103 -171l-24 -13q-44 29 -97 80t-53 72z " />
<glyph unicode="&#xf3;" horiz-adv-x="562" d="M50 234q0 111 60.5 182.5t171.5 71.5q110 0 170 -71t60 -176q0 -111 -60.5 -183t-171.5 -72q-110 0 -170 71.5t-60 176.5zM146 237q0 -223 136 -223q134 0 134 224q0 222 -136 222q-134 0 -134 -223zM203 571q80 111 103 171q71 -6 71 -32q0 -21 -53 -72t-97 -80z" />
<glyph unicode="&#xf4;" horiz-adv-x="562" d="M50 234q0 111 60.5 182.5t171.5 71.5q110 0 170 -71t60 -176q0 -111 -60.5 -183t-171.5 -72q-110 0 -170 71.5t-60 176.5zM146 237q0 -223 136 -223q134 0 134 224q0 222 -136 222q-134 0 -134 -223zM155 571q59 80 107 169h38q48 -89 107 -169l-24 -13l-102 95l-102 -95 z" />
<glyph unicode="&#xf5;" horiz-adv-x="562" d="M50 234q0 111 60.5 182.5t171.5 71.5q110 0 170 -71t60 -176q0 -111 -60.5 -183t-171.5 -72q-110 0 -170 71.5t-60 176.5zM131 585q11 64 31.5 93.5t55.5 29.5q20 0 72 -23.5t67 -23.5q11 0 20 8.5t14.5 20t12.5 31.5l27 -7q-11 -64 -31.5 -93.5t-55.5 -29.5 q-20 0 -72 23.5t-67 23.5q-11 0 -20 -8.5t-14.5 -20t-12.5 -31.5zM146 237q0 -223 136 -223q134 0 134 224q0 222 -136 222q-134 0 -134 -223z" />
<glyph unicode="&#xf6;" horiz-adv-x="562" d="M50 234q0 111 60.5 182.5t171.5 71.5q110 0 170 -71t60 -176q0 -111 -60.5 -183t-171.5 -72q-110 0 -170 71.5t-60 176.5zM121 643q0 22 16.5 38t39.5 16t39.5 -16t16.5 -38t-16.5 -38t-39.5 -16t-39.5 16t-16.5 38zM146 237q0 -223 136 -223q134 0 134 224 q0 222 -136 222q-134 0 -134 -223zM329 643q0 22 16.5 38t39.5 16t39.5 -16t16.5 -38t-16.5 -38t-39.5 -16t-39.5 16t-16.5 38z" />
<glyph unicode="&#xf7;" d="M50 278v52h450v-52h-450zM220 144q0 22 16 38.5t39 16.5t39 -16.5t16 -38.5t-16 -38.5t-39 -16.5t-39 16.5t-16 38.5zM220 464q0 22 16 38.5t39 16.5t39 -16.5t16 -38.5t-16 -38.5t-39 -16.5t-39 16.5t-16 38.5z" />
<glyph unicode="&#xf8;" horiz-adv-x="562" d="M50 234q0 111 60.5 182.5t171.5 71.5q72 0 128 -36l34 47h52l-53 -73q69 -69 69 -185q0 -111 -60.5 -183t-171.5 -72q-74 0 -128 35l-33 -46h-52l52 72q-69 71 -69 187zM146 237q0 -82 16 -130l217 302q-34 51 -99 51q-134 0 -134 -223zM183 64q33 -50 99 -50 q134 0 134 224q0 76 -16 127z" />
<glyph unicode="&#xf9;" horiz-adv-x="561" d="M15 426v24l155 38v-332q0 -55 26.5 -83t72.5 -28q58 0 112 54v318l-73 9v24l155 38v-431l68 -9v-24l-150 -38v75q-30 -31 -74 -53t-85 -22q-63 0 -98.5 39.5t-35.5 111.5v280zM132 710q0 26 71 32q23 -60 103 -171l-24 -13q-44 29 -97 80t-53 72z" />
<glyph unicode="&#xfa;" horiz-adv-x="561" d="M15 426v24l155 38v-332q0 -55 26.5 -83t72.5 -28q58 0 112 54v318l-73 9v24l155 38v-431l68 -9v-24l-150 -38v75q-30 -31 -74 -53t-85 -22q-63 0 -98.5 39.5t-35.5 111.5v280zM209 571q80 111 103 171q71 -6 71 -32q0 -21 -53 -72t-97 -80z" />
<glyph unicode="&#xfb;" horiz-adv-x="561" d="M15 426v24l155 38v-332q0 -55 26.5 -83t72.5 -28q58 0 112 54v318l-73 9v24l155 38v-431l68 -9v-24l-150 -38v75q-30 -31 -74 -53t-85 -22q-63 0 -98.5 39.5t-35.5 111.5v280zM135 571q59 80 107 169h38q48 -89 107 -169l-24 -13l-102 95l-102 -95z" />
<glyph unicode="&#xfc;" horiz-adv-x="561" d="M15 426v24l155 38v-332q0 -55 26.5 -83t72.5 -28q58 0 112 54v318l-73 9v24l155 38v-431l68 -9v-24l-150 -38v75q-30 -31 -74 -53t-85 -22q-63 0 -98.5 39.5t-35.5 111.5v280zM103 643q0 22 16.5 38t39.5 16t39.5 -16t16.5 -38t-16.5 -38t-39.5 -16t-39.5 16t-16.5 38z M311 643q0 22 16.5 38t39.5 16t39.5 -16t16.5 -38t-16.5 -38t-39.5 -16t-39.5 16t-16.5 38z" />
<glyph unicode="&#xfd;" horiz-adv-x="555" d="M15 454v20h231v-20l-75 -24l133 -320l127 317l-77 27v20h186v-20l-68 -27l-209 -500q-67 -162 -173 -162q-63 0 -63 37q0 30 28 56q45 -24 84 -24q31 0 55 35.5t68 136.5l-182 424zM241 571q80 111 103 171q71 -6 71 -32q0 -21 -53 -72t-97 -80z" />
<glyph unicode="&#xfe;" horiz-adv-x="561" d="M15 -210l73 22v843l-73 9v24l155 38v-313q71 75 158 75q80 0 131.5 -63t51.5 -164q0 -132 -70.5 -203.5t-169.5 -71.5q-42 0 -101 17v-191l83 -22v-20h-238v20zM170 55q50 -41 108 -41q63 0 106.5 58t43.5 149q0 94 -38.5 150t-106.5 56q-60 0 -113 -53v-319z" />
<glyph unicode="&#xff;" horiz-adv-x="555" d="M15 454v20h231v-20l-75 -24l133 -320l127 317l-77 27v20h186v-20l-68 -27l-209 -500q-67 -162 -173 -162q-63 0 -63 37q0 30 28 56q45 -24 84 -24q31 0 55 35.5t68 136.5l-182 424zM141 643q0 22 16.5 38t39.5 16t39.5 -16t16.5 -38t-16.5 -38t-39.5 -16t-39.5 16 t-16.5 38zM349 643q0 22 16.5 38t39.5 16t39.5 -16t16.5 -38t-16.5 -38t-39.5 -16t-39.5 16t-16.5 38z" />
<glyph unicode="&#x131;" horiz-adv-x="290" d="M37 0v20l73 22v375l-73 9v24l155 38v-446l73 -22v-20h-228z" />
<glyph unicode="&#x141;" horiz-adv-x="590" d="M40 0v22l95 25v242l-95 -25v45l95 25v289l-95 25v22h290v-22l-102 -25v-264l131 35v-45l-131 -35v-277h235l64 164h23l-9 -201h-501z" />
<glyph unicode="&#x142;" horiz-adv-x="298" d="M35 0v20l73 22v300l-73 -29v45l73 29v268l-73 9v24l155 38v-306l78 31v-45l-78 -31v-333l73 -22v-20h-228z" />
<glyph unicode="&#x152;" horiz-adv-x="912" d="M55 337q0 151 85.5 242t244.5 91h456v-173h-26l-48 136h-232v-264h141l35 99h22v-234h-22l-35 99h-141v-296h235l64 164h23l-9 -201h-471q-162 0 -242 90.5t-80 246.5zM154 337q0 -303 237 -303h51v602h-71q-102 0 -159.5 -80.5t-57.5 -218.5z" />
<glyph unicode="&#x153;" horiz-adv-x="883" d="M50 234q0 111 60.5 182.5t171.5 71.5q127 0 190 -98q64 98 181 98q84 0 132 -45t48 -128q0 -20 -2 -32h-318q-1 -10 -1 -31q0 -100 42.5 -156.5t115.5 -56.5q71 0 147 54l14 -23q-39 -38 -93 -61t-107 -23q-113 0 -168 87q-62 -87 -183 -87q-110 0 -170 71.5t-60 176.5z M146 237q0 -223 136 -223q134 0 134 224q0 222 -136 222q-134 0 -134 -223zM516 313h222q2 22 2 30q0 55 -24 86t-70 31q-45 0 -81.5 -37.5t-48.5 -109.5z" />
<glyph unicode="&#x160;" horiz-adv-x="521" d="M50 197h35q21 -89 55 -133t109 -44q61 0 102.5 34t41.5 90q0 47 -34 82.5t-83 60t-98 50t-83 66.5t-34 96q0 86 58 135.5t149 49.5q79 0 173 -32l-3 -150h-34q-23 150 -145 150q-50 0 -83 -30t-33 -80q0 -46 34.5 -79.5t83.5 -56.5t97.5 -48.5t83 -69t34.5 -103.5 q0 -86 -66 -142.5t-172 -56.5q-83 0 -179 42zM132 875l21 16l109 -71l109 71l21 -16q-78 -92 -111 -142h-38q-33 50 -111 142z" />
<glyph unicode="&#x161;" horiz-adv-x="421" d="M35 74q0 22 19.5 38.5t48.5 18.5q3 -117 101 -117q43 0 72 21.5t29 56.5q0 31 -24 51.5t-86 51.5q-35 18 -55 29.5t-42.5 30.5t-32.5 41.5t-10 51.5q0 63 48.5 101.5t115.5 38.5q64 0 103.5 -22.5t39.5 -63.5q0 -48 -73 -48q0 105 -85 105q-36 0 -59.5 -20.5t-23.5 -57.5 q0 -18 8 -32t27.5 -28t35 -22t47.5 -24q33 -16 53 -28t43 -30t33.5 -40.5t10.5 -50.5q0 -64 -51.5 -102t-126.5 -38q-66 0 -116 23t-50 65zM84 732l24 13l102 -95l102 95l24 -13q-59 -80 -107 -169h-38q-48 89 -107 169z" />
<glyph unicode="&#x178;" horiz-adv-x="698" d="M20 648v22h287v-21l-106 -26l174 -292l168 292l-105 26v21h240v-21l-79 -26l-199 -330v-246l102 -25v-22h-297v22l102 25v234l-213 343zM211 803q0 22 16.5 38t39.5 16t39.5 -16t16.5 -38t-16.5 -38t-39.5 -16t-39.5 16t-16.5 38zM419 803q0 22 16.5 38t39.5 16t39.5 -16 t16.5 -38t-16.5 -38t-39.5 -16t-39.5 16t-16.5 38z" />
<glyph unicode="&#x17d;" horiz-adv-x="620" d="M35 0v20l398 613h-296l-48 -136h-26v173h489v-20l-399 -614h329l65 165h23l-9 -201h-526zM171 875l21 16l109 -71l109 71l21 -16q-78 -92 -111 -142h-38q-33 50 -111 142z" />
<glyph unicode="&#x17e;" horiz-adv-x="481" d="M40 0v22l275 418h-185l-45 -99h-23l5 133h354v-20l-274 -420h221l45 103h23l-8 -137h-388zM114 732l24 13l102 -95l102 95l24 -13q-59 -80 -107 -169h-38q-48 89 -107 169z" />
<glyph unicode="&#x192;" d="M19 -124q0 36 30 62q44 -37 86 -37q29 0 40 28t19 106l35 337h-100v35h104l3 27q12 108 87.5 167t162.5 59q35 0 35 -34q0 -36 -28 -56q-47 28 -103 28q-36 0 -49 -33.5t-22 -119.5l-4 -38h150v-35h-154l-31 -294q-12 -109 -71 -169.5t-145 -60.5q-45 0 -45 28z" />
<glyph unicode="&#x2c6;" horiz-adv-x="400" d="M74 571q59 80 107 169h38q48 -89 107 -169l-24 -13l-102 95l-102 -95z" />
<glyph unicode="&#x2c7;" horiz-adv-x="400" d="M74 732l24 13l102 -95l102 95l24 -13q-59 -80 -107 -169h-38q-48 89 -107 169z" />
<glyph unicode="&#x2d8;" horiz-adv-x="400" d="M65 719l24 7q23 -97 111 -97t111 97l24 -7q0 -69 -35.5 -110.5t-99.5 -41.5t-99.5 41.5t-35.5 110.5z" />
<glyph unicode="&#x2d9;" horiz-adv-x="400" d="M141 643q0 23 17 40t42 17q23 0 41 -17t18 -40q0 -24 -17.5 -40.5t-41.5 -16.5q-25 0 -42 16.5t-17 40.5z" />
<glyph unicode="&#x2da;" horiz-adv-x="400" d="M107 649q0 41 26.5 66t66.5 25q39 0 66 -25t27 -66t-27 -65.5t-66 -24.5q-40 0 -66.5 24.5t-26.5 65.5zM156 649q0 -27 12.5 -42t31.5 -15t31.5 15t12.5 42t-12.5 42t-31.5 15t-31.5 -15t-12.5 -42z" />
<glyph unicode="&#x2db;" horiz-adv-x="400" d="M112 -163q0 46 35.5 88.5t92.5 74.5h39q-46 -30 -71 -71.5t-25 -78.5q0 -50 41 -50q28 0 55 25l9 -25q-35 -35 -90 -35q-39 0 -62.5 19t-23.5 53z" />
<glyph unicode="&#x2dc;" horiz-adv-x="400" d="M50 585q11 64 31.5 93.5t55.5 29.5q20 0 72 -23.5t67 -23.5q11 0 20 8.5t14.5 20t12.5 31.5l27 -7q-11 -64 -31.5 -93.5t-55.5 -29.5q-20 0 -72 23.5t-67 23.5q-11 0 -20 -8.5t-14.5 -20t-12.5 -31.5z" />
<glyph unicode="&#x2dd;" horiz-adv-x="400" d="M59 567q17 29 42.5 90.5t29.5 84.5h10q24 0 40 -9t16 -22q0 -24 -39.5 -73.5t-78.5 -83.5zM203 567q17 29 42.5 90.5t29.5 84.5h10q24 0 40 -9t16 -22q0 -24 -39.5 -73.5t-78.5 -83.5z" />
<glyph unicode="&#x3c0;" horiz-adv-x="566" d="M23 334q16 75 43.5 113t81.5 38q22 0 135.5 -11t143.5 -11q38 0 61 15.5t36 55.5l23 -9q-17 -76 -44 -113.5t-81 -37.5q-13 0 -43 2q-15 -110 -15 -212q0 -51 27.5 -77t83.5 -33q-5 -28 -25 -48t-46 -20q-80 0 -80 158q0 74 22 234l-136 14q-17 -65 -31 -156.5 t-14 -139.5q0 -61 31 -92q-25 -18 -44 -18q-18 0 -24.5 16t-6.5 50q0 51 19 159t39 183q-26 2 -37 2q-38 0 -60.5 -15.5t-35.5 -55.5z" />
<glyph unicode="&#x2000;" horiz-adv-x="450" />
<glyph unicode="&#x2001;" horiz-adv-x="900" />
<glyph unicode="&#x2002;" horiz-adv-x="450" />
<glyph unicode="&#x2003;" horiz-adv-x="900" />
<glyph unicode="&#x2004;" horiz-adv-x="300" />
<glyph unicode="&#x2005;" horiz-adv-x="225" />
<glyph unicode="&#x2006;" horiz-adv-x="150" />
<glyph unicode="&#x2007;" horiz-adv-x="150" />
<glyph unicode="&#x2008;" horiz-adv-x="112" />
<glyph unicode="&#x2009;" horiz-adv-x="180" />
<glyph unicode="&#x200a;" horiz-adv-x="50" />
<glyph unicode="&#x2010;" horiz-adv-x="350" d="M35 223v56h280v-56h-280z" />
<glyph unicode="&#x2011;" horiz-adv-x="350" d="M35 223v56h280v-56h-280z" />
<glyph unicode="&#x2012;" horiz-adv-x="350" d="M35 223v56h280v-56h-280z" />
<glyph unicode="&#x2013;" horiz-adv-x="600" d="M35 223v56h530v-56h-530z" />
<glyph unicode="&#x2014;" horiz-adv-x="900" d="M35 223v56h830v-56h-830z" />
<glyph unicode="&#x2018;" horiz-adv-x="254" d="M62 509q0 49 28.5 98t72.5 77l19 -26q-28 -19 -49.5 -48.5t-25.5 -57.5h12q24 0 43.5 -14t19.5 -42q0 -25 -17 -41t-41 -16q-27 0 -44.5 18.5t-17.5 51.5z" />
<glyph unicode="&#x2019;" horiz-adv-x="254" d="M72 465q28 19 49.5 48.5t25.5 57.5h-12q-24 0 -43.5 14t-19.5 42q0 25 17 41t41 16q27 0 44.5 -18.5t17.5 -51.5q0 -49 -28.5 -98t-72.5 -77z" />
<glyph unicode="&#x201a;" horiz-adv-x="254" d="M67 48q0 25 17 41t41 16q27 0 44.5 -18.5t17.5 -51.5q0 -49 -28.5 -98t-72.5 -77l-19 26q28 19 49.5 48.5t25.5 57.5h-12q-24 0 -43.5 14t-19.5 42z" />
<glyph unicode="&#x201c;" horiz-adv-x="427" d="M62 509q0 49 28.5 98t72.5 77l19 -26q-28 -19 -49.5 -48.5t-25.5 -57.5h12q24 0 43.5 -14t19.5 -42q0 -25 -17 -41t-41 -16q-27 0 -44.5 18.5t-17.5 51.5zM235 509q0 49 28.5 98t72.5 77l19 -26q-28 -19 -49.5 -48.5t-25.5 -57.5h12q24 0 43.5 -14t19.5 -42 q0 -25 -17 -41t-41 -16q-27 0 -44.5 18.5t-17.5 51.5z" />
<glyph unicode="&#x201d;" horiz-adv-x="427" d="M72 465q28 19 49.5 48.5t25.5 57.5h-12q-24 0 -43.5 14t-19.5 42q0 25 17 41t41 16q27 0 44.5 -18.5t17.5 -51.5q0 -49 -28.5 -98t-72.5 -77zM245 465q28 19 49.5 48.5t25.5 57.5h-12q-24 0 -43.5 14t-19.5 42q0 25 17 41t41 16q27 0 44.5 -18.5t17.5 -51.5 q0 -49 -28.5 -98t-72.5 -77z" />
<glyph unicode="&#x201e;" horiz-adv-x="427" d="M67 48q0 25 17 41t41 16q27 0 44.5 -18.5t17.5 -51.5q0 -49 -28.5 -98t-72.5 -77l-19 26q28 19 49.5 48.5t25.5 57.5h-12q-24 0 -43.5 14t-19.5 42zM240 48q0 25 17 41t41 16q27 0 44.5 -18.5t17.5 -51.5q0 -49 -28.5 -98t-72.5 -77l-19 26q28 19 49.5 48.5t25.5 57.5 h-12q-24 0 -43.5 14t-19.5 42z" />
<glyph unicode="&#x2020;" horiz-adv-x="500" d="M43 401v70l184 -12l-12 211h70l-12 -211l184 12v-70l-184 12l12 -497h-70l12 497z" />
<glyph unicode="&#x2021;" horiz-adv-x="500" d="M43 115v70l180 -12v240l-180 -12v70l184 -12l-12 211h70l-12 -211l184 12v-70l-180 12v-240l180 12v-70l-184 12l12 -211h-70l12 211z" />
<glyph unicode="&#x2022;" horiz-adv-x="400" d="M67 303q0 56 38 94.5t94 38.5q57 0 95 -38.5t38 -94.5q0 -55 -38 -93.5t-95 -38.5q-56 0 -94 38.5t-38 93.5z" />
<glyph unicode="&#x2026;" horiz-adv-x="750" d="M64 47q0 25 18 43t43 18t43 -18t18 -43t-18 -43t-43 -18t-43 18t-18 43zM314 47q0 25 18 43t43 18t43 -18t18 -43t-18 -43t-43 -18t-43 18t-18 43zM564 47q0 25 18 43t43 18t43 -18t18 -43t-18 -43t-43 -18t-43 18t-18 43z" />
<glyph unicode="&#x202f;" horiz-adv-x="180" />
<glyph unicode="&#x2030;" horiz-adv-x="1168" d="M45 498q0 75 43 118.5t117 43.5q68 0 109.5 -46.5t41.5 -109.5q0 -72 -43 -116.5t-116 -44.5q-68 0 -110 46t-42 109zM116 500q0 -132 86 -132q83 0 83 135q0 132 -86 132q-83 0 -83 -135zM143 14l466 646l40 -28l-466 -646zM436 142q0 72 43 116.5t116 44.5 q68 0 110 -46t42 -109q0 -75 -43 -118.5t-117 -43.5q-68 0 -109.5 46.5t-41.5 109.5zM507 143q0 -132 86 -132q83 0 83 135q0 132 -86 132q-83 0 -83 -135zM812 142q0 72 43 116.5t116 44.5q68 0 110 -46t42 -109q0 -75 -43 -118.5t-117 -43.5q-68 0 -109.5 46.5 t-41.5 109.5zM883 143q0 -132 86 -132q83 0 83 135q0 132 -86 132q-83 0 -83 -135z" />
<glyph unicode="&#x2039;" horiz-adv-x="346" d="M50 246l210 206l21 -20l-134 -186l134 -186l-21 -20z" />
<glyph unicode="&#x203a;" horiz-adv-x="346" d="M65 60l134 186l-134 186l21 20l210 -206l-210 -206z" />
<glyph unicode="&#x2044;" horiz-adv-x="200" d="M-153 14l466 646l40 -28l-466 -646z" />
<glyph unicode="&#x205f;" horiz-adv-x="225" />
<glyph unicode="&#x2070;" horiz-adv-x="400" d="M31 538q0 91 44.5 150t123.5 59t124 -57t45 -152q0 -91 -43.5 -150t-125.5 -59t-125 60t-43 149zM110 538q0 -87 23.5 -132t66.5 -45t66 46t23 131q0 177 -89 177q-33 0 -54.5 -27.5t-28.5 -64.5t-7 -85z" />
<glyph unicode="&#x2074;" horiz-adv-x="400" d="M20 455v19l246 269h32v-246h78v-42h-78v-77l74 -13v-28h-232v28l83 13v77h-203zM88 497h135v149z" />
<glyph unicode="&#x2075;" horiz-adv-x="400" d="M41 414q0 25 17 37t39 12q4 -46 28.5 -74t72.5 -28q37 0 65 16.5t28 52.5q0 88 -168 88h-57l23 219h208l14 34h18l-5 -111h-214l-6 -73h39q104 0 160 -33t56 -98q0 -62 -47 -94.5t-123 -32.5q-20 0 -43.5 4.5t-48 13t-40.5 26.5t-16 41z" />
<glyph unicode="&#x2076;" horiz-adv-x="400" d="M37 490q0 104 77.5 172t204.5 95l7 -27q-210 -66 -210 -236q0 -33 7 -60.5t29 -50t58 -22.5q35 0 57.5 24.5t22.5 70.5q0 49 -22.5 75.5t-63.5 26.5q-19 0 -45 -8l-7 26q38 18 79 18q65 0 101.5 -34t36.5 -87q0 -66 -48 -105t-122 -39q-72 0 -117 41t-45 120z" />
<glyph unicode="&#x2077;" horiz-adv-x="400" d="M40 612l13 146h17l9 -21h302v-21l-204 -379h-100l242 324h-242l-18 -49h-19z" />
<glyph unicode="&#x2078;" horiz-adv-x="400" d="M33 431q0 33 24 61t67 44q-76 39 -76 100q0 52 44.5 81.5t111.5 29.5q73 0 112.5 -25t39.5 -70q0 -65 -95 -91q50 -23 78.5 -50t28.5 -68q0 -48 -46 -81t-120 -33q-79 0 -124 27.5t-45 74.5zM109 434q0 -34 27.5 -53.5t66.5 -19.5q92 0 92 58q0 13 -6.5 24t-14 18.5 t-24.5 17t-27 14.5t-33.5 14.5t-32.5 13.5q-48 -35 -48 -87zM121 664q0 -15 8 -28t26 -24.5t32.5 -18.5t41.5 -19q49 28 49 80q0 30 -21.5 45.5t-54.5 15.5q-36 0 -58.5 -13.5t-22.5 -37.5z" />
<glyph unicode="&#x2079;" horiz-adv-x="400" d="M32 602q0 66 48 105t122 39q71 0 116 -41.5t45 -119.5q0 -104 -77.5 -172t-203.5 -95l-8 27q211 65 211 235q0 54 -21.5 93.5t-72.5 39.5q-36 0 -58.5 -24t-22.5 -70q0 -49 23 -75.5t63 -26.5q19 0 45 8l8 -26q-40 -18 -80 -18q-65 0 -101 34t-36 87z" />
<glyph unicode="&#x20ac;" d="M40 256v35h66v24q0 15 2 45h-68v35h71q17 123 82.5 194t156.5 71q36 0 79 -11t69 -24l4 -146h-34q-33 150 -123 150q-58 0 -93 -66.5t-44 -167.5h194v-35h-197v-69h197v-35h-195q15 -237 142 -237q53 0 83 44.5t35 126.5h35l-13 -163q-28 -17 -69 -29t-75 -12 q-96 0 -159.5 73t-76.5 197h-69z" />
<glyph unicode="&#x2122;" horiz-adv-x="1030" d="M50 559v111h371v-111h-22l-30 81h-102v-307l63 -15v-19h-189v19l63 15v307h-104l-28 -81h-22zM481 299v20l58 14v299l-58 21v17h139l116 -274l108 274h136v-19l-55 -19v-299l55 -15v-19h-173v19l55 15v289l-133 -328h-20l-135 326v-287l57 -14v-20h-150z" />
<glyph unicode="&#x2126;" horiz-adv-x="764" d="M40 188h23l41 -110h180q-29 17 -51.5 32.5t-56.5 46t-56 62.5t-38.5 79t-16.5 99q0 138 88.5 212.5t228.5 74.5t228.5 -74.5t88.5 -212.5q0 -52 -16.5 -99t-38.5 -79t-56 -62.5t-56.5 -46t-51.5 -32.5h180l41 110h23l-16 -188h-268v75q81 63 120.5 134t39.5 183 q0 111 -56.5 184.5t-161.5 73.5t-161.5 -73.5t-56.5 -184.5q0 -112 39.5 -183t120.5 -134v-75h-268z" />
<glyph unicode="&#x2202;" horiz-adv-x="539" d="M50 166q0 91 59.5 146t145.5 55q72 0 140 -40q4 50 4 78q0 125 -35 202.5t-101 77.5q-69 0 -134 -88q-11 7 -21 22t-10 30q0 32 36.5 54.5t95.5 22.5q78 0 138.5 -52.5t90.5 -134t30 -175.5q0 -97 -27.5 -181.5t-86.5 -140.5t-138 -56q-89 0 -138 52.5t-49 127.5z M143 163q0 -65 27 -105.5t71 -40.5q56 0 96 77t55 195q-61 35 -115 35q-58 0 -96 -40.5t-38 -120.5z" />
<glyph unicode="&#x2206;" horiz-adv-x="692" d="M60 0v21l273 663h29l265 -662v-22h-567zM115 41h406l-199 507z" />
<glyph unicode="&#x220f;" horiz-adv-x="745" d="M40 -94l95 25v689l-95 28v22h665v-22l-95 -28v-689l95 -25v-22h-286v22l98 25v702h-289v-702l98 -25v-22h-286v22z" />
<glyph unicode="&#x2211;" horiz-adv-x="600" d="M30 -93l240 367l-234 371v25h493v-173h-26l-48 136h-296l187 -307l-239 -364h380l35 118h23l-9 -196h-506v23z" />
<glyph unicode="&#x2212;" d="M50 278v52h450v-52h-450z" />
<glyph unicode="&#x221a;" d="M10 422h147l112 -294l213 638h46l-266 -766h-31l-152 380l-68 22z" />
<glyph unicode="&#x221e;" horiz-adv-x="782" d="M50 312q0 85 46 137t114 52q114 0 181 -133q70 133 184 133q68 0 112.5 -52t44.5 -137t-46 -137t-114 -52q-62 0 -107.5 37.5t-73.5 94.5q-71 -132 -184 -132q-68 0 -112.5 52t-44.5 137zM104 312q0 -58 29.5 -95.5t78.5 -37.5q84 0 151 132q-27 58 -65.5 96t-85.5 38 t-77.5 -38t-30.5 -95zM419 313q26 -57 65 -95.5t86 -38.5t77.5 38t30.5 95q0 58 -29.5 95.5t-78.5 37.5q-85 0 -151 -132z" />
<glyph unicode="&#x222b;" horiz-adv-x="341" d="M10 -201q0 16 8.5 32t20.5 24q39 -29 76 -29q24 0 30.5 16.5t6.5 48.5q0 46 -25 270.5t-25 316.5q0 111 41.5 179.5t122.5 68.5q45 0 45 -34q0 -16 -8.5 -32t-20.5 -24q-39 29 -76 29q-24 0 -30.5 -16.5t-6.5 -48.5q0 -46 25 -270.5t25 -316.5q0 -111 -42.5 -179.5 t-123.5 -68.5q-43 0 -43 34z" />
<glyph unicode="&#x2248;" d="M50 150q28 115 114 115q35 0 114 -31t107 -31q27 0 42 17.5t24 52.5l49 -13q-28 -115 -114 -115q-35 0 -114 31t-107 31q-27 0 -42 -17.5t-24 -52.5zM50 340q28 115 114 115q35 0 114 -31t107 -31q27 0 42 17.5t24 52.5l49 -13q-28 -115 -114 -115q-35 0 -114 31t-107 31 q-27 0 -42 -17.5t-24 -52.5z" />
<glyph unicode="&#x2260;" d="M50 183v52h154l88 138h-242v52h275l66 104h57l-66 -104h118v-52h-151l-88 -138h239v-52h-272l-67 -105h-57l67 105h-121z" />
<glyph unicode="&#x2264;" d="M50 0v52h450v-52h-450zM75 309v50l366 195l27 -49l-324 -171l324 -171l-27 -49z" />
<glyph unicode="&#x2265;" d="M50 0v52h450v-52h-450zM82 163l324 171l-324 171l27 49l366 -195v-50l-366 -195z" />
<glyph unicode="&#x25ca;" d="M32 323l233 337h19l233 -337l-233 -337h-19zM95 323l179 -264l179 263l-180 264z" />
<glyph unicode="&#xe000;" horiz-adv-x="475" d="M0 0v475h475v-475h-475z" />
<glyph unicode="&#xf8ff;" horiz-adv-x="3635" d="M70 -54h187q3 -22 24 -34t47 -12q63 0 91.5 36t41.5 120q-69 -64 -160 -64q-90 0 -144 54.5t-54 141.5q0 114 83.5 207t202.5 93q91 0 128 -66h2l7 52h167l-67 -427q-23 -146 -103 -213t-214 -67q-58 0 -110 17t-90.5 59t-38.5 103zM279 219q0 -38 24 -61.5t68 -23.5 q53 0 89.5 36t36.5 89q0 38 -24.5 62.5t-67.5 24.5q-53 0 -89.5 -36.5t-36.5 -90.5zM741 -81h19v-152h-19v152zM742 194q0 112 80.5 203t197.5 91q42 0 79 -16t57 -46l8 48h167l-75 -474h-167l8 54h-1q-54 -68 -153 -68q-92 0 -146.5 59.5t-54.5 148.5zM806 -81h18v-22h-18 v22zM806 -123h18v-110h-18v110zM869 -81h19v-54q12 14 30 14q23 0 35 -16.5t12 -38.5q0 -25 -13 -42t-35 -17q-20 0 -30 16v-14h-18v152zM887 -178q0 -42 29 -42q15 0 22.5 13.5t7.5 28.5q0 42 -29 42q-30 0 -30 -42zM916 217q0 -39 24 -62.5t68 -23.5q53 0 89 35t36 89 q0 38 -24.5 63t-67.5 25q-52 0 -88.5 -36t-36.5 -90zM996 -123h16v-17q10 19 24 19q10 0 19 -6l-6 -17q-6 4 -14 4q-21 0 -21 -35v-58h-18v110zM1072 -178q0 26 13.5 41.5t37.5 15.5t38 -15t14 -40q0 -59 -52 -59q-51 1 -51 57zM1091 -178q0 -42 32 -42q33 0 33 43 q0 19 -9.5 30t-23.5 11q-32 0 -32 -42zM1202 -200l18 3q3 -23 29 -23q25 0 25 17q0 10 -17 14t-34.5 11.5t-17.5 25.5q0 31 40 31t44 -30l-18 -3q-6 18 -24 18q-24 0 -24 -14q0 -2 0.5 -3.5t1 -2.5t1.5 -2t3 -2l3 -1.5t4 -1.5l4.5 -1.5t5.5 -1t6 -1.5q21 -5 31 -12t10 -22 q0 -16 -12.5 -25t-31.5 -9q-41 0 -47 35zM1344 -169h25v-26h-25v26zM1358 0l74 474h167l-9 -63h1q65 77 163 77q150 0 150 -145q0 -21 -5 -58l-45 -285h-167l35 222q8 53 8 72q0 61 -62 61q-87 0 -105 -111l-38 -244h-167zM1425 -123h16v-15q14 17 34 17q22 0 31 -19 q12 19 33 19q34 0 34 -36v-76h-18v71q0 25 -20 25q-27 0 -27 -31v-65h-18v72q0 24 -20 24q-27 0 -27 -37v-59h-18v110zM1611 -123h19v-70q0 -26 22 -26q29 0 29 34v62h19v-110h-17v16q-12 -18 -34 -18q-38 0 -38 40v72zM1644 -109l14 29h24l-22 -29h-16zM1734 -200l18 3 q3 -23 29 -23q25 0 25 17q0 10 -17 14t-34.5 11.5t-17.5 25.5q0 31 40 31t44 -30l-18 -3q-6 18 -24 18q-24 0 -24 -14q0 -2 0.5 -3.5t1 -2.5t1.5 -2t3 -2l3 -1.5t4 -1.5l4.5 -1.5t5.5 -1t6 -1.5q21 -5 31 -12t10 -22q0 -16 -12.5 -25t-31.5 -9q-41 0 -47 35zM1862 -81h19 v-22h-19v22zM1862 -123h19v-110h-19v110zM1916 -178q0 26 12.5 41.5t37.5 15.5q38 0 44 -34l-18 -3q-5 22 -26 22q-30 0 -30 -42t30 -42q22 0 28 27l18 -2q-6 -40 -46 -40q-25 0 -37.5 15.5t-12.5 41.5zM1970 193q0 111 81.5 203t197.5 92q42 0 79 -16t57 -46l53 337h167 l-120 -763h-167l8 54h-2q-26 -34 -67.5 -51t-85.5 -17q-91 0 -146 59t-55 148zM2036 -204q0 18 13.5 25.5t35 10t28.5 5.5v6q0 21 -27 21q-23 0 -28 -21l-18 3q7 33 48 33q44 0 44 -35v-41q0 -27 5 -36h-19q-2 4 -4 14q-19 -16 -40 -16q-38 0 -38 31zM2056 -203 q0 -18 22 -18q15 0 25 8.5t10 24.5v10q-6 -3 -21.5 -5t-25.5 -6t-10 -14zM2144 217q0 -39 24 -62.5t68 -23.5q53 0 89 35t36 89q0 38 -24.5 63t-67.5 25q-52 0 -88.5 -36t-36.5 -90zM2186 -169h25v-26h-25v26zM2257 -123h19l31 -88l31 88h19l-41 -110h-18zM2388 -81h19v-22 h-19v22zM2388 -123h19v-110h-19v110zM2441 -176q0 22 12 38.5t35 16.5q18 0 30 -14v54h19v-152h-18v14q-10 -16 -30 -16q-22 0 -35 16t-13 43zM2460 -178q0 -42 30 -42t30 42q0 18 -8 30t-23 12q-29 0 -29 -42zM2570 -179q0 27 13.5 42.5t37.5 15.5t37 -16t13 -38v-8h-82 q1 -15 10 -26t23 -11q24 0 29 23l20 -3q-12 -35 -49 -35q-52 0 -52 56zM2589 0l121 763h167l-56 -351h2q69 76 162 76q75 0 112.5 -39.5t37.5 -109.5q0 -26 -4 -50l-46 -289h-167l39 243q4 26 4 43q0 69 -62 69q-46 0 -71.5 -32.5t-33.5 -79.5l-38 -243h-167zM2590 -167h62 q-3 31 -30 31q-28 0 -32 -31zM2700 -178q0 26 13.5 41.5t37.5 15.5t38 -15t14 -40q0 -59 -52 -59q-51 1 -51 57zM2719 -178q0 -42 32 -42q33 0 33 43q0 19 -9.5 30t-23.5 11q-32 0 -32 -42zM2851 -169h26v-26h-26v26zM2924 -178q0 26 12.5 41.5t37.5 15.5q38 0 44 -34 l-18 -3q-5 22 -26 22q-30 0 -30 -42t30 -42q22 0 28 27l18 -2q-6 -40 -46 -40q-25 0 -37.5 15.5t-12.5 41.5zM3045 -204q0 18 13.5 25.5t35 10t28.5 5.5v6q0 21 -27 21q-23 0 -28 -21l-18 3q7 33 48 33q44 0 44 -35v-41q0 -27 5 -36h-19q-2 4 -4 14q-19 -16 -40 -16 q-38 0 -38 31zM3065 -203q0 -18 22 -18q15 0 25 8.5t10 24.5v10q-6 -3 -21.5 -5t-25.5 -6t-10 -14zM3171 -123h16v14q0 30 30 30q12 0 18 -2l-3 -16q-6 1 -13 1q-13 0 -13 -17v-10h21v-15h-21v-95h-19v95h-16v15zM3186 0l75 474h167l-75 -474h-167zM3252 -179 q0 27 13.5 42.5t37.5 15.5t37 -16t13 -38v-8h-82q1 -15 10 -26t23 -11q24 0 29 23l20 -3q-12 -35 -49 -35q-52 0 -52 56zM3272 -167h62q-3 31 -30 31q-28 0 -32 -31zM3278 639q0 41 32.5 74t76.5 33q35 0 57.5 -22.5t22.5 -56.5q0 -42 -33 -75t-76 -33q-35 0 -57.5 23 t-22.5 57zM3293 -109l13 29h25l-23 -29h-15zM3431 62q0 29 19.5 47t47.5 18t47.5 -18t19.5 -47t-19.5 -47.5t-47.5 -18.5t-47.5 18.5t-19.5 47.5zM3449 62q0 -22 14.5 -37t34.5 -15t34.5 15t14.5 37t-14.5 36.5t-34.5 14.5t-34.5 -14.5t-14.5 -36.5zM3472 25v73h28 q28 0 28 -21q0 -18 -19 -20l20 -32h-16l-17 31h-10v-31h-14zM3486 68h13q15 0 15 10q0 9 -15 9h-13v-19z" />
<glyph unicode="&#xfb01;" horiz-adv-x="639" d="M40 0v20l73 22v393h-73v39h73v39q0 94 66 153.5t146 59.5q34 0 34 -37q0 -15 -8.5 -30.5t-19.5 -22.5q-42 29 -87 29q-54 0 -54 -66q0 -37 5 -125h120v-39h-120v-393l89 -22v-20h-244zM386 0v20l73 22v375l-73 9v24l155 38v-446l73 -22v-20h-228zM442 643q0 23 17 40 t42 17q23 0 41 -17t18 -40q0 -24 -17.5 -40.5t-41.5 -16.5q-25 0 -42 16.5t-17 40.5z" />
<glyph unicode="&#xfb02;" horiz-adv-x="637" d="M40 0v20l73 22v393h-73v39h73v39q0 94 66 153.5t146 59.5q34 0 34 -37q0 -15 -8.5 -30.5t-19.5 -22.5q-42 29 -87 29q-54 0 -54 -66q0 -37 5 -125h120v-39h-120v-393l89 -22v-20h-244zM379 0v20l73 22v613l-73 9v24l155 38v-684l73 -22v-20h-228z" />
<glyph horiz-adv-x="614" d="M35 0v23l63 17l199 473h24l191 -474l64 -17v-22h-233v22l70 18l-54 135h-163l-56 -136l68 -16v-23h-173zM210 209h135l-66 167z" />
<glyph horiz-adv-x="535" d="M52 0v22l67 17v425l-67 16v23h227q37 0 64.5 -4t55 -15.5t42 -36t14.5 -61.5q0 -59 -34.5 -86t-100.5 -37q69 -2 114.5 -32.5t45.5 -90.5q0 -75 -50 -107.5t-147 -32.5h-231zM211 34q21 -6 49 -6q64 0 94.5 32t30.5 75q0 52 -33.5 81t-97.5 29h-43v-211zM211 278h47 q49 0 75.5 28.5t26.5 73.5q0 43 -23 68.5t-68 25.5q-36 0 -58 -5v-191z" />
<glyph horiz-adv-x="571" d="M58 248q0 136 73.5 202.5t194.5 66.5q42 0 95.5 -10.5t80.5 -21.5l5 -121h-28q-37 125 -154 125q-79 0 -125.5 -65t-46.5 -167q0 -111 47 -177t138 -66q55 0 92 34.5t48 94.5h31l-10 -121q-86 -36 -165 -36q-130 0 -203 64t-73 198z" />
<glyph horiz-adv-x="636" d="M52 0v22l67 17v425l-67 16v23h247q137 0 208 -60t71 -179q0 -130 -75 -197t-214 -67h-237zM211 32h72q93 0 146.5 58.5t53.5 166.5q0 44 -10 80t-31.5 67.5t-62 49t-95.5 17.5h-73v-439z" />
<glyph horiz-adv-x="511" d="M52 0v22l67 17v425l-67 16v23h388v-135h-21l-41 102h-167v-191h99l27 75h19v-181h-19l-27 74h-99v-215h172l49 119h21l-7 -151h-394z" />
<glyph horiz-adv-x="487" d="M52 0v22l67 17v425l-67 16v23h389v-136h-21l-41 103h-168v-191h93l27 75h19v-181h-19l-27 74h-93v-208l72 -17v-22h-231z" />
<glyph horiz-adv-x="623" d="M58 248q0 137 74 203t196 66q45 0 99 -10t81 -22l5 -121h-28q-39 125 -160 125q-81 0 -126.5 -67t-45.5 -167q0 -109 46.5 -175t138.5 -66q37 0 88 16v159l-69 16v23h224v-23l-65 -16v-162q-31 -16 -82.5 -28.5t-95.5 -12.5q-131 0 -205.5 63t-74.5 199z" />
<glyph horiz-adv-x="682" d="M52 0v22l67 17v425l-67 16v23h226v-23l-67 -16v-184h260v184l-67 16v23h226v-23l-67 -16v-425l67 -17v-22h-226v22l67 17v207h-260v-207l67 -17v-22h-226z" />
<glyph horiz-adv-x="330" d="M52 0v22l67 17v425l-67 16v23h226v-23l-67 -16v-425l67 -17v-22h-226z" />
<glyph horiz-adv-x="331" d="M44 -49q51 27 67.5 56t16.5 97v360l-68 16v23h226v-23l-67 -16v-327q0 -82 -38.5 -133t-127.5 -75z" />
<glyph horiz-adv-x="601" d="M52 0v22l67 17v425l-67 16v23h226v-23l-67 -16v-425l67 -17v-22h-226zM226 257l203 207l-74 16v23h183v-23l-59 -16l-171 -166l192 -248q24 -26 63 -28v-22q-40 -11 -86 -11t-77 41z" />
<glyph horiz-adv-x="506" d="M52 0v22l67 17v425l-67 16v23h226v-23l-67 -16v-432h173l50 123h20l-7 -155h-395z" />
<glyph horiz-adv-x="754" d="M52 0v22l67 17v425l-67 16v23h165l165 -382l154 382h166v-23l-67 -16v-425l67 -17v-22h-226v22l68 18v377l-172 -424h-31l-183 429v-383l67 -17v-22h-173z" />
<glyph horiz-adv-x="633" d="M52 0v22l67 17v425l-67 16v23h163l270 -344v305l-69 16v23h174v-23l-66 -16v-471h-28l-338 429v-383l69 -17v-22h-175z" />
<glyph horiz-adv-x="634" d="M58 250q0 118 70 192.5t194 74.5q126 0 190 -74t64 -192q0 -115 -69.5 -190t-190.5 -75q-128 0 -193 69.5t-65 194.5zM153 253q0 -111 43.5 -175t127.5 -64q52 0 89 38.5t52.5 90.5t15.5 108q0 117 -44 177.5t-126 60.5q-76 0 -117 -65t-41 -171z" />
<glyph horiz-adv-x="506" d="M52 0v22l67 17v425l-67 16v23h212q92 0 145.5 -28t53.5 -101q0 -76 -54.5 -113.5t-142.5 -37.5h-25v24q127 17 127 127q0 100 -104 100q-25 0 -53 -5v-431l71 -16v-22h-230z" />
<glyph horiz-adv-x="634" d="M58 250q0 118 70 192.5t194 74.5q126 0 190 -74t64 -192q0 -97 -50.5 -167t-140.5 -91q28 -49 75.5 -91.5t84.5 -42.5h22v-22q-47 -13 -98 -13q-48 0 -99.5 49.5t-89.5 113.5q-111 10 -166.5 78.5t-55.5 184.5zM153 253q0 -111 43.5 -175.5t127.5 -64.5q52 0 89 39 t52.5 91t15.5 108q0 117 -44 177.5t-126 60.5q-76 0 -117 -65t-41 -171z" />
<glyph horiz-adv-x="564" d="M52 0v22l67 17v425l-67 16v23h213q97 0 148.5 -27.5t51.5 -97.5q0 -57 -42 -92.5t-127 -42.5q71 -13 106 -70l74 -121q17 -27 65 -33v-22q-33 -11 -83 -11q-46 0 -74 47l-97 166q-22 37 -59 37h-17v-198l68 -16v-22h-227zM211 262h46q55 0 84.5 30t29.5 83q0 47 -27 73 t-79 26q-24 0 -54 -6v-206z" />
<glyph horiz-adv-x="440" d="M54 147h29q13 -64 42 -98t88 -34q43 0 73.5 21t30.5 58q0 39 -26.5 66t-64 44t-75 35.5t-64 51.5t-26.5 80q0 71 46.5 108.5t119.5 37.5q81 0 135 -24v-116h-27q-10 51 -39 81.5t-76 30.5q-35 0 -59.5 -19.5t-24.5 -55.5q0 -37 26 -63.5t63.5 -44t75 -36t63.5 -52 t26 -80.5q0 -68 -50.5 -110t-132.5 -42q-68 0 -146 35z" />
<glyph horiz-adv-x="559" d="M52 363v140h455v-140h-21l-41 107h-120v-431l72 -17v-22h-235v22l72 17v431h-120l-41 -107h-21z" />
<glyph horiz-adv-x="615" d="M38 480v23h227v-23l-68 -16v-297q0 -66 37.5 -102t99.5 -36t101 39t39 115v281l-69 16v23h176v-23l-68 -16v-283q0 -94 -56 -144t-141 -50q-210 0 -210 176v301z" />
<glyph horiz-adv-x="612" d="M38 480v23h230v-23l-70 -18l137 -347l136 349l-69 16v23h175v-23l-64 -17l-192 -470h-26l-193 471z" />
<glyph horiz-adv-x="903" d="M38 480v23h232v-23l-71 -18l123 -332l102 293l-15 41l-62 16v23h228v-23l-71 -18l126 -339l130 341l-68 16v23h176v-23l-64 -17l-191 -470h-24l-144 375l-136 -375h-25l-180 471z" />
<glyph horiz-adv-x="612" d="M38 0v23l66 17l152 212l-151 212l-60 16v23h231v-23l-67 -17l111 -162l119 163l-65 16v23h175v-23l-63 -16l-145 -191l169 -234l64 -17v-22h-239v22l70 17l-127 183l-123 -184l69 -16v-22h-186z" />
<glyph horiz-adv-x="578" d="M31 480v23h230v-23l-69 -17l130 -204l118 205l-68 16v23h175v-23l-62 -17l-145 -247v-177l71 -17v-22h-236v22l73 17v178l-161 247z" />
<glyph horiz-adv-x="524" d="M42 0v20l305 450h-219l-40 -102h-21v135h389v-21l-306 -450h250l50 123h20l-7 -155h-421z" />
<glyph horiz-adv-x="614" d="M35 0v23l63 17l199 473h24l191 -474l64 -17v-22h-233v22l70 18l-54 135h-163l-56 -136l68 -16v-23h-173zM210 209h135l-66 167zM230 591q80 111 103 171q71 -6 71 -32q0 -21 -53 -72t-97 -80z" />
<glyph horiz-adv-x="614" d="M35 0v23l63 17l199 473h24l191 -474l64 -17v-22h-233v22l70 18l-54 135h-163l-56 -136l68 -16v-23h-173zM200 730q0 26 71 32q23 -60 103 -171l-24 -13q-44 29 -97 80t-53 72zM210 209h135l-66 167z" />
<glyph horiz-adv-x="614" d="M35 0v23l63 17l199 473h24l191 -474l64 -17v-22h-233v22l70 18l-54 135h-163l-56 -136l68 -16v-23h-173zM184 591q59 80 107 169h38q48 -89 107 -169l-24 -13l-102 95l-102 -95zM210 209h135l-66 167z" />
<glyph horiz-adv-x="614" d="M35 0v23l63 17l199 473h24l191 -474l64 -17v-22h-233v22l70 18l-54 135h-163l-56 -136l68 -16v-23h-173zM157 605q11 64 31.5 93.5t55.5 29.5q20 0 72 -23.5t67 -23.5q11 0 20 8.5t14.5 20t12.5 31.5l27 -7q-11 -64 -31.5 -93.5t-55.5 -29.5q-20 0 -72 23.5t-67 23.5 q-11 0 -20 -8.5t-14.5 -20t-12.5 -31.5zM210 209h135l-66 167z" />
<glyph horiz-adv-x="614" d="M35 0v23l63 17l199 473h24l191 -474l64 -17v-22h-233v22l70 18l-54 135h-163l-56 -136l68 -16v-23h-173zM147 663q0 22 16.5 38t39.5 16t39.5 -16t16.5 -38t-16.5 -38t-39.5 -16t-39.5 16t-16.5 38zM210 209h135l-66 167zM355 663q0 22 16.5 38t39.5 16t39.5 -16 t16.5 -38t-16.5 -38t-39.5 -16t-39.5 16t-16.5 38z" />
<glyph horiz-adv-x="614" d="M35 0v23l63 17l199 473h24l191 -474l64 -17v-22h-233v22l70 18l-54 135h-163l-56 -136l68 -16v-23h-173zM210 209h135l-66 167zM217 669q0 41 26.5 66t66.5 25q39 0 66 -25t27 -66t-27 -65.5t-66 -24.5q-40 0 -66.5 24.5t-26.5 65.5zM266 669q0 -27 12.5 -42t31.5 -15 t31.5 15t12.5 42t-12.5 42t-31.5 15t-31.5 -15t-12.5 -42z" />
<glyph horiz-adv-x="571" d="M58 248q0 136 73.5 202.5t194.5 66.5q42 0 95.5 -10.5t80.5 -21.5l5 -121h-28q-37 125 -154 125q-79 0 -125.5 -65t-46.5 -167q0 -111 47 -177t138 -66q55 0 92 34.5t48 94.5h31l-10 -121q-81 -34 -156 -36l-41 -50q46 0 76.5 -19.5t30.5 -54.5q0 -43 -35 -70t-84 -27 q-42 0 -79 20l15 28q26 -15 60 -15q24 0 38 10t14 28q0 24 -26.5 36.5t-68.5 12.5l-7 18l65 84q-243 17 -243 261z" />
<glyph horiz-adv-x="511" d="M52 0v22l67 17v425l-67 16v23h388v-135h-21l-41 102h-167v-191h99l27 75h19v-181h-19l-27 74h-99v-215h172l49 119h21l-7 -151h-394zM176 591q80 111 103 171q71 -6 71 -32q0 -21 -53 -72t-97 -80z" />
<glyph horiz-adv-x="511" d="M52 0v22l67 17v425l-67 16v23h388v-135h-21l-41 102h-167v-191h99l27 75h19v-181h-19l-27 74h-99v-215h172l49 119h21l-7 -151h-394zM151 730q0 26 71 32q23 -60 103 -171l-24 -13q-44 29 -97 80t-53 72z" />
<glyph horiz-adv-x="511" d="M52 0v22l67 17v425l-67 16v23h388v-135h-21l-41 102h-167v-191h99l27 75h19v-181h-19l-27 74h-99v-215h172l49 119h21l-7 -151h-394zM129 591q59 80 107 169h38q48 -89 107 -169l-24 -13l-102 95l-102 -95z" />
<glyph horiz-adv-x="511" d="M52 0v22l67 17v425l-67 16v23h388v-135h-21l-41 102h-167v-191h99l27 75h19v-181h-19l-27 74h-99v-215h172l49 119h21l-7 -151h-394zM95 663q0 22 16.5 38t39.5 16t39.5 -16t16.5 -38t-16.5 -38t-39.5 -16t-39.5 16t-16.5 38zM303 663q0 22 16.5 38t39.5 16t39.5 -16 t16.5 -38t-16.5 -38t-39.5 -16t-39.5 16t-16.5 38z" />
<glyph horiz-adv-x="330" d="M52 0v22l67 17v425l-67 16v23h226v-23l-67 -16v-425l67 -17v-22h-226zM99 591q80 111 103 171q71 -6 71 -32q0 -21 -53 -72t-97 -80z" />
<glyph horiz-adv-x="330" d="M48 730q0 26 71 32q23 -60 103 -171l-24 -13q-44 29 -97 80t-53 72zM52 0v22l67 17v425l-67 16v23h226v-23l-67 -16v-425l67 -17v-22h-226z" />
<glyph horiz-adv-x="330" d="M39 591q59 80 107 169h38q48 -89 107 -169l-24 -13l-102 95l-102 -95zM52 0v22l67 17v425l-67 16v23h226v-23l-67 -16v-425l67 -17v-22h-226z" />
<glyph horiz-adv-x="330" d="M5 663q0 22 16.5 38t39.5 16t39.5 -16t16.5 -38t-16.5 -38t-39.5 -16t-39.5 16t-16.5 38zM52 0v22l67 17v425l-67 16v23h226v-23l-67 -16v-425l67 -17v-22h-226zM213 663q0 22 16.5 38t39.5 16t39.5 -16t16.5 -38t-16.5 -38t-39.5 -16t-39.5 16t-16.5 38z" />
<glyph horiz-adv-x="330" d="M52 0v22l67 17v425l-67 16v23h226v-23l-67 -16v-425l67 -17v-22h-226z" />
<glyph horiz-adv-x="513" d="M59 0v22l67 17v171l-65 -17v45l65 17v209l-67 16v23h226v-23l-67 -16v-185l104 28v-45l-104 -28v-202h173l50 123h20l-7 -155h-395z" />
<glyph horiz-adv-x="633" d="M52 0v22l67 17v425l-67 16v23h163l270 -344v305l-69 16v23h174v-23l-66 -16v-471h-28l-338 429v-383l69 -17v-22h-175zM166 605q11 64 31.5 93.5t55.5 29.5q20 0 72 -23.5t67 -23.5q11 0 20 8.5t14.5 20t12.5 31.5l27 -7q-11 -64 -31.5 -93.5t-55.5 -29.5q-20 0 -72 23.5 t-67 23.5q-11 0 -20 -8.5t-14.5 -20t-12.5 -31.5z" />
<glyph horiz-adv-x="634" d="M58 250q0 118 70 192.5t194 74.5q126 0 190 -74t64 -192q0 -115 -69.5 -190t-190.5 -75q-128 0 -193 69.5t-65 194.5zM153 253q0 -111 43.5 -175t127.5 -64q52 0 89 38.5t52.5 90.5t15.5 108q0 117 -44 177.5t-126 60.5q-76 0 -117 -65t-41 -171zM245 591q80 111 103 171 q71 -6 71 -32q0 -21 -53 -72t-97 -80z" />
<glyph horiz-adv-x="634" d="M58 250q0 118 70 192.5t194 74.5q126 0 190 -74t64 -192q0 -115 -69.5 -190t-190.5 -75q-128 0 -193 69.5t-65 194.5zM153 253q0 -111 43.5 -175t127.5 -64q52 0 89 38.5t52.5 90.5t15.5 108q0 117 -44 177.5t-126 60.5q-76 0 -117 -65t-41 -171zM215 730q0 26 71 32 q23 -60 103 -171l-24 -13q-44 29 -97 80t-53 72z" />
<glyph horiz-adv-x="634" d="M58 250q0 118 70 192.5t194 74.5q126 0 190 -74t64 -192q0 -115 -69.5 -190t-190.5 -75q-128 0 -193 69.5t-65 194.5zM153 253q0 -111 43.5 -175t127.5 -64q52 0 89 38.5t52.5 90.5t15.5 108q0 117 -44 177.5t-126 60.5q-76 0 -117 -65t-41 -171zM191 591q59 80 107 169 h38q48 -89 107 -169l-24 -13l-102 95l-102 -95z" />
<glyph horiz-adv-x="634" d="M58 250q0 118 70 192.5t194 74.5q126 0 190 -74t64 -192q0 -115 -69.5 -190t-190.5 -75q-128 0 -193 69.5t-65 194.5zM153 253q0 -111 43.5 -175t127.5 -64q52 0 89 38.5t52.5 90.5t15.5 108q0 117 -44 177.5t-126 60.5q-76 0 -117 -65t-41 -171zM172 605 q11 64 31.5 93.5t55.5 29.5q20 0 72 -23.5t67 -23.5q11 0 20 8.5t14.5 20t12.5 31.5l27 -7q-11 -64 -31.5 -93.5t-55.5 -29.5q-20 0 -72 23.5t-67 23.5q-11 0 -20 -8.5t-14.5 -20t-12.5 -31.5z" />
<glyph horiz-adv-x="634" d="M58 250q0 118 70 192.5t194 74.5q126 0 190 -74t64 -192q0 -115 -69.5 -190t-190.5 -75q-128 0 -193 69.5t-65 194.5zM153 253q0 -111 43.5 -175t127.5 -64q52 0 89 38.5t52.5 90.5t15.5 108q0 117 -44 177.5t-126 60.5q-76 0 -117 -65t-41 -171zM157 663q0 22 16.5 38 t39.5 16t39.5 -16t16.5 -38t-16.5 -38t-39.5 -16t-39.5 16t-16.5 38zM365 663q0 22 16.5 38t39.5 16t39.5 -16t16.5 -38t-16.5 -38t-39.5 -16t-39.5 16t-16.5 38z" />
<glyph horiz-adv-x="634" d="M58 250q0 118 70 192.5t194 74.5q85 0 143 -36l36 47h52l-55 -72q78 -72 78 -205q0 -115 -69.5 -190t-190.5 -75q-89 0 -148 34l-35 -46h-52l53 70q-76 69 -76 206zM153 253q0 -89 27 -148l251 330q-43 54 -120 54q-76 0 -117 -65t-41 -171zM204 68q43 -54 120 -54 q52 0 89 38.5t52.5 90.5t15.5 108q0 90 -27 147z" />
<glyph horiz-adv-x="440" d="M54 147h29q13 -64 42 -98t88 -34q43 0 73.5 21t30.5 58q0 39 -26.5 66t-64 44t-75 35.5t-64 51.5t-26.5 80q0 71 46.5 108.5t119.5 37.5q81 0 135 -24v-116h-27q-10 51 -39 81.5t-76 30.5q-35 0 -59.5 -19.5t-24.5 -55.5q0 -37 26 -63.5t63.5 -44t75 -36t63.5 -52 t26 -80.5q0 -68 -50.5 -110t-132.5 -42q-68 0 -146 35zM89 752l24 13l102 -95l102 95l24 -13q-59 -80 -107 -169h-38q-48 89 -107 169z" />
<glyph horiz-adv-x="615" d="M38 480v23h227v-23l-68 -16v-297q0 -66 37.5 -102t99.5 -36t101 39t39 115v281l-69 16v23h176v-23l-68 -16v-283q0 -94 -56 -144t-141 -50q-210 0 -210 176v301zM261 591q80 111 103 171q71 -6 71 -32q0 -21 -53 -72t-97 -80z" />
<glyph horiz-adv-x="615" d="M38 480v23h227v-23l-68 -16v-297q0 -66 37.5 -102t99.5 -36t101 39t39 115v281l-69 16v23h176v-23l-68 -16v-283q0 -94 -56 -144t-141 -50q-210 0 -210 176v301zM203 730q0 26 71 32q23 -60 103 -171l-24 -13q-44 29 -97 80t-53 72z" />
<glyph horiz-adv-x="615" d="M38 480v23h227v-23l-68 -16v-297q0 -66 37.5 -102t99.5 -36t101 39t39 115v281l-69 16v23h176v-23l-68 -16v-283q0 -94 -56 -144t-141 -50q-210 0 -210 176v301zM202 591q59 80 107 169h38q48 -89 107 -169l-24 -13l-102 95l-102 -95z" />
<glyph horiz-adv-x="615" d="M38 480v23h227v-23l-68 -16v-297q0 -66 37.5 -102t99.5 -36t101 39t39 115v281l-69 16v23h176v-23l-68 -16v-283q0 -94 -56 -144t-141 -50q-210 0 -210 176v301zM163 663q0 22 16.5 38t39.5 16t39.5 -16t16.5 -38t-16.5 -38t-39.5 -16t-39.5 16t-16.5 38zM371 663 q0 22 16.5 38t39.5 16t39.5 -16t16.5 -38t-16.5 -38t-39.5 -16t-39.5 16t-16.5 38z" />
<glyph horiz-adv-x="578" d="M31 480v23h230v-23l-69 -17l130 -204l118 205l-68 16v23h175v-23l-62 -17l-145 -247v-177l71 -17v-22h-236v22l73 17v178l-161 247zM264 591q80 111 103 171q71 -6 71 -32q0 -21 -53 -72t-97 -80z" />
<glyph horiz-adv-x="578" d="M31 480v23h230v-23l-69 -17l130 -204l118 205l-68 16v23h175v-23l-62 -17l-145 -247v-177l71 -17v-22h-236v22l73 17v178l-161 247zM148 663q0 22 16.5 38t39.5 16t39.5 -16t16.5 -38t-16.5 -38t-39.5 -16t-39.5 16t-16.5 38zM356 663q0 22 16.5 38t39.5 16t39.5 -16 t16.5 -38t-16.5 -38t-39.5 -16t-39.5 16t-16.5 38z" />
<glyph horiz-adv-x="524" d="M42 0v20l305 450h-219l-40 -102h-21v135h389v-21l-306 -450h250l50 123h20l-7 -155h-421zM121 752l24 13l102 -95l102 95l24 -13q-59 -80 -107 -169h-38q-48 89 -107 169z" />
<glyph horiz-adv-x="636" d="M47 238v45h72v181l-67 16v23h247q137 0 208 -60t71 -179q0 -130 -75 -197t-214 -67h-237v22l67 17v199h-72zM211 32h72q93 0 146.5 58.5t53.5 166.5q0 44 -10 80t-31.5 67.5t-62 49t-95.5 17.5h-73v-188h98v-45h-98v-206z" />
<glyph horiz-adv-x="509" d="M52 0v22l67 17v425l-67 16v23h226v-23l-67 -16v-68h53q92 0 145.5 -28t53.5 -101q0 -76 -54.5 -113.5t-142.5 -37.5h-25v24q127 17 127 127q0 100 -104 100q-26 0 -53 -5v-323l67 -17v-22h-226z" />
<glyph horiz-adv-x="785" d="M27 0v23l62 17l272 426l-65 14v23h418v-135h-21l-41 102h-167v-191h99l27 75h19v-181h-19l-27 74h-99v-215h172l49 119h21l-7 -151h-394v22l67 17v136h-172l-85 -135l67 -17v-23h-176zM242 209h151v239z" />
<glyph horiz-adv-x="758" d="M58 249q0 121 70.5 187.5t198.5 66.5h361v-135h-21l-41 102h-167v-191h99l27 75h19v-181h-19l-27 74h-99v-215h171l50 119h20l-7 -151h-373q-135 0 -198.5 56.5t-63.5 192.5zM153 253q0 -102 46 -162t132 -60h36v442h-48q-80 0 -123 -62.5t-43 -157.5z" />
<glyph horiz-adv-x="880" d="M54 147h29q13 -64 42 -98t88 -34q43 0 73.5 21t30.5 58q0 39 -26.5 66t-64 44t-75 35.5t-64 51.5t-26.5 80q0 71 46.5 108.5t119.5 37.5q81 0 135 -24v-116h-27q-10 51 -39 81.5t-76 30.5q-35 0 -59.5 -19.5t-24.5 -55.5q0 -37 26 -63.5t63.5 -44t75 -36t63.5 -52 t26 -80.5q0 -68 -50.5 -110t-132.5 -42q-68 0 -146 35zM494 147h29q13 -64 42 -98t88 -34q43 0 73.5 21t30.5 58q0 39 -26.5 66t-64 44t-75 35.5t-64 51.5t-26.5 80q0 71 46.5 108.5t119.5 37.5q81 0 135 -24v-116h-27q-10 51 -39 81.5t-76 30.5q-35 0 -59.5 -19.5 t-24.5 -55.5q0 -37 26 -63.5t63.5 -44t75 -36t63.5 -52t26 -80.5q0 -68 -50.5 -110t-132.5 -42q-68 0 -146 35z" />
<glyph horiz-adv-x="817" d="M52 0v22l67 17v425l-67 16v23h389v-136h-21l-41 103h-168v-191h93l27 75h19v-181h-19l-27 74h-93v-208l72 -17v-22h-231zM539 0v22l67 17v425l-67 16v23h226v-23l-67 -16v-425l67 -17v-22h-226z" />
<glyph horiz-adv-x="993" d="M52 0v22l67 17v425l-67 16v23h389v-136h-21l-41 103h-168v-191h93l27 75h19v-181h-19l-27 74h-93v-208l72 -17v-22h-231zM539 0v22l67 17v425l-67 16v23h226v-23l-67 -16v-432h173l50 123h20l-7 -155h-395z" />
<glyph horiz-adv-x="628" d="M44 129q0 109 138 160q-54 64 -54 116t39 82t106 30q59 0 96 -27t37 -74q0 -44 -31 -77.5t-86 -52.5l113 -145l78 103l-58 16v23h169v-23l-66 -17l-104 -127l4 -5q35 -46 59.5 -63t56.5 -17h36v-26q-50 -19 -104 -19q-58 0 -108 62q-59 -62 -153 -62q-73 0 -120.5 37 t-47.5 106zM132 144q0 -53 30 -84.5t80 -31.5q58 0 103 45l-148 197q-30 -20 -47.5 -53.5t-17.5 -72.5zM211 425q0 -36 42 -91l23 -31q53 53 53 115q0 32 -15 52.5t-43 20.5q-27 0 -43.5 -16.5t-16.5 -49.5z" />
<glyph d="M48 249q0 110 61.5 186.5t168.5 76.5q103 0 163.5 -76.5t60.5 -186.5q0 -112 -58 -187.5t-165 -75.5q-112 0 -171.5 75t-59.5 188zM147 249q0 -72 10 -119t29.5 -70t41.5 -31.5t53 -8.5q36 0 61.5 17.5t43 70.5t17.5 141q0 59 -7 101.5t-18 66.5t-28 38.5t-33 18.5t-37 4 q-73 0 -103 -52t-30 -177z" />
<glyph d="M95 414v23l230 71h27v-457l152 -29v-22h-399v22l154 29v373z" />
<glyph d="M31 0v20q66 45 101.5 70t84.5 64.5t73 69t42.5 67.5t18.5 75q0 48 -28 81.5t-81 33.5t-81.5 -39.5t-30.5 -99.5q-79 2 -79 49q0 54 59.5 87.5t140.5 33.5q86 0 144.5 -35t58.5 -101q0 -26 -8.5 -51t-29 -50.5t-37 -44t-51 -44t-50.5 -37.5t-56 -38.5t-49 -32.5h259 l34 105h23l-9 -183h-449z" />
<glyph d="M38 -50q0 28 20.5 46t52.5 19q1 -68 43.5 -106t105.5 -38q65 0 104 33t39 91q0 71 -66.5 115t-189.5 49v27q105 18 160.5 61.5t55.5 102.5q0 45 -32 73t-82 28q-84 0 -144 -67l-24 17q81 111 207 111q77 0 122.5 -37t45.5 -96q0 -61 -43.5 -104t-113.5 -65 q91 -16 137.5 -65t46.5 -111q0 -82 -59.5 -139t-165.5 -57q-92 0 -156 35t-64 77z" />
<glyph d="M32 52v19l327 437h43v-400h112v-56h-112v-147l105 -27v-22h-311v22l115 27v147h-279zM104 108h207v275z" />
<glyph d="M59 -62q0 25 22 42.5t48 17.5q7 -56 38.5 -92t94.5 -36q64 0 108.5 35.5t44.5 103.5q0 155 -260 155h-62l32 331h281l20 56h23l-7 -142h-295l-13 -163h63q59 0 109.5 -10.5t92.5 -32.5t66 -61t24 -91q0 -100 -67.5 -156.5t-171.5 -56.5q-82 0 -136.5 28t-54.5 72z" />
<glyph d="M55 238q0 157 107.5 274.5t275.5 162.5l8 -31q-138 -52 -216 -152t-78 -247q0 -97 39 -161t101 -64q52 0 85.5 48t33.5 124q0 75 -36 126t-100 51q-28 0 -67 -13l-6 24q48 32 115 32q86 0 137 -52t51 -137q0 -104 -65.5 -170.5t-165.5 -66.5q-97 0 -158 65.5t-61 186.5z " />
<glyph d="M60 329l17 201h23l11 -35h412v-21q-159 -304 -306 -622h-106l342 555h-344l-24 -78h-25z" />
<glyph d="M49 146q0 55 35.5 101.5t100.5 74.5q-55 30 -85.5 68t-30.5 95q0 78 62 126.5t152 48.5q97 0 150 -42.5t53 -111.5q0 -50 -36.5 -92.5t-97.5 -66.5q72 -35 111.5 -75.5t39.5 -104.5q0 -77 -61.5 -129t-163.5 -52q-105 0 -167 45t-62 115zM138 152q0 -59 40 -95.5 t108 -36.5q54 0 93.5 28.5t39.5 84.5q0 23 -9.5 43.5t-22 34.5t-37.5 29.5t-42 23.5t-50 23t-48 22q-72 -62 -72 -157zM150 521q0 -24 11 -45.5t23.5 -35t42.5 -31t44.5 -25t53.5 -25.5q81 57 81 146q0 52 -33 86t-94 34q-54 0 -91.5 -26.5t-37.5 -77.5z" />
<glyph d="M46 275q0 104 65.5 170.5t165.5 66.5q97 0 158 -65.5t61 -186.5q0 -157 -107.5 -274.5t-275.5 -162.5l-8 31q138 52 216 152t78 247q0 97 -39 161t-101 64q-52 0 -85.5 -48t-33.5 -124q0 -75 36 -126t100 -51q28 0 67 13l6 -24q-48 -32 -115 -32q-86 0 -137 52t-51 137z " />
<glyph d="M48 323q0 142 61.5 239.5t168.5 97.5q103 0 163.5 -98t60.5 -239q0 -92 -24 -167t-75.5 -122.5t-123.5 -47.5q-112 0 -171.5 96t-59.5 241zM147 323q0 -95 10 -157.5t29.5 -93t41.5 -41.5t53 -11q27 0 47.5 13.5t38 45.5t27 93.5t9.5 150.5q0 96 -10 159.5t-29 93t-38 40 t-46 10.5q-73 0 -103 -69t-30 -234z" />
<glyph horiz-adv-x="409" d="M40 558v23l200 71h27v-601l122 -29v-22h-339v22l124 29v517z" />
<glyph horiz-adv-x="530" d="M22 0v20q76 64 126 112t98.5 106.5t72 116t23.5 115.5q0 67 -30 113t-85 46q-51 0 -77.5 -37t-28.5 -102q-79 2 -79 49q0 52 58 86.5t142 34.5q94 0 148.5 -45t54.5 -121q0 -88 -73 -186.5t-237 -229.5h288l34 110h23l-9 -188h-449z" />
<glyph horiz-adv-x="530" d="M33 98q0 28 20.5 46t52.5 19q1 -68 43.5 -106t105.5 -38q65 0 104 33t39 91q0 71 -66.5 115t-189.5 49v27q105 18 160.5 61.5t55.5 102.5q0 45 -32 73t-82 28q-84 0 -144 -67l-24 17q81 111 207 111q77 0 122.5 -37t45.5 -96q0 -61 -43.5 -104t-113.5 -65 q91 -16 137.5 -65t46.5 -111q0 -82 -59.5 -139t-165.5 -57q-92 0 -156 35t-64 77z" />
<glyph d="M32 196v19l327 437h43v-400h112v-56h-112v-147l105 -27v-22h-311v22l115 27v147h-279zM104 252h207v275z" />
<glyph horiz-adv-x="520" d="M45 86q0 25 22 42.5t48 17.5q7 -56 38.5 -92t94.5 -36q64 0 108.5 35.5t44.5 103.5q0 155 -260 155h-62l32 331h281l20 56h23l-7 -142h-295l-13 -163h63q59 0 109.5 -10.5t92.5 -32.5t66 -61t24 -91q0 -100 -67.5 -156.5t-171.5 -56.5q-82 0 -136.5 28t-54.5 72z" />
<glyph d="M55 238q0 157 107.5 274.5t275.5 162.5l8 -31q-138 -52 -216 -152t-78 -247q0 -97 39 -161t101 -64q52 0 85.5 48t33.5 124q0 75 -36 126t-100 51q-28 0 -67 -13l-6 24q48 32 115 32q86 0 137 -52t51 -137q0 -104 -65.5 -170.5t-165.5 -66.5q-97 0 -158 65.5t-61 186.5z " />
<glyph horiz-adv-x="540" d="M55 477l17 201h23l11 -35h412v-21q-159 -304 -306 -622h-106l342 555h-344l-24 -78h-25z" />
<glyph horiz-adv-x="544" d="M46 146q0 55 35.5 101.5t100.5 74.5q-55 30 -85.5 68t-30.5 95q0 78 62 126.5t152 48.5q97 0 150 -42.5t53 -111.5q0 -50 -36.5 -92.5t-97.5 -66.5q72 -35 111.5 -75.5t39.5 -104.5q0 -77 -61.5 -129t-163.5 -52q-105 0 -167 45t-62 115zM135 152q0 -59 40 -95.5 t108 -36.5q54 0 93.5 28.5t39.5 84.5q0 23 -9.5 43.5t-22 34.5t-37.5 29.5t-42 23.5t-50 23t-48 22q-72 -62 -72 -157zM147 521q0 -24 11 -45.5t23.5 -35t42.5 -31t44.5 -25t53.5 -25.5q81 57 81 146q0 52 -33 86t-94 34q-54 0 -91.5 -26.5t-37.5 -77.5z" />
<glyph d="M46 423q0 104 65.5 170.5t165.5 66.5q97 0 158 -65.5t61 -186.5q0 -157 -107.5 -274.5t-275.5 -162.5l-8 31q138 52 216 152t78 247q0 97 -39 161t-101 64q-52 0 -85.5 -48t-33.5 -124q0 -75 36 -126t100 -51q28 0 67 13l6 -24q-48 -32 -115 -32q-86 0 -137 52t-51 137z " />
<glyph d="M48 249q0 110 61.5 186.5t168.5 76.5q103 0 163.5 -76.5t60.5 -186.5q0 -112 -58 -187.5t-165 -75.5q-112 0 -171.5 75t-59.5 188zM147 249q0 -72 10 -119t29.5 -70t41.5 -31.5t53 -8.5q36 0 61.5 17.5t43 70.5t17.5 141q0 59 -7 101.5t-18 66.5t-28 38.5t-33 18.5t-37 4 q-73 0 -103 -52t-30 -177z" />
<glyph horiz-adv-x="414" d="M50 414v23l200 71h27v-457l122 -29v-22h-339v22l124 29v373z" />
<glyph horiz-adv-x="530" d="M21 0v20q66 45 101.5 70t84.5 64.5t73 69t42.5 67.5t18.5 75q0 48 -28 81.5t-81 33.5t-81.5 -39.5t-30.5 -99.5q-79 2 -79 49q0 54 59.5 87.5t140.5 33.5q86 0 144.5 -35t58.5 -101q0 -26 -8.5 -51t-29 -50.5t-37 -44t-51 -44t-50.5 -37.5t-56 -38.5t-49 -32.5h259 l34 105h23l-9 -183h-449z" />
<glyph horiz-adv-x="530" d="M28 -50q0 28 20.5 46t52.5 19q1 -68 43.5 -106t105.5 -38q65 0 104 33t39 91q0 71 -66.5 115t-189.5 49v27q105 18 160.5 61.5t55.5 102.5q0 45 -32 73t-82 28q-84 0 -144 -67l-24 17q81 111 207 111q77 0 122.5 -37t45.5 -96q0 -61 -43.5 -104t-113.5 -65 q91 -16 137.5 -65t46.5 -111q0 -82 -59.5 -139t-165.5 -57q-92 0 -156 35t-64 77z" />
<glyph d="M32 52v19l327 437h43v-400h112v-56h-112v-147l105 -27v-22h-311v22l115 27v147h-279zM104 108h207v275z" />
<glyph horiz-adv-x="510" d="M40 -62q0 25 22 42.5t48 17.5q7 -56 38.5 -92t94.5 -36q64 0 108.5 35.5t44.5 103.5q0 155 -260 155h-62l32 331h281l20 56h23l-7 -142h-295l-13 -163h63q59 0 109.5 -10.5t92.5 -32.5t66 -61t24 -91q0 -100 -67.5 -156.5t-171.5 -56.5q-82 0 -136.5 28t-54.5 72z" />
<glyph d="M55 238q0 157 107.5 274.5t275.5 162.5l8 -31q-138 -52 -216 -152t-78 -247q0 -97 39 -161t101 -64q52 0 85.5 48t33.5 124q0 75 -36 126t-100 51q-28 0 -67 -13l-6 24q48 32 115 32q86 0 137 -52t51 -137q0 -104 -65.5 -170.5t-165.5 -66.5q-97 0 -158 65.5t-61 186.5z " />
<glyph horiz-adv-x="530" d="M45 329l17 201h23l11 -35h412v-21q-159 -304 -306 -622h-106l342 555h-344l-24 -78h-25z" />
<glyph horiz-adv-x="544" d="M46 146q0 55 35.5 101.5t100.5 74.5q-55 30 -85.5 68t-30.5 95q0 78 62 126.5t152 48.5q97 0 150 -42.5t53 -111.5q0 -50 -36.5 -92.5t-97.5 -66.5q72 -35 111.5 -75.5t39.5 -104.5q0 -77 -61.5 -129t-163.5 -52q-105 0 -167 45t-62 115zM135 152q0 -59 40 -95.5 t108 -36.5q54 0 93.5 28.5t39.5 84.5q0 23 -9.5 43.5t-22 34.5t-37.5 29.5t-42 23.5t-50 23t-48 22q-72 -62 -72 -157zM147 521q0 -24 11 -45.5t23.5 -35t42.5 -31t44.5 -25t53.5 -25.5q81 57 81 146q0 52 -33 86t-94 34q-54 0 -91.5 -26.5t-37.5 -77.5z" />
<glyph d="M46 275q0 104 65.5 170.5t165.5 66.5q97 0 158 -65.5t61 -186.5q0 -157 -107.5 -274.5t-275.5 -162.5l-8 31q138 52 216 152t78 247q0 97 -39 161t-101 64q-52 0 -85.5 -48t-33.5 -124q0 -75 36 -126t100 -51q28 0 67 13l6 -24q-48 -32 -115 -32q-86 0 -137 52t-51 137z " />
<glyph horiz-adv-x="400" d="M94 746q114 79 155 126q56 -24 56 -48q0 -21 -66.5 -52t-126.5 -46z" />
<glyph horiz-adv-x="400" d="M94 824q0 24 56 48q41 -47 155 -126l-18 -20q-60 15 -126.5 46t-66.5 52z" />
<glyph horiz-adv-x="400" d="M70 742q78 92 111 142h38q33 -50 111 -142l-21 -16l-109 71l-109 -71z" />
<glyph horiz-adv-x="400" d="M50 745q11 64 31.5 93.5t55.5 29.5q20 0 72 -23.5t67 -23.5q11 0 20 8.5t14.5 20t12.5 31.5l27 -7q-11 -64 -31.5 -93.5t-55.5 -29.5q-20 0 -72 23.5t-67 23.5q-11 0 -20 -8.5t-14.5 -20t-12.5 -31.5z" />
<glyph horiz-adv-x="400" d="M40 803q0 22 16.5 38t39.5 16t39.5 -16t16.5 -38t-16.5 -38t-39.5 -16t-39.5 16t-16.5 38zM248 803q0 22 16.5 38t39.5 16t39.5 -16t16.5 -38t-16.5 -38t-39.5 -16t-39.5 16t-16.5 38z" />
<glyph horiz-adv-x="400" d="M107 809q0 41 26.5 66t66.5 25q39 0 66 -25t27 -66t-27 -65.5t-66 -24.5q-40 0 -66.5 24.5t-26.5 65.5zM156 809q0 -27 12.5 -42t31.5 -15t31.5 15t12.5 42t-12.5 42t-31.5 15t-31.5 -15t-12.5 -42z" />
<glyph horiz-adv-x="400" d="M70 875l21 16l109 -71l109 71l21 -16q-78 -92 -111 -142h-38q-33 50 -111 142z" />
<glyph horiz-adv-x="400" d="M65 756v60h270v-60h-270z" />
<glyph horiz-adv-x="400" d="M65 879l24 7q23 -97 111 -97t111 97l24 -7q0 -69 -35.5 -110.5t-99.5 -41.5t-99.5 41.5t-35.5 110.5z" />
<glyph horiz-adv-x="400" d="M41 743q23 24 60 78t45 76q58 -13 58 -40q0 -25 -47 -62.5t-99 -68.5zM196 743q23 24 60 78t45 76q58 -13 58 -40q0 -25 -47 -62.5t-99 -68.5z" />
<glyph horiz-adv-x="400" d="M139 803q0 25 18 43t43 18t43 -18t18 -43t-18 -43t-43 -18t-43 18t-18 43z" />
<glyph horiz-adv-x="400" d="M113 591q80 111 103 171q71 -6 71 -32q0 -21 -53 -72t-97 -80z" />
<glyph horiz-adv-x="400" d="M113 730q0 26 71 32q23 -60 103 -171l-24 -13q-44 29 -97 80t-53 72z" />
<glyph horiz-adv-x="400" d="M74 591q59 80 107 169h38q48 -89 107 -169l-24 -13l-102 95l-102 -95z" />
<glyph horiz-adv-x="400" d="M50 605q11 64 31.5 93.5t55.5 29.5q20 0 72 -23.5t67 -23.5q11 0 20 8.5t14.5 20t12.5 31.5l27 -7q-11 -64 -31.5 -93.5t-55.5 -29.5q-20 0 -72 23.5t-67 23.5q-11 0 -20 -8.5t-14.5 -20t-12.5 -31.5z" />
<glyph horiz-adv-x="400" d="M40 663q0 22 16.5 38t39.5 16t39.5 -16t16.5 -38t-16.5 -38t-39.5 -16t-39.5 16t-16.5 38zM248 663q0 22 16.5 38t39.5 16t39.5 -16t16.5 -38t-16.5 -38t-39.5 -16t-39.5 16t-16.5 38z" />
<glyph horiz-adv-x="400" d="M107 669q0 41 26.5 66t66.5 25q39 0 66 -25t27 -66t-27 -65.5t-66 -24.5q-40 0 -66.5 24.5t-26.5 65.5zM156 669q0 -27 12.5 -42t31.5 -15t31.5 15t12.5 42t-12.5 42t-31.5 15t-31.5 -15t-12.5 -42z" />
<glyph horiz-adv-x="400" d="M74 752l24 13l102 -95l102 95l24 -13q-59 -80 -107 -169h-38q-48 89 -107 169z" />
<glyph horiz-adv-x="400" d="M65 616v60h270v-60h-270z" />
<glyph horiz-adv-x="400" d="M65 739l24 7q23 -97 111 -97t111 97l24 -7q0 -69 -35.5 -110.5t-99.5 -41.5t-99.5 41.5t-35.5 110.5z" />
<glyph horiz-adv-x="400" d="M59 587q17 29 42.5 90.5t29.5 84.5h10q24 0 40 -9t16 -22q0 -24 -39.5 -73.5t-78.5 -83.5zM203 587q17 29 42.5 90.5t29.5 84.5h10q24 0 40 -9t16 -22q0 -24 -39.5 -73.5t-78.5 -83.5z" />
<glyph horiz-adv-x="400" d="M141 663q0 23 17 40t42 17q23 0 41 -17t18 -40q0 -24 -17.5 -40.5t-41.5 -16.5q-25 0 -42 16.5t-17 40.5z" />
</font>
</defs>
</svg>
