<?xml version="1.0" encoding="UTF-8" standalone="no"?>
<!--
  ~  Copyright 2014-2018 University of Namur (PReCISE) - University of Louvain (Girsef - CENTAL).
  ~  This is part of the WebDeb software (WDWEB), a collaborative platform to record and analyze
  ~  argumentation-based debates. This is free software:  you can redistribute it and/or modify
  ~  it under the terms of the GNU Lesser General Public License version 3 as published by the
  ~  Free Software Foundation. It is distributed in the hope that it will be useful, but WITHOUT
  ~  ANY WARRANTY; without even the implied warranty of MERCHANTABILITY or FITNESS FOR A
  ~  PARTICULAR PURPOSE.
  ~
  ~  See <https://webdeb.be/> for a running instance of a webdeb web platform.
  ~  See the GNU Lesser General Public License (LGPL) for more details over the license terms.
  ~
  ~  You should have received a copy of the GNU Lesser General Public License along with this copy.
  ~  If not, see <http://www.gnu.org/licenses/>.
  ~
  -->

<!-- Generator: Adobe Illustrator 16.0.0, SVG Export Plug-In . SVG Version: 6.00 Build 0)  -->

<svg
   xmlns:dc="http://purl.org/dc/elements/1.1/"
   xmlns:cc="http://creativecommons.org/ns#"
   xmlns:rdf="http://www.w3.org/1999/02/22-rdf-syntax-ns#"
   xmlns:svg="http://www.w3.org/2000/svg"
   xmlns="http://www.w3.org/2000/svg"
   xmlns:sodipodi="http://sodipodi.sourceforge.net/DTD/sodipodi-0.dtd"
   xmlns:inkscape="http://www.inkscape.org/namespaces/inkscape"
   version="1.1"
   id="Capa_1"
   x="0px"
   y="0px"
   width="47px"
   height="47px"
   viewBox="0 0 47 47"
   style="enable-background:new 0 0 47 47;"
   xml:space="preserve"
   inkscape:version="0.48.4 r9939"
   sodipodi:docname="links.svg"
   inkscape:export-filename="/home/fgi/workspaces/workspace-webdeb/webdeb-web/public/images/picto/links.jpeg.png"
   inkscape:export-xdpi="382.97873"
   inkscape:export-ydpi="382.97873"><metadata
     id="metadata3143"><rdf:RDF><cc:Work
         rdf:about=""><dc:format>image/svg+xml</dc:format><dc:type
           rdf:resource="http://purl.org/dc/dcmitype/StillImage" /><dc:title></dc:title></cc:Work></rdf:RDF></metadata><defs
     id="defs3141" /><sodipodi:namedview
     pagecolor="#ffffff"
     bordercolor="#666666"
     borderopacity="1"
     objecttolerance="10"
     gridtolerance="10"
     guidetolerance="10"
     inkscape:pageopacity="0"
     inkscape:pageshadow="2"
     inkscape:window-width="1920"
     inkscape:window-height="1056"
     id="namedview3139"
     showgrid="false"
     inkscape:zoom="10.042553"
     inkscape:cx="29.716739"
     inkscape:cy="30.880674"
     inkscape:window-x="1920"
     inkscape:window-y="24"
     inkscape:window-maximized="1"
     inkscape:current-layer="Capa_1" /><g
     style="fill:#50ade5;fill-opacity:1"
     id="Layer_1_3_"><path
       inkscape:connector-curvature="0"
       style="fill:#50ade5;fill-opacity:1"
       id="path3107"
       d="M 47,14.955 V 2.136 C 47,0.956 46.043,0 44.863,0 H 32.046 C 30.865,0 29.909,0.957 29.909,2.136 V 7.477 C 19.473,7.477 10.705,14.65 8.211,24.318 L 5.99,23.927 c -0.399,-0.069 -0.803,0.091 -1.044,0.416 -0.24,0.325 -0.278,0.759 -0.095,1.12 l 2.314,4.569 C 3.109,30.693 0,34.213 0,38.455 0,43.167 3.834,47 8.546,47 c 4.35,0 7.942,-3.27 8.471,-7.477 h 7.551 v 2.136 c 0,0.405 0.229,0.774 0.591,0.956 0.362,0.18 0.795,0.142 1.12,-0.102 l 3.734,-2.802 c 0.61,4.116 4.158,7.288 8.44,7.288 C 43.166,47 47,43.167 47,38.455 c 0,-4.35 -3.27,-7.943 -7.479,-8.471 v -7.552 h 2.138 c 0.403,0 0.774,-0.229 0.954,-0.59 0.182,-0.361 0.144,-0.795 -0.1,-1.119 L 39.788,17.092 H 44.86 C 46.043,17.091 47,16.134 47,14.955 z M 8.546,42.727 c -2.356,0 -4.273,-1.916 -4.273,-4.271 0,-2.355 1.917,-4.273 4.273,-4.273 2.356,0 4.272,1.918 4.272,4.273 0,2.355 -1.916,4.271 -4.272,4.271 z m 34.183,-4.272 c 0,2.355 -1.918,4.271 -4.273,4.271 -2.355,0 -4.271,-1.916 -4.271,-4.271 0,-2.355 1.916,-4.273 4.271,-4.273 2.355,0 4.273,1.918 4.273,4.273 z M 34.295,21.841 c 0.182,0.362 0.551,0.59 0.955,0.59 h 2.137 v 7.551 c -3.794,0.478 -6.814,3.447 -7.373,7.215 l -3.736,-2.803 c -0.323,-0.242 -0.756,-0.28 -1.118,-0.101 -0.361,0.183 -0.591,0.551 -0.591,0.956 v 2.136 H 17.018 C 16.534,33.523 13.465,30.458 9.6,29.98 c 0.003,-0.024 0.015,-0.045 0.015,-0.071 0,-0.005 0,-0.007 0,-0.011 l 3.233,-3.027 c 0.295,-0.276 0.408,-0.696 0.294,-1.084 -0.117,-0.389 -0.44,-0.678 -0.839,-0.748 L 10.32,24.689 C 12.632,16.024 20.526,9.613 29.91,9.613 v 5.341 c 0,1.18 0.956,2.136 2.137,2.136 h 5.073 l -2.724,3.632 c -0.244,0.324 -0.283,0.757 -0.101,1.119 z m 8.434,-9.023 H 34.182 V 4.273 h 8.547 v 8.545 z" /></g><g
     id="g3109" /><g
     id="g3111" /><g
     id="g3113" /><g
     id="g3115" /><g
     id="g3117" /><g
     id="g3119" /><g
     id="g3121" /><g
     id="g3123" /><g
     id="g3125" /><g
     id="g3127" /><g
     id="g3129" /><g
     id="g3131" /><g
     id="g3133" /><g
     id="g3135" /><g
     id="g3137" /></svg>
