<?xml version="1.0" encoding="UTF-8" standalone="no"?>
<!--
  ~  Copyright 2014-2018 University of Namur (PReCISE) - University of Louvain (Girsef - CENTAL).
  ~  This is part of the WebDeb software (WDWEB), a collaborative platform to record and analyze
  ~  argumentation-based debates. This is free software:  you can redistribute it and/or modify
  ~  it under the terms of the GNU Lesser General Public License version 3 as published by the
  ~  Free Software Foundation. It is distributed in the hope that it will be useful, but WITHOUT
  ~  ANY WARRANTY; without even the implied warranty of MERCHANTABILITY or FITNESS FOR A
  ~  PARTICULAR PURPOSE.
  ~
  ~  See <https://webdeb.be/> for a running instance of a webdeb web platform.
  ~  See the GNU Lesser General Public License (LGPL) for more details over the license terms.
  ~
  ~  You should have received a copy of the GNU Lesser General Public License along with this copy.
  ~  If not, see <http://www.gnu.org/licenses/>.
  ~
  -->

<!-- Generator: Adobe Illustrator 18.1.1, SVG Export Plug-In . SVG Version: 6.00 Build 0)  -->

<svg
   xmlns:dc="http://purl.org/dc/elements/1.1/"
   xmlns:cc="http://creativecommons.org/ns#"
   xmlns:rdf="http://www.w3.org/1999/02/22-rdf-syntax-ns#"
   xmlns:svg="http://www.w3.org/2000/svg"
   xmlns="http://www.w3.org/2000/svg"
   xmlns:sodipodi="http://sodipodi.sourceforge.net/DTD/sodipodi-0.dtd"
   xmlns:inkscape="http://www.inkscape.org/namespaces/inkscape"
   version="1.1"
   id="Capa_1"
   x="0px"
   y="0px"
   viewBox="0 0 16.939 16.939"
   style="enable-background:new 0 0 16.939 16.939;"
   xml:space="preserve"
   inkscape:version="0.48.4 r9939"
   width="100%"
   height="100%"
   sodipodi:docname="person.svg"
   inkscape:export-filename="/home/fgi/workspaces/workspace-webdeb/webdeb-web/public/images/picto/person.png"
   inkscape:export-xdpi="1062.64"
   inkscape:export-ydpi="1062.64"><metadata
     id="metadata3166"><rdf:RDF><cc:Work
         rdf:about=""><dc:format>image/svg+xml</dc:format><dc:type
           rdf:resource="http://purl.org/dc/dcmitype/StillImage" /><dc:title></dc:title></cc:Work></rdf:RDF></metadata><defs
     id="defs3164" /><sodipodi:namedview
     pagecolor="#ffffff"
     bordercolor="#666666"
     borderopacity="1"
     objecttolerance="10"
     gridtolerance="10"
     guidetolerance="10"
     inkscape:pageopacity="0"
     inkscape:pageshadow="2"
     inkscape:window-width="984"
     inkscape:window-height="484"
     id="namedview3162"
     showgrid="false"
     inkscape:zoom="16.028101"
     inkscape:cx="11.639618"
     inkscape:cy="7.1260053"
     inkscape:window-x="2787"
     inkscape:window-y="266"
     inkscape:window-maximized="0"
     inkscape:current-layer="Capa_1" /><g
     id="g3128"
     style="fill:#50ade5;fill-opacity:0.94117647"><path
       style="fill:#50ade5;fill-opacity:0.94117647"
       d="M14.464,6.649l-0.033-0.052c0.002-0.106,0.004-0.213,0-0.323l0.005-0.077l-0.141-0.788   c0-1.383-0.904-5.233-3.208-4.907c0,0-2.366-1.292-5.267,0.27C3.007,1.916,2.611,4.026,2.611,5.409v1.042   C2.605,6.471,2.6,6.487,2.594,6.502c-0.091,0.261-0.099,0.28,0.272,2.24C2.771,8.771,2.687,8.829,2.622,8.913   c-0.316,0.419-0.04,1.525,0.045,1.821c0.08,0.52,0.281,0.818,0.465,0.987c0.407,2.921,2.918,5.218,5.125,5.218   c2.581,0,5.022-2.53,5.453-5.214c0.183-0.167,0.385-0.461,0.46-0.958c0.093-0.33,0.369-1.438,0.052-1.856   c-0.039-0.051-0.084-0.092-0.136-0.123c0.138-0.476,0.319-1.255,0.344-2.121C14.442,6.66,14.453,6.655,14.464,6.649z M8.29,12.308   c-0.653,0-1.097-0.48-1.097-1.121c0-0.653,0.457-1.121,1.097-1.121c0.665,0,1.097,0.468,1.109,1.121   C9.399,11.827,8.954,12.308,8.29,12.308z M9.781,7.725C9.324,8.23,9.139,8.711,9.152,9.265v0.222H7.514l-0.012-0.32   C7.465,8.539,7.673,7.898,8.228,7.233c0.395-0.468,0.714-0.862,0.714-1.281c0-0.431-0.283-0.714-0.898-0.739   c-0.406,0-0.899,0.148-1.22,0.37l-0.42-1.344C6.848,3.98,7.588,3.735,8.461,3.735c1.627,0,2.365,0.899,2.365,1.92   C10.827,6.592,10.247,7.208,9.781,7.725z"
       id="path3130" /></g><g
     id="g3132" /><g
     id="g3134" /><g
     id="g3136" /><g
     id="g3138" /><g
     id="g3140" /><g
     id="g3142" /><g
     id="g3144" /><g
     id="g3146" /><g
     id="g3148" /><g
     id="g3150" /><g
     id="g3152" /><g
     id="g3154" /><g
     id="g3156" /><g
     id="g3158" /><g
     id="g3160" /></svg>
