<?xml version="1.0" encoding="UTF-8" standalone="no"?>
<svg width="30px" height="47px" viewBox="0 0 30 47" version="1.1" xmlns="http://www.w3.org/2000/svg" xmlns:xlink="http://www.w3.org/1999/xlink">
    <!-- Generator: Sketch 50.2 (55047) - http://www.bohemiancoding.com/sketch -->
    <title>scroll copy</title>
    <desc>Created with Sketch.</desc>
    <defs></defs>
    <g id="====INDEX====" stroke="none" stroke-width="1" fill="none" fill-rule="evenodd">
        <g id="Mobile-Copy" transform="translate(-165.000000, -568.000000)" fill="#F8F8F8" fill-rule="nonzero">
            <g id="scroll-copy" transform="translate(165.000000, 568.000000)">
                <path d="M15.0215314,38.7058067 L6.90982681,30.1665361 L9.53560337,27.6930509 L15.0144719,33.460767 L20.4608669,27.6965659 L23.0933499,30.1630211 L15.0215314,38.7058067 Z M30,35.2734375 L30,10.7979911 C30,4.84398158 25.1356598,0 19.1566265,0 L10.8433735,0 C4.86434015,0 0,4.84398158 0,10.7979911 L0,35.2734375 C0,41.227447 4.86434015,46.0714286 10.8433735,46.0714286 L19.1566265,46.0714286 C25.1356598,46.0714286 30,41.227447 30,35.2734375 Z M19.1566265,3.59933036 C23.1427664,3.59933036 26.3855422,6.82853429 26.3855422,10.7979911 L26.3855422,35.2734375 C26.3855422,39.2428943 23.1427664,42.4720982 19.1566265,42.4720982 L10.8433735,42.4720982 C6.85723364,42.4720982 3.61445783,39.2428943 3.61445783,35.2734375 L3.61445783,10.7979911 C3.61445783,6.82853429 6.85723364,3.59933036 10.8433735,3.59933036 L19.1566265,3.59933036 Z M15,7.28864397 C14.0017884,7.28864397 13.1927711,8.09427534 13.1927711,9.08830915 C13.1927711,10.082343 14.0017884,10.8879743 15,10.8879743 C15.9982116,10.8879743 16.8072289,10.082343 16.8072289,9.08830915 C16.8072289,8.09427534 15.9982116,7.28864397 15,7.28864397 Z M15,14.4873047 C14.0017884,14.4873047 13.1927711,15.2929361 13.1927711,16.2869699 C13.1927711,17.2810037 14.0017884,18.086635 15,18.086635 C15.9982116,18.086635 16.8072289,17.2810037 16.8072289,16.2869699 C16.8072289,15.2929361 15.9982116,14.4873047 15,14.4873047 Z M15,21.6859654 C14.0017884,21.6859654 13.1927711,22.4915968 13.1927711,23.4856306 C13.1927711,24.4796644 14.0017884,25.2852958 15,25.2852958 C15.9982116,25.2852958 16.8072289,24.4796644 16.8072289,23.4856306 C16.8072289,22.4915968 15.9982116,21.6859654 15,21.6859654 Z" id="Shape"></path>
            </g>
        </g>
    </g>
</svg>