<?xml version="1.0" encoding="UTF-8" standalone="no"?>
<!--
  ~  Copyright 2014-2018 University of Namur (PReCISE) - University of Louvain (Girsef - CENTAL).
  ~  This is part of the WebDeb software (WDWEB), a collaborative platform to record and analyze
  ~  argumentation-based debates. This is free software:  you can redistribute it and/or modify
  ~  it under the terms of the GNU Lesser General Public License version 3 as published by the
  ~  Free Software Foundation. It is distributed in the hope that it will be useful, but WITHOUT
  ~  ANY WARRANTY; without even the implied warranty of MERCHANTABILITY or FITNESS FOR A
  ~  PARTICULAR PURPOSE.
  ~
  ~  See <https://webdeb.be/> for a running instance of a webdeb web platform.
  ~  See the GNU Lesser General Public License (LGPL) for more details over the license terms.
  ~
  ~  You should have received a copy of the GNU Lesser General Public License along with this copy.
  ~  If not, see <http://www.gnu.org/licenses/>.
  ~
  -->

<!-- Generator: Adobe Illustrator 16.0.0, SVG Export Plug-In . SVG Version: 6.00 Build 0)  -->

<svg
   xmlns:dc="http://purl.org/dc/elements/1.1/"
   xmlns:cc="http://creativecommons.org/ns#"
   xmlns:rdf="http://www.w3.org/1999/02/22-rdf-syntax-ns#"
   xmlns:svg="http://www.w3.org/2000/svg"
   xmlns="http://www.w3.org/2000/svg"
   xmlns:sodipodi="http://sodipodi.sourceforge.net/DTD/sodipodi-0.dtd"
   xmlns:inkscape="http://www.inkscape.org/namespaces/inkscape"
   version="1.1"
   id="Capa_1"
   x="0px"
   y="0px"
   width="512.00146"
   height="328.62943"
   viewBox="0 0 142.17941 91.258209"
   xml:space="preserve"
   inkscape:version="0.48.4 r9939"
   sodipodi:docname="shade-similar.svg"
   inkscape:export-filename="/home/fgi/workspaces/workspace-webdeb/webdeb-web/public/images/picto/shade-similar.png"
   inkscape:export-xdpi="8.7890625"
   inkscape:export-ydpi="8.7890625"><metadata
     id="metadata3110"><rdf:RDF><cc:Work
         rdf:about=""><dc:format>image/svg+xml</dc:format><dc:type
           rdf:resource="http://purl.org/dc/dcmitype/StillImage" /><dc:title></dc:title></cc:Work></rdf:RDF></metadata><defs
     id="defs3108" /><sodipodi:namedview
     pagecolor="#ffffff"
     bordercolor="#666666"
     borderopacity="1"
     objecttolerance="10"
     gridtolerance="10"
     guidetolerance="10"
     inkscape:pageopacity="0"
     inkscape:pageshadow="2"
     inkscape:window-width="640"
     inkscape:window-height="480"
     id="namedview3106"
     showgrid="false"
     fit-margin-top="0"
     fit-margin-left="0"
     fit-margin-right="0"
     fit-margin-bottom="0"
     inkscape:zoom="0.66152965"
     inkscape:cx="294.74149"
     inkscape:cy="103.53743"
     inkscape:window-x="477"
     inkscape:window-y="170"
     inkscape:window-maximized="0"
     inkscape:current-layer="Capa_1" /><g
     id="g3066"
     transform="translate(0.00154094,-25.460791)"><g
       id="g3068"><path
         d="m 43.01,51.082 c 42.168,-10.104 80.758,-5.973 84.531,-0.026 -0.007,0.002 -0.015,0.014 -0.021,0.039 -1.097,3.886 1.164,7.922 5.048,9.019 0.662,0.188 1.332,0.278 1.987,0.278 3.19,0 6.122,-2.105 7.029,-5.325 1.473,-5.221 0.185,-10.28 -3.632,-14.254 -14.654,-15.252 -67.35,-11.369 -98.35,-3.944 -20.683,4.958 -24.882,1.522 -24.948,1.52 l 0,0 c -0.122,-0.404 0.117,-1.615 0.47,-2.37 C 16.9,32.443 15.475,28.092 11.909,26.265 8.316,24.426 3.913,25.848 2.072,29.439 1.546,30.464 -2.89,39.69 3.1,47.308 c 6.024,7.656 18.704,8.856 39.91,3.774 z"
         id="path3070"
         inkscape:connector-curvature="0"
         style="fill:#39b54a" /><path
         d="m 141.842,109.41 c 0,-4.035 -3.271,-7.308 -7.31,-7.308 H 7.856 c -4.037,0 -7.309,3.271 -7.309,7.308 0,4.037 3.272,7.309 7.309,7.309 h 126.676 c 4.037,0 7.31,-3.273 7.31,-7.309 z"
         id="path3072"
         inkscape:connector-curvature="0"
         style="fill:#39b54a" /><path
         d="M 134.532,72.868 H 7.856 c -4.037,0 -7.309,3.272 -7.309,7.31 0,4.038 3.272,7.309 7.309,7.309 h 126.676 c 4.037,0 7.31,-3.271 7.31,-7.309 0,-4.036 -3.273,-7.31 -7.31,-7.31 z"
         id="path3074"
         inkscape:connector-curvature="0"
         style="fill:#39b54a" /></g></g><g
     id="g3076"
     transform="translate(0.00154094,-25.460791)" /><g
     id="g3078"
     transform="translate(0.00154094,-25.460791)" /><g
     id="g3080"
     transform="translate(0.00154094,-25.460791)" /><g
     id="g3082"
     transform="translate(0.00154094,-25.460791)" /><g
     id="g3084"
     transform="translate(0.00154094,-25.460791)" /><g
     id="g3086"
     transform="translate(0.00154094,-25.460791)" /><g
     id="g3088"
     transform="translate(0.00154094,-25.460791)" /><g
     id="g3090"
     transform="translate(0.00154094,-25.460791)" /><g
     id="g3092"
     transform="translate(0.00154094,-25.460791)" /><g
     id="g3094"
     transform="translate(0.00154094,-25.460791)" /><g
     id="g3096"
     transform="translate(0.00154094,-25.460791)" /><g
     id="g3098"
     transform="translate(0.00154094,-25.460791)" /><g
     id="g3100"
     transform="translate(0.00154094,-25.460791)" /><g
     id="g3102"
     transform="translate(0.00154094,-25.460791)" /><g
     id="g3104"
     transform="translate(0.00154094,-25.460791)" /></svg>
