<?xml version="1.0" encoding="UTF-8" standalone="no"?>
<!--
  ~  Copyright 2014-2018 University of Namur (PReCISE) - University of Louvain (Girsef - CENTAL).
  ~  This is part of the WebDeb software (WDWEB), a collaborative platform to record and analyze
  ~  argumentation-based debates. This is free software:  you can redistribute it and/or modify
  ~  it under the terms of the GNU Lesser General Public License version 3 as published by the
  ~  Free Software Foundation. It is distributed in the hope that it will be useful, but WITHOUT
  ~  ANY WARRANTY; without even the implied warranty of MERCHANTABILITY or FITNESS FOR A
  ~  PARTICULAR PURPOSE.
  ~
  ~  See <https://webdeb.be/> for a running instance of a webdeb web platform.
  ~  See the GNU Lesser General Public License (LGPL) for more details over the license terms.
  ~
  ~  You should have received a copy of the GNU Lesser General Public License along with this copy.
  ~  If not, see <http://www.gnu.org/licenses/>.
  ~
  -->

<!-- Generator: Adobe Illustrator 16.0.0, SVG Export Plug-In . SVG Version: 6.00 Build 0)  -->

<svg
   xmlns:dc="http://purl.org/dc/elements/1.1/"
   xmlns:cc="http://creativecommons.org/ns#"
   xmlns:rdf="http://www.w3.org/1999/02/22-rdf-syntax-ns#"
   xmlns:svg="http://www.w3.org/2000/svg"
   xmlns="http://www.w3.org/2000/svg"
   xmlns:sodipodi="http://sodipodi.sourceforge.net/DTD/sodipodi-0.dtd"
   xmlns:inkscape="http://www.inkscape.org/namespaces/inkscape"
   version="1.1"
   id="Capa_1"
   x="0px"
   y="0px"
   width="512.00623"
   height="246.65968"
   viewBox="0 0 142.85474 68.82046"
   xml:space="preserve"
   inkscape:version="0.48.4 r9939"
   sodipodi:docname="shade-nuance.svg"
   inkscape:export-filename="/home/fgi/workspaces/workspace-webdeb/webdeb-web/public/images/picto/shade-nuance.png"
   inkscape:export-xdpi="4.236866"
   inkscape:export-ydpi="4.236866"><metadata
     id="metadata45"><rdf:RDF><cc:Work
         rdf:about=""><dc:format>image/svg+xml</dc:format><dc:type
           rdf:resource="http://purl.org/dc/dcmitype/StillImage" /><dc:title></dc:title></cc:Work></rdf:RDF></metadata><defs
     id="defs43" /><sodipodi:namedview
     pagecolor="#ffffff"
     bordercolor="#666666"
     borderopacity="1"
     objecttolerance="10"
     gridtolerance="10"
     guidetolerance="10"
     inkscape:pageopacity="0"
     inkscape:pageshadow="2"
     inkscape:window-width="677"
     inkscape:window-height="480"
     id="namedview41"
     showgrid="false"
     fit-margin-top="0"
     fit-margin-left="0"
     fit-margin-right="0"
     fit-margin-bottom="0"
     inkscape:zoom="0.4609375"
     inkscape:cx="256"
     inkscape:cy="123.32781"
     inkscape:window-x="10"
     inkscape:window-y="34"
     inkscape:window-maximized="0"
     inkscape:current-layer="Capa_1" /><g
     id="g3"
     transform="translate(0.00120048,-37.016539)"
     inkscape:export-xdpi="8.7890625"
     inkscape:export-ydpi="8.7890625"
     style="fill:#f7931e;fill-opacity:1"><g
       id="g5"
       style="fill:#f7931e;fill-opacity:1"><path
         d="m 44.789,61.217 c 40.687,-8.595 77.064,-5.533 83.256,-0.514 -0.636,3.552 1.439,7.111 4.971,8.241 0.74,0.236 1.49,0.351 2.229,0.351 3.094,0 5.965,-1.979 6.959,-5.082 1.457,-4.555 0.438,-9.228 -2.807,-12.814 C 126.403,37.017 73.459,40.222 41.768,46.92 24.74,50.516 18.815,49.066 17.185,48.389 c 0.056,-0.178 0.126,-0.36 0.2,-0.502 1.939,-3.474 0.741,-7.874 -2.714,-9.881 -3.491,-2.027 -7.963,-0.84 -9.99,2.65 -2.349,4.046 -3.686,10.712 0.275,16.188 5.479,7.566 18.132,8.957 39.833,4.373 z"
         id="path7"
         inkscape:connector-curvature="0"
         style="fill:#f7931e;fill-opacity:1" /><path
         d="m 42.353,97.759 c 40.683,-8.594 77.066,-5.53 83.257,-0.516 -0.637,3.554 1.438,7.111 4.969,8.242 0.74,0.236 1.491,0.352 2.229,0.352 3.094,0 5.966,-1.979 6.96,-5.082 1.457,-4.557 0.436,-9.229 -2.808,-12.813 -12.991,-14.383 -65.936,-11.175 -97.629,-4.479 -17.028,3.596 -22.953,2.146 -24.583,1.469 0.056,-0.178 0.126,-0.36 0.2,-0.502 1.939,-3.474 0.741,-7.873 -2.714,-9.881 -3.488,-2.026 -7.961,-0.838 -9.99,2.649 -2.349,4.047 -3.686,10.712 0.275,16.188 5.477,7.565 18.133,8.958 39.834,4.373 z"
         id="path9"
         inkscape:connector-curvature="0"
         style="fill:#f7931e;fill-opacity:1" /></g></g><g
     id="g11"
     transform="translate(0.00120048,-37.016539)" /><g
     id="g13"
     transform="translate(0.00120048,-37.016539)" /><g
     id="g15"
     transform="translate(0.00120048,-37.016539)" /><g
     id="g17"
     transform="translate(0.00120048,-37.016539)" /><g
     id="g19"
     transform="translate(0.00120048,-37.016539)" /><g
     id="g21"
     transform="translate(0.00120048,-37.016539)" /><g
     id="g23"
     transform="translate(0.00120048,-37.016539)" /><g
     id="g25"
     transform="translate(0.00120048,-37.016539)" /><g
     id="g27"
     transform="translate(0.00120048,-37.016539)" /><g
     id="g29"
     transform="translate(0.00120048,-37.016539)" /><g
     id="g31"
     transform="translate(0.00120048,-37.016539)" /><g
     id="g33"
     transform="translate(0.00120048,-37.016539)" /><g
     id="g35"
     transform="translate(0.00120048,-37.016539)" /><g
     id="g37"
     transform="translate(0.00120048,-37.016539)" /><g
     id="g39"
     transform="translate(0.00120048,-37.016539)" /></svg>
