<?xml version="1.0" encoding="UTF-8" standalone="no"?>
<!--
  ~  Copyright 2014-2018 University of Namur (PReCISE) - University of Louvain (Girsef - CENTAL).
  ~  This is part of the WebDeb software (WDWEB), a collaborative platform to record and analyze
  ~  argumentation-based debates. This is free software:  you can redistribute it and/or modify
  ~  it under the terms of the GNU Lesser General Public License version 3 as published by the
  ~  Free Software Foundation. It is distributed in the hope that it will be useful, but WITHOUT
  ~  ANY WARRANTY; without even the implied warranty of MERCHANTABILITY or FITNESS FOR A
  ~  PARTICULAR PURPOSE.
  ~
  ~  See <https://webdeb.be/> for a running instance of a webdeb web platform.
  ~  See the GNU Lesser General Public License (LGPL) for more details over the license terms.
  ~
  ~  You should have received a copy of the GNU Lesser General Public License along with this copy.
  ~  If not, see <http://www.gnu.org/licenses/>.
  ~
  -->

<!-- Generator: Adobe Illustrator 16.0.0, SVG Export Plug-In . SVG Version: 6.00 Build 0)  -->

<svg
   xmlns:dc="http://purl.org/dc/elements/1.1/"
   xmlns:cc="http://creativecommons.org/ns#"
   xmlns:rdf="http://www.w3.org/1999/02/22-rdf-syntax-ns#"
   xmlns:svg="http://www.w3.org/2000/svg"
   xmlns="http://www.w3.org/2000/svg"
   xmlns:sodipodi="http://sodipodi.sourceforge.net/DTD/sodipodi-0.dtd"
   xmlns:inkscape="http://www.inkscape.org/namespaces/inkscape"
   version="1.1"
   id="Capa_1"
   x="0px"
   y="0px"
   width="481.508px"
   height="481.508px"
   viewBox="0 0 481.508 481.508"
   style="enable-background:new 0 0 481.508 481.508;"
   xml:space="preserve"
   inkscape:version="0.48.4 r9939"
   sodipodi:docname="text.svg"
   inkscape:export-filename="/home/fgi/workspaces/workspace-webdeb/webdeb-web/public/images/picto/text.jpeg.png"
   inkscape:export-xdpi="37.382557"
   inkscape:export-ydpi="37.382557"><metadata
     id="metadata67"><rdf:RDF><cc:Work
         rdf:about=""><dc:format>image/svg+xml</dc:format><dc:type
           rdf:resource="http://purl.org/dc/dcmitype/StillImage" /><dc:title></dc:title></cc:Work></rdf:RDF></metadata><defs
     id="defs65" /><sodipodi:namedview
     pagecolor="#ffffff"
     bordercolor="#666666"
     borderopacity="1"
     objecttolerance="10"
     gridtolerance="10"
     guidetolerance="10"
     inkscape:pageopacity="0"
     inkscape:pageshadow="2"
     inkscape:window-width="1920"
     inkscape:window-height="1056"
     id="namedview63"
     showgrid="false"
     inkscape:zoom="0.49012686"
     inkscape:cx="-330.52667"
     inkscape:cy="240.754"
     inkscape:window-x="1920"
     inkscape:window-y="24"
     inkscape:window-maximized="1"
     inkscape:current-layer="Capa_1" /><g
     id="g3"
     style="fill:#50ade5;fill-opacity:1"><g
       id="g5"
       style="fill:#50ade5;fill-opacity:1"><path
         d="M480.518,104.168c0.046-2.164-0.563-3.91-1.584-5.248c-0.609-1.217-1.503-2.354-2.793-3.312    C407.822,44.931,310.253,18.132,242.17,80.893C174.083,18.132,76.517,44.931,8.198,95.608c-1.29,0.958-2.178,2.095-2.793,3.312    c-1.018,1.338-1.632,3.079-1.587,5.248c1.742,84.573-0.853,169.137-0.982,253.716c0,1.478,0.307,2.752,0.833,3.844    c-1.435,6.094,3.006,13.35,10.359,10.481c72.125-28.112,153.7-34.333,219.468,10.983c1.503,3.56,4.857,6.134,8.681,5.25    c3.821,0.879,7.175-1.695,8.67-5.25c65.771-45.316,147.343-39.096,219.471-10.983c7.353,2.868,11.791-4.388,10.358-10.481    c0.519-1.092,0.833-2.366,0.833-3.844C481.372,273.305,478.777,188.741,480.518,104.168z M242.17,367.837    c-65.815-45.352-148.337-42.59-221.623-16.717c0.244-81.192,2.562-162.371,0.998-243.563    c62.512-44.978,152.25-71.561,213.694-8.891c2.146,2.188,4.616,2.849,6.931,2.541c2.313,0.312,4.784-0.353,6.932-2.541    c61.436-62.67,151.179-36.092,213.688,8.891c-1.563,81.192,0.762,162.371,1.001,243.568    C390.506,325.247,307.979,322.485,242.17,367.837z"
         id="path7"
         style="fill:#50ade5;fill-opacity:1" /><path
         d="M474.308,385.533C399.57,355.446,295,344.107,240.089,409.212c-54.911-65.1-159.484-53.766-234.222-23.679    c-13.198,5.307-1.803,23.222,11.273,17.961c67.636-27.229,168.559-39.354,213.034,28.762c2.476,3.793,6.251,5.144,9.915,4.89    c3.671,0.254,7.442-1.097,9.915-4.89c44.473-68.121,145.397-55.99,213.031-28.762C476.111,408.76,487.5,390.84,474.308,385.533z"
         id="path9"
         style="fill:#50ade5;fill-opacity:1" /><path
         d="M51.071,183.188c1.708,3.91,6.099,6.563,10.704,3.562c11.868-7.721,24.519-13.348,38.438-16.115    c4.555-0.904,6.083-4.596,5.477-8.117c0.145-0.617,0.249-1.277,0.249-2v-44.199c0-5.189-4.149-7.681-8.168-7.513    c-0.688-0.178-1.409-0.297-2.232-0.287c-15.991,0.274-31.288,4.476-44.234,14.066c-2.539,1.876-3.478,4.524-3.333,7.071    c-0.254,0.693-0.457,1.43-0.531,2.263c-1.242,14.711-1.3,29.447-1.3,44.198C46.141,179.888,48.329,182.241,51.071,183.188z     M62.936,133.493c8.414-5.33,17.514-8.214,27.403-9.082v32.494c-10.009,2.572-19.568,6.599-28.579,11.651    C61.809,156.856,62.017,145.167,62.936,133.493z"
         id="path11"
         style="fill:#50ade5;fill-opacity:1" /><path
         d="M136.612,126.437c19.182-6.571,37.699-4.784,55.088,5.715c8.635,5.215,16.468-8.277,7.871-13.467    c-20.716-12.507-44.189-15.138-67.108-7.284C123.006,114.639,127.066,129.71,136.612,126.437z"
         id="path13"
         style="fill:#50ade5;fill-opacity:1" /><path
         d="M135.312,160.236c19.256-4.05,37.268-1.191,53.789,9.615c8.445,5.522,16.25-7.988,7.871-13.467    c-20.03-13.099-42.597-16.072-65.808-11.185C121.32,147.27,125.501,162.306,135.312,160.236z"
         id="path15"
         style="fill:#50ade5;fill-opacity:1" /><path
         d="M204.771,205.783c-52.098-29.27-113.287-17.931-161.267,14.299c-8.305,5.579-0.505,19.098,7.871,13.467    c43.3-29.082,98.122-40.933,145.524-14.299C205.683,224.186,213.539,210.706,204.771,205.783z"
         id="path17"
         style="fill:#50ade5;fill-opacity:1" /><path
         d="M204.771,242.182c-52.098-29.269-113.287-17.93-161.267,14.3C35.2,262.062,43,275.58,51.376,269.948    c43.3-29.082,98.122-40.934,145.524-14.3C205.683,260.585,213.539,247.107,204.771,242.182z"
         id="path19"
         style="fill:#50ade5;fill-opacity:1" /><path
         d="M204.771,278.581c-52.098-29.27-113.287-17.931-161.267,14.3c-8.305,5.58-0.505,19.098,7.871,13.467    c43.3-29.082,98.122-40.934,145.524-14.3C205.683,296.983,213.539,283.507,204.771,278.581z"
         id="path21"
         style="fill:#50ade5;fill-opacity:1" /><path
         d="M273.093,225.396c45.026-30.485,100.635-23.244,146.21,2.138c8.811,4.908,15.457-9.209,6.724-14.076    c-50.496-28.127-112.417-34.334-161.901-0.828C255.792,218.268,264.75,231.043,273.093,225.396z"
         id="path23"
         style="fill:#50ade5;fill-opacity:1" /><path
         d="M276.12,261.671c45.026-30.488,100.635-23.244,146.21,2.139c8.811,4.91,15.457-9.212,6.719-14.076    c-50.501-28.127-112.417-34.335-161.901-0.828C258.824,254.542,267.777,267.318,276.12,261.671z"
         id="path25"
         style="fill:#50ade5;fill-opacity:1" /><path
         d="M273.093,152.599c45.026-30.485,100.635-23.244,146.21,2.138c8.811,4.908,15.457-9.208,6.724-14.076    c-50.496-28.127-112.417-34.335-161.901-0.828C255.792,145.47,264.75,158.246,273.093,152.599z"
         id="path27"
         style="fill:#50ade5;fill-opacity:1" /><path
         d="M267.152,176.103c-8.328,5.642,0.625,18.413,8.968,12.766c45.026-30.488,100.635-23.244,146.21,2.136    c8.811,4.91,15.457-9.209,6.719-14.074C378.557,148.808,316.636,142.601,267.152,176.103z"
         id="path29"
         style="fill:#50ade5;fill-opacity:1" /><path
         d="M432.084,286c-50.495-28.122-112.421-34.332-161.901-0.823c-8.328,5.643,0.63,18.413,8.968,12.762    c45.026-30.483,100.641-23.242,146.21,2.138C434.171,304.991,440.819,290.87,432.084,286z"
         id="path31"
         style="fill:#50ade5;fill-opacity:1" /></g></g><g
     id="g33" /><g
     id="g35" /><g
     id="g37" /><g
     id="g39" /><g
     id="g41" /><g
     id="g43" /><g
     id="g45" /><g
     id="g47" /><g
     id="g49" /><g
     id="g51" /><g
     id="g53" /><g
     id="g55" /><g
     id="g57" /><g
     id="g59" /><g
     id="g61" /></svg>
