<?xml version="1.0" encoding="UTF-8" standalone="no"?>
<!--
  ~  Copyright 2014-2018 University of Namur (PReCISE) - University of Louvain (Girsef - CENTAL).
  ~  This is part of the WebDeb software (WDWEB), a collaborative platform to record and analyze
  ~  argumentation-based debates. This is free software:  you can redistribute it and/or modify
  ~  it under the terms of the GNU Lesser General Public License version 3 as published by the
  ~  Free Software Foundation. It is distributed in the hope that it will be useful, but WITHOUT
  ~  ANY WARRANTY; without even the implied warranty of MERCHANTABILITY or FITNESS FOR A
  ~  PARTICULAR PURPOSE.
  ~
  ~  See <https://webdeb.be/> for a running instance of a webdeb web platform.
  ~  See the GNU Lesser General Public License (LGPL) for more details over the license terms.
  ~
  ~  You should have received a copy of the GNU Lesser General Public License along with this copy.
  ~  If not, see <http://www.gnu.org/licenses/>.
  ~
  -->

<!-- Generator: Adobe Illustrator 18.1.1, SVG Export Plug-In . SVG Version: 6.00 Build 0)  -->

<svg
   xmlns:dc="http://purl.org/dc/elements/1.1/"
   xmlns:cc="http://creativecommons.org/ns#"
   xmlns:rdf="http://www.w3.org/1999/02/22-rdf-syntax-ns#"
   xmlns:svg="http://www.w3.org/2000/svg"
   xmlns="http://www.w3.org/2000/svg"
   xmlns:sodipodi="http://sodipodi.sourceforge.net/DTD/sodipodi-0.dtd"
   xmlns:inkscape="http://www.inkscape.org/namespaces/inkscape"
   version="1.1"
   id="Capa_1"
   x="0px"
   y="0px"
   viewBox="0 0 37.596 37.596"
   style="enable-background:new 0 0 37.596 37.596;"
   xml:space="preserve"
   inkscape:version="0.48.4 r9939"
   width="100%"
   height="100%"
   sodipodi:docname="unknown.svg"
   inkscape:export-filename="/home/fgi/workspaces/workspace-webdeb/webdeb-web/public/images/picto/unknown.jpeg.png"
   inkscape:export-xdpi="478.77432"
   inkscape:export-ydpi="478.77432"><metadata
     id="metadata41"><rdf:RDF><cc:Work
         rdf:about=""><dc:format>image/svg+xml</dc:format><dc:type
           rdf:resource="http://purl.org/dc/dcmitype/StillImage" /><dc:title></dc:title></cc:Work></rdf:RDF></metadata><defs
     id="defs39" /><sodipodi:namedview
     pagecolor="#ffffff"
     bordercolor="#666666"
     borderopacity="1"
     objecttolerance="10"
     gridtolerance="10"
     guidetolerance="10"
     inkscape:pageopacity="0"
     inkscape:pageshadow="2"
     inkscape:window-width="1920"
     inkscape:window-height="1056"
     id="namedview37"
     showgrid="false"
     inkscape:zoom="9.8215236"
     inkscape:cx="-45.11815"
     inkscape:cy="22.814027"
     inkscape:window-x="1920"
     inkscape:window-y="24"
     inkscape:window-maximized="1"
     inkscape:current-layer="Capa_1" /><path
     inkscape:connector-curvature="0"
     id="path5"
     d="m 17.173,33.631 c -1.87,0 -3.391,-1.598 -3.391,-3.469 0,-1.871 1.521,-3.43 3.391,-3.43 1.91,0 3.431,1.559 3.431,3.43 0,1.871 -1.52,3.469 -3.431,3.469 z m 6.081,-14.422 c -1.555,1.148 -2.996,2.065 -3.6,3.501 -0.477,1.137 -1.259,2.19 -2.492,2.19 l -2.248,0 c -0.196,-1.95 0.077,-3.586 0.934,-5.028 1.324,-2.299 4.795,-3.702 4.795,-7.132 0,-1.676 -1.053,-2.845 -3.04,-2.845 -2.067,0 -3.86,1.247 -5.185,2.885 L 10.863,8.852 C 10.41,7.705 10.797,6.111 11.872,5.509 13.868,4.39 16.105,3.91 18.499,3.97 c 4.911,0.195 8.341,2.728 8.419,7.483 0.001,2.923 -0.818,5.652 -3.664,7.756 z"
     style="fill:#50ade5;fill-opacity:1;stroke:#50ade5;stroke-opacity:1"
     sodipodi:nodetypes="sssssccsccsscccccc" /><g
     id="g7" /><g
     id="g9" /><g
     id="g11" /><g
     id="g13" /><g
     id="g15" /><g
     id="g17" /><g
     id="g19" /><g
     id="g21" /><g
     id="g23" /><g
     id="g25" /><g
     id="g27" /><g
     id="g29" /><g
     id="g31" /><g
     id="g33" /><g
     id="g35" /></svg>
