<?xml version="1.0" encoding="UTF-8" standalone="no"?>
<svg width="502px" height="354px" viewBox="0 0 502 354" version="1.1" xmlns="http://www.w3.org/2000/svg" xmlns:xlink="http://www.w3.org/1999/xlink">
    <!-- Generator: Sketch 50.2 (55047) - http://www.bohemiancoding.com/sketch -->
    <title>2062408 copy 2</title>
    <desc>Created with Sketch.</desc>
    <defs>
        <rect id="path-1" x="0" y="0" width="559" height="391.494774"></rect>
        <linearGradient x1="-0.00151438837%" y1="49.9998071%" x2="99.9956107%" y2="49.9998071%" id="linearGradient-3">
            <stop stop-color="#44ABDD" offset="2.17391304%"></stop>
            <stop stop-color="#00C3E0" offset="99.1304348%"></stop>
        </linearGradient>
        <linearGradient x1="0.000521763909%" y1="50%" x2="99.9991667%" y2="50%" id="linearGradient-4">
            <stop stop-color="#44ABDD" offset="2.17391304%"></stop>
            <stop stop-color="#00C3E0" offset="99.1304348%"></stop>
        </linearGradient>
        <linearGradient x1="0.000794490361%" y1="50.0014826%" x2="100%" y2="50.0014826%" id="linearGradient-5">
            <stop stop-color="#44ABDD" offset="2.17391304%"></stop>
            <stop stop-color="#00C3E0" offset="98.2608696%"></stop>
        </linearGradient>
        <linearGradient x1="0%" y1="50%" x2="100.000567%" y2="50%" id="linearGradient-6">
            <stop stop-color="#44ABDD" offset="2.17391304%"></stop>
            <stop stop-color="#00C3E0" offset="99.1304348%"></stop>
        </linearGradient>
        <linearGradient x1="0%" y1="50.0022573%" x2="100%" y2="50.0022573%" id="linearGradient-7">
            <stop stop-color="#44ABDD" offset="2.17391304%"></stop>
            <stop stop-color="#00C3E0" offset="98.2608696%"></stop>
        </linearGradient>
        <linearGradient x1="0%" y1="50%" x2="100%" y2="50%" id="linearGradient-8">
            <stop stop-color="#44ABDD" offset="2.17391304%"></stop>
            <stop stop-color="#00C3E0" offset="99.1304348%"></stop>
        </linearGradient>
        <linearGradient x1="7.63476017e-06%" y1="50.0015448%" x2="99.9984823%" y2="50.0015448%" id="linearGradient-9">
            <stop stop-color="#44ABDD" offset="2.17391304%"></stop>
            <stop stop-color="#00C3E0" offset="98.2608696%"></stop>
        </linearGradient>
    </defs>
    <g id="index.html" stroke="none" stroke-width="1" fill="none" fill-rule="evenodd">
        <g id="Desktop-HD" transform="translate(-277.000000, -1609.000000)">
            <g id="2062408-copy-2" transform="translate(249.000000, 1572.000000)">
                <mask id="mask-2" fill="white">
                    <use xlink:href="#path-1"></use>
                </mask>
                <g id="Rectangle-path"></g>
                <g id="Group" mask="url(#mask-2)">
                    <g transform="translate(27.268293, 37.006969)" id="Shape">
                        <path d="M54.4645192,6.75085017 C39.0559861,-3.78444948 18.0223937,0.165557491 7.48709408,15.5740906 C-3.04820557,30.9826237 0.899853659,52.016216 16.3103345,62.5515157 C29.5997317,71.6377003 47.0572822,69.9275889 58.371676,59.4059233 L77.0192927,63.1202544 L66.7917352,47.0903937 C72.4947038,32.7297422 67.7539164,15.8389826 54.4645192,6.75085017 Z" fill="#99BF27" fill-rule="nonzero"></path>
                        <path d="M41.4711777,43.8532578 C40.7368815,43.8532578 40.0551742,44.0519268 39.4474808,44.3694077 L28.148669,36.2103449 C28.1876237,35.9785645 28.2187875,35.746784 28.2187875,35.5033171 C28.2187875,35.2598502 28.1876237,35.026122 28.148669,34.7943415 L39.4494286,26.6352787 C40.0551742,26.9547073 40.7368815,27.1514286 41.4711777,27.1514286 C43.8902648,27.1514286 45.8516341,25.192007 45.8516341,22.7729199 C45.8516341,20.3538328 43.8902648,18.3944111 41.4711777,18.3944111 C39.0540383,18.3944111 37.092669,20.3538328 37.092669,22.7729199 C37.092669,23.0163868 37.1257805,23.250115 37.1627875,23.4818955 L25.8620279,31.6409582 C25.2562822,31.3215296 24.5745749,31.1228606 23.8402787,31.1228606 C21.4211916,31.1228606 19.4598223,33.08423 19.4598223,35.5033171 C19.4598223,37.9224042 21.4211916,39.8818258 23.8402787,39.8818258 C24.5745749,39.8818258 25.2562822,39.6851045 25.8620279,39.365676 L37.1627875,47.5247387 C37.1257805,47.7565192 37.092669,47.9902474 37.092669,48.2317666 C37.092669,50.6508537 39.0540383,52.612223 41.4711777,52.612223 C43.8902648,52.612223 45.8516341,50.6508537 45.8516341,48.2317666 C45.8516341,45.8146272 43.8902648,43.8532578 41.4711777,43.8532578 Z" fill="#FEFEFE" fill-rule="nonzero"></path>
                        <path d="M291.56622,273.378268 L233.699007,273.378268 C233.699007,343.847328 202.268404,353.040638 202.268404,353.040638 L322.99877,353.040638 C322.99877,353.040638 291.56622,343.847328 291.56622,273.378268 Z" fill="#3B67AF" fill-rule="nonzero"></path>
                        <path d="M296.88938,316.951052 L296.867955,316.943261 C294.176185,307.607767 292.226502,295.919408 291.704509,281.311394 L291.706456,281.311394 C292.228449,295.933042 294.191767,307.607767 296.88938,316.951052 Z" fill="#DA9639" fill-rule="nonzero"></path>
                        <path d="M232.693976,293.995045 L232.672551,293.989202 C233.08547,290.019718 233.389317,285.806767 233.554875,281.311394 L233.560718,281.311394 C233.401003,285.81261 233.104948,290.033352 232.693976,293.995045 Z" fill="#BA803A" fill-rule="nonzero"></path>
                        <path d="M296.867955,316.943261 L232.693976,293.995045 C233.104948,290.033352 233.401003,285.81261 233.560718,281.311394 L291.704509,281.311394 C292.226502,295.919408 294.176185,307.607767 296.867955,316.943261 Z" fill="#2F5897" fill-rule="nonzero"></path>
                        <path d="M395.758366,281.311394 L129.506861,281.311394 C123.794153,281.311394 119.160491,276.677732 119.160491,270.963077 L119.160491,98.905993 C119.160491,93.1932857 123.794153,88.5596237 129.506861,88.5596237 L395.758366,88.5596237 C401.474969,88.5596237 406.106683,93.1932857 406.106683,98.905993 L406.106683,270.963077 C406.106683,276.677732 401.474969,281.311394 395.758366,281.311394 Z" fill="#3B67AF" fill-rule="nonzero"></path>
                        <path d="M386.477408,267.009174 L138.789767,267.009174 C136.084362,267.009174 133.89316,264.816024 133.89316,262.11062 L133.89316,107.758449 C133.89316,105.054993 136.084362,102.861843 138.789767,102.861843 L386.477408,102.861843 C389.180864,102.861843 391.372066,105.054993 391.372066,107.758449 L391.372066,262.11062 C391.372066,264.816024 389.180864,267.009174 386.477408,267.009174 Z" fill="#FEFEFE" fill-rule="nonzero"></path>
                        <path d="M391.372066,122.17169 L133.89316,122.17169 L133.89316,107.292941 C133.89316,104.846585 135.877902,102.861843 138.326206,102.861843 L386.940969,102.861843 C389.389272,102.861843 391.372066,104.846585 391.372066,107.292941 L391.372066,122.17169 Z" fill="#B1CDEB" fill-rule="nonzero"></path>
                        <path d="M155.250077,112.516767 C155.250077,114.869631 153.343244,116.776463 150.99038,116.776463 C148.637516,116.776463 146.728735,114.869631 146.728735,112.516767 C146.728735,110.163902 148.637516,108.255122 150.99038,108.255122 C153.343244,108.255122 155.250077,110.163902 155.250077,112.516767 Z" fill="#6083C1" fill-rule="nonzero"></path>
                        <path d="M172.902401,112.516767 C172.902401,114.869631 170.99362,116.776463 168.640756,116.776463 C166.285944,116.776463 164.381059,114.869631 164.381059,112.516767 C164.381059,110.163902 166.285944,108.255122 168.640756,108.255122 C170.99362,108.255122 172.902401,110.163902 172.902401,112.516767 Z" fill="#6083C1" fill-rule="nonzero"></path>
                        <path d="M190.550829,112.516767 C190.550829,114.869631 188.643997,116.776463 186.291132,116.776463 C183.938268,116.776463 182.029488,114.869631 182.029488,112.516767 C182.029488,110.163902 183.938268,108.255122 186.291132,108.255122 C188.643997,108.255122 190.550829,110.163902 190.550829,112.516767 Z" fill="#6083C1" fill-rule="nonzero"></path>
                        <path d="M298.617021,207.240972 L177.481526,207.240972 C174.910516,207.240972 172.822544,205.156895 172.822544,202.585885 L172.822544,201.876909 C172.822544,199.303951 174.910516,197.217927 177.481526,197.217927 L298.617021,197.217927 C301.191927,197.217927 303.276003,199.303951 303.276003,201.876909 L303.276003,202.585885 C303.276003,205.156895 301.191927,207.240972 298.617021,207.240972 Z" fill="#B1CDEB" fill-rule="nonzero"></path>
                        <path d="M298.617021,225.911962 L177.481526,225.911962 C174.910516,225.911962 172.822544,223.827885 172.822544,221.254927 L172.822544,220.545951 C172.822544,217.972993 174.910516,215.888916 177.481526,215.888916 L298.617021,215.888916 C301.191927,215.888916 303.276003,217.972993 303.276003,220.545951 L303.276003,221.254927 C303.276003,223.827885 301.191927,225.911962 298.617021,225.911962 Z" fill="#B1CDEB" fill-rule="nonzero"></path>
                        <path d="M224.718,244.582951 L177.481526,244.582951 C174.910516,244.582951 172.822544,242.496927 172.822544,239.925916 L172.822544,239.214993 C172.822544,236.643983 174.910516,234.559906 177.481526,234.559906 L224.718,234.559906 C227.28901,234.559906 229.375035,236.643983 229.375035,239.214993 L229.375035,239.925916 C229.375035,242.496927 227.28901,244.582951 224.718,244.582951 Z" fill="#B1CDEB" fill-rule="nonzero"></path>
                        <path d="M344.435544,180.140185 L180.831631,180.140185 C171.971383,180.140185 164.788136,172.958885 164.788136,164.098638 C164.788136,155.23839 171.971383,148.057091 180.831631,148.057091 L344.435544,148.057091 C353.295791,148.057091 360.477091,155.23839 360.477091,164.098638 C360.477091,172.958885 353.295791,180.140185 344.435544,180.140185 Z" fill="#6083C1" fill-rule="nonzero"></path>
                        <path d="M344.435544,180.140185 L334.753352,180.140185 C325.893105,180.140185 318.711805,172.958885 318.711805,164.098638 C318.711805,155.23839 325.893105,148.057091 334.753352,148.057091 L344.435544,148.057091 C353.295791,148.057091 360.477091,155.23839 360.477091,164.098638 C360.477091,172.958885 353.295791,180.140185 344.435544,180.140185 Z" fill="#3B67AF" fill-rule="nonzero"></path>
                        <path d="M334.484564,165.127042 C332.532934,163.173463 332.532934,159.996707 334.484564,158.043129 C335.462328,157.067314 336.745885,156.578432 338.027495,156.578432 C339.311052,156.578432 340.592662,157.067314 341.570425,158.043129 C343.522056,159.996707 343.522056,163.173463 341.570425,165.127042 C339.677226,167.018293 336.381659,167.018293 334.484564,165.127042 Z M349.281509,171.587679 L343.385714,165.689937 C345.421098,163.035174 345.251645,159.219561 342.822819,156.790735 C340.175847,154.143763 335.875247,154.147659 333.234118,156.790735 C330.589094,159.433812 330.589094,163.736359 333.234118,166.379436 C334.51378,167.661045 336.216101,168.366125 338.027495,168.366125 C339.538937,168.366125 340.958836,167.851923 342.135268,166.944279 L348.031063,172.838125 L349.281509,171.587679 Z" fill="#FEFEFE" fill-rule="nonzero"></path>
                        <path d="M219.609091,166.961808 C219.447429,167.121523 219.270185,167.246178 219.036456,167.353303 C218.804676,167.460429 218.537836,167.550024 218.251519,167.604561 C217.947672,167.65715 217.643826,167.692209 217.341927,167.692209 C216.893948,167.692209 216.519983,167.622091 216.251195,167.477958 C215.966826,167.353303 215.752575,167.139052 215.590913,166.872213 C215.538324,166.765087 215.448728,166.693021 215.359132,166.675491 C215.252007,166.657962 215.162411,166.640432 215.092293,166.640432 L214.44954,166.640432 C214.305408,166.640432 214.180753,166.693021 214.091157,166.782617 C213.984031,166.872213 213.913913,166.996868 213.896383,167.121523 C213.876906,167.353303 213.931443,167.604561 214.073627,167.836341 C214.198282,168.085652 214.412533,168.317432 214.71638,168.514153 C215.020226,168.728404 215.376662,168.907596 215.822693,169.032251 C216.270672,169.156906 216.769293,169.228972 217.359456,169.228972 C217.984679,169.228972 218.537836,169.156906 219.018927,169.014721 C219.501965,168.888118 219.912937,168.693345 220.251843,168.442087 C220.590749,168.210307 220.857589,167.925937 221.07184,167.604561 C221.268561,167.300714 221.412693,166.961808 221.482812,166.603425 C221.554878,166.299578 221.572408,165.997679 221.537348,165.711362 C221.500341,165.425045 221.393216,165.158206 221.233502,164.906948 C221.05431,164.675167 220.805,164.460916 220.483624,164.264195 C220.144718,164.069422 219.716216,163.925289 219.198118,163.800634 C218.697551,163.675979 218.286578,163.568854 217.947672,163.479258 C217.608767,163.389662 217.359456,163.300066 217.162735,163.192941 C216.966014,163.085815 216.823829,162.96116 216.769293,162.818976 C216.699174,162.676791 216.679697,162.497599 216.734233,162.265819 C216.823829,161.907436 217.05561,161.623066 217.449052,161.426345 C217.840547,161.229624 218.358645,161.122498 219.001397,161.122498 C219.537024,161.122498 219.912937,161.194564 220.127188,161.31922 C220.341439,161.461404 220.501153,161.640596 220.608279,161.837317 C220.662815,161.944443 220.750463,162.014561 220.857589,162.034038 C220.947185,162.069098 221.03678,162.086627 221.108847,162.086627 L221.697063,162.086627 C221.821718,162.086627 221.96585,162.034038 222.090505,161.944443 C222.21516,161.854847 222.267749,161.730192 222.267749,161.605537 C222.267749,161.391286 222.21516,161.157557 222.090505,160.925777 C221.96585,160.693997 221.769129,160.462216 221.500341,160.265495 C221.233502,160.068774 220.912125,159.909059 220.501153,159.784404 C220.090181,159.659749 219.591561,159.587683 219.001397,159.587683 C218.413181,159.587683 217.912613,159.659749 217.466582,159.784404 C217.020551,159.909059 216.644638,160.088251 216.340791,160.320031 C216.019415,160.551812 215.770105,160.818652 215.573383,161.122498 C215.376662,161.426345 215.252007,161.765251 215.179941,162.121686 C215.109822,162.425533 215.092293,162.72938 215.109822,163.015697 C215.127352,163.319544 215.216948,163.586383 215.376662,163.835693 C215.520794,164.086951 215.735045,164.301202 216.036944,164.478446 C216.323261,164.675167 216.699174,164.8193 217.162735,164.926425 C217.643826,165.033551 218.072328,165.140676 218.44824,165.228324 C218.804676,165.31792 219.108523,165.425045 219.340303,165.532171 C219.572084,165.639296 219.733746,165.763951 219.823341,165.908084 C219.912937,166.067798 219.930467,166.24699 219.87593,166.47877 C219.840871,166.657962 219.751275,166.817676 219.609091,166.961808 Z M227.16046,164.336261 C227.105923,164.605049 227.053334,164.889418 227.035805,165.158206 C226.963739,165.746422 226.998798,166.282049 227.123453,166.765087 C227.250056,167.263707 227.464307,167.692209 227.766206,168.050592 C228.070052,168.424557 228.445965,168.710875 228.891997,168.907596 C229.338028,169.121847 229.873655,169.228972 230.461871,169.228972 C231.087094,169.228972 231.640251,169.139376 232.123289,168.977714 C232.60438,168.818 233.015352,168.638808 233.354258,168.407028 C233.695111,168.175247 233.961951,167.943467 234.176202,167.674679 C234.372923,167.425369 234.532638,167.211118 234.622233,167.031927 C234.67677,166.907272 234.67677,166.782617 234.604704,166.693021 C234.515108,166.603425 234.407983,166.550836 234.283328,166.550836 L233.480861,166.550836 C233.336728,166.550836 233.229603,166.568366 233.140007,166.603425 C233.052359,166.640432 232.962763,166.710551 232.855638,166.800146 C232.60438,167.031927 232.302481,167.228648 231.961627,167.40784 C231.605192,167.604561 231.104624,167.692209 230.444341,167.692209 C229.821066,167.692209 229.355557,167.460429 229.016652,166.996868 C228.677746,166.533307 228.553091,165.890554 228.660216,165.06861 L234.873491,165.06861 C234.998146,165.06861 235.122801,165.014073 235.247456,164.926425 C235.354582,164.836829 235.426648,164.712174 235.461707,164.585571 L235.551303,164.104481 C235.675958,163.444199 235.675958,162.836505 235.568833,162.283348 C235.461707,161.730192 235.264986,161.264683 234.961139,160.855659 C234.65924,160.444686 234.283328,160.14084 233.819767,159.909059 C233.354258,159.694808 232.818631,159.587683 232.230415,159.587683 C231.640251,159.587683 231.087094,159.694808 230.568997,159.89153 C230.052847,160.088251 229.569808,160.37262 229.158836,160.731003 C228.749812,161.087439 228.391429,161.498411 228.087582,161.979502 C227.785683,162.46254 227.534425,162.96116 227.374711,163.514317 C227.285115,163.783105 227.213049,164.069422 227.16046,164.336261 Z M229.016652,163.568854 C229.141307,163.212418 229.320498,162.871564 229.534749,162.569666 C229.749,162.265819 229.99831,162.014561 230.267098,161.80031 C230.533937,161.586059 230.837784,161.426345 231.15916,161.30169 C231.463007,161.177035 231.801913,161.122498 232.140819,161.122498 C232.838108,161.122498 233.373735,161.354279 233.730171,161.80031 C234.069077,162.265819 234.176202,162.854035 234.051547,163.568854 L229.016652,163.568854 Z M242.621582,160.62193 C241.784056,161.31922 241.193892,162.318408 240.854986,163.64092 C240.800449,163.818164 240.76539,164.014885 240.712801,164.211606 C240.658265,164.425857 240.623206,164.622578 240.605676,164.799822 C240.498551,165.462052 240.498551,166.050268 240.605676,166.585895 C240.712801,167.139052 240.907575,167.604561 241.193892,167.996056 C241.460732,168.389498 241.819115,168.693345 242.265146,168.907596 C242.711178,169.121847 243.211746,169.228972 243.764902,169.228972 C244.497251,169.228972 245.067937,169.102369 245.496439,168.870589 C245.907411,168.638808 246.263847,168.354439 246.550164,168.013585 L246.425509,168.56869 C246.407979,168.693345 246.425509,168.818 246.515105,168.907596 C246.585223,168.997192 246.692348,169.04978 246.817003,169.04978 L247.479233,169.04978 C247.603889,169.04978 247.728544,168.997192 247.853199,168.907596 C247.960324,168.818 248.03239,168.693345 248.04992,168.56869 L249.816516,160.247965 C249.835993,160.12331 249.816516,159.998655 249.746397,159.909059 C249.656801,159.819463 249.549676,159.766875 249.425021,159.766875 L248.764739,159.766875 C248.638136,159.766875 248.513481,159.819463 248.406355,159.909059 C248.2817,159.998655 248.209634,160.12331 248.192105,160.247965 L248.084979,160.801122 C248.014861,160.676467 247.907735,160.534282 247.781132,160.39015 C247.638948,160.247965 247.459756,160.12331 247.264983,159.998655 C247.050732,159.874 246.799474,159.784404 246.515105,159.694808 C246.228787,159.622742 245.907411,159.587683 245.531498,159.587683 C244.407655,159.587683 243.443526,159.926589 242.621582,160.62193 Z M246.692348,166.21193 C246.478098,166.513829 246.228787,166.782617 245.94247,166.996868 C245.658101,167.228648 245.354254,167.39031 245.015348,167.514965 C244.674495,167.63962 244.318059,167.692209 243.944094,167.692209 C243.246805,167.692209 242.746237,167.442899 242.444338,166.942331 C242.140491,166.443711 242.050895,165.763951 242.19308,164.906948 C242.21061,164.729704 242.247617,164.568042 242.282676,164.408328 C242.300206,164.246666 242.354742,164.086951 242.407331,163.90776 C242.639111,163.050756 243.015024,162.372944 243.550652,161.872376 C244.068749,161.371808 244.729031,161.122498 245.513969,161.122498 C246.263847,161.122498 246.817003,161.354279 247.157857,161.80031 C247.496763,162.265819 247.586359,162.926101 247.442226,163.765575 C247.424697,163.942819 247.372108,164.176547 247.317571,164.460916 C247.264983,164.764763 247.210446,164.996544 247.157857,165.175735 C247.050732,165.5497 246.88907,165.908084 246.692348,166.21193 Z M259.886307,159.766875 C259.350679,159.766875 258.9027,159.854523 258.563794,160.016185 C258.224889,160.175899 257.885983,160.444686 257.582136,160.801122 L257.689261,160.247965 C257.706791,160.12331 257.689261,159.998655 257.617195,159.909059 C257.547077,159.819463 257.439951,159.766875 257.315296,159.766875 L256.653066,159.766875 C256.528411,159.766875 256.403756,159.819463 256.279101,159.909059 C256.154446,159.998655 256.08238,160.12331 256.06485,160.247965 L254.296307,168.56869 C254.278777,168.693345 254.296307,168.818 254.385902,168.907596 C254.457969,168.997192 254.565094,169.04978 254.689749,169.04978 L255.350031,169.04978 C255.474686,169.04978 255.601289,168.997192 255.725944,168.907596 C255.83307,168.818 255.903188,168.693345 255.922666,168.56869 L257.028979,163.354603 C257.171164,162.676791 257.49254,162.158693 257.975578,161.819787 C258.456669,161.478934 259.029303,161.30169 259.707115,161.30169 L260.564118,161.30169 C260.688774,161.30169 260.813429,161.247153 260.938084,161.157557 C261.045209,161.069909 261.117275,160.943307 261.134805,160.818652 L261.25946,160.247965 C261.27699,160.12331 261.25946,159.998655 261.189341,159.909059 C261.117275,159.819463 261.01015,159.766875 260.885495,159.766875 L259.886307,159.766875 Z M266.456017,164.408328 C266.508606,164.194077 266.563143,163.979826 266.615732,163.783105 C266.759864,163.300066 266.956585,162.908571 267.205895,162.569666 C267.455206,162.228812 267.741523,161.961972 268.045369,161.747721 C268.349216,161.53347 268.651115,161.371808 268.991969,161.264683 C269.313345,161.177035 269.615244,161.122498 269.919091,161.122498 C270.489777,161.122498 270.918279,161.229624 271.222125,161.443875 C271.525972,161.658125 271.722693,162.014561 271.847348,162.515129 C271.901885,162.71185 271.954474,162.836505 272.04407,162.891042 C272.116136,162.96116 272.223261,162.998167 272.347916,162.998167 L272.953662,162.998167 C273.080265,162.998167 273.20492,162.943631 273.312045,162.854035 C273.419171,162.764439 273.47176,162.639784 273.47176,162.515129 C273.47176,162.228812 273.419171,161.907436 273.294516,161.56853 C273.167913,161.229624 272.973139,160.908247 272.704352,160.604401 C272.418035,160.320031 272.04407,160.068774 271.598038,159.874 C271.152007,159.677279 270.579373,159.587683 269.919091,159.587683 C269.330875,159.587683 268.795247,159.694808 268.27715,159.89153 C267.759052,160.088251 267.277962,160.37262 266.86699,160.731003 C266.456017,161.104969 266.080105,161.53347 265.778206,162.014561 C265.456829,162.497599 265.205571,163.033226 265.045857,163.603913 C264.991321,163.800634 264.938732,164.049944 264.884195,164.318732 C264.831606,164.605049 264.77707,164.836829 264.74201,165.033551 C264.652415,165.604237 264.652415,166.139864 264.77707,166.640432 C264.901725,167.156582 265.115976,167.604561 265.419822,167.978526 C265.723669,168.371969 266.099582,168.675815 266.580672,168.888118 C267.044233,169.121847 267.579861,169.228972 268.187554,169.228972 C268.884843,169.228972 269.508118,169.121847 270.026216,168.925125 C270.544314,168.728404 270.972815,168.479094 271.34678,168.175247 C271.705164,167.871401 271.989533,167.550024 272.223261,167.211118 C272.437512,166.872213 272.597226,166.568366 272.686822,166.299578 C272.739411,166.174923 272.721882,166.050268 272.632286,165.960672 C272.544638,165.871077 272.437512,165.818488 272.310909,165.818488 L271.650627,165.818488 C271.525972,165.818488 271.401317,165.853547 271.311721,165.908084 C271.204596,165.978202 271.079941,166.104805 270.955286,166.299578 C270.633909,166.800146 270.240467,167.156582 269.759376,167.370833 C269.276338,167.585084 268.740711,167.692209 268.170024,167.692209 C267.866178,167.692209 267.599338,167.63962 267.34808,167.532495 C267.09877,167.442899 266.884519,167.283185 266.722857,167.068934 C266.563143,166.854683 266.438488,166.585895 266.366422,166.24699 C266.294355,165.908084 266.294355,165.514641 266.348892,165.033551 C266.366422,164.836829 266.401481,164.640108 266.456017,164.408328 Z M287.201345,163.586383 C287.326,162.96116 287.34353,162.408003 287.253934,161.907436 C287.164338,161.408815 286.969564,160.980314 286.683247,160.641408 C286.39693,160.300554 286.022965,160.051244 285.557456,159.854523 C285.093895,159.677279 284.558268,159.587683 283.950575,159.587683 C283.594139,159.587683 283.272763,159.622742 282.986446,159.694808 C282.702077,159.766875 282.450819,159.854523 282.219038,159.961648 C281.987258,160.088251 281.790537,160.212906 281.630822,160.355091 C281.46916,160.514805 281.309446,160.658937 281.165314,160.801122 L282.004787,156.85501 C282.022317,156.730355 282.004787,156.6057 281.934669,156.516105 C281.845073,156.426509 281.737948,156.37392 281.613293,156.37392 L280.951063,156.37392 C280.826408,156.37392 280.701753,156.426509 280.594627,156.516105 C280.469972,156.6057 280.397906,156.730355 280.380376,156.85501 L277.881432,168.56869 C277.863902,168.693345 277.881432,168.818 277.971028,168.907596 C278.041146,168.997192 278.148272,169.04978 278.274875,169.04978 L278.935157,169.04978 C279.059812,169.04978 279.184467,168.997192 279.309122,168.907596 C279.416247,168.818 279.488314,168.693345 279.505843,168.56869 L280.505031,163.855171 C280.701753,162.943631 281.095195,162.248289 281.665882,161.80031 C282.219038,161.354279 282.933857,161.122498 283.773331,161.122498 C285.325676,161.122498 285.89831,162.034038 285.504868,163.855171 L284.505679,168.56869 C284.486202,168.693345 284.505679,168.818 284.593328,168.907596 C284.665394,168.997192 284.772519,169.04978 284.897174,169.04978 L285.557456,169.04978 C285.684059,169.04978 285.808714,168.997192 285.933369,168.907596 C286.040495,168.818 286.112561,168.693345 286.130091,168.56869 L287.201345,163.586383 Z" fill="#B1CDEB" fill-rule="nonzero"></path>
                        <path d="M235.711017,353.040638 C222.902711,343.161725 192.944596,323.156537 167.382519,329.547056 C152.71023,310.1593 130.963767,311.468178 119.43707,315.922648 C107.411753,299.277303 43.1364913,291.542847 35.3436028,353.040638 L235.711017,353.040638 Z" fill="#8BAE22" fill-rule="nonzero"></path>
                        <path d="M289.554209,353.040638 C302.362516,343.161725 332.320631,323.156537 357.882707,329.547056 C372.554997,310.1593 394.30146,311.468178 405.830105,315.922648 C417.853474,299.277303 482.130683,291.542847 489.923571,353.040638 L289.554209,353.040638 Z" fill="#8BAE22" fill-rule="nonzero"></path>
                        <path d="M255.365613,27.8097631 C255.365613,29.2257666 254.220345,30.3729826 252.802394,30.3729826 C251.38639,30.3729826 250.241122,29.2257666 250.241122,27.8097631 C250.241122,26.3937596 251.38639,25.2465436 252.802394,25.2465436 C254.220345,25.2465436 255.365613,26.3937596 255.365613,27.8097631 Z" fill="#FEFEFE" fill-rule="nonzero"></path>
                        <path d="M255.365613,47.2949059 C255.365613,48.7089617 254.220345,49.8581254 252.802394,49.8581254 C251.38639,49.8581254 250.241122,48.7089617 250.241122,47.2949059 C250.241122,45.8789024 251.38639,44.7297387 252.802394,44.7297387 C254.220345,44.7297387 255.365613,45.8789024 255.365613,47.2949059 Z" fill="#FEFEFE" fill-rule="nonzero"></path>
                        <path d="M255.365613,66.778101 C255.365613,68.1941045 254.220345,69.3432683 252.802394,69.3432683 C251.38639,69.3432683 250.241122,68.1941045 250.241122,66.778101 C250.241122,65.3620976 251.38639,64.2148815 252.802394,64.2148815 C254.220345,64.2148815 255.365613,65.3620976 255.365613,66.778101 Z" fill="#FEFEFE" fill-rule="nonzero"></path>
                        <path d="M364.621871,303.135767 L367.936916,334.870216 C368.151167,336.905599 367.138345,338.868916 365.352272,339.870052 C359.546073,343.124718 347.191589,350.263167 347.592822,351.868101 C348.114815,353.963864 372.219986,353.439923 379.557105,348.724456 C386.894223,344.00899 379.818101,340.602401 379.557105,332.217401 C379.29416,323.834348 379.818101,303.135767 379.818101,303.135767 L364.621871,303.135767 Z" fill="#F48F83" fill-rule="nonzero"></path>
                        <path d="M379.557105,348.724456 C385.199693,345.097774 382.322889,342.236551 380.573822,337.30099 L371.304551,341.126341 C370.174864,339.998603 368.472544,339.135756 366.857871,338.510533 C366.444951,339.042265 365.965808,339.527251 365.352272,339.870052 C359.546073,343.124718 347.191589,350.263167 347.592822,351.868101 C348.114815,353.963864 372.219986,353.439923 379.557105,348.724456 Z" fill="#3B67AF" fill-rule="nonzero"></path>
                        <path d="M415.239613,301.297105 L430.445582,329.346439 C431.421397,331.146146 431.23831,333.349035 429.972282,334.955916 C425.852822,340.183638 417.167871,351.50777 418.153425,352.836125 C419.43893,354.571557 441.508718,344.865993 446.481286,337.702223 C451.455801,330.536505 443.616167,330.098265 440.166728,322.451456 C436.717289,314.804648 429.280836,295.481167 429.280836,295.481167 L415.239613,301.297105 Z" fill="#F48F83" fill-rule="nonzero"></path>
                        <path d="M435.25454,310.675449 C434.909791,309.818446 434.56699,308.961443 434.230031,308.11223 C434.56699,308.961443 434.909791,309.818446 435.25454,310.675449 Z" fill="#37866D" fill-rule="nonzero"></path>
                        <path d="M438.96108,319.693463 L424.54784,318.462495 L418.936415,308.11223 L434.230031,308.11223 C434.56699,308.961443 434.909791,309.818446 435.25454,310.675449 C436.543941,313.889213 437.852819,317.091289 438.96108,319.693463 Z" fill="#E57E6D" fill-rule="nonzero"></path>
                        <path d="M365.698969,313.441233 L365.141916,308.11223 L365.698969,313.441233 Z M379.611641,313.141282 C379.642805,311.300672 379.675916,309.584718 379.70708,308.11223 C379.675916,309.584718 379.642805,311.300672 379.611641,313.141282 Z" fill="#DA9639" fill-rule="nonzero"></path>
                        <path d="M379.588268,314.627404 L365.698969,313.441233 L365.141916,308.11223 L379.70708,308.11223 C379.675916,309.584718 379.642805,311.300672 379.611641,313.141282 C379.60385,313.628216 379.596059,314.124889 379.588268,314.627404 Z" fill="#E57E6D" fill-rule="nonzero"></path>
                        <path d="M446.481286,337.702223 C450.306638,332.19208 446.557247,330.649474 443.049376,326.757899 L435.949882,333.837916 C434.473498,333.228275 432.572509,333.084143 430.840972,333.123098 C430.663728,333.773641 430.406627,334.404707 429.972282,334.955916 C425.852822,340.183638 417.167871,351.50777 418.153425,352.836125 C419.43893,354.571557 441.508718,344.865993 446.481286,337.702223 Z" fill="#3B67AF" fill-rule="nonzero"></path>
                        <path d="M382.95785,157.984697 L417.232146,157.984697 C417.232146,157.984697 425.669735,167.154634 424.095965,184.185631 C422.526091,201.216627 423.050031,229.774321 427.765498,238.683261 C432.480965,247.590254 436.150498,253.879491 435.363613,261.738603 C434.576728,269.599662 447.213634,275.006575 446.923422,287.170181 C446.785132,292.921843 448.355007,297.313986 450.363122,300.558913 C452.404348,303.858376 450.152767,308.11223 446.27093,308.11223 L362.526108,308.11223 L358.92085,258.045697 C358.170972,247.603889 359.092251,237.123125 361.657418,226.97153 C366.916303,206.146345 376.440728,170.483314 382.95785,157.984697 Z" fill="#008F61" fill-rule="nonzero"></path>
                        <path d="M424.090122,221.720436 C424.084279,221.65616 424.078436,221.59578 424.072592,221.531505 C424.072592,221.533453 424.072592,221.533453 424.072592,221.533453 C424.078436,221.59578 424.084279,221.658108 424.090122,221.720436 Z M423.340244,171.159178 C421.556118,163.175411 417.845683,158.689777 417.300317,158.060659 C417.845683,158.689777 421.556118,163.175411 423.340244,171.159178 C423.340244,171.159178 423.340244,171.159178 423.340244,171.159178 Z" fill="#D3A758" fill-rule="nonzero"></path>
                        <path d="M424.072592,221.533453 C424.072592,221.533453 424.072592,221.533453 424.072592,221.531505 C422.95654,209.574359 423.127941,194.687819 424.095965,184.185631 C424.561474,179.142944 424.150502,174.789756 423.340244,171.159178 C423.340244,171.159178 423.340244,171.159178 423.340244,171.159178 C424.150502,174.789756 424.563422,179.142944 424.097913,184.185631 C423.127941,194.689767 422.95654,209.574359 424.072592,221.533453 Z" fill="#BA803A" fill-rule="nonzero"></path>
                        <path d="M377.626899,171.087111 C379.514254,165.67046 381.329544,161.106916 382.95785,157.984697 C381.329544,161.106916 379.516202,165.67046 377.626899,171.087111 Z" fill="#C3C5C5" fill-rule="nonzero"></path>
                        <path d="M424.090122,221.720436 C391.537624,213.419188 380.965317,185.636693 377.626899,171.087111 C379.516202,165.67046 381.329544,161.106916 382.95785,157.984697 L417.232146,157.984697 C417.232146,157.984697 417.255519,158.010017 417.300317,158.060659 C417.845683,158.689777 421.556118,163.175411 423.340244,171.159178 C424.150502,174.789756 424.561474,179.142944 424.095965,184.185631 C423.127941,194.687819 422.95654,209.574359 424.072592,221.531505 C424.078436,221.59578 424.084279,221.65616 424.090122,221.720436 Z" fill="#007350" fill-rule="nonzero"></path>
                        <path d="M380.517338,96.8511324 C376.129091,100.1467 351.784348,122.87677 351.784348,122.87677 L357.284753,97.7237178 L350.753997,96.8511324 C350.753997,96.8511324 330.82477,130.998826 343.401296,136.107735 C355.977822,141.216645 379.687603,114.754714 379.687603,114.754714 C379.687603,114.754714 386.455983,104.755042 380.517338,96.8511324 Z" fill="#F48F83" fill-rule="nonzero"></path>
                        <polygon fill="#2F5897" fill-rule="nonzero" points="356.162857 102.861843 356.162857 102.861843 357.284753 97.7237178"></polygon>
                        <path d="M355.907704,104.028537 L356.162857,102.861843 L355.907704,104.026589 C355.907704,104.026589 355.907704,104.028537 355.907704,104.028537 Z" fill="#90A6C4" fill-rule="nonzero"></path>
                        <path d="M350.738415,96.8784007 C350.738415,96.876453 350.738415,96.876453 350.740362,96.8745052 C350.738415,96.876453 350.738415,96.876453 350.738415,96.8784007 Z M350.750101,96.8589233 C350.750101,96.8569756 350.750101,96.8569756 350.752049,96.8550279 C350.750101,96.8569756 350.750101,96.8569756 350.750101,96.8589233 Z M350.752049,96.8550279 C350.752049,96.8550279 350.752049,96.8530801 350.752049,96.8530801 C350.752049,96.8530801 350.752049,96.8550279 350.752049,96.8550279 Z" fill="#2F5897" fill-rule="nonzero"></path>
                        <path d="M345.220481,108.095408 C345.158153,108.095408 345.097774,108.095408 345.035446,108.095408 C347.777857,102.012631 350.508582,97.2718432 350.738415,96.8784007 C350.738415,96.876453 350.738415,96.876453 350.740362,96.8745052 C350.744258,96.868662 350.748153,96.8628188 350.750101,96.8589233 C350.750101,96.8569756 350.750101,96.8569756 350.752049,96.8550279 C350.752049,96.8550279 350.752049,96.8550279 350.752049,96.8550279 C350.752049,96.8550279 350.752049,96.8530801 350.752049,96.8530801 C350.752049,96.8530801 350.752049,96.8530801 350.752049,96.8530801 C350.752049,96.8530801 350.752049,96.8530801 350.752049,96.8530801 C350.753997,96.8530801 350.753997,96.8511324 350.753997,96.8511324 C350.753997,96.8511324 350.753997,96.8511324 350.753997,96.8511324 C350.753997,96.8511324 350.753997,96.8511324 350.753997,96.8511324 L357.284753,97.7237178 L356.162857,102.861843 L355.907704,104.028537 C354.150847,105.575038 350.467679,108.095408 345.220481,108.095408 Z" fill="#E57E6D" fill-rule="nonzero"></path>
                        <path d="M379.118864,64.8868502 L378.421575,67.7694983 L380.604986,68.1181429 C380.604986,68.1181429 378.596871,83.489669 392.74522,82.1788432 L392.74522,94.1437805 L406.106683,93.0082509 L403.572679,57.6373798 L383.312338,42.5287979 C383.312338,42.5287979 371.696045,53.0972091 379.118864,64.8868502 Z" fill="#F48F83" fill-rule="nonzero"></path>
                        <path d="M406.106683,93.0082509 L404.791962,74.6547422 C404.791962,74.6547422 404.791962,74.6547422 404.791962,74.6547422 L406.106683,93.0082509 Z M392.585505,82.1924774 C392.638094,82.1885819 392.690683,82.1827387 392.74522,82.1788432 C392.690683,82.1846864 392.638094,82.1885819 392.585505,82.1924774 Z" fill="#D3A758" fill-rule="nonzero"></path>
                        <path d="M392.74522,94.1437805 L392.74522,82.1788432 C392.690683,82.1827387 392.638094,82.1885819 392.585505,82.1924774 C392.096624,82.2333798 391.62722,82.2528571 391.177293,82.2528571 C389.901526,82.2528571 388.783526,82.0950906 387.786286,81.8282509 C387.946,81.8477282 388.129087,81.8594146 388.339443,81.8594146 C391.001997,81.8594146 397.577551,80.1882578 404.791962,74.6547422 L406.106683,93.0082509 L392.74522,94.1437805 Z" fill="#E57E6D" fill-rule="nonzero"></path>
                        <path d="M420.408902,118.583962 L416.622505,94.6073415 C416.622505,94.6073415 415.342843,94.5274843 413.295774,94.4106202 C411.416209,94.3034948 409.941774,92.7472544 409.941774,90.8676899 C409.941774,89.4867456 408.819878,88.3648502 407.438934,88.3648502 L389.212028,88.3648502 C387.829136,88.3648502 386.711136,89.4867456 386.711136,90.8676899 L386.711136,91.7149547 C386.711136,93.2984634 385.665202,94.6930418 384.144021,95.1371254 L380.421899,96.2259094 C380.421899,96.2259094 380.246603,103.387732 378.326136,107.579258 C376.405669,111.772732 374.309906,117.012139 378.326136,122.426843 C382.344314,127.841547 383.565544,140.766718 380.597195,151.596125 C377.628847,162.425533 380.246603,161.377652 389.679484,161.377652 C399.112366,161.377652 408.019359,161.377652 413.609359,161.377652 C419.197411,161.377652 421.295122,159.281889 420.071944,150.372948 C418.850714,141.465955 419.174038,125.221843 420.408902,118.583962 Z" fill="url(#linearGradient-3)" fill-rule="nonzero"></path>
                        <path d="M444.25892,189.931449 L396.338791,189.931449 C394.720223,189.931449 393.508732,188.449223 393.830108,186.861819 L400.28685,155.047512 C400.530317,153.853551 401.578199,152.996547 402.795533,152.996547 L450.713714,152.996547 C452.332282,152.996547 453.543774,154.480721 453.222397,156.06423 L446.767603,187.880484 C446.524136,189.072498 445.476254,189.931449 444.25892,189.931449 Z" fill="#FEFEFE" fill-rule="nonzero"></path>
                        <path d="M414.596861,95.1059617 C422.923429,90.9865017 441.913847,126.283359 441.913847,142.52747 C441.913847,158.771582 425.669735,183.924634 425.669735,183.924634 C425.669735,183.924634 425.850875,187.47146 423.663568,190.087268 C421.478209,192.701129 414.534533,193.74901 413.749596,191.783746 C412.960763,189.818481 413.749596,187.461721 413.749596,187.461721 C413.749596,187.461721 409.817118,190.866362 409.032181,190.081425 C408.247244,189.296488 411.127944,183.270195 419.775889,179.337718 L431.520732,144.001906 C431.520732,144.001906 418.973422,118.235317 415.973909,110.650836 C413.005561,103.140369 409.750895,97.5036237 414.596861,95.1059617 Z" fill="#F48F83" fill-rule="nonzero"></path>
                        <path d="M350.997463,86.9819582 C353.51978,82.7281045 357.898289,84.3622544 360.0817,85.2367875 C362.265111,86.1093728 363.57399,91.8727213 362.701404,93.2711951 C361.828819,94.6677213 361.067254,93.2711951 361.067254,93.2711951 C361.067254,93.2711951 360.708871,100.082425 354.929941,100.082425 C349.149063,100.082425 348.202463,91.6993728 350.997463,86.9819582 Z" fill="#F48F83" fill-rule="nonzero"></path>
                        <polygon fill="#F16F5F" fill-rule="nonzero" points="358.494296 93.8516202 352.904296 93.1426446 353.400969 74.8319861 358.990969 75.5409617"></polygon>
                        <polygon fill="#FEFEFE" fill-rule="nonzero" points="309.101679 52.6706551 292.569303 45.5886899 293.011439 42.1217213 309.417213 50.1717108"></polygon>
                        <polygon fill="#FEFEFE" fill-rule="nonzero" points="307.925247 61.9438223 290.935153 58.4534808 291.377289 54.9884599 308.24078 59.4468258"></polygon>
                        <polygon fill="#FEFEFE" fill-rule="nonzero" points="306.746868 71.2169895 289.302951 71.3202195 289.743139 67.8532509 307.062401 68.719993"></polygon>
                        <polygon fill="#FEFEFE" fill-rule="nonzero" points="305.568488 80.4921045 287.668801 84.1850105 288.10899 80.7199895 305.885969 77.9931603"></polygon>
                        <path d="M381.913864,49.1666794 C381.913864,49.1666794 382.961746,59.8207909 397.458739,63.3150279 L399.659679,112.339523 C399.747328,114.275571 402.308599,114.891056 403.26299,113.202369 C404.213484,111.521474 405.327589,109.269892 406.544923,106.284014 C410.385857,96.8511324 417.197087,102.092488 417.197087,91.087784 C417.197087,80.0830801 419.119502,37.5951847 393.835951,37.5951847 C368.464753,37.5951847 367.592167,63.3150279 379.118864,64.8868502 C379.118864,64.8868502 378.77022,56.3285017 381.913864,49.1666794 Z" fill="#454F5E" fill-rule="nonzero"></path>
                        <polygon fill="#F16F5F" fill-rule="nonzero" points="352.896505 80.6771394 315.161084 88.5459895 320.396596 47.2637422 354.972791 64.3044774"></polygon>
                        <path d="M363.256509,80.8680174 L359.524648,80.3947178 L361.32046,66.2327352 L365.054268,66.7079826 C368.686794,67.1676481 371.257805,70.4865889 370.798139,74.1210627 L370.671537,75.1221986 C370.209923,78.7566725 366.890983,81.3276829 363.256509,80.8680174 Z" fill="#F16F5F" fill-rule="nonzero"></path>
                        <polygon fill="#8A3C35" fill-rule="nonzero" points="359.347404 81.783453 352.859498 80.9615087 355.009798 64.020108 361.497704 64.844"></polygon>
                        <path d="M324.630972,67.5299268 C323.185753,78.9300209 319.362348,87.8350662 316.094049,87.4201986 C312.823801,87.005331 311.34547,77.4283171 312.79069,66.028223 C314.235909,54.6281289 318.059314,45.7230836 321.329561,46.1379512 C324.599808,46.5528188 326.078139,56.1298328 324.630972,67.5299268 Z" fill="#8A3C35" fill-rule="nonzero"></path>
                        <path d="M93.3627387,330.647526 L93.3607909,330.647526 L99.5000523,297.50876 L81.4835017,247.111111 C74.3431045,264.192749 73.8737003,314.576763 73.8737003,327.564261 C73.8737003,323.349362 73.9223937,315.1903 74.2340314,305.512003 C74.8806794,285.374369 76.6609094,258.647547 81.4835017,247.111111 L60.5083415,220.662815 L41.3095157,196.456362 C41.3095157,196.456362 36.0350488,188.371314 36.1635993,177.372453 L48.8199826,177.372453 L58.0230314,158.292439 L73.5367422,158.292439 L92.595331,206.62354 L100.643373,227.033857 C105.939265,240.467387 107.353321,255.120199 104.723878,269.319188 L98.0957352,305.095188 L93.3627387,330.647526 Z" fill="url(#linearGradient-4)" fill-rule="nonzero"></path>
                        <path d="M81.4835017,80.1707282 L92.9244983,91.087784 L62.0412091,148.057091 C62.0412091,148.057091 65.6620488,106.533324 81.4835017,80.1707282 Z" fill="#FEFEFE" fill-rule="nonzero"></path>
                        <path d="M142.469038,128.077223 C142.469038,128.077223 145.180286,129.95484 144.806321,133.750976 C144.430408,137.549059 142.578111,143.483808 138.672902,143.320199 C134.765746,143.156589 139.377983,125.71462 142.469038,128.077223 Z" fill="#F48F83" fill-rule="nonzero"></path>
                        <path d="M152.012941,78.2093589 C141.652937,75.854547 130.852746,81.915899 127.483164,91.9915331 C124.259662,101.626979 128.369383,111.733777 136.530394,116.655704 C138.402167,117.78539 139.255275,120.048659 138.698223,122.161951 L131.372791,149.895753 C131.043624,151.13646 131.783763,152.410279 133.02447,152.743341 C134.272969,153.078352 135.554578,152.334317 135.883746,151.085819 L143.199439,123.390972 C143.764282,121.252359 145.661376,119.723387 147.872056,119.672746 C156.956293,119.466286 165.193265,113.336763 167.662993,104.116185 C170.730676,92.6518153 163.693509,80.8621742 152.012941,78.2093589 Z" fill="#3B67AF" fill-rule="nonzero"></path>
                        <path d="M162.955317,102.856 C160.651146,111.457199 151.814272,116.562213 143.213073,114.25999 C134.611875,111.957767 129.506861,103.118944 131.809084,94.5177456 C134.111307,85.9184948 142.950129,80.8115331 151.551328,83.1137561 C160.152526,85.4159791 165.25754,94.2548014 162.955317,102.856 Z" fill="#B1CDEB" fill-rule="nonzero"></path>
                        <path d="M157.745125,86.3567352 L135.050115,109.053693 C136.910202,111.272164 139.385774,112.997857 142.303481,113.965882 L162.672895,93.5964669 C161.734087,90.7878328 160.027871,88.2791498 157.745125,86.3567352 Z" fill="#FEFEFE" fill-rule="nonzero"></path>
                        <path d="M133.624373,107.065056 L155.766226,84.9251498 C154.480721,84.144108 153.074456,83.5227805 151.551328,83.1137561 L151.389666,83.0786969 L131.774024,102.69239 C132.17331,104.24084 132.800481,105.709432 133.624373,107.065056 Z" fill="#FEFEFE" fill-rule="nonzero"></path>
                        <path d="M122.590453,139.255275 L130.231418,134.927408 C130.231418,134.927408 132.296017,127.685728 136.93747,127.666251 C140.690756,127.650669 140.955648,133.873683 140.225247,134.214537 C138.721596,134.917669 137.373763,131.045571 137.373763,131.045571 C137.373763,131.045571 135.622749,141.666571 131.830509,142.819631 L125.923028,146.467739 L122.590453,139.255275 Z" fill="#F48F83" fill-rule="nonzero"></path>
                        <path d="M87.5020035,168.549213 C77.3231394,168.549213 78.9085958,153.87108 86.3742648,129.726955 C86.3742648,129.726955 91.4344808,117.703585 96.8550279,109.745139 C99.5370592,105.804871 102.306739,102.861843 104.595328,102.861843 C97.6828153,102.859895 86.3742648,129.726955 86.3742648,129.726955 C84.9835819,134.228171 83.8110453,138.376847 82.8663937,142.186617 L105.265348,118.582014 C106.881969,111.242948 107.735077,105.095895 106.486578,103.691578 C110.004188,107.647429 96.8550279,149.251052 96.8550279,149.251052 L119.160491,138.441122 L125.325073,135.453296 L128.295369,146.282704 C128.295369,146.282704 124.528449,149.19262 119.160491,152.906951 C112.777763,157.322467 104.131767,162.877408 96.8550279,166.036634 C94.3775087,167.111784 92.0597038,167.910355 90.0437979,168.290164 C89.1264146,168.463512 88.2791498,168.549213 87.5020035,168.549213 Z M106.486578,103.689631 C106.484631,103.687683 106.482683,103.685735 106.478787,103.68184 C106.482683,103.685735 106.484631,103.687683 106.486578,103.689631 Z M106.47684,103.679892 C106.474892,103.675997 106.470997,103.674049 106.467101,103.670153 C106.470997,103.672101 106.474892,103.677944 106.47684,103.679892 Z M106.463206,103.66431 C106.461258,103.66431 106.45931,103.662362 106.457362,103.660415 C106.45931,103.662362 106.461258,103.66431 106.463206,103.66431 Z M106.453467,103.654571 C106.451519,103.652624 106.451519,103.652624 106.449571,103.650676 C106.449571,103.652624 106.451519,103.654571 106.453467,103.654571 Z M106.439833,103.642885 C106.439833,103.640937 106.437885,103.63899 106.437885,103.63899 C106.437885,103.63899 106.439833,103.640937 106.439833,103.642885 Z M106.430094,103.631199 C106.430094,103.631199 106.428146,103.629251 106.428146,103.629251 C106.428146,103.631199 106.430094,103.631199 106.430094,103.631199 Z M106.418408,103.619512 C106.406721,103.609774 106.396983,103.600035 106.385296,103.590296 C106.396983,103.600035 106.406721,103.609774 106.418408,103.619512 Z M106.371662,103.57861 C105.824348,103.08778 105.230289,102.861843 104.597275,102.861843 C105.230289,102.861843 105.824348,103.08778 106.371662,103.57861 Z" fill="url(#linearGradient-5)" fill-rule="evenodd"></path>
                        <path d="M106.486578,103.691578 C106.486578,103.691578 106.486578,103.689631 106.486578,103.689631 C106.486578,103.689631 106.486578,103.691578 106.486578,103.691578 Z M106.478787,103.68184 C106.478787,103.68184 106.478787,103.68184 106.47684,103.679892 C106.478787,103.68184 106.478787,103.68184 106.478787,103.68184 Z M106.467101,103.670153 C106.465153,103.668206 106.465153,103.666258 106.463206,103.66431 C106.465153,103.666258 106.465153,103.668206 106.467101,103.670153 Z M106.457362,103.660415 C106.457362,103.658467 106.455415,103.656519 106.453467,103.654571 C106.455415,103.656519 106.457362,103.658467 106.457362,103.660415 Z M106.449571,103.650676 C106.445676,103.648728 106.443728,103.644833 106.439833,103.642885 C106.443728,103.644833 106.445676,103.648728 106.449571,103.650676 Z M106.437885,103.63899 C106.435937,103.637042 106.432042,103.635094 106.430094,103.631199 C106.432042,103.635094 106.43399,103.637042 106.437885,103.63899 Z M106.428146,103.629251 C106.424251,103.625355 106.420355,103.623408 106.418408,103.619512 C106.420355,103.623408 106.424251,103.625355 106.428146,103.629251 Z M106.385296,103.590296 C106.381401,103.586401 106.375557,103.582505 106.371662,103.57861 C106.375557,103.582505 106.381401,103.586401 106.385296,103.590296 Z M104.597275,102.861843 C104.597275,102.861843 104.597275,102.861843 104.595328,102.861843 C104.597275,102.861843 104.597275,102.861843 104.597275,102.861843 Z" fill="#DA9639" fill-rule="nonzero"></path>
                        <path d="M82.6346132,142.601484 C83.5792648,138.791714 84.7518014,134.643038 86.1424843,130.141822 C86.1424843,130.141822 97.4510348,103.274763 104.363547,103.276711 C104.365495,103.276711 104.365495,103.276711 104.365495,103.276711 C104.998509,103.276711 105.592568,103.502648 106.139882,103.993477 C106.143777,103.997373 106.14962,104.001268 106.153516,104.005164 C106.165202,104.014902 106.174941,104.024641 106.186627,104.03438 C106.188575,104.038275 106.19247,104.040223 106.196366,104.044118 C106.196366,104.044118 106.198314,104.046066 106.198314,104.046066 C106.200261,104.049962 106.204157,104.051909 106.206105,104.053857 C106.206105,104.053857 106.208052,104.055805 106.208052,104.057753 C106.211948,104.0597 106.213895,104.063596 106.217791,104.065544 C106.219739,104.067491 106.219739,104.067491 106.221686,104.069439 C106.223634,104.071387 106.225582,104.073334 106.225582,104.075282 C106.22753,104.07723 106.229477,104.079178 106.231425,104.079178 C106.233373,104.081125 106.233373,104.083073 106.235321,104.085021 C106.239216,104.088916 106.243111,104.090864 106.245059,104.09476 C106.247007,104.096707 106.247007,104.096707 106.247007,104.096707 C106.250902,104.100603 106.25285,104.102551 106.254798,104.104498 C106.254798,104.104498 106.254798,104.106446 106.254798,104.106446 C107.503296,105.510763 106.650188,111.657815 105.033568,118.996882 L82.6346132,142.601484 Z" fill="#2EB2DE" fill-rule="nonzero"></path>
                        <path d="M54.9066551,152.581679 L61.5971254,223.185132 C62.7131777,234.939714 61.1082439,246.791683 56.9128223,257.827551 L30.0145993,328.563449 L10.5411429,328.563449 C10.5411429,328.563449 17.527669,257.558763 34.8644599,240.572564 L22.6813763,190.747551 C22.6813763,190.747551 10.3716899,171.877892 23.8149582,152.581679 L54.9066551,152.581679 Z" fill="url(#linearGradient-6)" fill-rule="nonzero"></path>
                        <path d="M30.5658084,327.895376 L26.7677247,341.126341 C26.7677247,341.126341 50.2165087,348.987401 50.7423972,352.000547 C51.2643902,355.013693 7.5104669,352.000547 7.5104669,352.000547 C7.5104669,352.000547 7.5104669,345.756108 13.0128188,340.617983 L15.3715261,327.895376 L30.5658084,327.895376 Z" fill="#F48F83" fill-rule="nonzero"></path>
                        <path d="M50.7423972,352.000547 C50.2165087,348.987401 26.7677247,341.126341 26.7677247,341.126341 L28.1681463,336.253108 C23.6941986,336.597857 22.5314007,340.617983 22.5314007,340.617983 L13.0128188,340.617983 C7.5104669,345.756108 7.5104669,352.000547 7.5104669,352.000547 C7.5104669,352.000547 51.2643902,355.013693 50.7423972,352.000547 Z" fill="#454F5E" fill-rule="nonzero"></path>
                        <path d="M91.2650279,327.895376 L90.3437491,341.126341 C90.3437491,341.126341 113.792533,348.987401 114.316474,352.000547 C114.840415,355.013693 71.0864913,352.000547 71.0864913,352.000547 C71.0864913,352.000547 71.0864913,345.756108 76.5888432,340.617983 L76.0687979,327.895376 L91.2650279,327.895376 Z" fill="#F48F83" fill-rule="nonzero"></path>
                        <path d="M114.316474,352.000547 C113.792533,348.987401 90.3437491,341.126341 90.3437491,341.126341 L90.6846028,336.253108 C86.2106551,336.597857 86.1074251,340.617983 86.1074251,340.617983 L76.5888432,340.617983 C71.0864913,345.756108 71.0864913,352.000547 71.0864913,352.000547 C71.0864913,352.000547 114.840415,355.013693 114.316474,352.000547 Z" fill="#454F5E" fill-rule="nonzero"></path>
                        <path d="M123.231258,68.0304948 L117.55361,78.5989059 L114.75861,76.7641394 C114.75861,76.7641394 110.479436,86.1970209 105.325728,85.6730801 C100.173969,85.1491394 99.5623798,83.6649652 99.5623798,83.6649652 L92.9244983,91.087784 C92.9244983,91.087784 82.4437352,87.8545436 81.4835017,80.1707282 L87.6870383,70.1515784 L103.753906,53.7087979 L123.231258,68.0304948 Z" fill="#F48F83" fill-rule="nonzero"></path>
                        <path d="M111.47278,61.8269582 C111.47278,61.8269582 120.036972,68.9634599 125.50816,72.5317108 C130.979348,76.0980139 138.38269,70.9696272 138.38269,62.1678118 C138.38269,53.3659965 127.411098,50.1697631 123.724035,52.3122718 C123.724035,52.3122718 114.332056,44.7063659 108.142153,44.7005226 C102.195718,44.6946794 102.197666,49.6945157 102.197666,49.6945157 C102.197666,49.6945157 96.7245296,46.3658362 91.9681603,51.3598293 C87.2098432,56.35577 87.6870383,70.1515784 87.6870383,70.1515784 L93.1582265,73.4490941 L96.4869059,70.1515784 C96.4869059,70.1515784 94.7884808,59.4020279 102.197666,60.636892 C105.051098,61.1121394 102.910537,67.0605226 102.910537,67.0605226 C102.910537,67.0605226 108.619348,66.822899 111.47278,61.8269582 Z" fill="#454F5E" fill-rule="nonzero"></path>
                        <polygon fill="url(#linearGradient-7)" fill-rule="nonzero" points="92.9244983 91.087784 56.5057456 154.665756 58.2528641 177.372453 81.4835017 177.372453 73.0985017 153.793171 106.418408 103.619512"></polygon>
                        <polygon fill="#B1CDEB" fill-rule="nonzero" points="63.7902753 141.950941 92.9244983 91.087784 98.5573484 106.371662 79.0371463 119.863624 82.8371777 129.726955"></polygon>
                        <polygon fill="url(#linearGradient-8)" fill-rule="nonzero" points="48.8199826 177.372453 36.1635993 177.372453 10.2178188 177.372453 29.4322265 139.995415 36.2434564 115.650672 61.6789303 84.769331 44.2486481 87.0364948 45.8516341 81.3062578 65.5880348 72.3973171 81.4835017 80.1707282 60.6972718 152.745289 58.0230314 158.292439"></polygon>
                        <polygon fill="#C3C5C5" fill-rule="nonzero" points="36.2415087 115.65262 44.2486481 87.0364948 36.2434564 115.650672"></polygon>
                        <polyline fill="#21B7DE" fill-rule="nonzero" points="36.2434564 115.650672 44.2486481 87.0364948 61.6789303 84.769331 36.2415087 115.65262"></polyline>
                        <polygon fill="#B1CDEB" fill-rule="nonzero" points="81.4835017 80.1707282 60.6972718 152.745289 57.7289233 116.458983 67.1598571 115.541599 65.4146864 83.5773171"></polygon>
                        <path d="M27.6831603,137.605544 L29.862676,143.760387 L38.3002648,147.981129 C39.7708049,148.717373 40.8965958,149.995087 41.4400139,151.547432 L43.7519756,158.142463 L41.3679477,159.190345 C39.4513763,160.031767 37.2095331,159.313052 36.1402265,157.515293 L35.3377596,156.165512 L26.869007,152.511561 C25.0673519,151.734415 23.838331,150.032094 23.6669303,148.076568 L23.4916341,146.074296 L20.7161115,140.443394 L27.6831603,137.605544 Z" fill="#F48F83" fill-rule="nonzero"></path>
                        <path d="M65.5880348,72.3973171 C58.2898711,68.8271185 8.47264808,88.8965819 4.97841115,101.171209 C1.48417422,113.445836 20.8037596,144.786843 20.8037596,144.786843 L29.4322265,139.995415 L20.873878,109.051746 C20.873878,109.051746 43.7987213,96.4148397 53.3601533,91.087784 C63.0306585,85.7003484 70.9423589,75.0150732 65.5880348,72.3973171 Z" fill="url(#linearGradient-9)" fill-rule="nonzero"></path>
                        <path d="M93.3335226,330.647526 L91.01377,330.647526 L91.2065958,327.846683 L75.788324,327.846683 L75.9012927,330.647526 L73.5737491,330.647526 C73.5737491,330.647526 73.560115,329.51784 73.560115,327.509725 C73.560115,314.288498 74.0373101,262.998787 81.282885,245.609408 L99.5623798,296.912753 L93.3335226,330.647526 Z" fill="#27B5DE" fill-rule="nonzero"></path>
                        <polygon fill="#E57E6D" fill-rule="nonzero" points="91.0741498 330.647526 76.1798188 330.647526 76.0687979 327.895376 91.2650279 327.895376"></polygon>
                        <path d="M178.01131,67.0235157 L173.919118,67.0235157 C173.221829,67.0235157 172.656986,66.4586725 172.656986,65.7613833 L172.656986,61.6691916 L170.697564,61.6691916 L170.697564,65.7613833 C170.697564,66.4586725 170.132721,67.0235157 169.433484,67.0235157 L165.341293,67.0235157 L165.341293,68.9829373 L169.433484,68.9829373 C170.132721,68.9829373 170.697564,69.5497282 170.697564,70.2450697 L170.697564,74.3372613 L172.656986,74.3372613 L172.656986,70.2450697 C172.656986,69.5497282 173.221829,68.9829373 173.919118,68.9829373 L178.01131,68.9829373 L178.01131,67.0235157 Z" fill="#FEFEFE" fill-rule="nonzero"></path>
                        <path d="M445.297063,46.2840314 L441.204871,46.2840314 C440.507582,46.2840314 439.942739,45.7172404 439.942739,45.0199512 L439.942739,40.9297073 L437.981369,40.9297073 L437.981369,45.0199512 C437.981369,45.7172404 437.416526,46.2840314 436.719237,46.2840314 L432.627045,46.2840314 L432.627045,48.243453 L436.719237,48.243453 C437.416526,48.243453 437.981369,48.8082962 437.981369,49.5055854 L437.981369,53.597777 L439.942739,53.597777 L439.942739,49.5055854 C439.942739,48.8082962 440.507582,48.243453 441.204871,48.243453 L445.297063,48.243453 L445.297063,46.2840314 Z" fill="#FEFEFE" fill-rule="nonzero"></path>
                        <path d="M502.10276,278.732592 L498.010568,278.732592 C497.315226,278.732592 496.748436,278.167749 496.748436,277.472408 L496.748436,273.378268 L494.789014,273.378268 L494.789014,277.472408 C494.789014,278.167749 494.224171,278.732592 493.526882,278.732592 L489.43469,278.732592 L489.43469,280.693962 L493.526882,280.693962 C494.224171,280.693962 494.789014,281.258805 494.789014,281.958042 L494.789014,286.048286 L496.748436,286.048286 L496.748436,281.958042 C496.748436,281.258805 497.315226,280.693962 498.010568,280.693962 L502.10276,280.693962 L502.10276,278.732592 Z" fill="#FEFEFE" fill-rule="nonzero"></path>
                        <path d="M320.445289,276.856923 C320.445289,289.723662 310.015167,300.155732 297.148429,300.155732 C284.279742,300.155732 273.84962,289.723662 273.84962,276.856923 C273.84962,263.988237 284.279742,253.558115 297.148429,253.558115 C310.015167,253.558115 320.445289,263.988237 320.445289,276.856923 Z" fill="#3B67AF" fill-rule="nonzero"></path>
                        <path d="M297.148429,285.25361 C292.510871,285.25361 288.749794,281.492533 288.749794,276.856923 C288.749794,272.217418 292.510871,268.456341 297.148429,268.456341 C301.785986,268.456341 305.547063,272.217418 305.547063,276.856923 C305.547063,281.492533 301.785986,285.25361 297.148429,285.25361 Z M297.148429,258.306693 C286.920871,258.306693 278.598199,266.629366 278.598199,276.856923 C278.598199,287.084481 286.920871,295.405206 297.148429,295.405206 C307.375986,295.405206 315.696711,287.084481 315.696711,276.856923 C315.696711,266.629366 307.375986,258.306693 297.148429,258.306693 Z" fill="#B1CDEB" fill-rule="nonzero"></path>
                        <path d="M297.148429,297.787286 C285.608098,297.787286 276.218066,288.395307 276.218066,276.856923 C276.218066,265.316592 285.608098,255.926561 297.148429,255.926561 C308.686812,255.926561 318.078791,265.316592 318.078791,276.856923 C318.078791,288.395307 308.686812,297.787286 297.148429,297.787286 Z M336.383606,285.130902 C336.942606,282.460557 337.24061,279.692826 337.24061,276.856923 C337.24061,274.019073 336.942606,271.253289 336.383606,268.582944 L327.13576,268.582944 C326.446261,266.082052 325.456812,263.709711 324.200523,261.502927 L330.735174,254.970223 C327.688916,250.305397 323.698007,246.314488 319.035129,243.26823 L312.500477,249.802882 C310.295641,248.546592 307.9233,247.557143 305.422408,246.867645 L305.422408,237.621746 C302.750115,237.060798 299.986279,236.762794 297.148429,236.762794 C294.310578,236.762794 291.544794,237.060798 288.872502,237.621746 L288.872502,246.867645 C286.373557,247.557143 284.001216,248.546592 281.79638,249.802882 L275.261728,243.26823 C270.596902,246.314488 266.607941,250.305397 263.559735,254.968275 L270.094387,261.502927 C268.838098,263.709711 267.848648,266.082052 267.15915,268.582944 L257.913251,268.582944 C257.352303,271.253289 257.0543,274.019073 257.0543,276.856923 C257.0543,279.692826 257.352303,282.460557 257.913251,285.130902 L267.15915,285.130902 C267.848648,287.629847 268.838098,290.004136 270.094387,292.207024 L263.559735,298.741676 C266.607941,303.406502 270.596902,307.395463 275.261728,310.443669 L281.79638,303.909017 C284.001216,305.165307 286.373557,306.156704 288.872502,306.844254 L288.872502,316.090153 C291.544794,316.651101 294.310578,316.951052 297.148429,316.951052 C299.986279,316.951052 302.750115,316.651101 305.422408,316.090153 L305.422408,306.844254 C307.9233,306.156704 310.295641,305.165307 312.500477,303.909017 L319.035129,310.443669 C323.698007,307.395463 327.688916,303.406502 330.735174,298.741676 L324.200523,292.207024 C325.456812,290.004136 326.446261,287.629847 327.13576,285.130902 L336.383606,285.130902 Z" fill="#B1CDEB" fill-rule="nonzero"></path>
                        <path d="M250.599505,310.829321 C250.599505,317.895704 244.873164,323.622045 237.80678,323.622045 C230.742345,323.622045 225.012108,317.895704 225.012108,310.829321 C225.012108,303.762937 230.742345,298.036596 237.80678,298.036596 C244.873164,298.036596 250.599505,303.762937 250.599505,310.829321 Z" fill="#3B67AF" fill-rule="nonzero"></path>
                        <path d="M237.80678,315.43961 C235.259143,315.43961 233.196491,313.376958 233.196491,310.829321 C233.196491,308.281683 235.259143,306.217084 237.80678,306.217084 C240.35247,306.217084 242.419017,308.281683 242.419017,310.829321 C242.419017,313.376958 240.35247,315.43961 237.80678,315.43961 Z M237.80678,300.644613 C232.19146,300.644613 227.620125,305.212052 227.620125,310.829321 C227.620125,316.446589 232.19146,321.014028 237.80678,321.014028 C243.424049,321.014028 247.991488,316.446589 247.991488,310.829321 C247.991488,305.212052 243.424049,300.644613 237.80678,300.644613 Z" fill="#B1CDEB" fill-rule="nonzero"></path>
                        <path d="M237.80678,322.320958 C231.470798,322.320958 226.313195,317.167251 226.313195,310.829321 C226.313195,304.49139 231.470798,299.337683 237.80678,299.337683 C244.144711,299.337683 249.298418,304.49139 249.298418,310.829321 C249.298418,317.167251 244.144711,322.320958 237.80678,322.320958 Z M259.350679,315.371439 C259.658422,313.906742 259.822031,312.387509 259.822031,310.829321 C259.822031,309.271132 259.658422,307.751899 259.350679,306.285254 L254.272934,306.285254 C253.897021,304.914049 253.349707,303.611014 252.662157,302.399523 L256.249885,298.811794 C254.57678,296.250523 252.385578,294.059321 249.824307,292.386216 L246.236578,295.973944 C245.025087,295.286394 243.722052,294.741028 242.350847,294.363167 L242.350847,289.285422 C240.884202,288.977679 239.364969,288.81407 237.80678,288.81407 C236.248592,288.81407 234.731307,288.977679 233.264662,289.285422 L233.264662,294.363167 C231.891509,294.741028 230.588474,295.286394 229.376983,295.973944 L225.789254,292.386216 C223.226035,294.059321 221.03678,296.250523 219.363676,298.811794 L222.951404,302.399523 C222.261906,303.611014 221.718488,304.914049 221.340627,306.285254 L216.262882,306.285254 C215.955139,307.751899 215.79153,309.271132 215.79153,310.829321 C215.79153,312.387509 215.955139,313.906742 216.262882,315.371439 L221.340627,315.371439 C221.718488,316.744592 222.261906,318.047627 222.951404,319.259118 L219.363676,322.846847 C221.03678,325.408118 223.226035,327.599321 225.789254,329.272425 L229.376983,325.684697 C230.588474,326.372247 231.891509,326.917613 233.264662,327.295474 L233.264662,332.37322 C234.731307,332.680962 236.248592,332.844571 237.80678,332.844571 C239.364969,332.844571 240.884202,332.680962 242.350847,332.37322 L242.350847,327.295474 C243.722052,326.917613 245.025087,326.372247 246.236578,325.684697 L249.824307,329.272425 C252.385578,327.597373 254.57678,325.408118 256.249885,322.846847 L252.662157,319.259118 C253.349707,318.047627 253.897021,316.744592 254.272934,315.371439 L259.350679,315.371439 Z" fill="#B1CDEB" fill-rule="nonzero"></path>
                    </g>
                </g>
            </g>
        </g>
    </g>
</svg>