<?xml version="1.0" encoding="UTF-8" standalone="no"?>
<!-- Created with Inkscape (http://www.inkscape.org/) -->

<svg
   xmlns:dc="http://purl.org/dc/elements/1.1/"
   xmlns:cc="http://creativecommons.org/ns#"
   xmlns:rdf="http://www.w3.org/1999/02/22-rdf-syntax-ns#"
   xmlns:svg="http://www.w3.org/2000/svg"
   xmlns="http://www.w3.org/2000/svg"
   xmlns:sodipodi="http://sodipodi.sourceforge.net/DTD/sodipodi-0.dtd"
   xmlns:inkscape="http://www.inkscape.org/namespaces/inkscape"
   id="svg4136"
   version="1.1"
   inkscape:version="0.91 r13725"
   xml:space="preserve"
   width="691.04999"
   height="425.25"
   viewBox="0 0 691.04999 425.25"
   sodipodi:docname="graph1.svg"><metadata
     id="metadata4142"><rdf:RDF><cc:Work
         rdf:about=""><dc:format>image/svg+xml</dc:format><dc:type
           rdf:resource="http://purl.org/dc/dcmitype/StillImage" /><dc:title></dc:title></cc:Work></rdf:RDF></metadata><defs
     id="defs4140"><clipPath
       clipPathUnits="userSpaceOnUse"
       id="clipPath4150"><path
         d="M 8.238e-6,0 552.84001,0 l 0,340.2 -552.840001762,0 0,-340.2 z"
         id="path4152"
         inkscape:connector-curvature="0"
         style="clip-rule:evenodd" /></clipPath><clipPath
       clipPathUnits="userSpaceOnUse"
       id="clipPath4158"><path
         d="M -2.8e-8,1.2207e-4 552.84,1.2207e-4 552.84,340.20012 -2.8e-8,340.20012 l 0,-340.19999793 z"
         id="path4160"
         inkscape:connector-curvature="0"
         style="clip-rule:evenodd" /></clipPath><clipPath
       clipPathUnits="userSpaceOnUse"
       id="clipPath4174"><path
         d="m 0.96,1.32 551.88,0 0,338.4 -551.88,0 0,-338.4 z"
         id="path4176"
         inkscape:connector-curvature="0"
         style="clip-rule:evenodd" /></clipPath><clipPath
       clipPathUnits="userSpaceOnUse"
       id="clipPath4186"><path
         d="m 0.96,1.32 551.88,0 0,338.4 -551.88,0 0,-338.4 z"
         id="path4188"
         inkscape:connector-curvature="0"
         style="clip-rule:evenodd" /></clipPath><clipPath
       clipPathUnits="userSpaceOnUse"
       id="clipPath4198"><path
         d="m 0.96,1.32 551.88,0 0,338.4 -551.88,0 0,-338.4 z"
         id="path4200"
         inkscape:connector-curvature="0"
         style="clip-rule:evenodd" /></clipPath><clipPath
       clipPathUnits="userSpaceOnUse"
       id="clipPath4210"><path
         d="m 0.96,1.32 551.88,0 0,338.4 -551.88,0 0,-338.4 z"
         id="path4212"
         inkscape:connector-curvature="0"
         style="clip-rule:evenodd" /></clipPath><clipPath
       clipPathUnits="userSpaceOnUse"
       id="clipPath4222"><path
         d="m 0.96,1.32 551.88,0 0,338.4 -551.88,0 0,-338.4 z"
         id="path4224"
         inkscape:connector-curvature="0"
         style="clip-rule:evenodd" /></clipPath><clipPath
       clipPathUnits="userSpaceOnUse"
       id="clipPath4234"><path
         d="m 0.96,1.32 551.88,0 0,338.4 -551.88,0 0,-338.4 z"
         id="path4236"
         inkscape:connector-curvature="0"
         style="clip-rule:evenodd" /></clipPath><clipPath
       clipPathUnits="userSpaceOnUse"
       id="clipPath4246"><path
         d="m 0.96,1.32 551.88,0 0,338.4 -551.88,0 0,-338.4 z"
         id="path4248"
         inkscape:connector-curvature="0"
         style="clip-rule:evenodd" /></clipPath><clipPath
       clipPathUnits="userSpaceOnUse"
       id="clipPath4258"><path
         d="m 0.96,1.32 551.88,0 0,338.4 -551.88,0 0,-338.4 z"
         id="path4260"
         inkscape:connector-curvature="0"
         style="clip-rule:evenodd" /></clipPath><clipPath
       clipPathUnits="userSpaceOnUse"
       id="clipPath4270"><path
         d="m 0.96,1.32 551.88,0 0,338.4 -551.88,0 0,-338.4 z"
         id="path4272"
         inkscape:connector-curvature="0"
         style="clip-rule:evenodd" /></clipPath><clipPath
       clipPathUnits="userSpaceOnUse"
       id="clipPath4282"><path
         d="m 0.96,1.32 551.88,0 0,338.4 -551.88,0 0,-338.4 z"
         id="path4284"
         inkscape:connector-curvature="0"
         style="clip-rule:evenodd" /></clipPath><clipPath
       clipPathUnits="userSpaceOnUse"
       id="clipPath4294"><path
         d="m 0.96,1.32 551.88,0 0,338.4 -551.88,0 0,-338.4 z"
         id="path4296"
         inkscape:connector-curvature="0"
         style="clip-rule:evenodd" /></clipPath><clipPath
       clipPathUnits="userSpaceOnUse"
       id="clipPath4306"><path
         d="m 0.96,1.32 551.88,0 0,338.4 -551.88,0 0,-338.4 z"
         id="path4308"
         inkscape:connector-curvature="0"
         style="clip-rule:evenodd" /></clipPath><clipPath
       clipPathUnits="userSpaceOnUse"
       id="clipPath4318"><path
         d="m 0.96,1.32 551.88,0 0,338.4 -551.88,0 0,-338.4 z"
         id="path4320"
         inkscape:connector-curvature="0"
         style="clip-rule:evenodd" /></clipPath><clipPath
       clipPathUnits="userSpaceOnUse"
       id="clipPath4330"><path
         d="m 0.96,1.32 551.88,0 0,338.4 -551.88,0 0,-338.4 z"
         id="path4332"
         inkscape:connector-curvature="0"
         style="clip-rule:evenodd" /></clipPath><clipPath
       clipPathUnits="userSpaceOnUse"
       id="clipPath4342"><path
         d="m 0.96,1.32 551.88,0 0,338.4 -551.88,0 0,-338.4 z"
         id="path4344"
         inkscape:connector-curvature="0"
         style="clip-rule:evenodd" /></clipPath><clipPath
       clipPathUnits="userSpaceOnUse"
       id="clipPath4354"><path
         d="m 0.96,1.32 551.88,0 0,338.4 -551.88,0 0,-338.4 z"
         id="path4356"
         inkscape:connector-curvature="0"
         style="clip-rule:evenodd" /></clipPath><clipPath
       clipPathUnits="userSpaceOnUse"
       id="clipPath4366"><path
         d="m 0.96,1.32 551.88,0 0,338.4 -551.88,0 0,-338.4 z"
         id="path4368"
         inkscape:connector-curvature="0"
         style="clip-rule:evenodd" /></clipPath><clipPath
       clipPathUnits="userSpaceOnUse"
       id="clipPath4378"><path
         d="m 0.96,1.32 551.88,0 0,338.4 -551.88,0 0,-338.4 z"
         id="path4380"
         inkscape:connector-curvature="0"
         style="clip-rule:evenodd" /></clipPath><clipPath
       clipPathUnits="userSpaceOnUse"
       id="clipPath4390"><path
         d="m 0.96,1.32 551.88,0 0,338.4 -551.88,0 0,-338.4 z"
         id="path4392"
         inkscape:connector-curvature="0"
         style="clip-rule:evenodd" /></clipPath><clipPath
       clipPathUnits="userSpaceOnUse"
       id="clipPath4402"><path
         d="m 0.96,1.32 551.88,0 0,338.4 -551.88,0 0,-338.4 z"
         id="path4404"
         inkscape:connector-curvature="0"
         style="clip-rule:evenodd" /></clipPath><clipPath
       clipPathUnits="userSpaceOnUse"
       id="clipPath4414"><path
         d="m 0.96,1.32 551.88,0 0,338.4 -551.88,0 0,-338.4 z"
         id="path4416"
         inkscape:connector-curvature="0"
         style="clip-rule:evenodd" /></clipPath><clipPath
       clipPathUnits="userSpaceOnUse"
       id="clipPath4426"><path
         d="m 0.96,1.32 551.88,0 0,338.4 -551.88,0 0,-338.4 z"
         id="path4428"
         inkscape:connector-curvature="0"
         style="clip-rule:evenodd" /></clipPath><clipPath
       clipPathUnits="userSpaceOnUse"
       id="clipPath4438"><path
         d="m 0.96,1.32 551.88,0 0,338.4 -551.88,0 0,-338.4 z"
         id="path4440"
         inkscape:connector-curvature="0"
         style="clip-rule:evenodd" /></clipPath><clipPath
       clipPathUnits="userSpaceOnUse"
       id="clipPath4450"><path
         d="m 0.96,1.32 551.88,0 0,338.4 -551.88,0 0,-338.4 z"
         id="path4452"
         inkscape:connector-curvature="0"
         style="clip-rule:evenodd" /></clipPath><clipPath
       clipPathUnits="userSpaceOnUse"
       id="clipPath4462"><path
         d="M -2.8e-8,1.2207e-4 552.84,1.2207e-4 552.84,340.20012 -2.8e-8,340.20012 l 0,-340.19999793 z"
         id="path4464"
         inkscape:connector-curvature="0"
         style="clip-rule:evenodd" /></clipPath></defs><sodipodi:namedview
     pagecolor="#ffffff"
     bordercolor="#666666"
     borderopacity="1"
     objecttolerance="10"
     gridtolerance="10"
     guidetolerance="10"
     inkscape:pageopacity="0"
     inkscape:pageshadow="2"
     inkscape:window-width="706"
     inkscape:window-height="480"
     id="namedview4138"
     showgrid="false"
     inkscape:zoom="1.1334509"
     inkscape:cx="345.52499"
     inkscape:cy="212.625"
     inkscape:window-x="0"
     inkscape:window-y="0"
     inkscape:window-maximized="1"
     inkscape:current-layer="g4144" /><g
     id="g4144"
     inkscape:groupmode="layer"
     inkscape:label="graph1"
     transform="matrix(1.25,0,0,-1.25,0,425.25)"><g
       id="g4146"><g
         id="g4148"
         clip-path="url(#clipPath4150)" /></g><g
       id="g4154"><g
         id="g4156"
         clip-path="url(#clipPath4158)"><path
           d="m 1.0501,1.2003 551.8,0 0,338.45 -551.8,0 0,-338.45 z"
           style="fill:#ffffff;fill-opacity:1;fill-rule:evenodd;stroke:none"
           id="path4162"
           inkscape:connector-curvature="0" /></g></g><path
       d="m 221.88,299.15 0,-265.473 m 102.6,265.473 0,-265.473 m 102.72,265.473 0,-265.473 m 102.55,265.473 0,-265.473"
       style="fill:none;stroke:#d9d9d9;stroke-width:0.75;stroke-linecap:butt;stroke-linejoin:round;stroke-miterlimit:10;stroke-dasharray:none;stroke-opacity:1"
       id="path4164"
       inkscape:connector-curvature="0" /><path
       d="m 204.84,72.72 -85.51,0 0,10.44 85.51,0 0,-10.44 z m 35.16,29.52 -120.67,0 0,10.44 120.67,0 0,-10.44 z m 0,29.4 -120.67,0 0,10.56 120.67,0 0,-10.56 z m 0,29.52 -120.67,0 0,10.44 120.67,0 0,-10.44 z m 0,29.52 -120.67,0 0,10.44 120.67,0 0,-10.44 z m 21.84,29.52 -142.51,0 0,10.44 142.51,0 0,-10.44 z m 28.44,29.52 -170.95,0 0,10.44 170.95,0 0,-10.44 z m 171.12,29.4 -342.07,0 0,10.56 342.07,0 0,-10.56 z"
       style="fill:#5b9bd5;fill-opacity:1;fill-rule:nonzero;stroke:none"
       id="path4166"
       inkscape:connector-curvature="0" /><path
       d="m 119.33,33.677 0,265.473"
       style="fill:none;stroke:#d9d9d9;stroke-width:0.75;stroke-linecap:butt;stroke-linejoin:round;stroke-miterlimit:10;stroke-dasharray:none;stroke-opacity:1"
       id="path4168"
       inkscape:connector-curvature="0" /><g
       id="g4170"><g
         id="g4172"
         clip-path="url(#clipPath4174)"><text
           transform="matrix(1,0,0,-1,125.38,43.536)"
           style="font-variant:normal;font-weight:normal;font-size:14.03999996px;font-family:Calibri;-inkscape-font-specification:Calibri;writing-mode:lr-tb;fill:#404040;fill-opacity:1;fill-rule:nonzero;stroke:none"
           id="text4178"><tspan
             x="0 7.0799799 10.55168 17.63166 24.711639"
             y="0"
             sodipodi:role="line"
             id="tspan4180">0,00%</tspan></text>
</g></g><g
       id="g4182"><g
         id="g4184"
         clip-path="url(#clipPath4186)"><text
           transform="matrix(1,0,0,-1,210.89,73.032)"
           style="font-variant:normal;font-weight:normal;font-size:14.03999996px;font-family:Calibri;-inkscape-font-specification:Calibri;writing-mode:lr-tb;fill:#404040;fill-opacity:1;fill-rule:nonzero;stroke:none"
           id="text4190"><tspan
             x="0 7.0799799 10.55168 17.63166 24.711639"
             y="0"
             sodipodi:role="line"
             id="tspan4192">4,17%</tspan></text>
</g></g><g
       id="g4194"><g
         id="g4196"
         clip-path="url(#clipPath4198)"><text
           transform="matrix(1,0,0,-1,246.12,102.55)"
           style="font-variant:normal;font-weight:normal;font-size:14.03999996px;font-family:Calibri;-inkscape-font-specification:Calibri;writing-mode:lr-tb;fill:#404040;fill-opacity:1;fill-rule:nonzero;stroke:none"
           id="text4202"><tspan
             x="0 7.0799799 10.55168 17.63166 24.711639"
             y="0"
             sodipodi:role="line"
             id="tspan4204">5,88%</tspan></text>
</g></g><g
       id="g4206"><g
         id="g4208"
         clip-path="url(#clipPath4210)"><text
           transform="matrix(1,0,0,-1,246.12,132.05)"
           style="font-variant:normal;font-weight:normal;font-size:14.03999996px;font-family:Calibri;-inkscape-font-specification:Calibri;writing-mode:lr-tb;fill:#404040;fill-opacity:1;fill-rule:nonzero;stroke:none"
           id="text4214"><tspan
             x="0 7.0799799 10.55168 17.63166 24.711639"
             y="0"
             sodipodi:role="line"
             id="tspan4216">5,88%</tspan></text>
</g></g><g
       id="g4218"><g
         id="g4220"
         clip-path="url(#clipPath4222)"><text
           transform="matrix(1,0,0,-1,246.12,161.57)"
           style="font-variant:normal;font-weight:normal;font-size:14.03999996px;font-family:Calibri;-inkscape-font-specification:Calibri;writing-mode:lr-tb;fill:#404040;fill-opacity:1;fill-rule:nonzero;stroke:none"
           id="text4226"><tspan
             x="0 7.0799799 10.55168 17.63166 24.711639"
             y="0"
             sodipodi:role="line"
             id="tspan4228">5,88%</tspan></text>
</g></g><g
       id="g4230"><g
         id="g4232"
         clip-path="url(#clipPath4234)"><text
           transform="matrix(1,0,0,-1,246.12,191.06)"
           style="font-variant:normal;font-weight:normal;font-size:14.03999996px;font-family:Calibri;-inkscape-font-specification:Calibri;writing-mode:lr-tb;fill:#404040;fill-opacity:1;fill-rule:nonzero;stroke:none"
           id="text4238"><tspan
             x="0 7.0799799 10.55168 17.63166 24.711639"
             y="0"
             sodipodi:role="line"
             id="tspan4240">5,88%</tspan></text>
</g></g><g
       id="g4242"><g
         id="g4244"
         clip-path="url(#clipPath4246)"><text
           transform="matrix(1,0,0,-1,267.91,220.58)"
           style="font-variant:normal;font-weight:normal;font-size:14.03999996px;font-family:Calibri;-inkscape-font-specification:Calibri;writing-mode:lr-tb;fill:#404040;fill-opacity:1;fill-rule:nonzero;stroke:none"
           id="text4250"><tspan
             x="0 7.0799799 10.55168 17.63166 24.711639"
             y="0"
             sodipodi:role="line"
             id="tspan4252">6,94%</tspan></text>
</g></g><g
       id="g4254"><g
         id="g4256"
         clip-path="url(#clipPath4258)"><text
           transform="matrix(1,0,0,-1,296.42,250.08)"
           style="font-variant:normal;font-weight:normal;font-size:14.03999996px;font-family:Calibri;-inkscape-font-specification:Calibri;writing-mode:lr-tb;fill:#404040;fill-opacity:1;fill-rule:nonzero;stroke:none"
           id="text4262"><tspan
             x="0 7.0799799 10.55168 17.63166 24.711639"
             y="0"
             sodipodi:role="line"
             id="tspan4264">8,33%</tspan></text>
</g></g><g
       id="g4266"><g
         id="g4268"
         clip-path="url(#clipPath4270)"><text
           transform="matrix(1,0,0,-1,467.42,279.6)"
           style="font-variant:normal;font-weight:normal;font-size:14.03999996px;font-family:Calibri;-inkscape-font-specification:Calibri;writing-mode:lr-tb;fill:#404040;fill-opacity:1;fill-rule:nonzero;stroke:none"
           id="text4274"><tspan
             x="0 7.0799799 14.15996 17.63166 24.711639 31.79162"
             y="0"
             sodipodi:role="line"
             id="tspan4276">16,67%</tspan></text>
</g></g><g
       id="g4278"><g
         id="g4280"
         clip-path="url(#clipPath4282)"><text
           transform="matrix(1,0,0,-1,110.81,11.352)"
           style="font-variant:normal;font-weight:normal;font-size:14.06400013px;font-family:Calibri;-inkscape-font-specification:Calibri;writing-mode:lr-tb;fill:#595959;fill-opacity:1;fill-rule:nonzero;stroke:none"
           id="text4286"><tspan
             x="0 7.0800481"
             y="0"
             sodipodi:role="line"
             id="tspan4288">0%</tspan></text>
</g></g><g
       id="g4290"><g
         id="g4292"
         clip-path="url(#clipPath4294)"><text
           transform="matrix(1,0,0,-1,213.43,11.352)"
           style="font-variant:normal;font-weight:normal;font-size:14.06400013px;font-family:Calibri;-inkscape-font-specification:Calibri;writing-mode:lr-tb;fill:#595959;fill-opacity:1;fill-rule:nonzero;stroke:none"
           id="text4298"><tspan
             x="0 7.0800481"
             y="0"
             sodipodi:role="line"
             id="tspan4300">5%</tspan></text>
</g></g><g
       id="g4302"><g
         id="g4304"
         clip-path="url(#clipPath4306)"><text
           transform="matrix(1,0,0,-1,312.5,11.352)"
           style="font-variant:normal;font-weight:normal;font-size:14.06400013px;font-family:Calibri;-inkscape-font-specification:Calibri;writing-mode:lr-tb;fill:#595959;fill-opacity:1;fill-rule:nonzero;stroke:none"
           id="text4310"><tspan
             x="0 7.0800481 14.160096"
             y="0"
             sodipodi:role="line"
             id="tspan4312">10%</tspan></text>
</g></g><g
       id="g4314"><g
         id="g4316"
         clip-path="url(#clipPath4318)"><text
           transform="matrix(1,0,0,-1,415.13,11.352)"
           style="font-variant:normal;font-weight:normal;font-size:14.06400013px;font-family:Calibri;-inkscape-font-specification:Calibri;writing-mode:lr-tb;fill:#595959;fill-opacity:1;fill-rule:nonzero;stroke:none"
           id="text4322"><tspan
             x="0 7.0800481 14.160096"
             y="0"
             sodipodi:role="line"
             id="tspan4324">15%</tspan></text>
</g></g><g
       id="g4326"><g
         id="g4328"
         clip-path="url(#clipPath4330)"><text
           transform="matrix(1,0,0,-1,517.78,11.352)"
           style="font-variant:normal;font-weight:normal;font-size:14.06400013px;font-family:Calibri;-inkscape-font-specification:Calibri;writing-mode:lr-tb;fill:#595959;fill-opacity:1;fill-rule:nonzero;stroke:none"
           id="text4334"><tspan
             x="0 7.0800481 14.160096"
             y="0"
             sodipodi:role="line"
             id="tspan4336">20%</tspan></text>
</g></g><g
       id="g4338"><g
         id="g4340"
         clip-path="url(#clipPath4342)"><text
           transform="matrix(1,0,0,-1,75.624,44.304)"
           style="font-variant:normal;font-weight:normal;font-size:14.03999996px;font-family:Calibri;-inkscape-font-specification:Calibri;writing-mode:lr-tb;fill:#595959;fill-opacity:1;fill-rule:nonzero;stroke:none"
           id="text4346"><tspan
             x="0 6.8515201 12.72024 20.11932 23.39064"
             y="0"
             sodipodi:role="line"
             id="tspan4348">Ecolo</tspan></text>
</g></g><g
       id="g4350"><g
         id="g4352"
         clip-path="url(#clipPath4354)"><text
           transform="matrix(1,0,0,-1,80.808,73.824)"
           style="font-variant:normal;font-weight:normal;font-size:14.06400013px;font-family:Calibri;-inkscape-font-specification:Calibri;writing-mode:lr-tb;fill:#595959;fill-opacity:1;fill-rule:nonzero;stroke:none"
           id="text4358"><tspan
             x="0 8.6493597 15.653232 22.01016"
             y="0"
             sodipodi:role="line"
             id="tspan4360">DéFI</tspan></text>
</g></g><g
       id="g4362"><g
         id="g4364"
         clip-path="url(#clipPath4366)"><text
           transform="matrix(1,0,0,-1,72.792,103.32)"
           style="font-variant:normal;font-weight:normal;font-size:14.03999996px;font-family:Calibri;-inkscape-font-specification:Calibri;writing-mode:lr-tb;fill:#595959;fill-opacity:1;fill-rule:nonzero;stroke:none"
           id="text4370"><tspan
             x="0 7.4411998 16.0758 25.651079"
             y="0"
             sodipodi:role="line"
             id="tspan4372">CD&amp;V</tspan></text>
</g></g><g
       id="g4374"><g
         id="g4376"
         clip-path="url(#clipPath4378)"><text
           transform="matrix(1,0,0,-1,66.384,132.84)"
           style="font-variant:normal;font-weight:normal;font-size:14.06400013px;font-family:Calibri;-inkscape-font-specification:Calibri;writing-mode:lr-tb;fill:#595959;fill-opacity:1;fill-rule:nonzero;stroke:none"
           id="text4382"><tspan
             x="0 8.8743839 13.684272 21.096001 28.099873 35.39909"
             y="0"
             sodipodi:role="line"
             id="tspan4384">Groen!</tspan></text>
</g></g><g
       id="g4386"><g
         id="g4388"
         clip-path="url(#clipPath4390)"><text
           transform="matrix(1,0,0,-1,7.56,162.34)"
           style="font-variant:normal;font-weight:normal;font-size:14.03999996px;font-family:Calibri;-inkscape-font-specification:Calibri;writing-mode:lr-tb;fill:#595959;fill-opacity:1;fill-rule:nonzero;stroke:none"
           id="text4394"><tspan
             x="0 7.3990798 14.77008 21.761999 25.201799 32.62896 37.430641 44.8578 50.263199 55.752838 62.744759 65.973961 71.379356 75.675598 81.207359 88.522202 92.00412"
             y="0"
             sodipodi:role="line"
             id="tspan4396">one.brussels-sp.a</tspan></text>
</g></g><g
       id="g4398"><g
         id="g4400"
         clip-path="url(#clipPath4402)"><text
           transform="matrix(1,0,0,-1,49.8,191.86)"
           style="font-variant:normal;font-weight:normal;font-size:14.06400013px;font-family:Calibri;-inkscape-font-specification:Calibri;writing-mode:lr-tb;fill:#595959;fill-opacity:1;fill-rule:nonzero;stroke:none"
           id="text4406"><tspan
             x="0 9.2400484 16.66584 23.62752 30.9408 34.063007 41.981041 47.972305"
             y="0"
             sodipodi:role="line"
             id="tspan4408">Open VLD</tspan></text>
</g></g><g
       id="g4410"><g
         id="g4412"
         clip-path="url(#clipPath4414)"><text
           transform="matrix(1,0,0,-1,86.784,221.35)"
           style="font-variant:normal;font-weight:normal;font-size:14.03999996px;font-family:Calibri;-inkscape-font-specification:Calibri;writing-mode:lr-tb;fill:#595959;fill-opacity:1;fill-rule:nonzero;stroke:none"
           id="text4418"><tspan
             x="0 12"
             y="0"
             sodipodi:role="line"
             id="tspan4420">MR</tspan></text>
</g></g><g
       id="g4422"><g
         id="g4424"
         clip-path="url(#clipPath4426)"><text
           transform="matrix(1,0,0,-1,84.36,250.87)"
           style="font-variant:normal;font-weight:normal;font-size:14.06400013px;font-family:Calibri;-inkscape-font-specification:Calibri;writing-mode:lr-tb;fill:#595959;fill-opacity:1;fill-rule:nonzero;stroke:none"
           id="text4430"><tspan
             x="0 5.8787522 13.304544"
             y="0"
             sodipodi:role="line"
             id="tspan4432">cdH</tspan></text>
</g></g><g
       id="g4434"><g
         id="g4436"
         clip-path="url(#clipPath4438)"><text
           transform="matrix(1,0,0,-1,92.688,280.37)"
           style="font-variant:normal;font-weight:normal;font-size:14.03999996px;font-family:Calibri;-inkscape-font-specification:Calibri;writing-mode:lr-tb;fill:#595959;fill-opacity:1;fill-rule:nonzero;stroke:none"
           id="text4442"><tspan
             x="0 7.1999798"
             y="0"
             sodipodi:role="line"
             id="tspan4444">PS</tspan></text>
</g></g><g
       id="g4446"><g
         id="g4448"
         clip-path="url(#clipPath4450)"><text
           transform="matrix(1,0,0,-1,98.976,316.18)"
           style="font-variant:normal;font-weight:normal;font-size:16.79999924px;font-family:Calibri;-inkscape-font-specification:Calibri;writing-mode:lr-tb;fill:#595959;fill-opacity:1;fill-rule:nonzero;stroke:none"
           id="text4454"><tspan
             x="0 12.012 15.8088 24.695999 33.062401 36.8592 43.7808 51.827999 60.681599 69.552002 73.416 82.236 90.199203 95.827202 100.0608 108.4272 114.996 118.524 127.3944 136.2648 140.1288 143.8248 150.3936 159.28081 168.0336 173.66161 177.3912 186.2616 195.1152 204.0024 209.6472 217.56 230.9832 239.38319 245.7504 251.3784 257.02319 265.38959 268.90079 277.75439 286.6416 290.3544 298.72079 305.82721 314.6976 322.98001 330.57361 334.38721 343.2576 347.49121"
             y="0"
             sodipodi:role="line"
             id="tspan4456">% de candidat.es qui sont bourgmestre ou échevin.e</tspan></text>
</g></g><g
       id="g4458"><g
         id="g4460"
         clip-path="url(#clipPath4462)"><path
           d="m 1.0501,1.2003 551.8,0 0,338.45 -551.8,0 0,-338.45 z"
           style="fill:none;stroke:#d9d9d9;stroke-width:0.75;stroke-linecap:butt;stroke-linejoin:round;stroke-miterlimit:10;stroke-dasharray:none;stroke-opacity:1"
           id="path4466"
           inkscape:connector-curvature="0" /></g></g></g></svg>