<?xml version="1.0" encoding="UTF-8" standalone="no"?>
<!-- Created with Inkscape (http://www.inkscape.org/) -->

<svg
   xmlns:dc="http://purl.org/dc/elements/1.1/"
   xmlns:cc="http://creativecommons.org/ns#"
   xmlns:rdf="http://www.w3.org/1999/02/22-rdf-syntax-ns#"
   xmlns:svg="http://www.w3.org/2000/svg"
   xmlns="http://www.w3.org/2000/svg"
   xmlns:sodipodi="http://sodipodi.sourceforge.net/DTD/sodipodi-0.dtd"
   xmlns:inkscape="http://www.inkscape.org/namespaces/inkscape"
   version="1.1"
   id="svg4365"
   xml:space="preserve"
   width="737.12"
   height="510.39999"
   viewBox="0 0 737.12 510.39999"
   sodipodi:docname="graph3.svg"
   inkscape:version="0.92.4 (5da689c313, 2019-01-14)"><metadata
     id="metadata4371"><rdf:RDF><cc:Work
         rdf:about=""><dc:format>image/svg+xml</dc:format><dc:type
           rdf:resource="http://purl.org/dc/dcmitype/StillImage" /><dc:title></dc:title></cc:Work></rdf:RDF></metadata><defs
     id="defs4369"><clipPath
       clipPathUnits="userSpaceOnUse"
       id="clipPath4381"><path
         d="M 8.238e-6,-3.0518e-5 H 552.84001 V 382.79997 H 8.238e-6 Z"
         id="path4379"
         inkscape:connector-curvature="0"
         style="clip-rule:evenodd" /></clipPath><clipPath
       clipPathUnits="userSpaceOnUse"
       id="clipPath4395"><path
         d="M 102.24,51.24 H 531.36 V 345.72 H 102.24 Z"
         id="path4393"
         inkscape:connector-curvature="0"
         style="clip-rule:evenodd" /></clipPath><clipPath
       clipPathUnits="userSpaceOnUse"
       id="clipPath4407"><path
         d="M 102.24,51.24 H 531.36 V 345.72 H 102.24 Z"
         id="path4405"
         inkscape:connector-curvature="0"
         style="clip-rule:evenodd" /></clipPath><clipPath
       clipPathUnits="userSpaceOnUse"
       id="clipPath4419"><path
         d="M 8.225e-6,0.35999 H 552.00001 v 382.44 H 8.225e-6 Z"
         id="path4417"
         inkscape:connector-curvature="0"
         style="clip-rule:evenodd" /></clipPath><clipPath
       clipPathUnits="userSpaceOnUse"
       id="clipPath4431"><path
         d="M 8.225e-6,0.35999 H 552.00001 v 382.44 H 8.225e-6 Z"
         id="path4429"
         inkscape:connector-curvature="0"
         style="clip-rule:evenodd" /></clipPath><clipPath
       clipPathUnits="userSpaceOnUse"
       id="clipPath4443"><path
         d="M 8.225e-6,0.35999 H 552.00001 v 382.44 H 8.225e-6 Z"
         id="path4441"
         inkscape:connector-curvature="0"
         style="clip-rule:evenodd" /></clipPath><clipPath
       clipPathUnits="userSpaceOnUse"
       id="clipPath4455"><path
         d="M 8.225e-6,0.35999 H 552.00001 v 382.44 H 8.225e-6 Z"
         id="path4453"
         inkscape:connector-curvature="0"
         style="clip-rule:evenodd" /></clipPath><clipPath
       clipPathUnits="userSpaceOnUse"
       id="clipPath4467"><path
         d="M 8.225e-6,0.35999 H 552.00001 v 382.44 H 8.225e-6 Z"
         id="path4465"
         inkscape:connector-curvature="0"
         style="clip-rule:evenodd" /></clipPath><clipPath
       clipPathUnits="userSpaceOnUse"
       id="clipPath4479"><path
         d="M 8.225e-6,0.35999 H 552.00001 v 382.44 H 8.225e-6 Z"
         id="path4477"
         inkscape:connector-curvature="0"
         style="clip-rule:evenodd" /></clipPath><clipPath
       clipPathUnits="userSpaceOnUse"
       id="clipPath4491"><path
         d="M 8.225e-6,0.35999 H 552.00001 v 382.44 H 8.225e-6 Z"
         id="path4489"
         inkscape:connector-curvature="0"
         style="clip-rule:evenodd" /></clipPath><clipPath
       clipPathUnits="userSpaceOnUse"
       id="clipPath4503"><path
         d="M 8.225e-6,0.35999 H 552.00001 v 382.44 H 8.225e-6 Z"
         id="path4501"
         inkscape:connector-curvature="0"
         style="clip-rule:evenodd" /></clipPath><clipPath
       clipPathUnits="userSpaceOnUse"
       id="clipPath4515"><path
         d="M 8.225e-6,0.35999 H 552.00001 v 382.44 H 8.225e-6 Z"
         id="path4513"
         inkscape:connector-curvature="0"
         style="clip-rule:evenodd" /></clipPath><clipPath
       clipPathUnits="userSpaceOnUse"
       id="clipPath4527"><path
         d="M 8.225e-6,0.35999 H 552.00001 v 382.44 H 8.225e-6 Z"
         id="path4525"
         inkscape:connector-curvature="0"
         style="clip-rule:evenodd" /></clipPath><clipPath
       clipPathUnits="userSpaceOnUse"
       id="clipPath4539"><path
         d="M 8.225e-6,0.35999 H 552.00001 v 382.44 H 8.225e-6 Z"
         id="path4537"
         inkscape:connector-curvature="0"
         style="clip-rule:evenodd" /></clipPath><clipPath
       clipPathUnits="userSpaceOnUse"
       id="clipPath4551"><path
         d="M 8.225e-6,0.35999 H 552.00001 v 382.44 H 8.225e-6 Z"
         id="path4549"
         inkscape:connector-curvature="0"
         style="clip-rule:evenodd" /></clipPath><clipPath
       clipPathUnits="userSpaceOnUse"
       id="clipPath4563"><path
         d="M 8.225e-6,0.35999 H 552.00001 v 382.44 H 8.225e-6 Z"
         id="path4561"
         inkscape:connector-curvature="0"
         style="clip-rule:evenodd" /></clipPath><clipPath
       clipPathUnits="userSpaceOnUse"
       id="clipPath4575"><path
         d="M 8.225e-6,0.35999 H 552.00001 v 382.44 H 8.225e-6 Z"
         id="path4573"
         inkscape:connector-curvature="0"
         style="clip-rule:evenodd" /></clipPath><clipPath
       clipPathUnits="userSpaceOnUse"
       id="clipPath4587"><path
         d="M 8.225e-6,0.35999 H 552.00001 v 382.44 H 8.225e-6 Z"
         id="path4585"
         inkscape:connector-curvature="0"
         style="clip-rule:evenodd" /></clipPath><clipPath
       clipPathUnits="userSpaceOnUse"
       id="clipPath4599"><path
         d="M 8.225e-6,0.35999 H 552.00001 v 382.44 H 8.225e-6 Z"
         id="path4597"
         inkscape:connector-curvature="0"
         style="clip-rule:evenodd" /></clipPath><clipPath
       clipPathUnits="userSpaceOnUse"
       id="clipPath4611"><path
         d="M 8.225e-6,0.35999 H 552.00001 v 382.44 H 8.225e-6 Z"
         id="path4609"
         inkscape:connector-curvature="0"
         style="clip-rule:evenodd" /></clipPath><clipPath
       clipPathUnits="userSpaceOnUse"
       id="clipPath4623"><path
         d="M 8.225e-6,0.35999 H 552.00001 v 382.44 H 8.225e-6 Z"
         id="path4621"
         inkscape:connector-curvature="0"
         style="clip-rule:evenodd" /></clipPath><clipPath
       clipPathUnits="userSpaceOnUse"
       id="clipPath4635"><path
         d="M 8.225e-6,0.35999 H 552.00001 v 382.44 H 8.225e-6 Z"
         id="path4633"
         inkscape:connector-curvature="0"
         style="clip-rule:evenodd" /></clipPath><clipPath
       clipPathUnits="userSpaceOnUse"
       id="clipPath4647"><path
         d="M 8.225e-6,0.35999 H 552.00001 v 382.44 H 8.225e-6 Z"
         id="path4645"
         inkscape:connector-curvature="0"
         style="clip-rule:evenodd" /></clipPath><clipPath
       clipPathUnits="userSpaceOnUse"
       id="clipPath4659"><path
         d="M 8.225e-6,0.35999 H 552.00001 v 382.44 H 8.225e-6 Z"
         id="path4657"
         inkscape:connector-curvature="0"
         style="clip-rule:evenodd" /></clipPath><clipPath
       clipPathUnits="userSpaceOnUse"
       id="clipPath4675"><path
         d="M 8.225e-6,0.35999 H 552.00001 v 382.44 H 8.225e-6 Z"
         id="path4673"
         inkscape:connector-curvature="0"
         style="clip-rule:evenodd" /></clipPath><clipPath
       clipPathUnits="userSpaceOnUse"
       id="clipPath4691"><path
         d="M 8.225e-6,0.35999 H 552.00001 v 382.44 H 8.225e-6 Z"
         id="path4689"
         inkscape:connector-curvature="0"
         style="clip-rule:evenodd" /></clipPath><clipPath
       clipPathUnits="userSpaceOnUse"
       id="clipPath4703"><path
         d="M 0,6.1035e-5 H 552.84 V 382.80006 H 0 Z"
         id="path4701"
         inkscape:connector-curvature="0"
         style="clip-rule:evenodd" /></clipPath></defs><sodipodi:namedview
     pagecolor="#ffffff"
     bordercolor="#666666"
     borderopacity="1"
     objecttolerance="10"
     gridtolerance="10"
     guidetolerance="10"
     inkscape:pageopacity="0"
     inkscape:pageshadow="2"
     inkscape:window-width="1920"
     inkscape:window-height="1017"
     id="namedview4367"
     showgrid="false"
     inkscape:zoom="0.46238245"
     inkscape:cx="368.56"
     inkscape:cy="255.2"
     inkscape:window-x="1358"
     inkscape:window-y="-8"
     inkscape:window-maximized="1"
     inkscape:current-layer="g4373" /><g
     id="g4373"
     inkscape:groupmode="layer"
     inkscape:label="graph3"
     transform="matrix(1.3333333,0,0,-1.3333333,0,510.4)"><g
       id="g4375"><g
         id="g4377"
         clip-path="url(#clipPath4381)" /></g><path
       d="m 0,0.30011 h 552 v 382.5 H 0 Z"
       style="fill:#ffffff;fill-opacity:1;fill-rule:evenodd;stroke:none"
       id="path4383"
       inkscape:connector-curvature="0" /><path
       d="M 163.56,345.71 V 51.942 m 61.2,293.768 V 51.942 M 285.84,345.71 V 51.942 m 61.2,293.768 V 51.942 m 61.2,293.768 V 51.942 m 61.2,293.768 V 51.942 M 530.63,345.71 V 51.942"
       style="fill:none;stroke:#d9d9d9;stroke-width:0.75;stroke-linecap:butt;stroke-linejoin:round;stroke-miterlimit:10;stroke-dasharray:none;stroke-opacity:1"
       id="path4385"
       inkscape:connector-curvature="0" /><path
       d="m 138.36,132.72 h -36.03 v 9.84 h 36.03 z m 15,24.48 h -51.03 v 9.84 h 51.03 z m -15,24.48 h -36.03 v 9.84 h 36.03 z m 0,48.96 h -36.03 v 9.84 h 36.03 z m 6.48,24.48 h -42.51 v 9.84 h 42.51 z M 127.8,279.6 h -25.47 v 9.84 h 25.47 z m 76.56,24.48 H 102.33 v 9.84 h 102.03 z m -66,24.48 h -36.03 v 9.84 h 36.03 z"
       style="fill:#1f4e79;fill-opacity:1;fill-rule:nonzero;stroke:none"
       id="path4387"
       inkscape:connector-curvature="0" /><g
       id="g4389"><g
         id="g4391"
         clip-path="url(#clipPath4395)"><path
           d="m 138.36,132.72 h -36.03 v 9.84 h 36.03 z m 15,24.48 h -51.03 v 9.84 h 51.03 z m -15,24.48 h -36.03 v 9.84 h 36.03 z m 0,48.96 h -36.03 v 9.84 h 36.03 z m 6.48,24.48 h -42.51 v 9.84 h 42.51 z M 127.8,279.6 h -25.47 v 9.84 h 25.47 z m 76.56,24.48 H 102.33 v 9.84 h 102.03 z m -66,24.48 h -36.03 v 9.84 h 36.03 z"
           style="fill:none;stroke:#1f4e79;stroke-width:0.75;stroke-linecap:butt;stroke-linejoin:round;stroke-miterlimit:10;stroke-dasharray:none;stroke-opacity:1"
           id="path4397"
           inkscape:connector-curvature="0" /></g></g><path
       d="m 127.8,59.28 h -25.47 v 9.84 h 25.47 z m 42.48,24.48 h -67.95 v 9.84 h 67.95 z m 75.96,24.48 H 102.33 v 9.84 h 143.91 z m 0,24.48 H 138.36 v 9.84 H 246.24 Z M 280.8,157.2 H 153.36 v 9.84 H 280.8 Z m 1.44,24.48 H 138.36 v 9.84 h 143.88 z m 49.56,24.48 H 102.33 V 216 H 331.8 Z m 22.44,24.48 H 138.36 v 9.84 h 215.88 z m 20.04,24.48 H 144.84 v 9.84 h 229.44 z m 8.52,24.48 h -255 v 9.84 h 255 z m 76.44,24.48 H 204.36 v 9.84 h 254.88 z m 39,24.48 H 138.36 v 9.84 h 359.88 z"
       style="fill:#9dc3e6;fill-opacity:1;fill-rule:nonzero;stroke:none"
       id="path4399"
       inkscape:connector-curvature="0" /><g
       id="g4401"><g
         id="g4403"
         clip-path="url(#clipPath4407)"><path
           d="m 127.8,59.28 h -25.47 v 9.84 h 25.47 z m 42.48,24.48 h -67.95 v 9.84 h 67.95 z m 75.96,24.48 H 102.33 v 9.84 h 143.91 z m 0,24.48 H 138.36 v 9.84 H 246.24 Z M 280.8,157.2 H 153.36 v 9.84 H 280.8 Z m 1.44,24.48 H 138.36 v 9.84 h 143.88 z m 49.56,24.48 H 102.33 V 216 H 331.8 Z m 22.44,24.48 H 138.36 v 9.84 h 215.88 z m 20.04,24.48 H 144.84 v 9.84 h 229.44 z m 8.52,24.48 h -255 v 9.84 h 255 z m 76.44,24.48 H 204.36 v 9.84 h 254.88 z m 39,24.48 H 138.36 v 9.84 h 359.88 z"
           style="fill:none;stroke:#9dc3e6;stroke-width:0.75;stroke-linecap:butt;stroke-linejoin:round;stroke-miterlimit:10;stroke-dasharray:none;stroke-opacity:1"
           id="path4409"
           inkscape:connector-curvature="0" /></g></g><path
       d="M 102.33,51.942 V 345.71"
       style="fill:none;stroke:#d9d9d9;stroke-width:0.75;stroke-linecap:butt;stroke-linejoin:round;stroke-miterlimit:10;stroke-dasharray:none;stroke-opacity:1"
       id="path4411"
       inkscape:connector-curvature="0" /><g
       id="g4413"><g
         id="g4415"
         clip-path="url(#clipPath4419)"><text
           transform="matrix(1,0,0,-1,95.016,32.808)"
           style="font-variant:normal;font-weight:normal;font-size:12px;font-family:Calibri;-inkscape-font-specification:Calibri;writing-mode:lr-tb;fill:#595959;fill-opacity:1;fill-rule:nonzero;stroke:none"
           id="text4423"><tspan
             x="0 6.1199999"
             y="0"
             sodipodi:role="line"
             id="tspan4421">0%</tspan></text>
</g></g><g
       id="g4425"><g
         id="g4427"
         clip-path="url(#clipPath4431)"><text
           transform="matrix(1,0,0,-1,153.17,32.808)"
           style="font-variant:normal;font-weight:normal;font-size:12px;font-family:Calibri;-inkscape-font-specification:Calibri;writing-mode:lr-tb;fill:#595959;fill-opacity:1;fill-rule:nonzero;stroke:none"
           id="text4435"><tspan
             x="0 6.0840001 12.12"
             y="0"
             sodipodi:role="line"
             id="tspan4433">10%</tspan></text>
</g></g><g
       id="g4437"><g
         id="g4439"
         clip-path="url(#clipPath4443)"><text
           transform="matrix(1,0,0,-1,214.37,32.808)"
           style="font-variant:normal;font-weight:normal;font-size:12px;font-family:Calibri;-inkscape-font-specification:Calibri;writing-mode:lr-tb;fill:#595959;fill-opacity:1;fill-rule:nonzero;stroke:none"
           id="text4447"><tspan
             x="0 6.0840001 12.12"
             y="0"
             sodipodi:role="line"
             id="tspan4445">20%</tspan></text>
</g></g><g
       id="g4449"><g
         id="g4451"
         clip-path="url(#clipPath4455)"><text
           transform="matrix(1,0,0,-1,275.57,32.808)"
           style="font-variant:normal;font-weight:normal;font-size:12px;font-family:Calibri;-inkscape-font-specification:Calibri;writing-mode:lr-tb;fill:#595959;fill-opacity:1;fill-rule:nonzero;stroke:none"
           id="text4459"><tspan
             x="0 6.0840001 12.12"
             y="0"
             sodipodi:role="line"
             id="tspan4457">30%</tspan></text>
</g></g><g
       id="g4461"><g
         id="g4463"
         clip-path="url(#clipPath4467)"><text
           transform="matrix(1,0,0,-1,336.77,32.808)"
           style="font-variant:normal;font-weight:normal;font-size:12px;font-family:Calibri;-inkscape-font-specification:Calibri;writing-mode:lr-tb;fill:#595959;fill-opacity:1;fill-rule:nonzero;stroke:none"
           id="text4471"><tspan
             x="0 6.0840001 12.12"
             y="0"
             sodipodi:role="line"
             id="tspan4469">40%</tspan></text>
</g></g><g
       id="g4473"><g
         id="g4475"
         clip-path="url(#clipPath4479)"><text
           transform="matrix(1,0,0,-1,397.97,32.808)"
           style="font-variant:normal;font-weight:normal;font-size:12px;font-family:Calibri;-inkscape-font-specification:Calibri;writing-mode:lr-tb;fill:#595959;fill-opacity:1;fill-rule:nonzero;stroke:none"
           id="text4483"><tspan
             x="0 6.0840001 12.12"
             y="0"
             sodipodi:role="line"
             id="tspan4481">50%</tspan></text>
</g></g><g
       id="g4485"><g
         id="g4487"
         clip-path="url(#clipPath4491)"><text
           transform="matrix(1,0,0,-1,459.17,32.808)"
           style="font-variant:normal;font-weight:normal;font-size:12px;font-family:Calibri;-inkscape-font-specification:Calibri;writing-mode:lr-tb;fill:#595959;fill-opacity:1;fill-rule:nonzero;stroke:none"
           id="text4495"><tspan
             x="0 6.0840001 12.12"
             y="0"
             sodipodi:role="line"
             id="tspan4493">60%</tspan></text>
</g></g><g
       id="g4497"><g
         id="g4499"
         clip-path="url(#clipPath4503)"><text
           transform="matrix(1,0,0,-1,520.37,32.808)"
           style="font-variant:normal;font-weight:normal;font-size:12px;font-family:Calibri;-inkscape-font-specification:Calibri;writing-mode:lr-tb;fill:#595959;fill-opacity:1;fill-rule:nonzero;stroke:none"
           id="text4507"><tspan
             x="0 6.0840001 12.12"
             y="0"
             sodipodi:role="line"
             id="tspan4505">70%</tspan></text>
</g></g><g
       id="g4509"><g
         id="g4511"
         clip-path="url(#clipPath4515)"><text
           transform="matrix(1,0,0,-1,20.496,60.672)"
           style="font-variant:normal;font-weight:normal;font-size:12px;font-family:Calibri;-inkscape-font-specification:Calibri;writing-mode:lr-tb;fill:#595959;fill-opacity:1;fill-rule:nonzero;stroke:none"
           id="text4519"><tspan
             x="0 5.04 7.8000002 12.492 16.548 22.427999 25.176001 32.604 38.484001 43.175999 47.231998 53.208 58.403999 64.739998"
             y="0"
             sodipodi:role="line"
             id="tspan4517">Liste Destexhe</tspan></text>
</g></g><g
       id="g4521"><g
         id="g4523"
         clip-path="url(#clipPath4527)"><text
           transform="matrix(1,0,0,-1,72.648,85.152)"
           style="font-variant:normal;font-weight:normal;font-size:12px;font-family:Calibri;-inkscape-font-specification:Calibri;writing-mode:lr-tb;fill:#595959;fill-opacity:1;fill-rule:nonzero;stroke:none"
           id="text4531"><tspan
             x="0 6.204 12"
             y="0"
             sodipodi:role="line"
             id="tspan4529">PTB</tspan></text>
</g></g><g
       id="g4533"><g
         id="g4535"
         clip-path="url(#clipPath4539)"><text
           transform="matrix(1,0,0,-1,66.024,109.63)"
           style="font-variant:normal;font-weight:normal;font-size:12px;font-family:Calibri;-inkscape-font-specification:Calibri;writing-mode:lr-tb;fill:#595959;fill-opacity:1;fill-rule:nonzero;stroke:none"
           id="text4543"><tspan
             x="0 7.8119998 11.412 18.24"
             y="0"
             sodipodi:role="line"
             id="tspan4541">N-VA</tspan></text>
</g></g><g
       id="g4545"><g
         id="g4547"
         clip-path="url(#clipPath4551)"><text
           transform="matrix(1,0,0,-1,6.504,134.14)"
           style="font-variant:normal;font-weight:normal;font-size:12px;font-family:Calibri;-inkscape-font-specification:Calibri;writing-mode:lr-tb;fill:#595959;fill-opacity:1;fill-rule:nonzero;stroke:none"
           id="text4555"><tspan
             x="0 6.3239999 12.624 18.6 21.624001 27.924 32.147999 38.388 43.080002 47.855999 53.736 56.495998 61.188 64.884003 69.575996 75.912003 78.935997"
             y="0"
             sodipodi:role="line"
             id="tspan4553">one.brussels-sp.a</tspan></text>
</g></g><g
       id="g4557"><g
         id="g4559"
         clip-path="url(#clipPath4563)"><text
           transform="matrix(1,0,0,-1,69.96,158.62)"
           style="font-variant:normal;font-weight:normal;font-size:12px;font-family:Calibri;-inkscape-font-specification:Calibri;writing-mode:lr-tb;fill:#595959;fill-opacity:1;fill-rule:nonzero;stroke:none"
           id="text4567"><tspan
             x="0 6.3600001 13.788"
             y="0"
             sodipodi:role="line"
             id="tspan4565">CDH</tspan></text>
</g></g><g
       id="g4569"><g
         id="g4571"
         clip-path="url(#clipPath4575)"><text
           transform="matrix(1,0,0,-1,62.424,183.12)"
           style="font-variant:normal;font-weight:normal;font-size:12.02400017px;font-family:Calibri;-inkscape-font-specification:Calibri;writing-mode:lr-tb;fill:#595959;fill-opacity:1;fill-rule:nonzero;stroke:none"
           id="text4579"><tspan
             x="0 6.3606958 13.791528 21.955824"
             y="0"
             sodipodi:role="line"
             id="tspan4577">CD&amp;V</tspan></text>
</g></g><g
       id="g4581"><g
         id="g4583"
         clip-path="url(#clipPath4587)"><text
           transform="matrix(1,0,0,-1,64.872,207.6)"
           style="font-variant:normal;font-weight:normal;font-size:12px;font-family:Calibri;-inkscape-font-specification:Calibri;writing-mode:lr-tb;fill:#595959;fill-opacity:1;fill-rule:nonzero;stroke:none"
           id="text4591"><tspan
             x="0 5.8559999 10.932 17.256001 20.016001"
             y="0"
             sodipodi:role="line"
             id="tspan4589">Ecolo</tspan></text>
</g></g><g
       id="g4593"><g
         id="g4595"
         clip-path="url(#clipPath4599)"><text
           transform="matrix(1,0,0,-1,56.928,232.08)"
           style="font-variant:normal;font-weight:normal;font-size:12px;font-family:Calibri;-inkscape-font-specification:Calibri;writing-mode:lr-tb;fill:#595959;fill-opacity:1;fill-rule:nonzero;stroke:none"
           id="text4603"><tspan
             x="0 7.572 11.76 18.132 24.011999 30.360001"
             y="0"
             sodipodi:role="line"
             id="tspan4601">Groen!</tspan></text>
</g></g><g
       id="g4605"><g
         id="g4607"
         clip-path="url(#clipPath4611)"><text
           transform="matrix(1,0,0,-1,74.448,256.58)"
           style="font-variant:normal;font-weight:normal;font-size:12.02400017px;font-family:Calibri;-inkscape-font-specification:Calibri;writing-mode:lr-tb;fill:#595959;fill-opacity:1;fill-rule:nonzero;stroke:none"
           id="text4615"><tspan
             x="0 10.32002"
             y="0"
             sodipodi:role="line"
             id="tspan4613">MR</tspan></text>
</g></g><g
       id="g4617"><g
         id="g4619"
         clip-path="url(#clipPath4623)"><text
           transform="matrix(1,0,0,-1,69.312,281.06)"
           style="font-variant:normal;font-weight:normal;font-size:12px;font-family:Calibri;-inkscape-font-specification:Calibri;writing-mode:lr-tb;fill:#595959;fill-opacity:1;fill-rule:nonzero;stroke:none"
           id="text4627"><tspan
             x="0 7.428 13.308 18.816"
             y="0"
             sodipodi:role="line"
             id="tspan4625">DéFI</tspan></text>
</g></g><g
       id="g4629"><g
         id="g4631"
         clip-path="url(#clipPath4635)"><text
           transform="matrix(1,0,0,-1,79.488,305.54)"
           style="font-variant:normal;font-weight:normal;font-size:12px;font-family:Calibri;-inkscape-font-specification:Calibri;writing-mode:lr-tb;fill:#595959;fill-opacity:1;fill-rule:nonzero;stroke:none"
           id="text4639"><tspan
             x="0 6.2399998"
             y="0"
             sodipodi:role="line"
             id="tspan4637">PS</tspan></text>
</g></g><g
       id="g4641"><g
         id="g4643"
         clip-path="url(#clipPath4647)"><text
           transform="matrix(1,0,0,-1,42.72,330.05)"
           style="font-variant:normal;font-weight:normal;font-size:12px;font-family:Calibri;-inkscape-font-specification:Calibri;writing-mode:lr-tb;fill:#595959;fill-opacity:1;fill-rule:nonzero;stroke:none"
           id="text4651"><tspan
             x="0 7.9439998 14.268 20.243999 26.507999 29.256001 35.976002 41.015999"
             y="0"
             sodipodi:role="line"
             id="tspan4649">Open VLD</tspan></text>
</g></g><g
       id="g4653"><g
         id="g4655"
         clip-path="url(#clipPath4659)"><text
           transform="matrix(1,0,0,-1,147.98,361.97)"
           style="font-variant:normal;font-weight:normal;font-size:14.03999996px;font-family:Calibri;-inkscape-font-specification:Calibri;writing-mode:lr-tb;fill:#595959;fill-opacity:1;fill-rule:nonzero;stroke:none"
           id="text4663"><tspan
             x="0 10.0386 13.21164 20.52648 27.5184 30.607201 41.769001 48.49416 55.808998 63.12384 69.722641 74.285637 81.010803 84.239998 88.929359 95.92128 101.41092 104.5278 110.2842 117.68328 128.90125 140.049 147.36385 154.67868 161.40384 168.71867 174.798 178.06932 185.38416 192.10931 199.42416 204.9138 208.17108 211.40028 218.3922 223.88184 227.01276 230.24196 233.47116 238.89059 243.4536 250.44553"
             y="0"
             sodipodi:role="line"
             id="tspan4661">% de mandataires communaux dans les listes</tspan></text>
</g></g><path
       d="m 170.82,12.266 h 4.9433 v 4.9433 H 170.82 Z"
       style="fill:#1f4e79;fill-opacity:1;fill-rule:evenodd;stroke:none"
       id="path4665"
       inkscape:connector-curvature="0" /><path
       d="m 170.82,12.266 h 4.9433 v 4.9433 H 170.82 Z"
       style="fill:none;stroke:#1f4e79;stroke-width:0.75;stroke-linecap:butt;stroke-linejoin:round;stroke-miterlimit:10;stroke-dasharray:none;stroke-opacity:1"
       id="path4667"
       inkscape:connector-curvature="0" /><g
       id="g4669"><g
         id="g4671"
         clip-path="url(#clipPath4675)"><text
           transform="matrix(1,0,0,-1,177.89,12.096)"
           style="font-variant:normal;font-weight:normal;font-size:9px;font-family:Calibri;-inkscape-font-specification:Calibri;writing-mode:lr-tb;fill:#595959;fill-opacity:1;fill-rule:nonzero;stroke:none"
           id="text4679"><tspan
             x="0 4.8959999 9.6029997 14.391 17.532 21.708 28.899 33.345001 36.936001 39.951 43.056 47.493 51.084 53.118 57.806999 62.595001 64.628998 69.074997 72.908997 77.588997 82.026001 86.094002 88.253998 92.933998"
             y="0"
             sodipodi:role="line"
             id="tspan4677">Bourgmestres ou échevins</tspan></text>
</g></g><path
       d="m 290.76,12.266 h 4.9433 v 4.9433 H 290.76 Z"
       style="fill:#9dc3e6;fill-opacity:1;fill-rule:evenodd;stroke:none"
       id="path4681"
       inkscape:connector-curvature="0" /><path
       d="m 290.76,12.266 h 4.9433 v 4.9433 H 290.76 Z"
       style="fill:none;stroke:#9dc3e6;stroke-width:0.75;stroke-linecap:butt;stroke-linejoin:round;stroke-miterlimit:10;stroke-dasharray:none;stroke-opacity:1"
       id="path4683"
       inkscape:connector-curvature="0" /><g
       id="g4685"><g
         id="g4687"
         clip-path="url(#clipPath4691)"><text
           transform="matrix(1,0,0,-1,297.86,12.096)"
           style="font-variant:normal;font-weight:normal;font-size:9px;font-family:Calibri;-inkscape-font-specification:Calibri;writing-mode:lr-tb;fill:#595959;fill-opacity:1;fill-rule:nonzero;stroke:none"
           id="text4695"><tspan
             x="0 4.7969999 9.5939999 14.274 17.757 22.311001 24.354 26.396999 28.440001 32.993999 36.134998 39.591 41.625 45.459 50.139 57.330002 64.521004 69.327003 74.007004 78.318001 83.007004"
             y="0"
             sodipodi:role="line"
             id="tspan4693">Conseillers communaux</tspan></text>
</g></g><g
       id="g4697"><g
         id="g4699"
         clip-path="url(#clipPath4703)"><path
           d="m 0,0.30011 h 552 v 382.5 H 0 Z"
           style="fill:none;stroke:#d9d9d9;stroke-width:0.75;stroke-linecap:butt;stroke-linejoin:round;stroke-miterlimit:10;stroke-dasharray:none;stroke-opacity:1"
           id="path4705"
           inkscape:connector-curvature="0" /></g></g></g></svg>