<?xml version="1.0" encoding="UTF-8" standalone="no"?>
<!-- Created with Inkscape (http://www.inkscape.org/) -->

<svg
   xmlns:dc="http://purl.org/dc/elements/1.1/"
   xmlns:cc="http://creativecommons.org/ns#"
   xmlns:rdf="http://www.w3.org/1999/02/22-rdf-syntax-ns#"
   xmlns:svg="http://www.w3.org/2000/svg"
   xmlns="http://www.w3.org/2000/svg"
   xmlns:sodipodi="http://sodipodi.sourceforge.net/DTD/sodipodi-0.dtd"
   xmlns:inkscape="http://www.inkscape.org/namespaces/inkscape"
   version="1.1"
   id="svg3997"
   xml:space="preserve"
   width="907.20001"
   height="434.72"
   viewBox="0 0 907.20001 434.72"
   sodipodi:docname="graph2.svg"
   inkscape:version="0.92.4 (5da689c313, 2019-01-14)"><metadata
     id="metadata4003"><rdf:RDF><cc:Work
         rdf:about=""><dc:format>image/svg+xml</dc:format><dc:type
           rdf:resource="http://purl.org/dc/dcmitype/StillImage" /><dc:title></dc:title></cc:Work></rdf:RDF></metadata><defs
     id="defs4001"><clipPath
       clipPathUnits="userSpaceOnUse"
       id="clipPath4013"><path
         d="M 1.0139e-5,0 H 680.40001 V 326.04 H 1.0139e-5 Z"
         id="path4011"
         inkscape:connector-curvature="0"
         style="clip-rule:evenodd" /></clipPath><clipPath
       clipPathUnits="userSpaceOnUse"
       id="clipPath4021"><path
         d="M 0,9.1553e-5 H 680.4 V 326.04009 H 0 Z"
         id="path4019"
         inkscape:connector-curvature="0"
         style="clip-rule:evenodd" /></clipPath><clipPath
       clipPathUnits="userSpaceOnUse"
       id="clipPath4037"><path
         d="M 1.0132e-5,0 H 679.92001 V 326.04 H 1.0132e-5 Z"
         id="path4035"
         inkscape:connector-curvature="0"
         style="clip-rule:evenodd" /></clipPath><clipPath
       clipPathUnits="userSpaceOnUse"
       id="clipPath4049"><path
         d="M 1.0132e-5,0 H 679.92001 V 326.04 H 1.0132e-5 Z"
         id="path4047"
         inkscape:connector-curvature="0"
         style="clip-rule:evenodd" /></clipPath><clipPath
       clipPathUnits="userSpaceOnUse"
       id="clipPath4061"><path
         d="M 1.0132e-5,0 H 679.92001 V 326.04 H 1.0132e-5 Z"
         id="path4059"
         inkscape:connector-curvature="0"
         style="clip-rule:evenodd" /></clipPath><clipPath
       clipPathUnits="userSpaceOnUse"
       id="clipPath4073"><path
         d="M 1.0132e-5,0 H 679.92001 V 326.04 H 1.0132e-5 Z"
         id="path4071"
         inkscape:connector-curvature="0"
         style="clip-rule:evenodd" /></clipPath><clipPath
       clipPathUnits="userSpaceOnUse"
       id="clipPath4085"><path
         d="M 1.0132e-5,0 H 679.92001 V 326.04 H 1.0132e-5 Z"
         id="path4083"
         inkscape:connector-curvature="0"
         style="clip-rule:evenodd" /></clipPath><clipPath
       clipPathUnits="userSpaceOnUse"
       id="clipPath4097"><path
         d="M 1.0132e-5,0 H 679.92001 V 326.04 H 1.0132e-5 Z"
         id="path4095"
         inkscape:connector-curvature="0"
         style="clip-rule:evenodd" /></clipPath><clipPath
       clipPathUnits="userSpaceOnUse"
       id="clipPath4109"><path
         d="M 1.0132e-5,0 H 679.92001 V 326.04 H 1.0132e-5 Z"
         id="path4107"
         inkscape:connector-curvature="0"
         style="clip-rule:evenodd" /></clipPath><clipPath
       clipPathUnits="userSpaceOnUse"
       id="clipPath4121"><path
         d="M 1.0132e-5,0 H 679.92001 V 326.04 H 1.0132e-5 Z"
         id="path4119"
         inkscape:connector-curvature="0"
         style="clip-rule:evenodd" /></clipPath><clipPath
       clipPathUnits="userSpaceOnUse"
       id="clipPath4133"><path
         d="M 1.0132e-5,0 H 679.92001 V 326.04 H 1.0132e-5 Z"
         id="path4131"
         inkscape:connector-curvature="0"
         style="clip-rule:evenodd" /></clipPath><clipPath
       clipPathUnits="userSpaceOnUse"
       id="clipPath4145"><path
         d="M 1.0132e-5,0 H 679.92001 V 326.04 H 1.0132e-5 Z"
         id="path4143"
         inkscape:connector-curvature="0"
         style="clip-rule:evenodd" /></clipPath><clipPath
       clipPathUnits="userSpaceOnUse"
       id="clipPath4157"><path
         d="M 1.0132e-5,0 H 679.92001 V 326.04 H 1.0132e-5 Z"
         id="path4155"
         inkscape:connector-curvature="0"
         style="clip-rule:evenodd" /></clipPath><clipPath
       clipPathUnits="userSpaceOnUse"
       id="clipPath4169"><path
         d="M 1.0132e-5,0 H 679.92001 V 326.04 H 1.0132e-5 Z"
         id="path4167"
         inkscape:connector-curvature="0"
         style="clip-rule:evenodd" /></clipPath><clipPath
       clipPathUnits="userSpaceOnUse"
       id="clipPath4181"><path
         d="M 1.0132e-5,0 H 679.92001 V 326.04 H 1.0132e-5 Z"
         id="path4179"
         inkscape:connector-curvature="0"
         style="clip-rule:evenodd" /></clipPath><clipPath
       clipPathUnits="userSpaceOnUse"
       id="clipPath4193"><path
         d="M 1.0132e-5,0 H 679.92001 V 326.04 H 1.0132e-5 Z"
         id="path4191"
         inkscape:connector-curvature="0"
         style="clip-rule:evenodd" /></clipPath><clipPath
       clipPathUnits="userSpaceOnUse"
       id="clipPath4205"><path
         d="M 1.0132e-5,0 H 679.92001 V 326.04 H 1.0132e-5 Z"
         id="path4203"
         inkscape:connector-curvature="0"
         style="clip-rule:evenodd" /></clipPath><clipPath
       clipPathUnits="userSpaceOnUse"
       id="clipPath4217"><path
         d="M 1.0132e-5,0 H 679.92001 V 326.04 H 1.0132e-5 Z"
         id="path4215"
         inkscape:connector-curvature="0"
         style="clip-rule:evenodd" /></clipPath><clipPath
       clipPathUnits="userSpaceOnUse"
       id="clipPath4229"><path
         d="M 1.0132e-5,0 H 679.92001 V 326.04 H 1.0132e-5 Z"
         id="path4227"
         inkscape:connector-curvature="0"
         style="clip-rule:evenodd" /></clipPath><clipPath
       clipPathUnits="userSpaceOnUse"
       id="clipPath4241"><path
         d="M 1.0132e-5,0 H 679.92001 V 326.04 H 1.0132e-5 Z"
         id="path4239"
         inkscape:connector-curvature="0"
         style="clip-rule:evenodd" /></clipPath><clipPath
       clipPathUnits="userSpaceOnUse"
       id="clipPath4253"><path
         d="M 1.0132e-5,0 H 679.92001 V 326.04 H 1.0132e-5 Z"
         id="path4251"
         inkscape:connector-curvature="0"
         style="clip-rule:evenodd" /></clipPath><clipPath
       clipPathUnits="userSpaceOnUse"
       id="clipPath4265"><path
         d="M 1.0132e-5,0 H 679.92001 V 326.04 H 1.0132e-5 Z"
         id="path4263"
         inkscape:connector-curvature="0"
         style="clip-rule:evenodd" /></clipPath><clipPath
       clipPathUnits="userSpaceOnUse"
       id="clipPath4277"><path
         d="M 1.0132e-5,0 H 679.92001 V 326.04 H 1.0132e-5 Z"
         id="path4275"
         inkscape:connector-curvature="0"
         style="clip-rule:evenodd" /></clipPath><clipPath
       clipPathUnits="userSpaceOnUse"
       id="clipPath4289"><path
         d="M 1.0132e-5,0 H 679.92001 V 326.04 H 1.0132e-5 Z"
         id="path4287"
         inkscape:connector-curvature="0"
         style="clip-rule:evenodd" /></clipPath><clipPath
       clipPathUnits="userSpaceOnUse"
       id="clipPath4301"><path
         d="M 1.0132e-5,0 H 679.92001 V 326.04 H 1.0132e-5 Z"
         id="path4299"
         inkscape:connector-curvature="0"
         style="clip-rule:evenodd" /></clipPath><clipPath
       clipPathUnits="userSpaceOnUse"
       id="clipPath4313"><path
         d="M 1.0132e-5,0 H 679.92001 V 326.04 H 1.0132e-5 Z"
         id="path4311"
         inkscape:connector-curvature="0"
         style="clip-rule:evenodd" /></clipPath><clipPath
       clipPathUnits="userSpaceOnUse"
       id="clipPath4325"><path
         d="M 1.0132e-5,0 H 679.92001 V 326.04 H 1.0132e-5 Z"
         id="path4323"
         inkscape:connector-curvature="0"
         style="clip-rule:evenodd" /></clipPath><clipPath
       clipPathUnits="userSpaceOnUse"
       id="clipPath4337"><path
         d="M 1.0132e-5,0 H 679.92001 V 326.04 H 1.0132e-5 Z"
         id="path4335"
         inkscape:connector-curvature="0"
         style="clip-rule:evenodd" /></clipPath><clipPath
       clipPathUnits="userSpaceOnUse"
       id="clipPath4349"><path
         d="M 1.0132e-5,0 H 679.92001 V 326.04 H 1.0132e-5 Z"
         id="path4347"
         inkscape:connector-curvature="0"
         style="clip-rule:evenodd" /></clipPath><clipPath
       clipPathUnits="userSpaceOnUse"
       id="clipPath4361"><path
         d="M 0,9.1553e-5 H 680.4 V 326.04009 H 0 Z"
         id="path4359"
         inkscape:connector-curvature="0"
         style="clip-rule:evenodd" /></clipPath></defs><sodipodi:namedview
     pagecolor="#ffffff"
     bordercolor="#666666"
     borderopacity="1"
     objecttolerance="10"
     gridtolerance="10"
     guidetolerance="10"
     inkscape:pageopacity="0"
     inkscape:pageshadow="2"
     inkscape:window-width="1920"
     inkscape:window-height="1017"
     id="namedview3999"
     showgrid="false"
     inkscape:zoom="0.39241622"
     inkscape:cx="453.60001"
     inkscape:cy="217.36"
     inkscape:window-x="1358"
     inkscape:window-y="-8"
     inkscape:window-maximized="1"
     inkscape:current-layer="g4005" /><g
     id="g4005"
     inkscape:groupmode="layer"
     inkscape:label="graph2"
     transform="matrix(1.3333333,0,0,-1.3333333,0,434.72)"><g
       id="g4007"><g
         id="g4009"
         clip-path="url(#clipPath4013)" /></g><g
       id="g4015"><g
         id="g4017"
         clip-path="url(#clipPath4021)"><path
           d="m 0,-10.46 h 680 v 336.5 H 0 Z"
           style="fill:#ffffff;fill-opacity:1;fill-rule:evenodd;stroke:none"
           id="path4023"
           inkscape:connector-curvature="0" /></g></g><path
       d="M 30.602,70.44 H 669 M 30.602,100.8 H 669 M 30.602,131.16 H 669 M 30.602,161.52 H 669 M 30.602,191.88 H 669 M 30.602,222.24 H 669 M 30.602,252.6 H 669"
       style="fill:none;stroke:#d9d9d9;stroke-width:0.75;stroke-linecap:butt;stroke-linejoin:round;stroke-miterlimit:10;stroke-dasharray:none;stroke-opacity:1"
       id="path4025"
       inkscape:connector-curvature="0" /><path
       d="M 40.68,230.88 H 63.12 V 40.103 H 40.68 Z m 42.6,8.76 H 105.6 V 40.103 H 83.28 Z m 42.48,-69.48 H 148.2 V 40.103 h -22.44 z m 42.6,17.4 H 190.8 V 40.103 h -22.44 z m 42.6,-17.4 h 22.32 V 40.103 h -22.32 z m 42.48,-17.28 h 22.44 V 40.103 h -22.44 z m 42.6,-17.4 h 22.44 V 40.103 h -22.44 z m 42.6,-78 h 22.32 V 40.103 h -22.32 z m 42.48,51.96 h 22.44 V 40.103 h -22.44 z m 42.6,8.76 h 22.44 V 40.103 h -22.44 z m 42.6,-43.44 h 22.32 V 40.103 h -22.32 z m 42.48,17.4 h 22.44 V 40.103 H 508.8 Z m 42.6,-17.4 h 22.44 V 40.103 H 551.4 Z m 42.6,34.68 h 22.32 V 40.103 H 594 Z m 42.48,125.76 h 22.44 V 40.103 h -22.44 z"
       style="fill:#5b9bd5;fill-opacity:1;fill-rule:nonzero;stroke:none"
       id="path4027"
       inkscape:connector-curvature="0" /><path
       d="M 30.602,40.103 H 669"
       style="fill:none;stroke:#d9d9d9;stroke-width:0.75;stroke-linecap:butt;stroke-linejoin:round;stroke-miterlimit:10;stroke-dasharray:none;stroke-opacity:1"
       id="path4029"
       inkscape:connector-curvature="0" /><g
       id="g4031"><g
         id="g4033"
         clip-path="url(#clipPath4037)"><text
           transform="matrix(1,0,0,-1,14.832,36.888)"
           style="font-variant:normal;font-weight:normal;font-size:11.03999996px;font-family:Calibri;-inkscape-font-specification:Calibri;writing-mode:lr-tb;fill:#595959;fill-opacity:1;fill-rule:nonzero;stroke:none"
           id="text4041"><tspan
             x="0"
             y="0"
             id="tspan4039">0</tspan></text>
</g></g><g
       id="g4043"><g
         id="g4045"
         clip-path="url(#clipPath4049)"><text
           transform="matrix(1,0,0,-1,6.504,67.248)"
           style="font-variant:normal;font-weight:normal;font-size:11.03999996px;font-family:Calibri;-inkscape-font-specification:Calibri;writing-mode:lr-tb;fill:#595959;fill-opacity:1;fill-rule:nonzero;stroke:none"
           id="text4053"><tspan
             x="0 5.52 8.2799997"
             y="0"
             sodipodi:role="line"
             id="tspan4051">0,1</tspan></text>
</g></g><g
       id="g4055"><g
         id="g4057"
         clip-path="url(#clipPath4061)"><text
           transform="matrix(1,0,0,-1,6.504,97.608)"
           style="font-variant:normal;font-weight:normal;font-size:11.03999996px;font-family:Calibri;-inkscape-font-specification:Calibri;writing-mode:lr-tb;fill:#595959;fill-opacity:1;fill-rule:nonzero;stroke:none"
           id="text4065"><tspan
             x="0 5.52 8.2799997"
             y="0"
             sodipodi:role="line"
             id="tspan4063">0,2</tspan></text>
</g></g><g
       id="g4067"><g
         id="g4069"
         clip-path="url(#clipPath4073)"><text
           transform="matrix(1,0,0,-1,6.504,127.99)"
           style="font-variant:normal;font-weight:normal;font-size:11.03999996px;font-family:Calibri;-inkscape-font-specification:Calibri;writing-mode:lr-tb;fill:#595959;fill-opacity:1;fill-rule:nonzero;stroke:none"
           id="text4077"><tspan
             x="0 5.52 8.2799997"
             y="0"
             sodipodi:role="line"
             id="tspan4075">0,3</tspan></text>
</g></g><g
       id="g4079"><g
         id="g4081"
         clip-path="url(#clipPath4085)"><text
           transform="matrix(1,0,0,-1,6.504,158.35)"
           style="font-variant:normal;font-weight:normal;font-size:11.03999996px;font-family:Calibri;-inkscape-font-specification:Calibri;writing-mode:lr-tb;fill:#595959;fill-opacity:1;fill-rule:nonzero;stroke:none"
           id="text4089"><tspan
             x="0 5.52 8.2799997"
             y="0"
             sodipodi:role="line"
             id="tspan4087">0,4</tspan></text>
</g></g><g
       id="g4091"><g
         id="g4093"
         clip-path="url(#clipPath4097)"><text
           transform="matrix(1,0,0,-1,6.504,188.71)"
           style="font-variant:normal;font-weight:normal;font-size:11.03999996px;font-family:Calibri;-inkscape-font-specification:Calibri;writing-mode:lr-tb;fill:#595959;fill-opacity:1;fill-rule:nonzero;stroke:none"
           id="text4101"><tspan
             x="0 5.52 8.2799997"
             y="0"
             sodipodi:role="line"
             id="tspan4099">0,5</tspan></text>
</g></g><g
       id="g4103"><g
         id="g4105"
         clip-path="url(#clipPath4109)"><text
           transform="matrix(1,0,0,-1,6.504,219.1)"
           style="font-variant:normal;font-weight:normal;font-size:11.06400013px;font-family:Calibri;-inkscape-font-specification:Calibri;writing-mode:lr-tb;fill:#595959;fill-opacity:1;fill-rule:nonzero;stroke:none"
           id="text4113"><tspan
             x="0 5.520936 8.2869358"
             y="0"
             sodipodi:role="line"
             id="tspan4111">0,6</tspan></text>
</g></g><g
       id="g4115"><g
         id="g4117"
         clip-path="url(#clipPath4121)"><text
           transform="matrix(1,0,0,-1,6.504,249.46)"
           style="font-variant:normal;font-weight:normal;font-size:11.03999996px;font-family:Calibri;-inkscape-font-specification:Calibri;writing-mode:lr-tb;fill:#595959;fill-opacity:1;fill-rule:nonzero;stroke:none"
           id="text4125"><tspan
             x="0 5.52 8.2799997"
             y="0"
             sodipodi:role="line"
             id="tspan4123">0,7</tspan></text>
</g></g><g
       id="g4127"><g
         id="g4129"
         clip-path="url(#clipPath4133)"><text
           transform="matrix(1,0,0,-1,41.184,22.56)"
           style="font-variant:normal;font-weight:normal;font-size:11.03999996px;font-family:Calibri;-inkscape-font-specification:Calibri;writing-mode:lr-tb;fill:#595959;fill-opacity:1;fill-rule:nonzero;stroke:none"
           id="text4137"><tspan
             x="0 5.52 8.0150404 13.3032 15.83136"
             y="0"
             sodipodi:role="line"
             id="tspan4135">1 à 5</tspan></text>
</g></g><g
       id="g4139"><g
         id="g4141"
         clip-path="url(#clipPath4145)"><text
           transform="matrix(1,0,0,-1,82.224,22.56)"
           style="font-variant:normal;font-weight:normal;font-size:11.03999996px;font-family:Calibri;-inkscape-font-specification:Calibri;writing-mode:lr-tb;fill:#595959;fill-opacity:1;fill-rule:nonzero;stroke:none"
           id="text4149"><tspan
             x="0 5.52 8.0150404 13.3032 18.944639"
             y="0"
             sodipodi:role="line"
             id="tspan4147">6 à10</tspan></text>
</g></g><g
       id="g4151"><g
         id="g4153"
         clip-path="url(#clipPath4157)"><text
           transform="matrix(1,0,0,-1,120.74,22.56)"
           style="font-variant:normal;font-weight:normal;font-size:11.03999996px;font-family:Calibri;-inkscape-font-specification:Calibri;writing-mode:lr-tb;fill:#595959;fill-opacity:1;fill-rule:nonzero;stroke:none"
           id="text4161"><tspan
             x="0 5.52 11.1504 13.64544 18.933599 21.35136 26.98176"
             y="0"
             sodipodi:role="line"
             id="tspan4159">10 à 15</tspan></text>
</g></g><g
       id="g4163"><g
         id="g4165"
         clip-path="url(#clipPath4169)"><text
           transform="matrix(1,0,0,-1,166.75,22.56)"
           style="font-variant:normal;font-weight:normal;font-size:11.03999996px;font-family:Calibri;-inkscape-font-specification:Calibri;writing-mode:lr-tb;fill:#595959;fill-opacity:1;fill-rule:nonzero;stroke:none"
           id="text4173"><tspan
             x="0 5.52 11.1504 14.52864 20.02656"
             y="0"
             sodipodi:role="line"
             id="tspan4171">16-20</tspan></text>
</g></g><g
       id="g4175"><g
         id="g4177"
         clip-path="url(#clipPath4181)"><text
           transform="matrix(1,0,0,-1,209.33,22.56)"
           style="font-variant:normal;font-weight:normal;font-size:11.03999996px;font-family:Calibri;-inkscape-font-specification:Calibri;writing-mode:lr-tb;fill:#595959;fill-opacity:1;fill-rule:nonzero;stroke:none"
           id="text4185"><tspan
             x="0 5.52 11.1504 14.52864 20.02656"
             y="0"
             sodipodi:role="line"
             id="tspan4183">21-25</tspan></text>
</g></g><g
       id="g4187"><g
         id="g4189"
         clip-path="url(#clipPath4193)"><text
           transform="matrix(1,0,0,-1,251.88,22.56)"
           style="font-variant:normal;font-weight:normal;font-size:11.03999996px;font-family:Calibri;-inkscape-font-specification:Calibri;writing-mode:lr-tb;fill:#595959;fill-opacity:1;fill-rule:nonzero;stroke:none"
           id="text4197"><tspan
             x="0 5.52 11.1504 14.52864 20.02656"
             y="0"
             sodipodi:role="line"
             id="tspan4195">26-30</tspan></text>
</g></g><g
       id="g4199"><g
         id="g4201"
         clip-path="url(#clipPath4205)"><text
           transform="matrix(1,0,0,-1,294.46,22.56)"
           style="font-variant:normal;font-weight:normal;font-size:11.03999996px;font-family:Calibri;-inkscape-font-specification:Calibri;writing-mode:lr-tb;fill:#595959;fill-opacity:1;fill-rule:nonzero;stroke:none"
           id="text4209"><tspan
             x="0 5.52 11.1504 14.52864 20.02656"
             y="0"
             sodipodi:role="line"
             id="tspan4207">31-35</tspan></text>
</g></g><g
       id="g4211"><g
         id="g4213"
         clip-path="url(#clipPath4217)"><text
           transform="matrix(1,0,0,-1,337.03,22.56)"
           style="font-variant:normal;font-weight:normal;font-size:11.03999996px;font-family:Calibri;-inkscape-font-specification:Calibri;writing-mode:lr-tb;fill:#595959;fill-opacity:1;fill-rule:nonzero;stroke:none"
           id="text4221"><tspan
             x="0 5.52 11.1504 14.52864 20.02656"
             y="0"
             sodipodi:role="line"
             id="tspan4219">36-40</tspan></text>
</g></g><g
       id="g4223"><g
         id="g4225"
         clip-path="url(#clipPath4229)"><text
           transform="matrix(1,0,0,-1,379.58,22.56)"
           style="font-variant:normal;font-weight:normal;font-size:11.03999996px;font-family:Calibri;-inkscape-font-specification:Calibri;writing-mode:lr-tb;fill:#595959;fill-opacity:1;fill-rule:nonzero;stroke:none"
           id="text4233"><tspan
             x="0 5.52 11.1504 14.52864 20.02656"
             y="0"
             sodipodi:role="line"
             id="tspan4231">41-45</tspan></text>
</g></g><g
       id="g4235"><g
         id="g4237"
         clip-path="url(#clipPath4241)"><text
           transform="matrix(1,0,0,-1,422.16,22.56)"
           style="font-variant:normal;font-weight:normal;font-size:11.03999996px;font-family:Calibri;-inkscape-font-specification:Calibri;writing-mode:lr-tb;fill:#595959;fill-opacity:1;fill-rule:nonzero;stroke:none"
           id="text4245"><tspan
             x="0 5.52 11.1504 14.52864 20.02656"
             y="0"
             sodipodi:role="line"
             id="tspan4243">46-50</tspan></text>
</g></g><g
       id="g4247"><g
         id="g4249"
         clip-path="url(#clipPath4253)"><text
           transform="matrix(1,0,0,-1,464.74,22.56)"
           style="font-variant:normal;font-weight:normal;font-size:11.03999996px;font-family:Calibri;-inkscape-font-specification:Calibri;writing-mode:lr-tb;fill:#595959;fill-opacity:1;fill-rule:nonzero;stroke:none"
           id="text4257"><tspan
             x="0 5.52 11.1504 14.52864 20.02656"
             y="0"
             sodipodi:role="line"
             id="tspan4255">51-55</tspan></text>
</g></g><g
       id="g4259"><g
         id="g4261"
         clip-path="url(#clipPath4265)"><text
           transform="matrix(1,0,0,-1,507.29,22.56)"
           style="font-variant:normal;font-weight:normal;font-size:11.03999996px;font-family:Calibri;-inkscape-font-specification:Calibri;writing-mode:lr-tb;fill:#595959;fill-opacity:1;fill-rule:nonzero;stroke:none"
           id="text4269"><tspan
             x="0 5.52 11.1504 14.52864 20.02656"
             y="0"
             sodipodi:role="line"
             id="tspan4267">56-60</tspan></text>
</g></g><g
       id="g4271"><g
         id="g4273"
         clip-path="url(#clipPath4277)"><text
           transform="matrix(1,0,0,-1,549.86,22.56)"
           style="font-variant:normal;font-weight:normal;font-size:11.03999996px;font-family:Calibri;-inkscape-font-specification:Calibri;writing-mode:lr-tb;fill:#595959;fill-opacity:1;fill-rule:nonzero;stroke:none"
           id="text4281"><tspan
             x="0 5.52 11.1504 14.52864 20.02656"
             y="0"
             sodipodi:role="line"
             id="tspan4279">61-65</tspan></text>
</g></g><g
       id="g4283"><g
         id="g4285"
         clip-path="url(#clipPath4289)"><text
           transform="matrix(1,0,0,-1,592.44,22.56)"
           style="font-variant:normal;font-weight:normal;font-size:11.03999996px;font-family:Calibri;-inkscape-font-specification:Calibri;writing-mode:lr-tb;fill:#595959;fill-opacity:1;fill-rule:nonzero;stroke:none"
           id="text4293"><tspan
             x="0 5.52 11.1504 14.52864 20.02656"
             y="0"
             sodipodi:role="line"
             id="tspan4291">65-70</tspan></text>
</g></g><g
       id="g4295"><g
         id="g4297"
         clip-path="url(#clipPath4301)"><text
           transform="matrix(1,0,0,-1,628.42,22.56)"
           style="font-variant:normal;font-weight:normal;font-size:11.03999996px;font-family:Calibri;-inkscape-font-specification:Calibri;writing-mode:lr-tb;fill:#595959;fill-opacity:1;fill-rule:nonzero;stroke:none"
           id="text4305"><tspan
             x="0 5.52 11.1504 13.64544 19.430401 25.193279 27.68832 33.2304"
             y="0"
             sodipodi:role="line"
             id="tspan4303">71 ou 72</tspan></text>
</g></g><g
       id="g4307"><g
         id="g4309"
         clip-path="url(#clipPath4313)"><text
           transform="matrix(1,0,0,-1,311.02,5.184)"
           style="font-variant:normal;font-weight:normal;font-size:12.02400017px;font-family:Calibri;-inkscape-font-specification:Calibri;writing-mode:lr-tb;fill:#595959;fill-opacity:1;fill-rule:nonzero;stroke:none"
           id="text4317"><tspan
             x="0 6.2164078 8.9819279 14.741424 19.827576 25.815529 28.43676 33.138145 39.450745 43.647121 46.316448 49.081966 54.841465 57.582935 60.348457 63.113976 67.65905 71.614944"
             y="0"
             sodipodi:role="line"
             id="tspan4315">Place sur la liste</tspan></text>
</g></g><g
       id="g4319"><g
         id="g4321"
         clip-path="url(#clipPath4325)"><text
           transform="matrix(1,0,0,-1,250.08,304.85)"
           style="font-variant:normal;font-weight:normal;font-size:14.39999962px;font-family:Calibri;-inkscape-font-specification:Calibri;writing-mode:lr-tb;fill:#595959;fill-opacity:1;fill-rule:nonzero;stroke:none"
           id="text4329"><tspan
             x="0 10.296 13.5504 21.110399 28.281601 31.535999 43.041599 49.939201 57.499199 65.059196 71.755203 76.435204 83.2752 86.615997 91.411201 98.582397 104.2128 107.4672 113.4864 121.0752 132.5808 144.0864 151.64639 159.20641 166.0464 173.6064"
             y="0"
             sodipodi:role="line"
             id="tspan4327">% de mandataires communaux</tspan></text>
</g></g><g
       id="g4331"><g
         id="g4333"
         clip-path="url(#clipPath4337)"><text
           transform="matrix(1,0,0,-1,231.6,287.21)"
           style="font-variant:normal;font-weight:normal;font-size:14.39999962px;font-family:Calibri;-inkscape-font-specification:Calibri;writing-mode:lr-tb;fill:#595959;fill-opacity:1;fill-rule:nonzero;stroke:none"
           id="text4341"><tspan
             x="0 5.6304002 12.8016 16.1856 23.774401 31.3344 34.545601 37.886398 44.726398 47.980801 53.971199 60.695999 65.375999 72.547203 79.171204 86.760002 91.785599 95.097603 102.312 105.5664 113.1264 120.2976 123.552 131.112 134.4528 141.2928 147.384 154.5984 157.72321 163.35361 170.9136 175.93919 179.1936 182.5488 189.38879 192.6432 195.9552 199.3392 204.8544 209.53439"
             y="0"
             sodipodi:role="line"
             id="tspan4339">selon la catégorie de place sur la liste</tspan></text>
</g></g><g
       id="g4343"><g
         id="g4345"
         clip-path="url(#clipPath4349)"><text
           transform="matrix(1,0,0,-1,281.76,269.69)"
           style="font-variant:normal;font-weight:normal;font-size:14.42399979px;font-family:Calibri;-inkscape-font-specification:Calibri;writing-mode:lr-tb;fill:#595959;fill-opacity:1;fill-rule:nonzero;stroke:none"
           id="text4353"><tspan
             x="0 7.0821838 13.91916 18.953136 23.785175 27.102695 32.742481 36.103271 40.50259 45.349056 52.186031 59.758633 65.744591 73.346039 80.860947 88.43354 95.977295 103.5499 110.73305"
             y="0"
             sodipodi:role="line"
             id="tspan4351">Partis francophones</tspan></text>
</g></g><g
       id="g4355"><g
         id="g4357"
         clip-path="url(#clipPath4361)"><path
           d="m 0,-10.46 h 680 v 336.5 H 0 Z"
           style="fill:none;stroke:#d9d9d9;stroke-width:0.75;stroke-linecap:butt;stroke-linejoin:round;stroke-miterlimit:10;stroke-dasharray:none;stroke-opacity:1"
           id="path4363"
           inkscape:connector-curvature="0" /></g></g></g></svg>