<?xml version="1.0" encoding="UTF-8" standalone="no"?>
<!-- Created with Inkscape (http://www.inkscape.org/) -->

<svg
   xmlns:dc="http://purl.org/dc/elements/1.1/"
   xmlns:cc="http://creativecommons.org/ns#"
   xmlns:rdf="http://www.w3.org/1999/02/22-rdf-syntax-ns#"
   xmlns:svg="http://www.w3.org/2000/svg"
   xmlns="http://www.w3.org/2000/svg"
   xmlns:sodipodi="http://sodipodi.sourceforge.net/DTD/sodipodi-0.dtd"
   xmlns:inkscape="http://www.inkscape.org/namespaces/inkscape"
   id="svg4136"
   version="1.1"
   inkscape:version="0.91 r13725"
   xml:space="preserve"
   width="1052.55"
   height="584.70001"
   viewBox="0 0 1052.55 584.70001"
   sodipodi:docname="graph1.svg"><metadata
     id="metadata4142"><rdf:RDF><cc:Work
         rdf:about=""><dc:format>image/svg+xml</dc:format><dc:type
           rdf:resource="http://purl.org/dc/dcmitype/StillImage" /><dc:title></dc:title></cc:Work></rdf:RDF></metadata><defs
     id="defs4140"><clipPath
       clipPathUnits="userSpaceOnUse"
       id="clipPath4150"><path
         d="M 1.2547e-5,0 842.04001,0 l 0,467.76 -842.039997453,0 0,-467.76 z"
         id="path4152"
         inkscape:connector-curvature="0"
         style="clip-rule:evenodd" /></clipPath><clipPath
       clipPathUnits="userSpaceOnUse"
       id="clipPath4164"><path
         d="m 165.96,83.16 653.64,0 0,330.36 -653.64,0 0,-330.36 z"
         id="path4166"
         inkscape:connector-curvature="0"
         style="clip-rule:evenodd" /></clipPath><clipPath
       clipPathUnits="userSpaceOnUse"
       id="clipPath4176"><path
         d="m 165.96,83.16 653.64,0 0,330.36 -653.64,0 0,-330.36 z"
         id="path4178"
         inkscape:connector-curvature="0"
         style="clip-rule:evenodd" /></clipPath><clipPath
       clipPathUnits="userSpaceOnUse"
       id="clipPath4188"><path
         d="m 746.76,94.8 90.36,0 0,24 -90.36,0 0,-24 z"
         id="path4190"
         inkscape:connector-curvature="0"
         style="clip-rule:evenodd" /></clipPath><clipPath
       clipPathUnits="userSpaceOnUse"
       id="clipPath4200"><path
         d="m 739.2,118.56 102.12,0 0,22.44 -102.12,0 0,-22.44 z"
         id="path4202"
         inkscape:connector-curvature="0"
         style="clip-rule:evenodd" /></clipPath><clipPath
       clipPathUnits="userSpaceOnUse"
       id="clipPath4212"><path
         d="m 739.2,118.56 102.12,0 0,22.44 -102.12,0 0,-22.44 z"
         id="path4214"
         inkscape:connector-curvature="0"
         style="clip-rule:evenodd" /></clipPath><clipPath
       clipPathUnits="userSpaceOnUse"
       id="clipPath4224"><path
         d="m 0.48001,0.48001 841.44,0 0,467.04 -841.44,0 0,-467.04 z"
         id="path4226"
         inkscape:connector-curvature="0"
         style="clip-rule:evenodd" /></clipPath><clipPath
       clipPathUnits="userSpaceOnUse"
       id="clipPath4236"><path
         d="m 0.48001,0.48001 841.44,0 0,467.04 -841.44,0 0,-467.04 z"
         id="path4238"
         inkscape:connector-curvature="0"
         style="clip-rule:evenodd" /></clipPath><clipPath
       clipPathUnits="userSpaceOnUse"
       id="clipPath4248"><path
         d="m 0.48001,0.48001 841.44,0 0,467.04 -841.44,0 0,-467.04 z"
         id="path4250"
         inkscape:connector-curvature="0"
         style="clip-rule:evenodd" /></clipPath><clipPath
       clipPathUnits="userSpaceOnUse"
       id="clipPath4260"><path
         d="m 0.48001,0.48001 841.44,0 0,467.04 -841.44,0 0,-467.04 z"
         id="path4262"
         inkscape:connector-curvature="0"
         style="clip-rule:evenodd" /></clipPath><clipPath
       clipPathUnits="userSpaceOnUse"
       id="clipPath4272"><path
         d="m 748.2,188.28 93,0 0,22.44 -93,0 0,-22.44 z"
         id="path4274"
         inkscape:connector-curvature="0"
         style="clip-rule:evenodd" /></clipPath><clipPath
       clipPathUnits="userSpaceOnUse"
       id="clipPath4284"><path
         d="m 748.2,188.28 93,0 0,22.44 -93,0 0,-22.44 z"
         id="path4286"
         inkscape:connector-curvature="0"
         style="clip-rule:evenodd" /></clipPath><clipPath
       clipPathUnits="userSpaceOnUse"
       id="clipPath4296"><path
         d="m 0.48001,0.48001 841.44,0 0,467.04 -841.44,0 0,-467.04 z"
         id="path4298"
         inkscape:connector-curvature="0"
         style="clip-rule:evenodd" /></clipPath><clipPath
       clipPathUnits="userSpaceOnUse"
       id="clipPath4308"><path
         d="m 0.48001,0.48001 841.44,0 0,467.04 -841.44,0 0,-467.04 z"
         id="path4310"
         inkscape:connector-curvature="0"
         style="clip-rule:evenodd" /></clipPath><clipPath
       clipPathUnits="userSpaceOnUse"
       id="clipPath4320"><path
         d="m 0.48001,0.48001 841.44,0 0,467.04 -841.44,0 0,-467.04 z"
         id="path4322"
         inkscape:connector-curvature="0"
         style="clip-rule:evenodd" /></clipPath><clipPath
       clipPathUnits="userSpaceOnUse"
       id="clipPath4332"><path
         d="m 0.48001,0.48001 841.44,0 0,467.04 -841.44,0 0,-467.04 z"
         id="path4334"
         inkscape:connector-curvature="0"
         style="clip-rule:evenodd" /></clipPath><clipPath
       clipPathUnits="userSpaceOnUse"
       id="clipPath4344"><path
         d="m 0.48001,0.48001 841.44,0 0,467.04 -841.44,0 0,-467.04 z"
         id="path4346"
         inkscape:connector-curvature="0"
         style="clip-rule:evenodd" /></clipPath><clipPath
       clipPathUnits="userSpaceOnUse"
       id="clipPath4356"><path
         d="m 0.48001,0.48001 841.44,0 0,467.04 -841.44,0 0,-467.04 z"
         id="path4358"
         inkscape:connector-curvature="0"
         style="clip-rule:evenodd" /></clipPath><clipPath
       clipPathUnits="userSpaceOnUse"
       id="clipPath4368"><path
         d="m 0.48001,0.48001 841.44,0 0,467.04 -841.44,0 0,-467.04 z"
         id="path4370"
         inkscape:connector-curvature="0"
         style="clip-rule:evenodd" /></clipPath><clipPath
       clipPathUnits="userSpaceOnUse"
       id="clipPath4380"><path
         d="m 0.48001,0.48001 841.44,0 0,467.04 -841.44,0 0,-467.04 z"
         id="path4382"
         inkscape:connector-curvature="0"
         style="clip-rule:evenodd" /></clipPath><clipPath
       clipPathUnits="userSpaceOnUse"
       id="clipPath4392"><path
         d="m 0.48001,0.48001 841.44,0 0,467.04 -841.44,0 0,-467.04 z"
         id="path4394"
         inkscape:connector-curvature="0"
         style="clip-rule:evenodd" /></clipPath><clipPath
       clipPathUnits="userSpaceOnUse"
       id="clipPath4404"><path
         d="m 0.48001,0.48001 841.44,0 0,467.04 -841.44,0 0,-467.04 z"
         id="path4406"
         inkscape:connector-curvature="0"
         style="clip-rule:evenodd" /></clipPath><clipPath
       clipPathUnits="userSpaceOnUse"
       id="clipPath4416"><path
         d="m 0.48001,0.48001 841.44,0 0,467.04 -841.44,0 0,-467.04 z"
         id="path4418"
         inkscape:connector-curvature="0"
         style="clip-rule:evenodd" /></clipPath><clipPath
       clipPathUnits="userSpaceOnUse"
       id="clipPath4428"><path
         d="m 0.48001,0.48001 841.44,0 0,467.04 -841.44,0 0,-467.04 z"
         id="path4430"
         inkscape:connector-curvature="0"
         style="clip-rule:evenodd" /></clipPath><clipPath
       clipPathUnits="userSpaceOnUse"
       id="clipPath4440"><path
         d="m 0.48001,0.48001 841.44,0 0,467.04 -841.44,0 0,-467.04 z"
         id="path4442"
         inkscape:connector-curvature="0"
         style="clip-rule:evenodd" /></clipPath><clipPath
       clipPathUnits="userSpaceOnUse"
       id="clipPath4452"><path
         d="m 0.48001,0.48001 841.44,0 0,467.04 -841.44,0 0,-467.04 z"
         id="path4454"
         inkscape:connector-curvature="0"
         style="clip-rule:evenodd" /></clipPath><clipPath
       clipPathUnits="userSpaceOnUse"
       id="clipPath4464"><path
         d="m 0.48001,0.48001 841.44,0 0,467.04 -841.44,0 0,-467.04 z"
         id="path4466"
         inkscape:connector-curvature="0"
         style="clip-rule:evenodd" /></clipPath><clipPath
       clipPathUnits="userSpaceOnUse"
       id="clipPath4476"><path
         d="m 0.48001,0.48001 841.44,0 0,467.04 -841.44,0 0,-467.04 z"
         id="path4478"
         inkscape:connector-curvature="0"
         style="clip-rule:evenodd" /></clipPath><clipPath
       clipPathUnits="userSpaceOnUse"
       id="clipPath4488"><path
         d="m 0.48001,0.48001 841.44,0 0,467.04 -841.44,0 0,-467.04 z"
         id="path4490"
         inkscape:connector-curvature="0"
         style="clip-rule:evenodd" /></clipPath><clipPath
       clipPathUnits="userSpaceOnUse"
       id="clipPath4500"><path
         d="m 0.48001,0.48001 841.44,0 0,467.04 -841.44,0 0,-467.04 z"
         id="path4502"
         inkscape:connector-curvature="0"
         style="clip-rule:evenodd" /></clipPath><clipPath
       clipPathUnits="userSpaceOnUse"
       id="clipPath4512"><path
         d="m 0.48001,0.48001 841.44,0 0,467.04 -841.44,0 0,-467.04 z"
         id="path4514"
         inkscape:connector-curvature="0"
         style="clip-rule:evenodd" /></clipPath><clipPath
       clipPathUnits="userSpaceOnUse"
       id="clipPath4524"><path
         d="m 0.48001,0.48001 841.44,0 0,467.04 -841.44,0 0,-467.04 z"
         id="path4526"
         inkscape:connector-curvature="0"
         style="clip-rule:evenodd" /></clipPath><clipPath
       clipPathUnits="userSpaceOnUse"
       id="clipPath4536"><path
         d="m 0.48001,0.48001 841.44,0 0,467.04 -841.44,0 0,-467.04 z"
         id="path4538"
         inkscape:connector-curvature="0"
         style="clip-rule:evenodd" /></clipPath><clipPath
       clipPathUnits="userSpaceOnUse"
       id="clipPath4548"><path
         d="m 0.48001,0.48001 841.44,0 0,467.04 -841.44,0 0,-467.04 z"
         id="path4550"
         inkscape:connector-curvature="0"
         style="clip-rule:evenodd" /></clipPath><clipPath
       clipPathUnits="userSpaceOnUse"
       id="clipPath4560"><path
         d="m 0.48001,0.48001 841.44,0 0,467.04 -841.44,0 0,-467.04 z"
         id="path4562"
         inkscape:connector-curvature="0"
         style="clip-rule:evenodd" /></clipPath><clipPath
       clipPathUnits="userSpaceOnUse"
       id="clipPath4572"><path
         d="m 0.48001,0.48001 841.44,0 0,467.04 -841.44,0 0,-467.04 z"
         id="path4574"
         inkscape:connector-curvature="0"
         style="clip-rule:evenodd" /></clipPath><clipPath
       clipPathUnits="userSpaceOnUse"
       id="clipPath4584"><path
         d="m 0.48001,0.48001 841.44,0 0,467.04 -841.44,0 0,-467.04 z"
         id="path4586"
         inkscape:connector-curvature="0"
         style="clip-rule:evenodd" /></clipPath><clipPath
       clipPathUnits="userSpaceOnUse"
       id="clipPath4596"><path
         d="m 0.48001,0.48001 841.44,0 0,467.04 -841.44,0 0,-467.04 z"
         id="path4598"
         inkscape:connector-curvature="0"
         style="clip-rule:evenodd" /></clipPath><clipPath
       clipPathUnits="userSpaceOnUse"
       id="clipPath4608"><path
         d="m 0.48001,0.48001 841.44,0 0,467.04 -841.44,0 0,-467.04 z"
         id="path4610"
         inkscape:connector-curvature="0"
         style="clip-rule:evenodd" /></clipPath><clipPath
       clipPathUnits="userSpaceOnUse"
       id="clipPath4620"><path
         d="m 0.48001,0.48001 841.44,0 0,467.04 -841.44,0 0,-467.04 z"
         id="path4622"
         inkscape:connector-curvature="0"
         style="clip-rule:evenodd" /></clipPath><clipPath
       clipPathUnits="userSpaceOnUse"
       id="clipPath4632"><path
         d="m 0.48001,0.48001 841.44,0 0,467.04 -841.44,0 0,-467.04 z"
         id="path4634"
         inkscape:connector-curvature="0"
         style="clip-rule:evenodd" /></clipPath><clipPath
       clipPathUnits="userSpaceOnUse"
       id="clipPath4644"><path
         d="m 0.48001,0.48001 841.44,0 0,467.04 -841.44,0 0,-467.04 z"
         id="path4646"
         inkscape:connector-curvature="0"
         style="clip-rule:evenodd" /></clipPath><clipPath
       clipPathUnits="userSpaceOnUse"
       id="clipPath4656"><path
         d="m 0.48001,0.48001 841.44,0 0,467.04 -841.44,0 0,-467.04 z"
         id="path4658"
         inkscape:connector-curvature="0"
         style="clip-rule:evenodd" /></clipPath><clipPath
       clipPathUnits="userSpaceOnUse"
       id="clipPath4668"><path
         d="m 0.48001,0.48001 841.44,0 0,467.04 -841.44,0 0,-467.04 z"
         id="path4670"
         inkscape:connector-curvature="0"
         style="clip-rule:evenodd" /></clipPath><clipPath
       clipPathUnits="userSpaceOnUse"
       id="clipPath4680"><path
         d="m 0.48001,0.48001 841.44,0 0,467.04 -841.44,0 0,-467.04 z"
         id="path4682"
         inkscape:connector-curvature="0"
         style="clip-rule:evenodd" /></clipPath><clipPath
       clipPathUnits="userSpaceOnUse"
       id="clipPath4692"><path
         d="m 0.48001,0.48001 841.44,0 0,467.04 -841.44,0 0,-467.04 z"
         id="path4694"
         inkscape:connector-curvature="0"
         style="clip-rule:evenodd" /></clipPath><clipPath
       clipPathUnits="userSpaceOnUse"
       id="clipPath4708"><path
         d="m 0.48001,0.48001 841.44,0 0,467.04 -841.44,0 0,-467.04 z"
         id="path4710"
         inkscape:connector-curvature="0"
         style="clip-rule:evenodd" /></clipPath><clipPath
       clipPathUnits="userSpaceOnUse"
       id="clipPath4724"><path
         d="m 0.48001,0.48001 841.44,0 0,467.04 -841.44,0 0,-467.04 z"
         id="path4726"
         inkscape:connector-curvature="0"
         style="clip-rule:evenodd" /></clipPath><clipPath
       clipPathUnits="userSpaceOnUse"
       id="clipPath4736"><path
         d="M -2.1e-8,1.2207e-4 842.04,1.2207e-4 842.04,467.76012 -2.1e-8,467.76012 l 0,-467.75999793 z"
         id="path4738"
         inkscape:connector-curvature="0"
         style="clip-rule:evenodd" /></clipPath></defs><sodipodi:namedview
     pagecolor="#ffffff"
     bordercolor="#666666"
     borderopacity="1"
     objecttolerance="10"
     gridtolerance="10"
     guidetolerance="10"
     inkscape:pageopacity="0"
     inkscape:pageshadow="2"
     inkscape:window-width="1920"
     inkscape:window-height="1017"
     id="namedview4138"
     showgrid="false"
     inkscape:zoom="1.3776067"
     inkscape:cx="526.27502"
     inkscape:cy="350.42173"
     inkscape:window-x="1912"
     inkscape:window-y="-8"
     inkscape:window-maximized="1"
     inkscape:current-layer="g4144" /><g
     id="g4144"
     inkscape:groupmode="layer"
     inkscape:label="graph1"
     transform="matrix(1.25,0,0,-1.25,0,584.7)"><g
       id="g4146"><g
         id="g4148"
         clip-path="url(#clipPath4150)" /></g><path
       d="m 0.5,0.36029 841.5,0 0,467.05 -841.5,0 0,-467.05 z"
       style="fill:#ffffff;fill-opacity:1;fill-rule:evenodd;stroke:none"
       id="path4154"
       inkscape:connector-curvature="0" /><path
       d="m 296.64,413.42 0,-329.593 m 130.56,329.593 0,-329.593 m 130.56,329.593 0,-329.593 m 130.56,329.593 0,-329.593 m 130.64,329.593 0,-329.593"
       style="fill:none;stroke:#d9d9d9;stroke-width:0.75;stroke-linecap:butt;stroke-linejoin:round;stroke-miterlimit:10;stroke-dasharray:none;stroke-opacity:1"
       id="path4156"
       inkscape:connector-curvature="0" /><path
       d="m 192.12,87.48 -26.12,0 0,18.12 26.12,0 0,-18.12 z m 52.2,25.32 -78.32,0 0,18.12 78.32,0 0,-18.12 z m -26.04,25.32 -52.28,0 0,18.12 52.28,0 0,-18.12 z m 0,25.44 -52.28,0 0,18 52.28,0 0,-18 z m 0,25.32 -52.28,0 0,18.12 52.28,0 0,-18.12 z m 0,25.32 -52.28,0 0,18.12 52.28,0 0,-18.12 z m 52.2,25.32 -104.48,0 0,18.12 104.48,0 0,-18.12 z m 26.16,50.76 -130.64,0 0,18.12 130.64,0 0,-18.12 z m -26.16,25.32 -104.48,0 0,18.12 104.48,0 0,-18.12 z m 52.2,25.44 -156.68,0 0,18 156.68,0 0,-18 z m -26.04,25.32 -130.64,0 0,18.12 130.64,0 0,-18.12 z m 287.28,25.32 -417.92,0 0,18.12 417.92,0 0,-18.12 z"
       style="fill:#5b9bd5;fill-opacity:1;fill-rule:nonzero;stroke:none"
       id="path4158"
       inkscape:connector-curvature="0" /><g
       id="g4160"><g
         id="g4162"
         clip-path="url(#clipPath4164)"><path
           d="m 192.12,87.48 -26.12,0 0,18.12 26.12,0 0,-18.12 z m 52.2,25.32 -78.32,0 0,18.12 78.32,0 0,-18.12 z m -26.04,25.32 -52.28,0 0,18.12 52.28,0 0,-18.12 z m 0,25.44 -52.28,0 0,18 52.28,0 0,-18 z m 0,25.32 -52.28,0 0,18.12 52.28,0 0,-18.12 z m 0,25.32 -52.28,0 0,18.12 52.28,0 0,-18.12 z m 52.2,25.32 -104.48,0 0,18.12 104.48,0 0,-18.12 z m 26.16,50.76 -130.64,0 0,18.12 130.64,0 0,-18.12 z m -26.16,25.32 -104.48,0 0,18.12 104.48,0 0,-18.12 z m 52.2,25.44 -156.68,0 0,18 156.68,0 0,-18 z m -26.04,25.32 -130.64,0 0,18.12 130.64,0 0,-18.12 z m 287.28,25.32 -417.92,0 0,18.12 417.92,0 0,-18.12 z"
           style="fill:none;stroke:#5b9bd5;stroke-width:0.75;stroke-linecap:butt;stroke-linejoin:round;stroke-miterlimit:10;stroke-dasharray:none;stroke-opacity:1"
           id="path4168"
           inkscape:connector-curvature="0" /></g></g><path
       d="m 244.32,138.12 -26.04,0 0,18.12 26.04,0 0,-18.12 z m 0,25.44 -26.04,0 0,18 26.04,0 0,-18 z m 26.16,25.32 -52.2,0 0,18.12 52.2,0 0,-18.12 z m 0,25.32 -52.2,0 0,18.12 52.2,0 0,-18.12 z m 52.2,25.32 -52.2,0 0,18.12 52.2,0 0,-18.12 z m -26.04,25.44 -130.64,0 0,18.12 130.64,0 0,-18.12 z m 78.36,25.32 -78.36,0 0,18.12 78.36,0 0,-18.12 z m 26.04,25.32 -130.56,0 0,18.12 130.56,0 0,-18.12 z m 130.56,25.44 -208.92,0 0,18 208.92,0 0,-18 z m 26.16,25.32 -261.12,0 0,18.12 261.12,0 0,-18.12 z m 182.88,25.32 -156.72,0 0,18.12 156.72,0 0,-18.12 z"
       style="fill:#ffffff;fill-opacity:1;fill-rule:nonzero;stroke:none"
       id="path4170"
       inkscape:connector-curvature="0" /><g
       id="g4172"><g
         id="g4174"
         clip-path="url(#clipPath4176)"><path
           d="m 244.32,138.12 -26.04,0 0,18.12 26.04,0 0,-18.12 z m 0,25.44 -26.04,0 0,18 26.04,0 0,-18 z m 26.16,25.32 -52.2,0 0,18.12 52.2,0 0,-18.12 z m 0,25.32 -52.2,0 0,18.12 52.2,0 0,-18.12 z m 52.2,25.32 -52.2,0 0,18.12 52.2,0 0,-18.12 z m -26.04,25.44 -130.64,0 0,18.12 130.64,0 0,-18.12 z m 78.36,25.32 -78.36,0 0,18.12 78.36,0 0,-18.12 z m 26.04,25.32 -130.56,0 0,18.12 130.56,0 0,-18.12 z m 130.56,25.44 -208.92,0 0,18 208.92,0 0,-18 z m 26.16,25.32 -261.12,0 0,18.12 261.12,0 0,-18.12 z m 182.88,25.32 -156.72,0 0,18.12 156.72,0 0,-18.12 z"
           style="fill:none;stroke:#5b9bd5;stroke-width:0.75;stroke-linecap:butt;stroke-linejoin:round;stroke-miterlimit:10;stroke-dasharray:none;stroke-opacity:1"
           id="path4180"
           inkscape:connector-curvature="0" /></g></g><path
       d="m 166,83.827 0,329.593"
       style="fill:none;stroke:#d9d9d9;stroke-width:0.75;stroke-linecap:butt;stroke-linejoin:round;stroke-miterlimit:10;stroke-dasharray:none;stroke-opacity:1"
       id="path4182"
       inkscape:connector-curvature="0" /><g
       id="g4184"><g
         id="g4186"
         clip-path="url(#clipPath4188)"><text
           transform="matrix(1,0,0,-1,765.22,102.62)"
           style="font-variant:normal;font-weight:normal;font-size:12px;font-family:Calibri;-inkscape-font-specification:Calibri;writing-mode:lr-tb;fill:#595959;fill-opacity:1;fill-rule:nonzero;stroke:none"
           id="text4192"><tspan
             x="0 6.0840001 10.788 16.872 19.548 23.184 29.268 35.352001 41.495998 50.015999"
             y="0"
             sodipodi:role="line"
             id="tspan4194">1/1 (100%)</tspan></text>
</g></g><g
       id="g4196"><g
         id="g4198"
         clip-path="url(#clipPath4200)"><text
           transform="matrix(1,0,0,-1,763.61,125.62)"
           style="font-variant:normal;font-weight:normal;font-size:12px;font-family:Calibri;-inkscape-font-specification:Calibri;writing-mode:lr-tb;fill:#595959;fill-opacity:1;fill-rule:nonzero;stroke:none"
           id="text4204"><tspan
             x="0"
             y="0"
             id="tspan4206">3</tspan></text>
</g></g><g
       id="g4208"><g
         id="g4210"
         clip-path="url(#clipPath4212)"><text
           transform="matrix(1,0,0,-1,769.73,125.62)"
           style="font-variant:normal;font-weight:normal;font-size:12px;font-family:Calibri;-inkscape-font-specification:Calibri;writing-mode:lr-tb;fill:#595959;fill-opacity:1;fill-rule:nonzero;stroke:none"
           id="text4216"><tspan
             x="0 4.6680002 10.752 13.428 17.063999 23.148001 29.232 35.375999 43.896"
             y="0"
             sodipodi:role="line"
             id="tspan4218">/2 (100%)</tspan></text>
</g></g><g
       id="g4220"><g
         id="g4222"
         clip-path="url(#clipPath4224)"><text
           transform="matrix(1,0,0,-1,768.12,149.38)"
           style="font-variant:normal;font-weight:normal;font-size:12px;font-family:Calibri;-inkscape-font-specification:Calibri;writing-mode:lr-tb;fill:#595959;fill-opacity:1;fill-rule:nonzero;stroke:none"
           id="text4228"><tspan
             x="0"
             y="0"
             id="tspan4230">2</tspan></text>
</g></g><g
       id="g4232"><g
         id="g4234"
         clip-path="url(#clipPath4236)"><text
           transform="matrix(1,0,0,-1,774.26,149.38)"
           style="font-variant:normal;font-weight:normal;font-size:12px;font-family:Calibri;-inkscape-font-specification:Calibri;writing-mode:lr-tb;fill:#595959;fill-opacity:1;fill-rule:nonzero;stroke:none"
           id="text4240"><tspan
             x="0 4.6680002 10.752 16.176001 19.812 25.896 31.98 40.560001"
             y="0"
             sodipodi:role="line"
             id="tspan4242">/3 (67%)</tspan></text>
</g></g><g
       id="g4244"><g
         id="g4246"
         clip-path="url(#clipPath4248)"><text
           transform="matrix(1,0,0,-1,771.55,169.99)"
           style="font-variant:normal;font-weight:normal;font-size:12px;font-family:Calibri;-inkscape-font-specification:Calibri;writing-mode:lr-tb;fill:#595959;fill-opacity:1;fill-rule:nonzero;stroke:none"
           id="text4252"><tspan
             x="0"
             y="0"
             id="tspan4254">2</tspan></text>
</g></g><g
       id="g4256"><g
         id="g4258"
         clip-path="url(#clipPath4260)"><text
           transform="matrix(1,0,0,-1,777.67,169.99)"
           style="font-variant:normal;font-weight:normal;font-size:12px;font-family:Calibri;-inkscape-font-specification:Calibri;writing-mode:lr-tb;fill:#595959;fill-opacity:1;fill-rule:nonzero;stroke:none"
           id="text4264"><tspan
             x="0 4.6680002 10.752 13.428 17.063999 23.148001 29.232 37.812"
             y="0"
             sodipodi:role="line"
             id="tspan4266">/3 (67%)</tspan></text>
</g></g><g
       id="g4268"><g
         id="g4270"
         clip-path="url(#clipPath4272)"><text
           transform="matrix(1,0,0,-1,771.1,195.36)"
           style="font-variant:normal;font-weight:normal;font-size:12px;font-family:Calibri;-inkscape-font-specification:Calibri;writing-mode:lr-tb;fill:#595959;fill-opacity:1;fill-rule:nonzero;stroke:none"
           id="text4276"><tspan
             x="0"
             y="0"
             id="tspan4278">2</tspan></text>
</g></g><g
       id="g4280"><g
         id="g4282"
         clip-path="url(#clipPath4284)"><text
           transform="matrix(1,0,0,-1,777.22,195.36)"
           style="font-variant:normal;font-weight:normal;font-size:12px;font-family:Calibri;-inkscape-font-specification:Calibri;writing-mode:lr-tb;fill:#595959;fill-opacity:1;fill-rule:nonzero;stroke:none"
           id="text4288"><tspan
             x="0 4.6680002 10.752 13.428 17.063999 23.148001 29.232 37.812"
             y="0"
             sodipodi:role="line"
             id="tspan4290">/4 (50%)</tspan></text>
</g></g><g
       id="g4292"><g
         id="g4294"
         clip-path="url(#clipPath4296)"><text
           transform="matrix(1,0,0,-1,769.92,222.29)"
           style="font-variant:normal;font-weight:normal;font-size:12px;font-family:Calibri;-inkscape-font-specification:Calibri;writing-mode:lr-tb;fill:#595959;fill-opacity:1;fill-rule:nonzero;stroke:none"
           id="text4300"><tspan
             x="0"
             y="0"
             id="tspan4302">2</tspan></text>
</g></g><g
       id="g4304"><g
         id="g4306"
         clip-path="url(#clipPath4308)"><text
           transform="matrix(1,0,0,-1,776.04,222.29)"
           style="font-variant:normal;font-weight:normal;font-size:12px;font-family:Calibri;-inkscape-font-specification:Calibri;writing-mode:lr-tb;fill:#595959;fill-opacity:1;fill-rule:nonzero;stroke:none"
           id="text4312"><tspan
             x="0 4.6680002 10.752 13.428 17.063999 23.148001 29.232 37.812"
             y="0"
             sodipodi:role="line"
             id="tspan4314">/4 (50%)</tspan></text>
</g></g><g
       id="g4316"><g
         id="g4318"
         clip-path="url(#clipPath4320)"><text
           transform="matrix(1,0,0,-1,771.94,246.07)"
           style="font-variant:normal;font-weight:normal;font-size:12px;font-family:Calibri;-inkscape-font-specification:Calibri;writing-mode:lr-tb;fill:#595959;fill-opacity:1;fill-rule:nonzero;stroke:none"
           id="text4324"><tspan
             x="0"
             y="0"
             id="tspan4326">4</tspan></text>
</g></g><g
       id="g4328"><g
         id="g4330"
         clip-path="url(#clipPath4332)"><text
           transform="matrix(1,0,0,-1,778.06,246.07)"
           style="font-variant:normal;font-weight:normal;font-size:12px;font-family:Calibri;-inkscape-font-specification:Calibri;writing-mode:lr-tb;fill:#595959;fill-opacity:1;fill-rule:nonzero;stroke:none"
           id="text4336"><tspan
             x="0 4.6680002 10.752 13.428 17.063999 23.148001 29.232 37.812"
             y="0"
             sodipodi:role="line"
             id="tspan4338">/6 (67%)</tspan></text>
</g></g><g
       id="g4340"><g
         id="g4342"
         clip-path="url(#clipPath4344)"><text
           transform="matrix(1,0,0,-1,771.46,299.95)"
           style="font-variant:normal;font-weight:normal;font-size:12px;font-family:Calibri;-inkscape-font-specification:Calibri;writing-mode:lr-tb;fill:#595959;fill-opacity:1;fill-rule:nonzero;stroke:none"
           id="text4348"><tspan
             x="0"
             y="0"
             id="tspan4350">5</tspan></text>
</g></g><g
       id="g4352"><g
         id="g4354"
         clip-path="url(#clipPath4356)"><text
           transform="matrix(1,0,0,-1,777.58,299.95)"
           style="font-variant:normal;font-weight:normal;font-size:12px;font-family:Calibri;-inkscape-font-specification:Calibri;writing-mode:lr-tb;fill:#595959;fill-opacity:1;fill-rule:nonzero;stroke:none"
           id="text4360"><tspan
             x="0 4.6680002 10.752 13.428 17.063999 23.148001 29.232 37.812"
             y="0"
             sodipodi:role="line"
             id="tspan4362">/8 (62%)</tspan></text>
</g></g><g
       id="g4364"><g
         id="g4366"
         clip-path="url(#clipPath4368)"><text
           transform="matrix(1,0,0,-1,771.72,326.9)"
           style="font-variant:normal;font-weight:normal;font-size:12px;font-family:Calibri;-inkscape-font-specification:Calibri;writing-mode:lr-tb;fill:#595959;fill-opacity:1;fill-rule:nonzero;stroke:none"
           id="text4372"><tspan
             x="0"
             y="0"
             id="tspan4374">4</tspan></text>
</g></g><g
       id="g4376"><g
         id="g4378"
         clip-path="url(#clipPath4380)"><text
           transform="matrix(1,0,0,-1,777.84,326.9)"
           style="font-variant:normal;font-weight:normal;font-size:12px;font-family:Calibri;-inkscape-font-specification:Calibri;writing-mode:lr-tb;fill:#595959;fill-opacity:1;fill-rule:nonzero;stroke:none"
           id="text4384"><tspan
             x="0 4.6680002 10.752 13.428 17.063999 23.148001 29.232 37.812"
             y="0"
             sodipodi:role="line"
             id="tspan4386">/9 (44%)</tspan></text>
</g></g><g
       id="g4388"><g
         id="g4390"
         clip-path="url(#clipPath4392)"><text
           transform="matrix(1,0,0,-1,763.18,350.69)"
           style="font-variant:normal;font-weight:normal;font-size:12px;font-family:Calibri;-inkscape-font-specification:Calibri;writing-mode:lr-tb;fill:#595959;fill-opacity:1;fill-rule:nonzero;stroke:none"
           id="text4396"><tspan
             x="0"
             y="0"
             id="tspan4398">6</tspan></text>
</g></g><g
       id="g4400"><g
         id="g4402"
         clip-path="url(#clipPath4404)"><text
           transform="matrix(1,0,0,-1,769.3,350.69)"
           style="font-variant:normal;font-weight:normal;font-size:12px;font-family:Calibri;-inkscape-font-specification:Calibri;writing-mode:lr-tb;fill:#595959;fill-opacity:1;fill-rule:nonzero;stroke:none"
           id="text4408"><tspan
             x="0 4.6680002 10.752 16.896 19.416 23.052 29.136 35.220001 43.799999"
             y="0"
             sodipodi:role="line"
             id="tspan4410">/14 (43%)</tspan></text>
</g></g><g
       id="g4412"><g
         id="g4414"
         clip-path="url(#clipPath4416)"><text
           transform="matrix(1,0,0,-1,761.81,374.59)"
           style="font-variant:normal;font-weight:normal;font-size:12px;font-family:Calibri;-inkscape-font-specification:Calibri;writing-mode:lr-tb;fill:#595959;fill-opacity:1;fill-rule:nonzero;stroke:none"
           id="text4420"><tspan
             x="0"
             y="0"
             id="tspan4422">5</tspan></text>
</g></g><g
       id="g4424"><g
         id="g4426"
         clip-path="url(#clipPath4428)"><text
           transform="matrix(1,0,0,-1,767.93,374.59)"
           style="font-variant:normal;font-weight:normal;font-size:12px;font-family:Calibri;-inkscape-font-specification:Calibri;writing-mode:lr-tb;fill:#595959;fill-opacity:1;fill-rule:nonzero;stroke:none"
           id="text4432"><tspan
             x="0 4.6680002 10.752 16.896 19.416 23.052 29.136 35.220001 43.799999"
             y="0"
             sodipodi:role="line"
             id="tspan4434">/15 (33%)</tspan></text>
</g></g><g
       id="g4436"><g
         id="g4438"
         clip-path="url(#clipPath4440)"><text
           transform="matrix(1,0,0,-1,756.24,396.65)"
           style="font-variant:normal;font-weight:normal;font-size:12px;font-family:Calibri;-inkscape-font-specification:Calibri;writing-mode:lr-tb;fill:#595959;fill-opacity:1;fill-rule:nonzero;stroke:none"
           id="text4444"><tspan
             x="0 6.1199999"
             y="0"
             sodipodi:role="line"
             id="tspan4446">16</tspan></text>
</g></g><g
       id="g4448"><g
         id="g4450"
         clip-path="url(#clipPath4452)"><text
           transform="matrix(1,0,0,-1,768.48,396.65)"
           style="font-variant:normal;font-weight:normal;font-size:12px;font-family:Calibri;-inkscape-font-specification:Calibri;writing-mode:lr-tb;fill:#595959;fill-opacity:1;fill-rule:nonzero;stroke:none"
           id="text4456"><tspan
             x="0 4.6680002 10.752 16.896 19.416 23.052 29.136 35.220001 37.896 46.416"
             y="0"
             sodipodi:role="line"
             id="tspan4458">/22 (73 %)</tspan></text>
</g></g><g
       id="g4460"><g
         id="g4462"
         clip-path="url(#clipPath4464)"><text
           transform="matrix(1,0,0,-1,162.98,64.704)"
           style="font-variant:normal;font-weight:normal;font-size:12px;font-family:Calibri;-inkscape-font-specification:Calibri;writing-mode:lr-tb;fill:#595959;fill-opacity:1;fill-rule:nonzero;stroke:none"
           id="text4468"><tspan
             x="0"
             y="0"
             id="tspan4470">0</tspan></text>
</g></g><g
       id="g4472"><g
         id="g4474"
         clip-path="url(#clipPath4476)"><text
           transform="matrix(1,0,0,-1,293.59,64.704)"
           style="font-variant:normal;font-weight:normal;font-size:12px;font-family:Calibri;-inkscape-font-specification:Calibri;writing-mode:lr-tb;fill:#595959;fill-opacity:1;fill-rule:nonzero;stroke:none"
           id="text4480"><tspan
             x="0"
             y="0"
             id="tspan4482">5</tspan></text>
</g></g><g
       id="g4484"><g
         id="g4486"
         clip-path="url(#clipPath4488)"><text
           transform="matrix(1,0,0,-1,421.15,64.704)"
           style="font-variant:normal;font-weight:normal;font-size:12px;font-family:Calibri;-inkscape-font-specification:Calibri;writing-mode:lr-tb;fill:#595959;fill-opacity:1;fill-rule:nonzero;stroke:none"
           id="text4492"><tspan
             x="0 6.1199999"
             y="0"
             sodipodi:role="line"
             id="tspan4494">10</tspan></text>
</g></g><g
       id="g4496"><g
         id="g4498"
         clip-path="url(#clipPath4500)"><text
           transform="matrix(1,0,0,-1,551.78,64.704)"
           style="font-variant:normal;font-weight:normal;font-size:12px;font-family:Calibri;-inkscape-font-specification:Calibri;writing-mode:lr-tb;fill:#595959;fill-opacity:1;fill-rule:nonzero;stroke:none"
           id="text4504"><tspan
             x="0 6.1199999"
             y="0"
             sodipodi:role="line"
             id="tspan4506">15</tspan></text>
</g></g><g
       id="g4508"><g
         id="g4510"
         clip-path="url(#clipPath4512)"><text
           transform="matrix(1,0,0,-1,682.39,64.704)"
           style="font-variant:normal;font-weight:normal;font-size:12px;font-family:Calibri;-inkscape-font-specification:Calibri;writing-mode:lr-tb;fill:#595959;fill-opacity:1;fill-rule:nonzero;stroke:none"
           id="text4516"><tspan
             x="0 6.1199999"
             y="0"
             sodipodi:role="line"
             id="tspan4518">20</tspan></text>
</g></g><g
       id="g4520"><g
         id="g4522"
         clip-path="url(#clipPath4524)"><text
           transform="matrix(1,0,0,-1,813,64.704)"
           style="font-variant:normal;font-weight:normal;font-size:12px;font-family:Calibri;-inkscape-font-specification:Calibri;writing-mode:lr-tb;fill:#595959;fill-opacity:1;fill-rule:nonzero;stroke:none"
           id="text4528"><tspan
             x="0 6.1199999"
             y="0"
             sodipodi:role="line"
             id="tspan4530">25</tspan></text>
</g></g><g
       id="g4532"><g
         id="g4534"
         clip-path="url(#clipPath4536)"><text
           transform="matrix(1,0,0,-1,85.464,93)"
           style="font-variant:normal;font-weight:normal;font-size:12px;font-family:Calibri;-inkscape-font-specification:Calibri;writing-mode:lr-tb;fill:#595959;fill-opacity:1;fill-rule:nonzero;stroke:none"
           id="text4540"><tspan
             x="0 5.4239998 8.184 13.932 19.68 29.268 33.959999 36.708 42.948002 48.924 51.683998 57.456001 63.695999"
             y="0"
             sodipodi:role="line"
             id="tspan4542">vlaams belang</tspan></text>
</g></g><g
       id="g4544"><g
         id="g4546"
         clip-path="url(#clipPath4548)"><text
           transform="matrix(1,0,0,-1,129.91,118.34)"
           style="font-variant:normal;font-weight:normal;font-size:12px;font-family:Calibri;-inkscape-font-specification:Calibri;writing-mode:lr-tb;fill:#595959;fill-opacity:1;fill-rule:nonzero;stroke:none"
           id="text4552"><tspan
             x="0 5.04 11.388 19.572001"
             y="0"
             sodipodi:role="line"
             id="tspan4554">cd&amp;v</tspan></text>
</g></g><g
       id="g4556"><g
         id="g4558"
         clip-path="url(#clipPath4560)"><text
           transform="matrix(1,0,0,-1,133.73,143.71)"
           style="font-variant:normal;font-weight:normal;font-size:12px;font-family:Calibri;-inkscape-font-specification:Calibri;writing-mode:lr-tb;fill:#595959;fill-opacity:1;fill-rule:nonzero;stroke:none"
           id="text4564"><tspan
             x="0 6.348 9.948 15.372"
             y="0"
             sodipodi:role="line"
             id="tspan4566">n-va</tspan></text>
</g></g><g
       id="g4568"><g
         id="g4570"
         clip-path="url(#clipPath4572)"><text
           transform="matrix(1,0,0,-1,126.46,169.08)"
           style="font-variant:normal;font-weight:normal;font-size:12px;font-family:Calibri;-inkscape-font-specification:Calibri;writing-mode:lr-tb;fill:#595959;fill-opacity:1;fill-rule:nonzero;stroke:none"
           id="text4576"><tspan
             x="0 5.652 9.8400002 16.164 22.08"
             y="0"
             sodipodi:role="line"
             id="tspan4578">groen</tspan></text>
</g></g><g
       id="g4580"><g
         id="g4582"
         clip-path="url(#clipPath4584)"><text
           transform="matrix(1,0,0,-1,135.1,194.42)"
           style="font-variant:normal;font-weight:normal;font-size:12px;font-family:Calibri;-inkscape-font-specification:Calibri;writing-mode:lr-tb;fill:#595959;fill-opacity:1;fill-rule:nonzero;stroke:none"
           id="text4588"><tspan
             x="0 4.6919999 11.028 14.052"
             y="0"
             sodipodi:role="line"
             id="tspan4590">sp.a</tspan></text>
</g></g><g
       id="g4592"><g
         id="g4594"
         clip-path="url(#clipPath4596)"><text
           transform="matrix(1,0,0,-1,138.26,219.79)"
           style="font-variant:normal;font-weight:normal;font-size:12px;font-family:Calibri;-inkscape-font-specification:Calibri;writing-mode:lr-tb;fill:#595959;fill-opacity:1;fill-rule:nonzero;stroke:none"
           id="text4600"><tspan
             x="0 6.348 10.308"
             y="0"
             sodipodi:role="line"
             id="tspan4602">ptb</tspan></text>
</g></g><g
       id="g4604"><g
         id="g4606"
         clip-path="url(#clipPath4608)"><text
           transform="matrix(1,0,0,-1,112.78,245.16)"
           style="font-variant:normal;font-weight:normal;font-size:12px;font-family:Calibri;-inkscape-font-specification:Calibri;writing-mode:lr-tb;fill:#595959;fill-opacity:1;fill-rule:nonzero;stroke:none"
           id="text4612"><tspan
             x="0 6.3239999 12.624 18.6 24.948 27.587999 33.012001 35.771999"
             y="0"
             sodipodi:role="line"
             id="tspan4614">open vld</tspan></text>
</g></g><g
       id="g4616"><g
         id="g4618"
         clip-path="url(#clipPath4620)"><text
           transform="matrix(1,0,0,-1,87.888,270.5)"
           style="font-variant:normal;font-weight:normal;font-size:12px;font-family:Calibri;-inkscape-font-specification:Calibri;writing-mode:lr-tb;fill:#595959;fill-opacity:1;fill-rule:nonzero;stroke:none"
           id="text4624"><tspan
             x="0 2.76 9.1079998 15.348 21.323999 27.587999 33.563999 39.936001 46.175999 51.924 58.284 62.243999"
             y="0"
             sodipodi:role="line"
             id="tspan4626">indépendants</tspan></text>
</g></g><g
       id="g4628"><g
         id="g4630"
         clip-path="url(#clipPath4632)"><text
           transform="matrix(1,0,0,-1,128.42,295.87)"
           style="font-variant:normal;font-weight:normal;font-size:12px;font-family:Calibri;-inkscape-font-specification:Calibri;writing-mode:lr-tb;fill:#595959;fill-opacity:1;fill-rule:nonzero;stroke:none"
           id="text4636"><tspan
             x="0 5.9759998 11.052 17.375999 20.136"
             y="0"
             sodipodi:role="line"
             id="tspan4638">ecolo</tspan></text>
</g></g><g
       id="g4640"><g
         id="g4642"
         clip-path="url(#clipPath4644)"><text
           transform="matrix(1,0,0,-1,137.21,321.24)"
           style="font-variant:normal;font-weight:normal;font-size:12px;font-family:Calibri;-inkscape-font-specification:Calibri;writing-mode:lr-tb;fill:#595959;fill-opacity:1;fill-rule:nonzero;stroke:none"
           id="text4648"><tspan
             x="0 5.04 11.388"
             y="0"
             sodipodi:role="line"
             id="tspan4650">cdh</tspan></text>
</g></g><g
       id="g4652"><g
         id="g4654"
         clip-path="url(#clipPath4656)"><text
           transform="matrix(1,0,0,-1,136.2,346.58)"
           style="font-variant:normal;font-weight:normal;font-size:12px;font-family:Calibri;-inkscape-font-specification:Calibri;writing-mode:lr-tb;fill:#595959;fill-opacity:1;fill-rule:nonzero;stroke:none"
           id="text4660"><tspan
             x="0 6.348 12.228 15.936"
             y="0"
             sodipodi:role="line"
             id="tspan4662">défi</tspan></text>
</g></g><g
       id="g4664"><g
         id="g4666"
         clip-path="url(#clipPath4668)"><text
           transform="matrix(1,0,0,-1,141.12,371.95)"
           style="font-variant:normal;font-weight:normal;font-size:12px;font-family:Calibri;-inkscape-font-specification:Calibri;writing-mode:lr-tb;fill:#595959;fill-opacity:1;fill-rule:nonzero;stroke:none"
           id="text4672"><tspan
             x="0 9.6000004"
             y="0"
             sodipodi:role="line"
             id="tspan4674">mr</tspan></text>
</g></g><g
       id="g4676"><g
         id="g4678"
         clip-path="url(#clipPath4680)"><text
           transform="matrix(1,0,0,-1,143.88,397.32)"
           style="font-variant:normal;font-weight:normal;font-size:12px;font-family:Calibri;-inkscape-font-specification:Calibri;writing-mode:lr-tb;fill:#595959;fill-opacity:1;fill-rule:nonzero;stroke:none"
           id="text4684"><tspan
             x="0 6.3600001"
             y="0"
             sodipodi:role="line"
             id="tspan4686">ps</tspan></text>
</g></g><g
       id="g4688"><g
         id="g4690"
         clip-path="url(#clipPath4692)"><text
           transform="matrix(1,0,0,-1,135.43,439.01)"
           style="font-variant:normal;font-weight:normal;font-size:14.39999962px;font-family:Calibri;-inkscape-font-specification:Calibri;writing-mode:lr-tb;fill:#595959;fill-opacity:1;fill-rule:nonzero;stroke:none"
           id="text4696"><tspan
             x="0 10.296 13.5504 21.110399 28.281601 31.535999 39.096001 45.993599 51.019199 54.3312 61.545601 73.051201 80.222397 87.710403 92.390404 99.2304 102.5712 107.3664 114.5376 120.168 123.3216 130.4064 135.23039 138.4848 149.9904 153.3024 160.8624 164.23199 169.74719 174.5712 179.35201 186.52319 192.15359 195.30721 200.93761 208.5264 213.552 218.23199 225.07201 232.5168 237.34081 242.97121 246.2256 251.856 259.02719 262.28159 267.07681 274.24799 281.80801 286.63199 293.80319 299.43359 306.66241 314.10721 318.7872 325.6272 333.07199 337.896 341.15039 347.9472 351.28799 354.62881 361.46881 364.72321 372.2688 379.44 386.22241 389.53439 397.1232"
             y="0"
             sodipodi:role="line"
             id="tspan4698">% de parlementaires et ministres sortants se représentant à la Région</tspan></text>
</g></g><path
       d="m 391.29,13.316 6.5925,0 0,6.5925 -6.5925,0 0,-6.5925 z"
       style="fill:#5b9bd5;fill-opacity:1;fill-rule:evenodd;stroke:none"
       id="path4700"
       inkscape:connector-curvature="0" /><path
       d="m 391.29,13.316 6.5925,0 0,6.5925 -6.5925,0 0,-6.5925 z"
       style="fill:none;stroke:#5b9bd5;stroke-width:0.75;stroke-linecap:butt;stroke-linejoin:round;stroke-miterlimit:10;stroke-dasharray:none;stroke-opacity:1"
       id="path4702"
       inkscape:connector-curvature="0" /><g
       id="g4704"><g
         id="g4706"
         clip-path="url(#clipPath4708)"><text
           transform="matrix(1,0,0,-1,400.87,13.08)"
           style="font-variant:normal;font-weight:normal;font-size:12px;font-family:Calibri;-inkscape-font-specification:Calibri;writing-mode:lr-tb;fill:#595959;fill-opacity:1;fill-rule:nonzero;stroke:none"
           id="text4712"><tspan
             x="0 7.9439998 14.268"
             y="0"
             sodipodi:role="line"
             id="tspan4714">Oui</tspan></text>
</g></g><path
       d="m 425.73,13.316 6.5925,0 0,6.5925 -6.5925,0 0,-6.5925 z"
       style="fill:#ffffff;fill-opacity:1;fill-rule:evenodd;stroke:none"
       id="path4716"
       inkscape:connector-curvature="0" /><path
       d="m 425.73,13.316 6.5925,0 0,6.5925 -6.5925,0 0,-6.5925 z"
       style="fill:none;stroke:#5b9bd5;stroke-width:0.75;stroke-linecap:butt;stroke-linejoin:round;stroke-miterlimit:10;stroke-dasharray:none;stroke-opacity:1"
       id="path4718"
       inkscape:connector-curvature="0" /><g
       id="g4720"><g
         id="g4722"
         clip-path="url(#clipPath4724)"><text
           transform="matrix(1,0,0,-1,435.31,13.08)"
           style="font-variant:normal;font-weight:normal;font-size:12px;font-family:Calibri;-inkscape-font-specification:Calibri;writing-mode:lr-tb;fill:#595959;fill-opacity:1;fill-rule:nonzero;stroke:none"
           id="text4728"><tspan
             x="0 7.7880001 14.028"
             y="0"
             sodipodi:role="line"
             id="tspan4730">Non</tspan></text>
</g></g><g
       id="g4732"><g
         id="g4734"
         clip-path="url(#clipPath4736)"><path
           d="m 0.5,0.36029 841.5,0 0,467.05 -841.5,0 0,-467.05 z"
           style="fill:none;stroke:#d9d9d9;stroke-width:0.75;stroke-linecap:butt;stroke-linejoin:round;stroke-miterlimit:10;stroke-dasharray:none;stroke-opacity:1"
           id="path4740"
           inkscape:connector-curvature="0" /></g></g></g></svg>